<?xml version="1.0" encoding="utf-8"?>
<!-- Generator: Adobe Illustrator 24.1.2, SVG Export Plug-In . SVG Version: 6.00 Build 0)  -->
<svg version="1.1" id="Layer_1" xmlns="http://www.w3.org/2000/svg" xmlns:xlink="http://www.w3.org/1999/xlink" x="0px" y="0px"
	 viewBox="0 0 512 512" style="enable-background:new 0 0 512 512;" xml:space="preserve">
<style type="text/css">
	.st0{fill:#225F35;}
	.st1{fill:#0A9748;}
	.st2{fill:#23AD4B;}
	.st3{fill:#C32C28;stroke:#772D33;stroke-width:10;stroke-miterlimit:10;}
	.st4{fill:#FCC954;}
	.st5{fill:#592832;}
	.st6{fill:#ECBE6C;}
</style>
<path class="st0" d="M187.4,464.3c-16.1-24.5-20.3-45.2-21.4-58.6c0,0-1.9-24.8,15.6-97.8c0-0.1,0.5-1.9,0.5-1.9l0,0
	c0,0,30.3,0,39.2,0c-6,8.9-13.7,22.1-19.6,39.2c-4.1,12-10.1,29.4-8.9,51.6c1.5,26.4,12.4,45.6,24.9,67.5c8.5,15,17.1,26.4,23.1,34
	C223,486.9,205.2,475.6,187.4,464.3z"/>
<path class="st0" d="M210,199.3c-21.6-29-95.3-0.2-117.6,13.5c-6.2,3.8-20.7,12.8-19.6,22.9c0.3,3.2,2.1,5.6,3.4,7
	c-1.5,1.9-4,4.8-7.6,8c-10.1,8.9-17.1,9.3-20.1,15.6c-1.3,2.8-2.2,7.5,1.1,15.5c-3,1.2-10.8,4.8-15.9,13.4
	c-8.5,14.2-1.8,29.5-1.1,31c-0.4,0.6-8.8,13.5-3.5,24.2c5.4,10.8,23.2,16.2,39.4,7c0.6,2.6,2.6,9.3,8.8,13.7c9.1,6.6,21.5,4,29-0.9
	c8.1-5.3,11-13.4,11.9-16.3c2.2,2.4,5.8,5.5,10.9,6.9c12.2,3.4,23.8-5.6,29.1-9.7c18.9-14.6,26.5-37.1,32.9-58.2
	C208.2,236.5,216.7,208.4,210,199.3z"/>
<path class="st0" d="M254.2,337.1c-8.2,32.5-2.2,64.4,13.5,78.5c8,7.2,17,8.5,23.4,8.2c5.4,27.9,27.6,43,45.9,34.8
	c15.8-7.1,26.1-30.5,22.4-54.6c3.3-2.1,9-6.5,12.5-15c5.8-13.9,3.3-33-6.3-47.8c0.7-7.2,5.2-59.7-11.5-69.7
	c-7.2-4.3-15.5,0.9-21.4,4.8C315.2,287.8,288.4,306.9,254.2,337.1z"/>
<path class="st1" d="M340.8,318.3c-0.4,3.7-3.2,7.6-10.4,11.5c16,22,22.2,34.8,18.7,38.5c-2.1,2.2-7.6,1.2-16.7-3.1
	c2.8,1.9,20.6,14.2,20.8,33.4c0,3.1,0.2,17.5-9.4,21.9c-4.1,1.9-8.5,1.2-11.7,0.1c-1.6,2.6-4,5.2-7.4,6.5c-9.9,3.7-20-6.6-22.1-8.8
	c-13.4-13.7-9.5-35-8.9-38.3c-3.3,9.4-6.5,14.1-9.6,14c-5.1-0.2-9.7-13.7-14-40.5c-7.9,2.4-12.6,1.5-15.5-0.8
	c-11.1-8.8,1.2-43.3,16.7-76.6c0.2-0.3,0.3-0.7,0.5-1c1,0.3,1.9,0.7,2.8,1C309.3,288.5,342.4,304.3,340.8,318.3z"/>
<path class="st1" d="M164.5,313.3c-3.7,0.2-8-1.9-13-8.5c-19.1,19.3-30.9,27.5-35.1,24.6c-2.5-1.7-2.4-7.4,0.4-17
	c-1.4,3.1-10.7,22.6-29.6,25.9c-3.1,0.5-17.3,3-23.1-5.8c-2.5-3.8-2.5-8.2-2-11.5c-2.8-1.2-5.8-3.1-7.6-6.3
	c-5.2-9.2,3.4-20.8,5.2-23.2c11.4-15.4,33-14.9,36.4-14.8c-9.8-1.8-15-4.2-15.4-7.2c-0.6-5,12-11.8,37.8-20.2
	c-3.6-7.4-3.5-12.2-1.7-15.4c6.9-12.3,43-5.7,78.3,4.3c0.3,0.1,0.7,0.2,1.1,0.3c-0.2,1-0.4,2-0.6,3
	C188.9,277.5,178.6,312.7,164.5,313.3z"/>
<path class="st2" d="M73.3,316.2c5.3-6.4,12.6-14.8,22-23.8c17.2-16.4,31.5-25.7,50.3-37.7c40.2-25.7,47.5-23.1,50.2-21
	c2.6,1.9,3.5,5,3.9,7.3c-5.2,2.4-13.3,6.2-23.1,11.3c-34.1,17.5-59.8,34.5-79,47.3C91.8,303.4,83.4,309.1,73.3,316.2z"/>
<path class="st2" d="M328.3,410.1c-1-8.3-2.8-19.2-6-31.9c-5.8-23-13-38.5-22.5-58.7c-20.3-43.1-27.9-44.8-31.3-44.5
	c-3.2,0.3-5.7,2.4-7.2,4.1c3.1,4.8,7.9,12.4,13.5,21.9c19.6,33,32.3,61.1,41.7,82.1C319.5,389.5,323.6,398.8,328.3,410.1z"/>
<path class="st3" d="M286.3,221.5c-47.6,3.6-85.6,27.4-96,61.1c-1.3,4.1-10.7,36.3,8.5,55.6c16.4,16.6,48.4,18.1,76.3,0
	c5,4.1,13.1,9.8,24.3,13.7c9.7,3.4,31.5,11,50-0.7c14.7-9.3,19-25.7,20.2-31.1c12.6-3.4,19.8-8.3,21.5-14.7
	C395.7,288.2,360.8,260.2,286.3,221.5z"/>
<path class="st4" d="M282.6,220.3c-38.2,2.9-68.8,22-77.2,49.1c-1,3.3-8.6,29.2,6.8,44.7c13.2,13.3,38.9,14.5,61.4,0
	c4,3.3,10.6,7.9,19.5,11c7.8,2.7,25.4,8.8,40.2-0.6c11.8-7.5,15.3-20.6,16.2-25c10.1-2.7,15.9-6.7,17.3-11.8
	C370.6,273.9,342.5,251.4,282.6,220.3z"/>
<path class="st5" d="M282.8,212.9c-34.8,2.6-62.6,20-70.2,44.6c-0.9,3-7.8,26.5,6.2,40.7c12,12.1,35.3,13.2,55.8,0
	c3.7,3,9.6,7.2,17.8,10c7.1,2.5,23,8,36.5-0.5c10.8-6.8,13.9-18.8,14.8-22.8c9.2-2.5,14.4-6.1,15.7-10.7
	C362.8,261.7,337.2,241.2,282.8,212.9z"/>
<path class="st3" d="M432.3,118.6c-3.3,6.8-8.9,7.1-24.2,11c-33.8,8.9-35.1,15.1-45.1,14.1c-22,18.3-47.1,22-57.7,23
	c-41.7,4-68.1-13.3-73.4-16.8l0,0c-8.1-0.5-15.8-2.2-22.1-4c-19.4-0.7-35.2-15.9-38.8-35.6c-2.9-15.6,1.7-35.5,11.5-43.1
	c5.3-4.1,8-1.4,14.9-6.5c9.2-6.7,8-14,16.2-23.2c9.4-10.5,21.2-12.4,31.6-14c8.7-1.4,16-0.8,20.9,0c2.6-3.1,7.2-7.5,13.7-9.2
	c15.1-3.9,32.2,9.5,35,24.7c6.2-6.8,14.7-10.6,21.9-8.2c5.3,1.7,5.6,5.4,12.4,8c8.9,3.3,11.6-2,21-1c10.8,1.2,19.1,9.4,26.3,16.6
	c6.1,6.1,10.4,12.2,13.1,16.6c3.1,0.2,8.1,1.2,12.9,5.3C433.4,85.8,437.8,107.4,432.3,118.6z"/>
<path class="st3" d="M315.8,200.2c-4.6-24.9-8.1-43.3-9.7-52c-8.5-45.5-13-68.4-26.6-75.7c-5.1-2.7-14-5.4-29.1-1.2
	c-2.6-1.1-20.8-8.4-39.9,1.2c-20.6,10.3-25,31.5-25.4,33.9c-5.1,1.3-21,6.2-32.7,21.8c-14.9,19.9-11.6,42-10.9,46
	c-10.8,6-17.5,17.3-16.9,29.1c0.6,14.2,11.6,26.7,26.6,29.7c-2.5,2.4-5.2,5.9-5.4,10.3c-0.7,13.4,22.5,23.8,24.8,24.8
	c36,16.1,84.6-7.8,112.6-30.9C299.1,224,309.5,210,315.8,200.2z"/>
<path class="st4" d="M297.5,217.7c0.4-23.4,0.6-40.7,0.8-48.8c0.6-42.7,0.8-64.2-8.4-72.6c-3.4-3.1-9.7-6.8-21.7-4.8
	c-1.8-1.3-14.4-10.4-30.3-4c-17.2,6.8-23.7,25.6-24.4,27.7c-4,0.6-16.8,3-28.1,15.7c-14.3,16.3-15.3,37-15.4,40.7
	c-9.1,4.1-15.9,13.6-17.3,24.4c-1.7,13.1,4.6,25.9,15.5,30.5c-2.2,1.9-4.8,4.7-5.7,8.7c-2.6,12.2,13.3,24.6,14.9,25.9
	c24.6,19.3,65.1,3.7,89.8-13.8C281.2,237.2,291.2,225.8,297.5,217.7z"/>
<path class="st5" d="M298.6,208.5c0-18.6-0.1-32.4-0.1-38.9c-0.1-34-0.3-51.2-8.5-58c-3.1-2.5-8.7-5.5-19.3-4.2
	c-1.6-1.1-12.9-8.5-26.9-3.7c-15.1,5.2-20.6,20-21.2,21.7c-3.5,0.4-14.8,2.1-24.6,12.1c-12.4,12.8-12.9,29.2-13,32.2
	c-8,3.1-13.8,10.6-14.9,19.2c-1.3,10.4,4.5,20.7,14.2,24.6c-2,1.5-4.2,3.7-4.9,6.9c-2.1,9.7,12.1,19.8,13.6,20.8
	c22.1,15.7,57.7,4,79.2-9.6C284.5,223.8,293.2,214.9,298.6,208.5z"/>
<path class="st3" d="M281.8,228.6c22.2,17,38.7,29.5,46.5,35.4c40.7,30.9,61.4,46.3,77.3,42.5c5.9-1.4,14.9-5.6,23.3-19.7
	c2.8-1,22.3-7.9,29.9-29.4c8.2-23.1-4.3-43.4-5.8-45.7c2.9-4.7,11.6-19.9,8.9-41c-3.4-26.8-22.6-42.4-26.1-45.2
	c3.9-12.6,0.5-26.5-8.7-35.7c-11.1-11.1-29-13.5-42.8-5.2c0.1-3.7-0.4-8.5-3.5-12.2c-9.5-11.4-35.2-3.3-37.8-2.5
	c-39.8,12.5-59.5,66.6-63.8,105.3C276.9,197.3,279.3,216.1,281.8,228.6z"/>
<path class="st4" d="M278.2,229.2c20,15.3,34.8,26.5,41.8,31.9c36.6,27.8,55.2,41.7,69.5,38.3c5.3-1.3,13.4-5,21-17.7
	c2.5-0.9,20.1-7.1,26.9-26.5c7.3-20.7-3.9-39-5.2-41.1c2.6-4.2,10.4-17.9,8-36.9c-3.1-24.1-20.3-38.1-23.4-40.6
	c3.5-11.3,0.5-23.8-7.8-32.1c-10-10-26.1-12.1-38.5-4.6c0.1-3.3-0.4-7.7-3.2-11c-8.5-10.3-31.6-3-34-2.3
	c-35.8,11.3-53.5,59.9-57.3,94.6C273.8,201.2,276,218,278.2,229.2z"/>
<path class="st5" d="M284.3,214.7c15.5,11.7,27,20.3,32.4,24.4c28.4,21.3,42.8,31.9,54,29c4.2-1.1,10.6-4.1,16.7-14.1
	c2-0.7,15.9-5.9,21.5-21.1c6-16.3-2.5-30.5-3.5-32.1c2.1-3.3,8.4-14.2,6.8-29c-2.1-18.8-15.4-29.6-17.9-31.5
	c2.9-8.9,0.7-18.7-5.7-25c-7.7-7.7-20.3-9.1-30.1-3.1c0.1-2.6-0.2-6-2.3-8.6c-6.6-7.9-24.8-1.9-26.6-1.3
	c-28.2,9.3-42.8,47.6-46.3,74.8C281.2,192.8,282.7,206,284.3,214.7z"/>
<g>
	<g>
		<path class="st6" d="M276,166.6c-10.8,12.4-12.1,15-14.6,14.6c-3.6-0.7-6.3-7.9-5.1-13.5c2.2-10.6,17.5-12.9,19.4-13.2
			c2-0.3,6.9-1.1,7.9,0.9C284.6,157.1,281.9,159.9,276,166.6z"/>
		<path class="st6" d="M286.5,155.8c-3.2,1.8-3.3,6.8-3.3,7.7c0,7.8,8.2,16.1,14.3,14.3c4-1.1,6.7-6.2,6.4-10.6
			C303.4,158.9,291.7,152.9,286.5,155.8z"/>
		<path class="st6" d="M271.5,177.9c3.4,0,4.4,4.4,7.5,4.2c3.3-0.2,3.7-5.2,7.5-6c3-0.6,6.8,1.7,7.9,4.6c2.2,5.6-5.4,11.9-6.2,12.6
			c-5.1,4.3-14.9,7.9-20.5,3.1c-2.9-2.5-4.4-7.2-3.3-11.2C265.4,181.8,268.4,177.9,271.5,177.9z"/>
		<circle class="st6" cx="278.8" cy="173.4" r="6.1"/>
	</g>
</g>
</svg>
