<?xml version="1.0" encoding="utf-8"?>
<!-- Generator: Adobe Illustrator 24.1.2, SVG Export Plug-In . SVG Version: 6.00 Build 0)  -->
<svg version="1.1" id="Layer_1" xmlns="http://www.w3.org/2000/svg" xmlns:xlink="http://www.w3.org/1999/xlink" x="0px" y="0px"
	 viewBox="0 0 512 512" style="enable-background:new 0 0 512 512;" xml:space="preserve">
<style type="text/css">
	.st0{fill:#036451;}
	.st1{fill:#2F8E6C;}
	.st2{fill:#015232;}
	.st3{fill:#2E1117;}
	.st4{fill:#351420;}
	.st5{fill:#5B3947;}
	.st6{fill:#CB5B28;}
</style>
<path class="st0" d="M427.9,356.9c-5.3-0.3,0.5-30.2-16.8-42.9c-16.4-12-43.3-1.3-58.2,4.6c-12.4,4.9-34.7,15.9-56.1,40.6
	c-6.3,55-21.6,108.3-45.8,111c-4.7,0.5-8.8-0.9-11.5-2.3c16.2-25.2,25.7-47.2,31.2-61.6c1.6-4.2,3.1-8.3,4.4-12.5
	c-1.9-9-6.1-19.4-15.4-25.8c-16.9-11.8-39.6-2.8-58.2,4.6c-13.2,5.2-37.8,17.4-60.5,46c0-5.9,0.3-49.8,33.7-74.3
	c35.5-26.1,95.5-20.6,110.8,10.1c16.2-83.2-7.1-146.9-19.9-153.8c-1-0.5-6.5-3.2-6.1-5.4c0.5-2.7,9.6-3.5,13-3.1
	c16.7,2.3,27.7,56.7,27.6,111.8c0,7-0.2,14.4-0.6,21.9c4.9-12.5,13-25.7,26.6-35.7c36.4-26.7,95.6-18.1,111.1,10.7
	C449.3,323.7,433.6,357.3,427.9,356.9z"/>
<path class="st1" d="M344.1,293.1c17-18.3,56.2-16.7,72.5,3.6c4.6,5.7,6.7,12.1,7.7,17.4c-7.2-9.5-15-14.4-19.7-16.9
	c-16.8-8.8-38.1-9.1-54.9,0c-6.3,3.4-10.8,7.5-13.5,10.5C337.4,303.3,339.7,297.9,344.1,293.1z"/>
<path class="st2" d="M142.3,417.1c3.6-10.9,16.8-46.6,52.9-64.5c19.5-9.7,61.1-21.9,78-0.7c12.4,15.5,4.4,40.3,2.6,45.7
	c-2.6-17.2-9.5-24.6-14.1-28C239.3,353.1,190.1,370,142.3,417.1z"/>
<g>
	<g>
		<path class="st3" d="M269.7,179.4c-8.9,22.8,23.7,50,32.1,57c6.8,5.7,28.7,23.4,60.3,23.5c19.7,0,46-6.8,47-16.9
			c1-10-24.2-11.1-50.6-36.3c-24.7-23.5-22.3-41.3-40.9-47C299.9,154.4,275.8,163.8,269.7,179.4z"/>
		<path class="st3" d="M267,182.8c-15-6.7-39.1,15.3-50.6,32.7c-4.8,7.3-22.2,36.2-10.7,67.4c10.6,28.7,41.3,47.5,49.5,41.9
			c5.2-3.6-3-14.1-0.5-34.7c3.2-26.6,19.5-30.8,24.5-56.7C282.8,215.2,280.2,188.7,267,182.8z"/>
		<path class="st3" d="M108.7,242.6c0.1-21,14.1-36.4,22.5-45.4c8.6-9.3,39.6-42.5,84.3-41.9c20.2,0.3,47.8,7.6,49.5,19.4
			c0.6,4.4-2.4,8.2-5.1,11.2c-15,17.3-28.5,32.8-56.7,41.4c-26.2,8-33.3,0.2-63.8,9.7c-13.3,4.1-23.6,9.2-30.1,12.8
			C109,248.1,108.7,245.6,108.7,242.6z"/>
		<path class="st3" d="M277.2,149.1c7.7-15.1,11.6-22.7,14.8-26.6C306,106,324,99.9,330.3,98c5.6-1.6,33.4-9.6,58.2,5.6
			c7,4.3,11.8,9.2,14.8,12.8c-1.6,0.6-3.9,1.5-6.6,2.6c-9.9,4-17.3,7.9-22.5,10.7c-10.9,5.9-18.4,10.5-24,13.8
			c-38.3,22.7-49.6,24.2-56.2,24.5c-3.7,0.2-17.4,0.8-20.4-5.6C272.3,159.4,273.8,155.9,277.2,149.1z"/>
		<path class="st3" d="M265,169c-9.7-1.7-13.7-22.8-16.3-36.8c-2.1-10.8-5.8-30.5,1.5-50c15.1-40.2,65.7-49.5,68.9-50
			c-1.2,3.8-3,9.6-4.6,16.9c-5.1,22.3-4.7,38.2-5.1,46C307.5,131.5,279.3,171.5,265,169z"/>
		<path class="st3" d="M108.7,109.3c4.1-7.6,12.6-20.3,27.6-27.1c24.7-11,50.1,1.6,74.6,13.8c21.6,10.8,42.7,21.2,49,43.4
			c3.3,11.4,3.6,29.4-6.1,36.8c-14.9,11.2-46-8-56.2-14.3c-5.2-3.2-12.5-7.8-20.4-15.8c-18.7-19-17.4-33.4-30.1-40.3
			C140.6,102.2,129.2,100,108.7,109.3z"/>
	</g>
</g>
<g>
	<g>
		<g>
			<path class="st4" d="M268.4,170.7c-9.4,17.5,16.9,48.5,36.4,63.5c8.1,6.2,25.6,19.5,50.2,19.6c16.4,0,38.3-5.6,39.1-14
				c0.8-8.3-17.7-10.9-42.1-30.2c-32.3-25.6-33.9-48.6-55.4-50.8C285.9,157.7,273.1,162.1,268.4,170.7z"/>
		</g>
		<g>
			<path class="st4" d="M259.9,185.9c-19.1-3.5-36.6,27.3-39.3,32c-4.8,8.4-18,31.5-8.9,56.2c8.8,23.9,34.4,39.6,41.3,34.9
				c4.6-3.2-1.5-12-0.4-28.9c2.2-36,33.1-47.6,27.8-71.8C278,197.4,269.3,187.6,259.9,185.9z"/>
		</g>
		<g>
			<path class="st4" d="M128.2,228c0.1-17.5,11.7-30.3,18.7-37.9c7.2-7.7,33-35.4,70.2-34.9c16.9,0.2,39.9,6.3,41.3,16.2
				c0.5,3.6-2,6.8-4.3,9.4c-12.5,14.4-23.8,27.3-47.2,34.5c-21.9,6.7-27.7,0.2-53.2,8.1c-11.1,3.4-19.7,7.7-25.1,10.6
				C128.4,232.6,128.1,230.5,128.2,228z"/>
		</g>
		<g>
			<path class="st4" d="M280.2,148.4c6.4-12.6,9.7-18.9,12.3-22.1c11.6-13.8,26.6-18.9,31.9-20.4c4.7-1.4,27.8-8,48.5,4.7
				c5.8,3.6,9.8,7.7,12.3,10.6c-1.4,0.5-3.3,1.2-5.5,2.1c-8.3,3.3-14.4,6.6-18.7,8.9c-9.1,4.9-15.3,8.7-20,11.5
				c-31.9,18.9-41.4,20.2-46.8,20.4c-3.1,0.1-14.5,0.7-17-4.7C276.1,156.9,277.3,154,280.2,148.4z"/>
		</g>
		<g>
			<path class="st4" d="M267.9,155.1c-8.1-1.4-11.4-19-13.6-30.6c-1.7-9-4.8-25.4,1.3-41.7c12.6-33.5,54.7-41.2,57.4-41.7
				c-1,3.2-2.5,8-3.8,14c-4.2,18.5-3.9,31.9-4.3,38.3C303.4,123.8,279.9,157.2,267.9,155.1z"/>
		</g>
		<g>
			<path class="st4" d="M118.4,102.5c4-6.6,11.1-16.1,22.8-20.4c8.9-3.3,19.1-3.1,66.7,19.4c42.3,20,47.8,26.2,50.2,34
				c4.4,14-1.2,32.6-11.8,37.4c-7,3.1-8.6-3.1-38.6-11.6c-6.1-1.7-15-4-23.8-11.3c-2.6-2.2-4.5-4.2-6.2-6.1
				c-15.9-18.2-17.1-31.8-27-39C145.4,100.8,135.9,97.8,118.4,102.5z"/>
		</g>
	</g>
</g>
<g>
	<g>
		<g>
			<path class="st5" d="M261.3,170.6c-7.3,13.5,13,37.4,28.1,49c6.2,4.8,19.8,15,38.7,15.1c12.6,0,29.6-4.3,30.2-10.8
				c0.6-6.4-13.7-8.4-32.5-23.3c-24.9-19.8-26.1-37.4-42.7-39.1C274.8,160.5,264.9,163.9,261.3,170.6z"/>
		</g>
		<g>
			<path class="st5" d="M254.7,182.3c-14.7-2.7-28.2,21-30.3,24.7c-3.7,6.4-13.9,24.3-6.9,43.3c6.8,18.4,26.6,30.5,31.8,26.9
				c3.5-2.4-1.1-9.2-0.3-22.3c1.7-27.7,25.5-36.7,21.4-55.4C268.6,191.2,261.9,183.6,254.7,182.3z"/>
		</g>
		<g>
			<path class="st5" d="M153.1,214.7c0-13.5,9-23.4,14.4-29.2c5.5-6,25.4-27.3,54.1-26.9c13,0.2,30.7,4.9,31.8,12.5
				c0.4,2.8-1.6,5.2-3.3,7.2c-9.7,11.1-18.3,21.1-36.4,26.6c-16.8,5.1-21.4,0.2-41,6.2c-8.6,2.7-15.2,5.9-19.4,8.2
				C153.3,218.3,153.1,216.7,153.1,214.7z"/>
		</g>
		<g>
			<path class="st5" d="M270.4,153.3c5-9.7,7.4-14.6,9.5-17.1c9-10.7,20.5-14.6,24.6-15.7c3.6-1,21.4-6.2,37.4,3.6
				c4.5,2.8,7.6,5.9,9.5,8.2c-1,0.4-2.5,0.9-4.3,1.6c-6.4,2.6-11.1,5.1-14.4,6.9c-7,3.8-11.8,6.7-15.4,8.9
				c-24.6,14.6-31.9,15.6-36.1,15.7c-2.4,0.1-11.2,0.5-13.1-3.6C267.2,159.9,268.2,157.7,270.4,153.3z"/>
		</g>
		<g>
			<path class="st5" d="M260.9,158.6c-6.2-1.1-8.8-14.7-10.5-23.6c-1.3-7-3.7-19.6,1-32.2c9.7-25.9,42.2-31.8,44.3-32.2
				c-0.8,2.5-1.9,6.2-3,10.8c-3.2,14.3-3,24.6-3.3,29.5C288.2,134.4,270.1,160.2,260.9,158.6z"/>
		</g>
		<g>
			<path class="st5" d="M158,94.7c1,1.9,2.6,4.7,5.2,7.5c12.2,13.1,29.8,4.7,51.4,14.9c32.6,15.4,36.8,20.2,38.7,26.2
				c3.4,10.8-0.9,25.2-9.1,28.8c-5.4,2.4-6.7-2.4-29.8-9c-4.7-1.3-11.6-3.1-18.3-8.7c-2-1.7-3.5-3.2-4.8-4.7
				c-10.8-12.3-18.9-26.6-20.8-30C167,113.2,162.6,104.8,158,94.7z"/>
		</g>
	</g>
</g>
<path class="st3" d="M223.2,150.4c-0.7,1.5,22.5,13.5,21,17.6c-1.7,4.7-32.6-8-45.3,5.8c-3.4,3.7-5.7,9.5-4.8,10.2
	c1.1,0.9,5.8-5.3,12.3-9.2c16.3-9.7,40.9-3.2,41.5,2.4c0.5,4.5-14.2,10.4-14.3,10.2c-0.1-0.2,13.5-11.7,18.7-8.5
	c8.3,5.1-6.1,46.9-7.1,46.6c-0.9-0.2,0.8-31.1,16-37.8c8.9-3.9,22,0.6,23.7,1.2c6.9,2.4,12.2,6.2,12.3,6.1
	c0.1-0.2-28.9-14.8-27.1-20.9c1-3.4,13.2-2,13.3-3.1c0-0.9-12.2-1.3-12.3-2.6c0-1.4,16-3.1,16-3.4c0-0.4-21.7,3-22.5,0.3
	c-1-3.6,36.4-18.2,36.6-17.7c0.2,0.4-27.2,16.7-33.7,10.2c-6.6-6.6,10.1-35.5,11.2-35.1c1.2,0.5-8.4,35.4-17.4,35.1
	c-6.7-0.2-12.2-20.4-12.3-20.4c0,0,9,15.2,4.9,19.7C248.9,163.1,224,148.9,223.2,150.4z"/>
<g>
	<g>
		<g>
			<path class="st6" d="M174.1,161.8c0.9,0.2,2.1-1.6,2.6-2.6c0.7-1.3,0.8-2.4,0.9-2.5c0.4-2.6,13.2-12.3,33.8-11.3
				c28.3,1.4,47.6,21.8,48,21.2c0.4-0.5-14.8-19.5-39.4-22.4c-23.9-2.9-47.3,10.5-46.9,15.3C173.1,159.8,173.3,161.6,174.1,161.8z"
				/>
		</g>
		<circle class="st6" cx="175.2" cy="161.3" r="4.7"/>
		<g>
			<path class="st6" d="M193.3,225.2c-2.3-4.2-8.6-16.9-5.7-32.8c0.5-2.6,5.8-29.3,29.6-35.8c14.4-4,30.3,0.9,41.2,12.3
				c-3.4-3.6-16.5-16.7-33.7-16.1c-25.9,1-45.8,32.5-40.2,56.1C186.2,215.9,189.9,221.4,193.3,225.2z"/>
		</g>
		<g>
			<path class="st6" d="M209.9,241.7c-2.3-4.2-8.6-16.9-5.7-32.8c0.5-2.6,5.8-29.3,29.6-35.8c14.4-4,30.3,0.9,41.2,12.3
				c-3.4-3.6-16.5-16.7-33.7-16.1c-25.9,1-45.8,32.5-40.2,56.1C202.7,232.3,206.5,237.8,209.9,241.7z"/>
		</g>
		<path class="st6" d="M220.2,224.4c0.8-2.6,12.9-42.3,35.4-43.8c2-0.1,4.3,0,6.7,0.7c-2.1-0.1-5.2,0-8.7,1c-7.4,2-11.9,6.5-15,9.6
			C227.4,203.1,221.9,218.9,220.2,224.4z"/>
		<circle class="st6" cx="190.4" cy="221.9" r="4.7"/>
		<circle class="st6" cx="221" cy="222.5" r="4.7"/>
		<circle class="st6" cx="210.4" cy="239.4" r="4.7"/>
	</g>
</g>
</svg>
