<?xml version="1.0" encoding="utf-8"?>
<!-- Generator: Adobe Illustrator 24.1.2, SVG Export Plug-In . SVG Version: 6.00 Build 0)  -->
<svg version="1.1" id="Layer_1" xmlns="http://www.w3.org/2000/svg" xmlns:xlink="http://www.w3.org/1999/xlink" x="0px" y="0px"
	 viewBox="0 0 512 512" style="enable-background:new 0 0 512 512;" xml:space="preserve">
<style type="text/css">
	.st0{fill:#036451;}
	.st1{fill:#2F8E6C;}
	.st2{fill:#015232;}
	.st3{fill:#BE4527;}
	.st4{fill:#F47B20;}
	.st5{fill:#F99D1C;}
	.st6{fill:#692A11;}
</style>
<path class="st0" d="M405.1,360.9c-5.3-0.3,0.5-30.2-16.8-42.9c-16.4-12-43.3-1.3-58.2,4.6c-12.4,4.9-34.7,15.9-56.1,40.6
	c-6.3,55-21.6,108.3-45.8,111c-4.7,0.5-8.8-0.9-11.5-2.3c16.2-25.2,25.7-47.2,31.2-61.6c1.6-4.2,3.1-8.3,4.4-12.5
	c-1.9-9-6.1-19.4-15.4-25.8c-16.9-11.8-39.6-2.8-58.2,4.6c-13.2,5.2-37.8,17.4-60.5,46c0-5.9,0.3-49.8,33.7-74.3
	c35.5-26.1,95.5-20.6,110.8,10.1c16.2-83.2-7.1-146.9-19.9-153.8c-1-0.5-6.5-3.2-6.1-5.4c0.5-2.7,9.6-3.5,13-3.1
	c16.7,2.3,27.7,56.7,27.6,111.8c0,7-0.2,14.4-0.6,21.9c4.9-12.5,13-25.7,26.6-35.7c36.4-26.7,95.6-18.1,111.1,10.7
	C426.5,327.7,410.8,361.3,405.1,360.9z"/>
<path class="st1" d="M321.3,297.1c17-18.3,56.2-16.7,72.5,3.6c4.6,5.7,6.7,12.1,7.7,17.4c-7.2-9.5-15-14.4-19.7-16.9
	c-16.8-8.8-38.1-9.1-54.9,0c-6.3,3.4-10.8,7.5-13.5,10.5C314.6,307.4,316.9,301.9,321.3,297.1z"/>
<path class="st2" d="M119.5,421.1c3.6-10.9,16.8-46.6,52.9-64.5c19.5-9.7,61.1-21.9,78-0.7c12.4,15.5,4.4,40.3,2.6,45.7
	c-2.6-17.2-9.5-24.6-14.1-28C216.5,357.1,167.3,374,119.5,421.1z"/>
<g>
	<g>
		<path class="st3" d="M246.9,183.4c-8.9,22.8,23.7,50,32.1,57c6.8,5.7,28.7,23.4,60.3,23.5c19.7,0,46-6.8,47-16.9
			c1-10-24.2-11.1-50.6-36.3c-24.7-23.5-22.3-41.3-40.9-47C277.1,158.4,253,167.8,246.9,183.4z"/>
		<path class="st3" d="M244.2,186.8c-15-6.7-39.1,15.3-50.6,32.7c-4.8,7.3-22.2,36.2-10.7,67.4c10.6,28.7,41.3,47.5,49.5,41.9
			c5.2-3.6-3-14.1-0.5-34.7c3.2-26.6,19.5-30.8,24.5-56.7C260,219.2,257.4,192.7,244.2,186.8z"/>
		<path class="st3" d="M85.9,246.6c0.1-21,14.1-36.4,22.5-45.4c8.6-9.3,39.6-42.5,84.3-41.9c20.2,0.3,47.8,7.6,49.5,19.4
			c0.6,4.4-2.4,8.2-5.1,11.2c-15,17.3-28.5,32.8-56.7,41.4c-26.2,8-33.3,0.2-63.8,9.7c-13.3,4.1-23.6,9.2-30.1,12.8
			C86.2,252.1,85.9,249.6,85.9,246.6z"/>
		<path class="st3" d="M254.5,153.1c7.7-15.1,11.6-22.7,14.8-26.6c13.9-16.6,31.9-22.7,38.3-24.5c5.6-1.6,33.4-9.6,58.2,5.6
			c7,4.3,11.8,9.2,14.8,12.8c-1.6,0.6-3.9,1.5-6.6,2.6c-9.9,4-17.3,7.9-22.5,10.7c-10.9,5.9-18.4,10.5-24,13.8
			c-38.3,22.7-49.6,24.2-56.2,24.5c-3.7,0.2-17.4,0.8-20.4-5.6C249.5,163.4,251,159.9,254.5,153.1z"/>
		<path class="st3" d="M242.2,173c-9.7-1.7-13.7-22.8-16.3-36.8c-2.1-10.8-5.8-30.5,1.5-50c15.1-40.2,65.7-49.5,68.9-50
			c-1.2,3.8-3,9.6-4.6,16.9c-5.1,22.3-4.7,38.2-5.1,46C284.7,135.5,256.6,175.5,242.2,173z"/>
		<path class="st3" d="M85.9,113.3c4.1-7.6,12.6-20.3,27.6-27.1c24.7-11,50.1,1.6,74.6,13.8c21.6,10.8,42.7,21.2,49,43.4
			c3.3,11.4,3.6,29.4-6.1,36.8c-14.9,11.2-46-8-56.2-14.3c-5.2-3.2-12.5-7.8-20.4-15.8c-18.7-19-17.4-33.4-30.1-40.3
			C117.8,106.2,106.5,104,85.9,113.3z"/>
	</g>
</g>
<g>
	<g>
		<g>
			<path class="st4" d="M243.8,173.5c-9.4,17.5,16.9,48.5,36.4,63.5c8.1,6.2,25.6,19.5,50.2,19.6c16.4,0,38.3-5.6,39.1-14
				c0.8-8.3-17.7-10.9-42.1-30.2c-32.3-25.6-33.9-48.6-55.4-50.8C261.4,160.5,248.5,164.8,243.8,173.5z"/>
		</g>
		<g>
			<path class="st4" d="M235.3,188.7c-19.1-3.5-36.6,27.3-39.3,32c-4.8,8.4-18,31.5-8.9,56.2c8.8,23.9,34.4,39.6,41.3,34.9
				c4.6-3.2-1.5-12-0.4-28.9c2.2-36,33.1-47.6,27.8-71.8C253.4,200.2,244.7,190.4,235.3,188.7z"/>
		</g>
		<g>
			<path class="st4" d="M103.6,230.8c0.1-17.5,11.7-30.3,18.7-37.9c7.2-7.7,33-35.4,70.2-34.9c16.9,0.2,39.9,6.3,41.3,16.2
				c0.5,3.6-2,6.8-4.3,9.4c-12.5,14.4-23.8,27.3-47.2,34.5c-21.9,6.7-27.7,0.2-53.2,8.1c-11.1,3.4-19.7,7.7-25.1,10.6
				C103.8,235.4,103.6,233.3,103.6,230.8z"/>
		</g>
		<g>
			<path class="st4" d="M255.7,151.1c6.4-12.6,9.7-18.9,12.3-22.1c11.6-13.8,26.6-18.9,31.9-20.4c4.7-1.4,27.8-8,48.5,4.7
				c5.8,3.6,9.8,7.7,12.3,10.6c-1.4,0.5-3.3,1.2-5.5,2.1c-8.3,3.3-14.4,6.6-18.7,8.9c-9.1,4.9-15.3,8.7-20,11.5
				c-31.9,18.9-41.4,20.2-46.8,20.4c-3.1,0.1-14.5,0.7-17-4.7C251.5,159.7,252.8,156.8,255.7,151.1z"/>
		</g>
		<g>
			<path class="st4" d="M243.4,157.9c-8.1-1.4-11.4-19-13.6-30.6c-1.7-9-4.8-25.4,1.3-41.7c12.6-33.5,54.7-41.2,57.4-41.7
				c-1,3.2-2.5,8-3.8,14c-4.2,18.5-3.9,31.9-4.3,38.3C278.8,126.6,255.3,160,243.4,157.9z"/>
		</g>
		<g>
			<path class="st4" d="M93.9,105.3c4-6.6,11.1-16.1,22.8-20.4c8.9-3.3,19.1-3.1,66.7,19.4c42.3,20,47.8,26.2,50.2,34
				c4.4,14-1.2,32.6-11.8,37.4c-7,3.1-8.6-3.1-38.6-11.6c-6.1-1.7-15-4-23.8-11.3c-2.6-2.2-4.5-4.2-6.2-6.1
				c-15.9-18.2-17.1-31.8-27-39C120.8,103.6,111.4,100.6,93.9,105.3z"/>
		</g>
	</g>
</g>
<g>
	<g>
		<g>
			<path class="st5" d="M238.5,174.6c-7.3,13.5,13,37.4,28.1,49c6.2,4.8,19.8,15,38.7,15.1c12.6,0,29.6-4.3,30.2-10.8
				c0.6-6.4-13.7-8.4-32.5-23.3c-24.9-19.8-26.1-37.4-42.7-39.1C252,164.6,242.1,167.9,238.5,174.6z"/>
		</g>
		<g>
			<path class="st5" d="M231.9,186.3c-14.7-2.7-28.2,21-30.3,24.7c-3.7,6.4-13.9,24.3-6.9,43.3c6.8,18.4,26.6,30.5,31.8,26.9
				c3.5-2.4-1.1-9.2-0.3-22.3c1.7-27.7,25.5-36.7,21.4-55.4C245.9,195.2,239.1,187.6,231.9,186.3z"/>
		</g>
		<g>
			<path class="st5" d="M130.4,218.7c0-13.5,9-23.4,14.4-29.2c5.5-6,25.4-27.3,54.1-26.9c13,0.2,30.7,4.9,31.8,12.5
				c0.4,2.8-1.6,5.2-3.3,7.2c-9.7,11.1-18.3,21.1-36.4,26.6c-16.8,5.1-21.4,0.2-41,6.2c-8.6,2.7-15.2,5.9-19.4,8.2
				C130.5,222.3,130.3,220.7,130.4,218.7z"/>
		</g>
		<g>
			<path class="st5" d="M247.6,157.3c5-9.7,7.4-14.6,9.5-17.1c9-10.7,20.5-14.6,24.6-15.7c3.6-1,21.4-6.2,37.4,3.6
				c4.5,2.8,7.6,5.9,9.5,8.2c-1,0.4-2.5,0.9-4.3,1.6c-6.4,2.6-11.1,5.1-14.4,6.9c-7,3.8-11.8,6.7-15.4,8.9
				c-24.6,14.6-31.9,15.6-36.1,15.7c-2.4,0.1-11.2,0.5-13.1-3.6C244.4,163.9,245.4,161.7,247.6,157.3z"/>
		</g>
		<g>
			<path class="st5" d="M238.1,162.6c-6.2-1.1-8.8-14.7-10.5-23.6c-1.3-7-3.7-19.6,1-32.2c9.7-25.9,42.2-31.8,44.3-32.2
				c-0.8,2.5-1.9,6.2-3,10.8c-3.2,14.3-3,24.6-3.3,29.5C265.4,138.4,247.3,164.2,238.1,162.6z"/>
		</g>
		<g>
			<path class="st5" d="M135.2,98.7c1,1.9,2.6,4.7,5.2,7.5c12.2,13.1,29.8,4.7,51.4,14.9c32.6,15.4,36.8,20.2,38.7,26.2
				c3.4,10.8-0.9,25.2-9.1,28.8c-5.4,2.4-6.7-2.4-29.8-9c-4.7-1.3-11.6-3.1-18.3-8.7c-2-1.7-3.5-3.2-4.8-4.7
				c-10.8-12.3-18.9-26.6-20.8-30C144.2,117.3,139.8,108.8,135.2,98.7z"/>
		</g>
	</g>
</g>
<path class="st3" d="M200.4,154.4c-0.7,1.5,22.5,13.5,21,17.6c-1.7,4.7-32.6-8-45.3,5.8c-3.4,3.7-5.7,9.5-4.8,10.2
	c1.1,0.9,5.8-5.3,12.3-9.2c16.3-9.7,40.9-3.2,41.5,2.4c0.5,4.5-14.2,10.4-14.3,10.2c-0.1-0.2,13.5-11.7,18.7-8.5
	c8.3,5.1-6.1,46.9-7.1,46.6c-0.9-0.2,0.8-31.1,16-37.8c8.9-3.9,22,0.6,23.7,1.2c6.9,2.4,12.2,6.2,12.3,6.1
	c0.1-0.2-28.9-14.8-27.1-20.9c1-3.4,13.2-2,13.3-3.1c0-0.9-12.2-1.3-12.3-2.6c0-1.4,16-3.1,16-3.4c0-0.4-21.7,3-22.5,0.3
	c-1-3.6,36.4-18.2,36.6-17.7c0.2,0.4-27.2,16.7-33.7,10.2c-6.6-6.6,10.1-35.5,11.2-35.1c1.2,0.5-8.4,35.4-17.4,35.1
	c-6.7-0.2-12.2-20.4-12.3-20.4c0,0,9,15.2,4.9,19.7C226.1,167.1,201.2,152.9,200.4,154.4z"/>
<g>
	<g>
		<g>
			<path class="st6" d="M151.3,165.8c0.9,0.2,2.1-1.6,2.6-2.6c0.7-1.3,0.8-2.4,0.9-2.5c0.4-2.6,13.2-12.3,33.8-11.3
				c28.3,1.4,47.6,21.8,48,21.2c0.4-0.5-14.8-19.5-39.4-22.4c-23.9-2.9-47.3,10.5-46.9,15.3C150.3,163.8,150.5,165.6,151.3,165.8z"
				/>
		</g>
		<circle class="st6" cx="152.5" cy="165.3" r="4.7"/>
		<g>
			<path class="st6" d="M170.5,229.2c-2.3-4.2-8.6-16.9-5.7-32.8c0.5-2.6,5.8-29.3,29.6-35.8c14.4-4,30.3,0.9,41.2,12.3
				c-3.4-3.6-16.5-16.7-33.7-16.1c-25.9,1-45.8,32.5-40.2,56.1C163.4,219.9,167.1,225.4,170.5,229.2z"/>
		</g>
		<g>
			<path class="st6" d="M187.1,245.7c-2.3-4.2-8.6-16.9-5.7-32.8c0.5-2.6,5.8-29.3,29.6-35.8c14.4-4,30.3,0.9,41.2,12.3
				c-3.4-3.6-16.5-16.7-33.7-16.1c-25.9,1-45.8,32.5-40.2,56.1C179.9,236.3,183.7,241.8,187.1,245.7z"/>
		</g>
		<path class="st6" d="M197.4,228.4c0.8-2.6,12.9-42.3,35.4-43.8c2-0.1,4.3,0,6.7,0.7c-2.1-0.1-5.2,0-8.7,1c-7.4,2-11.9,6.5-15,9.6
			C204.6,207.1,199.2,223,197.4,228.4z"/>
		<circle class="st6" cx="167.6" cy="226" r="4.7"/>
		<circle class="st6" cx="198.2" cy="226.5" r="4.7"/>
		<circle class="st6" cx="187.6" cy="243.4" r="4.7"/>
	</g>
</g>
</svg>
