<?xml version="1.0" encoding="utf-8"?>
<!-- Generator: Adobe Illustrator 24.1.2, SVG Export Plug-In . SVG Version: 6.00 Build 0)  -->
<svg version="1.1" id="Layer_1" xmlns="http://www.w3.org/2000/svg" xmlns:xlink="http://www.w3.org/1999/xlink" x="0px" y="0px"
	 viewBox="0 0 512 512" style="enable-background:new 0 0 512 512;" xml:space="preserve">
<style type="text/css">
	.st0{fill:#C0E6E9;}
	.st1{fill:#F4D69A;}
	.st2{fill:#D3AA62;}
	.st3{fill:#4D803B;}
	.st4{fill:#A2CF68;}
	.st5{fill:#4B4EA1;}
	.st6{fill:#1F1D52;}
</style>
<rect x="0" y="0" class="st0" width="512" height="512"/>
<g id="isla">
	<path class="st1" d="M448.56,342.11H63.24c1.86-51.31,87.39-92.64,192.66-92.64S446.7,290.8,448.56,342.11z"/>
	<path class="st2" d="M448.44,346.24c2.06-11.54-6.11-26.92-13.12-27.68c-4.14-0.45-4.83,4.56-10.96,6.65
		c-10.97,3.74-16.76-9.58-27.35-5.8c-4.96,1.77-5.25,5.25-12.95,8.12c-4.76,1.78-8.59,1.92-10.76,2.01
		c-22.86,0.96-23,3.2-33.62,2.34c-24.11-1.93-32.82-14.23-40.93-6.8c-3.14,2.88-5.13,7.08-11.59,11.83c-2.21,1.63-5,3-8.95,3.9
		c-14.89,3.42-19.4-5.64-50-9.48c-10.62-1.33-19.19-3.26-30.33-0.45c-11.36,2.86-15.32,7.65-27.45,8.83
		c-6.73,0.65-6.61-0.71-21.71-2.32c-13.7-1.46-25.12-2.74-39.1-0.87c-12.13,1.62-12.58,3.56-18.23,2.32
		c-12.05-2.64-17.94-13.17-23.51-9.87c-3.02,1.79-4.3,6.68-4.42,10.03C62.98,352.1,79.35,362.89,85.59,367
		c44.01,29,140.2,22.38,202.05,20.31c20.48-0.69,47.49-1.59,83.2-7.97C408.72,372.56,444.92,365.91,448.44,346.24z"/>
	<path class="st3" d="M85.39,303.16c-1.4,8.57,2.77,23.22,11.51,26.7c6.85,2.72,13.72-2.53,15.59-4.06
		c7.71,5.23,18.47,10.46,27.71,5.66c6.3-3.28,5.79-8.05,11.15-12.19c15.49-11.94,34.7,16.4,58.29,8.27
		c13.69-4.72,11.16-15.62,25.19-19.15c13.08-3.29,17.04,5.44,43.9,9.14c6.38,0.88,15.35,2.8,26.63,0.44
		c10.03-2.1,17.8-6.49,22.79-9.87c9.43,3.36,23.42,7.23,40.54,7.83c21.49,0.75,53.49-3.45,54.7-14.07
		c0.32-2.81-1.35-8.19-19.43-18.72c-42.3-24.61-85.79-22.96-177.4-19.59c-17.98,0.66-41.69,1.53-73.05,7.69
		C120.26,277.77,88.48,284.18,85.39,303.16z"/>
	<path class="st4" d="M416.32,293.47c-0.68,7.1-18.92,12.63-33.46,12.19c-22.76-0.69-35.24-15.97-54.46-7.54
		c-3.03,1.33-3.32,1.97-4.76,3.04c0,0-1.39,1.09-3.75,2.18c-4.77,2.2-84.31-21.48-93.41-5.37c-1.62,2.86,0.13,4.94-2.19,9.29
		c-3.92,7.33-12.81,8.68-23.03,9c-28.89,0.89-30.57-7.65-46.3-3.77c-13.43,3.31-18.93,11.19-28.31,6.96
		c-6.36-2.87-6.98-7.92-13.67-9.29c-9.25-1.89-13.99,6.54-19.67,3.19c-4.5-2.65-6.84-11.08-5.79-17.45
		c2.01-12.19,16.61-18.18,25.75-21.56c75.5-27.93,142.81-26.56,142.81-26.56c25.83,0.52,48.47,1.11,78.62,8.2
		C369,264.03,417.46,281.53,416.32,293.47z"/>
</g>
<path class="st5" d="M512,358.9v151.94H0V335.79c8.4,3.48,15.09,10.27,28.57,13.7c15.9,4.04,18.15-2.46,45.61-3.75
	c34.27-1.6,33.04,8.41,62.98,5.79c23-2.01,38.64-9.22,48.21-0.43c2.57,2.37,7.33,7.56,15.81,11.39c2.51,1.13,5.54,1.91,9.62,2.17
	c16.05,1.02,40.94-13.16,59.95-17.87c35.55-8.82,73.49,11.28,78.5,13.93c13.55,7.18,16.75,12.35,27.23,12.94
	c21.3,1.19,25.56-19.16,48-23.49c29.65-5.72,42.4,25.9,70.13,17.7C501.55,365.82,506.48,362.15,512,358.9z"/>
<g id="flor">
	<path class="st3" d="M248.28,251.77c4.28-21,11.49-37.25,17.32-48.19c8.08-15.16,17.77-32.83,38.93-47.58
		c7.33-5.11,14.09-8.51,18.76-10.62c-2.24,2.92-5.52,7.37-9.05,13.01c-11.52,18.39-16.01,33.78-17.62,38.55
		C292.15,210.25,280.47,228.94,248.28,251.77z"/>
	<path class="st3" d="M243.94,221.64c-21.44-10.28-36.78-21.44-46.79-29.77c-13.88-11.54-29.96-25.21-39.19-47.42
		c-3.2-7.69-4.72-14.36-5.52-18.9c2.45,2.79,6.24,6.92,11.23,11.65c16.29,15.41,31.56,24.06,36.23,26.92
		C212.9,172.09,229.46,187.74,243.94,221.64z"/>
	<g>
		<path class="st4" d="M259.17,284.42c-8.67-15.21-14.76-32.1-17.77-49.67c-3.05-17.56-3.04-35.75-0.17-53.45
			c1.45-8.85,3.55-17.6,6.29-26.13c1.34-4.27,2.86-8.49,4.49-12.66c1.69-4.14,3.42-8.27,5.35-12.3c1.87-4.06,3.93-8.03,6.23-11.85
			c2.25-3.85,4.76-7.55,7.45-11.11c2.67-3.57,5.58-6.96,8.7-10.16c3.13-3.19,6.43-6.23,10.14-8.87l0.79,0.61
			c-1.58,4.26-3.42,8.24-5.24,12.2c-1.83,3.95-3.7,7.82-5.58,11.66l-11.25,22.84c-7.27,15.26-12.84,31.29-16.25,47.8
			c-3.36,16.51-4.53,33.49-3.15,50.43c0.28,4.24,0.81,8.47,1.42,12.7c0.61,4.23,1.39,8.44,2.34,12.63
			c1.85,8.39,4.29,16.69,7.14,24.92L259.17,284.42z"/>
	</g>
	<g id="capuio">
		<path class="st5" d="M316.07,52.45l-10.1,2.47c-0.63,0.13-1.12,0.39-1.54,0.74c-5.01,1.05-9.89,3.37-13.96,6.91
			c-5.73,5.02-8.69,11.49-8.69,17.67c0,2.08,0.33,4.1,1,6.05l-0.12,0.42l-1.18,3.81l-0.39,1.21l-1.42,4.57
			c-0.24,0.74-0.27,1.45-0.18,2.13c0.15,1.13,0.72,2.16,1.57,2.97c0.09,0.55,0.3,1.1,0.6,1.6c0,0.05,0.03,0.08,0.06,0.13
			c-0.03-0.03-0.09-0.05-0.12-0.08c-1.27-0.76-2.17-1.95-2.5-3.44l-2.08-9.78l-0.09-0.42c-4.22-4.05-6.57-9.6-6.57-15.54
			c0-2.87,0.54-5.81,1.72-8.73c1.9-4.73,5.16-8.68,9.14-11.52c0.21-0.45,0.51-0.89,1-1.24l12.21-9.39l8.54-6.55
			c2.41-1.87,5.76-1.74,8.02-0.21c1.18,0.76,2.05,1.92,2.35,3.34l2.08,9.75L316.07,52.45z"/>
		<path class="st5" d="M318,79.17c-3.23,8.05-10.34,13.78-18.4,15.77l-1.6,1.24l-7.6,5.84l-0.6,0.45l-2.35,0.58
			c-0.48,0.11-1,0.18-1.48,0.18c-1.36,0.08-2.62-0.26-3.68-0.89c-0.21,0.21-0.42,0.45-0.63,0.68c-0.3-0.5-0.51-1.05-0.6-1.6
			c-0.84-0.82-1.42-1.84-1.57-2.97c-0.09-0.68-0.06-1.39,0.18-2.13l1.42-4.57l0.39-1.21l1.18-3.81l0.12-0.42
			c-0.66-1.95-1-3.97-1-6.05c0-6.18,2.96-12.65,8.69-17.67c4.07-3.55,8.96-5.86,13.96-6.91c0.42-0.34,0.9-0.6,1.54-0.74l10.1-2.47
			l1.96,9.39l0.12,0.5c0.48,1.24,0.87,2.5,1.15,3.79C320.11,70.28,319.78,74.78,318,79.17z"/>
		<path class="st5" d="M355.01,76.09l-6.45,8.18l-8.6,10.88c-2.68,4.86-7.42,9.15-13.78,11.8c-8.78,3.68-18.46,3.37-25.79-0.18
			l-2.14-0.13l-11.34-0.6c-2.38-0.13-4.22-1.31-5.19-2.89c1.42,0.84,3.17,1.16,4.89,0.84c1-0.18,1.96-0.58,2.83-1.24l0.36-0.29
			l1.63-0.39l4.61,0.26h0.15l2.14,0.11c7.33,3.55,17.01,3.86,25.79,0.18c6.36-2.66,11.1-6.94,13.78-11.8l8.6-10.88l6.42-8.18
			c0.72-0.89,1.09-1.89,1.12-2.87C356.24,70.65,356.91,73.67,355.01,76.09z"/>
		<path class="st5" d="M289.86,102.48l-0.36,0.29c-0.87,0.66-1.84,1.05-2.83,1.24c-1.72,0.32-3.47,0-4.89-0.84
			c-0.03-0.05-0.06-0.08-0.06-0.13c0.21-0.24,0.42-0.47,0.63-0.68c1.06,0.63,2.32,0.97,3.68,0.89c0.48,0,1-0.08,1.48-0.18
			L289.86,102.48z"/>
		<path class="st5" d="M354.04,68.89c-0.03,0.97-0.39,1.97-1.12,2.87l-6.42,8.18l-8.6,10.88c-2.68,4.86-7.42,9.15-13.78,11.8
			c-8.78,3.68-18.46,3.37-25.79-0.18l-2.14-0.11h-0.15l-4.61-0.26l-1.63,0.39l-2.35,0.58c-0.48,0.11-1,0.18-1.48,0.18
			c-1.36,0.08-2.62-0.26-3.68-0.89c-0.21,0.21-0.42,0.45-0.63,0.68c-0.3-0.5-0.51-1.05-0.6-1.6c-0.06-0.39-0.09-0.76-0.06-1.13
			c0.03-1,0.39-1.97,1.12-2.87l0.63-0.82l5.79-7.36l0.3-0.37c0.21-4.02,1.84-8.05,4.61-11.57c2.77-3.5,6.76-6.52,11.64-8.57
			c4.64-1.95,9.56-2.76,14.21-2.6c0.54,0.03,1.09,0.05,1.6,0.11c0.51-0.21,1.09-0.32,1.72-0.26l0.9,0.05l13.24,0.74l2.08,0.11
			l11.34,0.63C351.72,67.57,353.05,68.1,354.04,68.89z"/>
		<path class="st6" d="M354.04,68.89c-0.03,0.97-0.39,1.97-1.12,2.87l-6.42,8.18l-8.6,10.88c-2.68,4.86-7.42,9.15-13.78,11.8
			c-8.78,3.68-18.46,3.37-25.79-0.18l-2.14-0.11h-0.15l-4.61-0.26l-1.03-0.05l-5.43-0.32h-0.15c-0.57-0.03-1.12-0.13-1.6-0.29
			c-0.87-0.24-1.6-0.63-2.23-1.13c-0.66-0.53-1.18-1.16-1.51-1.84c-0.09-0.68-0.06-1.39,0.18-2.13l1.42-4.57l0.48-0.6l4.92-6.23
			l0.3-0.37c0.21-4.05,1.84-8.05,4.61-11.57c2.77-3.5,6.76-6.52,11.64-8.57c4.92-2.08,10.07-2.87,14.99-2.55
			c0.27,0,0.54,0.03,0.81,0.05c0.51-0.21,1.09-0.32,1.72-0.26l1.78,0.11l14.45,0.79l1.27,0.08l10.07,0.55
			C351.75,63.34,354.19,66.05,354.04,68.89z"/>
		<path class="st6" d="M322.52,80.3c-3.2,8.02-10.31,13.78-18.37,15.77l-1.6,1.24l-3.59,2.76l-0.27,0.21l-0.48,0.39l-2.17,1.66
			l-4.61-0.26l-1.63,0.39l-2.35,0.58c-0.48,0.11-1,0.18-1.48,0.18l-1-1.52l-0.81-1.24l-0.87-1.31l-0.54-2.55l-1.18-5.47l-0.03-0.16
			l-0.06-0.45c-3.14-3-5.25-6.81-6.12-11.02c-0.87-4.18-0.51-8.78,1.27-13.25c1.78-4.5,4.8-8.23,8.54-11.04
			c0.18-0.16,0.39-0.32,0.6-0.45c0.21-0.47,0.51-0.89,1.03-1.26l12.18-9.36l0.97-0.74l7.57-5.81c1.06-0.82,2.23-1.24,3.47-1.34
			c1.99-0.18,4.01,0.47,5.37,1.76c0.75,0.68,1.33,1.63,1.54,2.71l2.08,9.73l0.21,0.97l2.17,10.31l0.36,1.74
			c0.33,0.84,0.63,1.68,0.81,2.55C324.73,70.49,324.48,75.46,322.52,80.3z"/>
		<path class="st5" d="M340.35,55.14l-2.29,7.47l-0.66,2.1l-0.63,2.05l-3.35,10.7c-0.69,5.39-3.56,10.78-8.54,15.12
			c-6.88,6.02-16.17,8.49-24.4,7.26l-1.78,0.45l-0.27,0.08l-7,1.71l-1.63,0.39l-2.35,0.58c-0.48,0.11-1,0.18-1.48,0.18
			c-1.36,0.08-2.62-0.26-3.68-0.89c-0.45-0.26-0.87-0.58-1.24-0.92c-0.84-0.82-1.42-1.84-1.57-2.97c-0.09-0.68-0.06-1.39,0.18-2.13
			l1.42-4.57l0.39-1.21l1.18-3.81l0.12-0.42c-0.66-1.95-1-3.97-1-6.05c0-6.18,2.96-12.65,8.69-17.67c4.07-3.55,8.96-5.86,13.96-6.91
			c0.42-0.34,0.9-0.6,1.54-0.74l10.1-2.47l4.1-1.03l1.42-0.34l10.98-2.68C337.27,47.25,341.65,51.01,340.35,55.14z"/>
	</g>
</g>
</svg>
