<svg xmlns="http://www.w3.org/2000/svg" data-name="Layer 2" viewBox="0 0 64 80" x="0px" y="0px"><title>02, flower, garden, spring, plant, botany, blossom</title><path d="M22.61,36.45a10,10,0,0,1,1.67-9.81,51.43,51.43,0,0,1-1.74-4.85c-5.1-3.42-11.41-6.38-15.7-1.95a3,3,0,0,0-.61,3.37,2,2,0,0,1-.83,2.56,3,3,0,0,0-1.49,3.09c.3,2.14,1.59,5,6,6.41A37.25,37.25,0,0,0,22.61,36.45Z"/><path d="M27.32,54.75c2.66-3.65,4.25-8.66,5-11.76a10,10,0,0,1-8.79-4.6c-1.79.14-3.72.17-5.15.14-4.87,3.81-9.59,8.9-6.72,14.33a3,3,0,0,0,3,1.62,2,2,0,0,1,2.19,1.59,3,3,0,0,0,2.47,2.37C22.65,59,25.33,57.49,27.32,54.75Z"/><path d="M44.62,58.44a3,3,0,0,0,2.47-2.37,2,2,0,0,1,2.19-1.59,3,3,0,0,0,3-1.62c1-1.91,1.65-5-1-8.69s-6.94-6.73-9.63-8.43a10,10,0,0,1-7.11,6.94c-.31,1.28-.78,3-1.44,4.92C35.18,53.41,38.56,59.48,44.62,58.44Z"/><path d="M58.6,25.77a2,2,0,0,1-.83-2.56,3,3,0,0,0-.61-3.37c-1.51-1.56-4.22-3.11-8.59-1.69s-8.52,4.51-11,6.55A10,10,0,0,1,42,33.61a50.51,50.51,0,0,1,4.26,2.9c6.14-.26,13-1.54,13.85-7.65A3,3,0,0,0,58.6,25.77Z"/><path d="M35.66,23.7a49.41,49.41,0,0,1,4.07-3.16c1.71-5.94,2.5-12.83-3-15.54a3,3,0,0,0-3.39.46,2,2,0,0,1-2.7,0A3,3,0,0,0,27.26,5C25.31,6,23,8.06,23,12.66s1.66,9.51,2.83,12.48A9.94,9.94,0,0,1,35.66,23.7Z"/><circle cx="32" cy="33" r="8"/><text x="0" y="79" fill="#000000" font-size="5px" font-weight="bold" font-family="'Helvetica Neue', Helvetica, Arial-Unicode, Arial, Sans-serif">Created by Andi Nur Abdillah</text><text x="0" y="84" fill="#000000" font-size="5px" font-weight="bold" font-family="'Helvetica Neue', Helvetica, Arial-Unicode, Arial, Sans-serif">from the Noun Project</text></svg>