<svg xmlns:dc="http://purl.org/dc/elements/1.1/" xmlns:cc="http://creativecommons.org/ns#" xmlns:rdf="http://www.w3.org/1999/02/22-rdf-syntax-ns#" xmlns:svg="http://www.w3.org/2000/svg" xmlns="http://www.w3.org/2000/svg" xmlns:sodipodi="http://sodipodi.sourceforge.net/DTD/sodipodi-0.dtd" xmlns:inkscape="http://www.inkscape.org/namespaces/inkscape" viewBox="0 0 12.7 15.875" version="1.1" x="0px" y="0px"><g transform="translate(0,-284.29998)"><path style="" d="m 4.8112651,291.2426 a 0.09196603,0.09196603 0 0 1 0.1271301,0.13292 7.6145933,7.6145933 0 0 0 -2.3347453,5.01009 0.09204698,0.09204698 0 0 1 -0.1837,-0.0119 7.7985255,7.7985255 0 0 1 0.072124,-0.66293 5.4301244,5.4301244 0 0 1 -1.0864717,-4.51146 0.36645963,0.36645963 0 0 1 0.6771005,-0.10718 6.1049772,6.1049772 0 0 1 0.804752,3.08325 7.7985255,7.7985255 0 0 1 1.9241576,-2.93282 z" fill="#000000" stroke="none"/><path style="" d="m 5.3763555,291.00924 a 0.48614791,0.48614791 0 0 0 0,0.71478 1.1850985,1.1850985 0 0 0 1.6071578,0 0.48614791,0.48614791 0 0 0 0,-0.71478 1.1850985,1.1850985 0 0 0 -1.6071578,0 z" fill="#000000" stroke="none"/><path style="" d="m 6.6860652,289.69997 a 0.48614791,0.48614791 0 0 0 0,0.71477 1.1850985,1.1850985 0 0 0 1.6065495,0 0.48614791,0.48614791 0 0 0 0,-0.71477 1.1850985,1.1850985 0 0 0 -1.6065495,0 z" fill="#000000" stroke="none"/><path style="" d="m 7.9951667,289.1054 a 1.1850985,1.1850985 0 0 0 1.6065495,0 0.48614791,0.48614791 0 0 0 0,-0.71478 1.1850985,1.1850985 0 0 0 -1.6065495,0 0.48614791,0.48614791 0 0 0 0,0.71478 z" fill="#000000" stroke="none"/><path style="" d="m 9.3042682,287.08129 a 0.48614791,0.48614791 0 0 0 0,0.71477 1.1850985,1.1850985 0 0 0 1.6071578,0 0.48614791,0.48614791 0 0 0 0,-0.71477 1.1850985,1.1850985 0 0 0 -1.6071578,0 z" fill="#000000" stroke="none"/><path style="" d="m 4.5131219,290.86088 a 0.48614791,0.48614791 0 0 0 0.7148137,0 1.1850985,1.1850985 0 0 0 0,-1.6068 0.48614791,0.48614791 0 0 0 -0.7148137,0 1.1850985,1.1850985 0 0 0 0,1.6068 z" fill="#000000" stroke="none"/><path style="" d="m 5.8228316,289.55154 a 0.48614791,0.48614791 0 0 0 0.7148138,0 1.1850985,1.1850985 0 0 0 0,-1.60675 0.48614791,0.48614791 0 0 0 -0.7148138,0 1.1850985,1.1850985 0 0 0 0,1.60675 z" fill="#000000" stroke="none"/><path style="" d="m 7.8467469,288.24226 a 1.1850985,1.1850985 0 0 0 0,-1.6068 0.48614791,0.48614791 0 0 0 -0.7148138,0 1.1850985,1.1850985 0 0 0 0,1.6068 0.48614791,0.48614791 0 0 0 0.7148138,0 z" fill="#000000" stroke="none"/><path style="" d="m 9.1558483,285.32612 a 0.48614791,0.48614791 0 0 0 -0.7148137,0 1.1850985,1.1850985 0 0 0 0,1.6068 0.48614791,0.48614791 0 0 0 0.7148137,0 1.1850985,1.1850985 0 0 0 0,-1.6068 z" fill="#000000" stroke="none"/><path style="" d="m 11.407781,285.335 a 0.48614791,0.48614791 0 0 0 -0.505479,-0.50545 1.1850985,1.1850985 0 0 0 -1.1363507,1.13621 0.48614791,0.48614791 0 0 0 0.5054787,0.50539 1.1850985,1.1850985 0 0 0 1.136351,-1.13615 z" fill="#000000" stroke="none"/></g><text x="0" y="27.7" fill="#000000" font-size="5px" font-weight="bold" font-family="'Helvetica Neue', Helvetica, Arial-Unicode, Arial, Sans-serif">Created by Phạm Thanh Lộc</text><text x="0" y="32.7" fill="#000000" font-size="5px" font-weight="bold" font-family="'Helvetica Neue', Helvetica, Arial-Unicode, Arial, Sans-serif">from the Noun Project</text></svg>