<svg xmlns="http://www.w3.org/2000/svg" data-name="Layer 1" viewBox="0 0 64 80" x="0px" y="0px"><path d="M47.761,32.146,53.7,25.111a14.021,14.021,0,0,0,3.3-9.03v-1.34L52.792,17.2a17.038,17.038,0,0,0-7.831,10.08l-1.922-.55a19.017,19.017,0,0,1,8.746-11.257L54.1,14.12a14.008,14.008,0,0,0-8.127,3.261l-4.539,3.83.219.933A8.884,8.884,0,0,1,40.421,29.1a9.325,9.325,0,0,1,6.849,2.579Z"/><path d="M33,44.434V53H31V44.434A9.237,9.237,0,0,1,29.063,46.3L26.219,48.3l.128,1.085a15,15,0,0,0,4.272,8.816L32,59.586l1.381-1.381a15,15,0,0,0,4.272-8.816l.128-1.085L34.937,46.3A9.262,9.262,0,0,1,33,44.434Z"/><path d="M23.579,29.1a8.86,8.86,0,0,1-1.417-4.008c-.11-.032-.218-.07-.329-.1L17.757,23.97l.486-1.94,3.949.987c.039-.291.09-.582.159-.873l.385-1.639c.059-.249.132-.493.194-.741l-2.911-2.431a14.024,14.024,0,0,0-8.972-3.253H9v2.046A14.025,14.025,0,0,0,12.253,25.1l5.065,6.066A9.26,9.26,0,0,1,23.579,29.1ZM16,24H14V22h2Z"/><path d="M30,32l-2.373-3.164a10.412,10.412,0,0,0-3.27-2.846,6.89,6.89,0,0,0,3.115,4.127l1.061.627c.059.029.119.058.177.09A1,1,0,0,1,29.181,32Z"/><circle cx="32" cy="17" r="1"/><path d="M27.91,44.663A7.309,7.309,0,0,0,31,38.7a1,1,0,0,1,2,0,7.309,7.309,0,0,0,3.09,5.964l3.627,2.56a36.823,36.823,0,0,0,20.017,6.754l-.248-.864a37.072,37.072,0,0,0-9.94-16.481l-3.662-3.515a7.312,7.312,0,0,0-8.811-.994l-.529.316c-.114.083-.165.12-.218.154a1.007,1.007,0,0,1-.281.1,34.308,34.308,0,0,1,13.8,9.953l3.927,4.712-1.536,1.28-3.927-4.712a32.317,32.317,0,0,0-14.621-9.979l.632-1.9c.222.074.436.166.656.244a.968.968,0,0,1-.132-.2,1.048,1.048,0,0,1,.45-1.256c.058-.032.118-.061.177-.09l.09-.045.971-.582A6.891,6.891,0,0,0,39.7,22.6l-.385-1.639A46.5,46.5,0,0,0,32,4.7a46.5,46.5,0,0,0-7.317,16.264L24.3,22.6a7.108,7.108,0,0,0-.163,1.062A12.432,12.432,0,0,1,29,27.364,13.463,13.463,0,0,1,30.5,19.581a2.984,2.984,0,1,1,2.115.355A11.433,11.433,0,0,0,32.12,31l.091.183,1.713-2.055a3.852,3.852,0,0,0,.244-4.575l1.664-1.11a5.863,5.863,0,0,1-.372,6.965l-2.692,3.23c-.007.009-.019.012-.027.021a.982.982,0,0,1-.3.229l0,.005-1.528.764A7.05,7.05,0,0,0,27,41H25a9.017,9.017,0,0,1,3.271-6.963,9.338,9.338,0,0,0-7.414,4.478l-1.714-1.03A11.354,11.354,0,0,1,27,32.169l-.076-.046a7.313,7.313,0,0,0-8.812.994h0l-.021.02-3.639,3.494A37.064,37.064,0,0,0,4.514,53.113l-.248.864a36.823,36.823,0,0,0,20.017-6.754ZM36,22H34V20h2ZM25,42h2v2H25Zm-5-1H18V39h2Z"/><text x="0" y="79" fill="#000000" font-size="5px" font-weight="bold" font-family="'Helvetica Neue', Helvetica, Arial-Unicode, Arial, Sans-serif">Created by dDara</text><text x="0" y="84" fill="#000000" font-size="5px" font-weight="bold" font-family="'Helvetica Neue', Helvetica, Arial-Unicode, Arial, Sans-serif">from the Noun Project</text></svg>