<svg xmlns="http://www.w3.org/2000/svg" xmlns:xlink="http://www.w3.org/1999/xlink" version="1.1" x="0px" y="0px" viewBox="0 0 100 125" style="enable-background:new 0 0 100 100;" xml:space="preserve"><g><path d="M31.5913448,5.0077109l9.8102703,23.6852131c0.0465126-0.4990997,0.1145515-1.0970249,0.2120094-1.7061062   c0.2489281-3.4133205,1.219532-7.3349361,2.4645691-10.8074875c-1.4327126-1.8984137-3.0622368-3.7915421-4.8499489-5.5890388   C35.3471413,6.6880498,32.546032,5.0445681,31.5913448,5.0077109z"/><path d="M30.2583733,21.9180126c4.2816391,1.9833469,8.0764389,4.4795551,10.5913048,6.994421   c0.1084824,0.1084824,0.2137032,0.2246628,0.3202972,0.3376465L31.1935539,5.1635528   c-0.6887951,0.6918621-1.5227356,3.7926507-1.492466,9.3720341C29.7148514,17.0357094,29.9151173,19.5390282,30.2583733,21.9180126   z"/><path d="M68.4000778,94.9922867l-9.7987213-23.6571579c-0.0539474,0.5955734-0.1304016,1.2606277-0.2405128,1.9073486   c-0.269413,3.4655685-1.2323189,7.2534561-2.451004,10.5898056c1.4351273,1.9168701,3.0576706,3.8199844,4.8087883,5.5898209   C64.6398544,93.387558,67.4214554,94.9845276,68.4000778,94.9922867z"/><path d="M69.7216415,78.0884476c-3.8828735-1.8335114-7.9320831-4.3551559-10.5832214-7.0057068   c-0.10783-0.1078339-0.2124634-0.2234879-0.3184662-0.3358231l9.9725723,24.0774612   c0.6492004-0.7021027,1.466568-3.8469925,1.4522171-9.3496628C70.2377625,82.9377365,70.0511932,80.4452515,69.7216415,78.0884476z   "/><path d="M21.9144115,69.7350922c1.9834118-4.2823563,4.4798813-8.0785294,6.9950066-10.5936584   c0.1076355-0.1076317,0.2229671-0.2120056,0.3351021-0.3178139l-24.079937,9.9751167   c0.6952538,0.6831818,3.808176,1.4842453,9.3705988,1.4928589C17.0341949,70.2780228,19.5363407,70.0780869,21.9144115,69.7350922z   "/><path d="M5.0063276,68.4019241l23.6731453-9.8066216c-0.6415024-0.057209-1.249279-0.1324883-1.8035641-0.2258339   c-3.3876839-0.2611961-7.2623959-1.2233162-10.6983528-2.4551773c-1.8979559,1.4325829-3.7905626,3.0617142-5.5876684,4.8490982   C6.6884928,64.6446915,5.0437713,67.4470367,5.0063276,68.4019241z"/><path d="M94.999321,31.5849667l-23.7096786,9.8215542c0.4859924,0.045208,1.0663681,0.1110916,1.6601868,0.2045059   c3.5563736,0.2375145,7.4791641,1.225666,10.9179916,2.4849892C90.1821823,39.3557892,95.066246,33.3060112,94.999321,31.5849667z"/><path d="M78.1118469,30.2554512c-1.987587,4.2649384-4.497818,8.0629387-7.0321198,10.5972404   c-0.1073761,0.1073761-0.2224503,0.2114868-0.334259,0.3170357l24.0874405-9.9777908   C93.657608,29.9688835,85.863884,29.1866074,78.1118469,30.2554512z"/><path d="M29.2438679,41.1699867c-0.1118736-0.1056137-0.2270107-0.2098541-0.3344498-0.3172951   c-2.5328693-2.5324097-5.0411453-6.3266258-7.0282745-10.5876503c-2.3498917-0.3275356-4.8342266-0.5127983-7.3626604-0.5197124   c-0.0495777,0-0.0991545,0-0.1482096,0c-5.4112139,0-8.5056744,0.8090858-9.2007332,1.4520874L29.2438679,41.1699867z"/><path d="M16.1617031,44.0812721c3.4103851-1.24543,7.2923393-2.2236633,10.8195572-2.4670486   c0.5300827-0.0864334,1.1034813-0.1564941,1.7106056-0.2105064L5,31.5895977   c0.0022831,0.9768009,1.6050596,3.7590542,5.5716209,7.6828899C12.3417854,41.0234718,14.244895,42.64608,16.1617031,44.0812721z"/><path d="M70.7448196,58.8238144c0.1120682,0.1057434,0.2273331,0.2100525,0.3349075,0.3176193   c2.5151215,2.5151291,5.0115967,6.3113022,6.9946823,10.5937195c2.3778687,0.3429337,4.8798828,0.5428696,7.3785095,0.5564423   c0.1001968,0,0.1983109,0.0010376,0.2964172,0.0010376c5.3937302,0,8.3959503-0.8169098,9.076004-1.493576L70.7448196,58.8238144z"/><path d="M83.8108749,55.9143562c-3.3620529,1.2053108-7.1426315,2.150341-10.4774094,2.4352798   c-0.6739883,0.1185951-1.3728333,0.2007866-1.9963303,0.2573433l23.6457443,9.7953339   c-0.037117-0.9544907-1.6826859-3.7570343-5.5846634-7.6389236C87.6013718,58.9760704,85.7088242,57.3468742,83.8108749,55.9143562   z"/><path d="M31.1960335,94.8245773l9.9729614-24.0785065c-0.106266,0.1126556-0.2111588,0.2285156-0.3193169,0.3366699   c-2.5320206,2.5320206-6.325325,5.0402985-10.5855637,7.0269699c-0.3276653,2.3506699-0.5129929,4.8358612-0.5197124,7.3650055   C29.7290726,90.9779129,30.5474205,94.1228638,31.1960335,94.8245773z"/><path d="M44.0824356,83.8269958c-1.241127-3.4592438-2.2102928-7.3648758-2.4650955-10.7707596   c-0.0896301-0.5411758-0.162365-1.1276855-0.2179413-1.7505264l-9.8109226,23.6867065   c0.9738636-0.0092621,3.7591839-1.6052551,7.6820393-5.5703125C41.0228081,87.6506348,42.6465225,85.745636,44.0824356,83.8269958z   "/><path d="M55.9141464,16.1743069c1.2439957,3.408493,2.2208595,7.2869911,2.4638519,10.8112068   c0.086174,0.5283871,0.156105,1.0997639,0.2101173,1.7047348l9.8091621-23.6826668   c-0.9542313,0.036335-3.7552109,1.6798167-7.6369019,5.5827112C58.9742279,12.3862228,57.3460121,14.2775259,55.9141464,16.1743069   z"/><path d="M68.7950668,5.1635528l-9.9760933,24.0856781c0.1063309-0.1127224,0.2112923-0.2286415,0.3194466-0.3367977   c2.5148659-2.5148659,6.3104553-5.0110092,10.5922165-6.9943542c0.3432617-2.3789845,0.5433273-4.88237,0.5569-7.3824921   C70.3172836,8.9562035,69.4837952,5.8554802,68.7950668,5.1635528z"/><path d="M50.2082748,7.7407808v24.7025223c2.0497551-4.4112549,5.4716835-9.0317783,6.8113747-8.6670589   c0.0396652,0.0106316,0.0756721,0.0487289,0.1141586,0.0686245C55.7723961,16.0822639,51.6788254,8.4875689,50.2082748,7.7407808z"/><path d="M42.8707962,23.8210583c0.0318985-0.0147438,0.0623627-0.035944,0.0955658-0.0448151   c1.1011353-0.3005943,3.0690842,2.3322124,4.1493454,3.9228554c1.0430756,1.5352592,1.948185,3.1458645,2.6646385,4.7008915   V7.7298217C48.1891823,8.4284029,44.22575,16.2240143,42.8707962,23.8210583z"/><path d="M49.7803459,92.2677612V67.550499c-1.9757118,4.2485657-5.2263412,8.6893082-6.6574249,8.6893082   c-0.0547943,0-0.1064606-0.0062637-0.1555176-0.0187912c-0.041748-0.0112152-0.0797119-0.0508118-0.1201591-0.0723419   C44.1749992,83.8741608,48.1539574,91.5927963,49.7803459,92.2677612z"/><path d="M57.1301575,76.1698074c-0.0369873,0.0176163-0.0728683,0.0397949-0.1115494,0.0501633   c-0.049057,0.0125275-0.1012421,0.0187912-0.1555176,0.0187912c-1.4304962,0-4.6790352-4.4372864-6.6548157-8.6842804v24.6988678   C51.6775856,91.5072784,55.7651558,83.9253006,57.1301575,76.1698074z"/><path d="M7.7378316,49.7833595h24.6517067c-1.5531349-0.7161255-3.16152-1.620388-4.6950188-2.6620293   c-1.5906448-1.0802612-4.2156219-3.0565605-3.9228573-4.1493454c0.0106335-0.0397263,0.0487957-0.0758018,0.0687561-0.1143532   C16.0784664,44.2195663,8.4847507,48.3130722,7.7378316,49.7833595z"/><path d="M23.816412,57.1199951c-0.0151997-0.0320969-0.0369873-0.063343-0.0457935-0.0962868   c-0.2958965-1.1021767,2.6479416-3.2543449,3.9275532-4.1279488c1.5417175-1.0527306,3.154541-1.9646225,4.7077389-2.6844711   H7.7268724C8.4256496,51.8019981,16.2200871,55.764843,23.816412,57.1199951z"/><path d="M76.1624908,42.8602409c0.0183945,0.0370522,0.0420074,0.0729294,0.0523834,0.1117439   c0.3573456,1.3364296-4.2583542,4.7605133-8.6679764,6.8113747H92.250267   C91.5038681,48.3139877,83.9193573,44.2246552,76.1624908,42.8602409z"/><path d="M92.2612305,50.2112885H67.5438995c4.4107971,2.0505371,9.0294266,5.4766426,8.67202,6.8134651   c-0.008812,0.0330086-0.0287094,0.0633392-0.0427933,0.095108C83.7689896,55.7645798,91.5625153,51.8019333,92.2612305,50.2112885z   "/><path d="M31.0015087,30.7018414c1.033617-0.5045776,4.0250111,0.8064117,5.3356075,1.4362354   c1.848381,0.888607,3.5995598,1.9346199,5.0920944,3.0259666c-0.1525803-1.410862-0.2037239-2.9404449-0.149971-4.5001678   c-0.3352318-0.4060097-0.6788826-0.7921257-1.0338783-1.1471233c-2.776844-2.7768402-7.1740723-5.5395927-12.0639439-7.5811253   c-3.5825996-1.495142-6.0943336-2.0384026-7.319149-2.0384026c-0.2634125,0-0.4446945,0.0324192-0.5869026,0.078474   L31.0015087,30.7018414z"/><path d="M29.5137386,40.2483749c0.3573456,0.3573456,0.7465267,0.7030144,1.1554718,1.0403366   c1.4821606-0.040966,3.0388813,0.0067177,4.4976254,0.1598206c-1.100872-1.4959908-2.1541252-3.2484779-3.0458641-5.0927467   c-0.7846222-1.6224747-1.9404869-4.3571758-1.4263191-5.3554382L19.9554634,20.261158   C19.1891041,22.228653,23.3528671,34.0869827,29.5137386,40.2483749z"/><path d="M79.7304764,80.036171L68.9942856,69.2999878c-0.1548615,0.0731201-0.3407745,0.1221771-0.5865097,0.1221771   c-1.9357224,0-6.4561806-2.1483841-9.8495369-4.6134109c0.1587105,1.4243622,0.2141609,2.967514,0.1632767,4.5366974   c0.3315163,0.4006653,0.6714439,0.7811661,1.0222702,1.1319275C65.9047852,76.638382,77.766243,80.8069,79.7304764,80.036171z"/><path d="M70.4743652,59.7467995c-0.3566971-0.3567619-0.7448959-0.7019081-1.1529999-1.0386429   c-0.3620377,0.0114174-0.7279358,0.0397949-1.0858002,0.0397949c-1.1830673,0-2.3361969-0.0636024-3.4223862-0.1842194   c2.7777481,3.8253975,5.1365128,9.067524,4.4849625,10.434742l10.7181854,10.7181854   c0.2606735-0.8043213-0.1439667-3.555069-1.9603195-7.9064407C76.014473,66.9203491,73.2517242,62.5231171,70.4743652,59.7467995z"/><path d="M40.2453613,70.4773788c0.3567581-0.3566971,0.7018394-0.7450256,1.0386391-1.1531906   c-0.040966-1.4826202,0.006916-3.0399933,0.1600838-4.4991226c-1.4956665,1.1004105-3.2473679,2.1536026-5.0907898,3.0450745   c-1.3474541,0.6512909-3.4777069,1.5739441-4.7333107,1.5739441c-0.2563019,0-0.4578056-0.0557098-0.6270866-0.142662   L20.2582092,80.0361099C22.225769,80.8056641,34.084095,76.6391602,40.2453613,70.4773788z"/><path d="M32.1355858,63.6534767c0.8914108-1.8538589,1.9410744-3.610714,3.0361404-5.1065102   c-1.1375313,0.1196365-2.335865,0.1769791-3.5115604,0.1769791c-0.3341885,0-0.6651154-0.0063286-0.9936943-0.0153961   c-0.4080334,0.3366661-0.7961693,0.6816864-1.1527328,1.03825c-2.7768421,2.7763176-5.5395927,7.1735497-7.5811272,12.0634193   c-1.8166103,4.3518906-2.2211208,7.1028366-1.9605789,7.9067078l10.7272511-10.7272568   C30.1933365,67.9558563,31.5056953,64.9642029,32.1355858,63.6534767z"/><path d="M64.8078232,41.4368553c1.4153671-0.1540794,2.9509506-0.2054825,4.5160217-0.1518631   c0.4072495-0.3361435,0.7946091-0.6806412,1.1505203-1.0366173c6.1615829-6.161068,10.3251495-18.0184174,9.5584641-19.9868908   L69.2984695,30.9958477C69.9493637,32.3654137,67.58741,37.6119156,64.8078232,41.4368553z"/><path d="M59.7437859,29.5167522c-0.3572845,0.3572159-0.7028236,0.7462654-1.0400772,1.1550827   c0.0412903,1.4899883-0.0075684,3.0549946-0.1624298,4.5205212c3.8266373-2.7841492,9.0834389-5.1526299,10.4546394-4.499321   l10.7170792-10.7170753c-0.1422119-0.0460548-0.3236237-0.0787354-0.5871658-0.0787354   c-1.2242966,0-3.7355042,0.5432606-7.3186264,2.0384026C66.9173355,23.9771595,62.5201035,26.739912,59.7437859,29.5167522z"/><path d="M36.7939453,36.4937553c1.044445-0.6527214,3.855793,0.1062622,4.4424362,0.2779579   c0.127594,0.0372467,0.2830467,0.0853882,0.4494553,0.1388168c-0.0342484-0.1858521-0.0709076-0.3676567-0.1011124-0.5597649   c-3.6599655-2.877758-8.4775581-4.832859-9.8763504-4.9425793L36.7939453,36.4937553z"/><path d="M36.3585129,41.6024818c0.1845436,0.0280495,0.3606071,0.0616455,0.5394135,0.093544   c-0.6904945-2.1096382-0.907196-4.0980072-0.4144936-4.9074173l-5.144865-5.1448669   C31.3274784,32.8966713,33.4448776,37.9070282,36.3585129,41.6024818z"/><path d="M63.634285,58.3956261c-0.1908073-0.0304642-0.3884621-0.0555153-0.573204-0.0899582   c0.6854057,2.1084633,0.9143066,4.0989876,0.4424095,4.8972435l5.1241264,5.1239929   C68.5547485,67.0654907,66.5701599,62.1235657,63.634285,58.3956261z"/><path d="M68.304512,68.60923l-5.0980263-5.0979614c-0.310379,0.1971321-0.7617912,0.2778931-1.2729568,0.2778931   c-1.2420387,0-2.7846718-0.4300156-3.1990318-0.5521317c-0.1224403-0.0362053-0.2728691-0.0835648-0.4315147-0.1349678   c0.0330734,0.1791306,0.0687561,0.3543434,0.098175,0.5391502C62.0292244,66.4960709,66.913681,68.5742035,68.304512,68.60923z"/><path d="M31.4058228,68.2820892l5.0792427-5.0790482c-0.4730721-0.799366-0.2427979-2.7949104,0.4452171-4.9068298   c-0.18396,0.0330086-0.377243,0.0582542-0.5673332,0.0872803C33.4765816,62.0456772,31.515871,66.8811417,31.4058228,68.2820892z"/><path d="M41.5980988,63.6327972c0.0277214-0.1819344,0.0609283-0.3555183,0.0923042-0.5319748   c-0.1605377,0.0520554-0.3121414,0.0996094-0.4357567,0.1362076c-0.4148827,0.1221161-1.9569931,0.5521317-3.1995506,0.5521317   c-0.5114937,0-0.9631004-0.0806923-1.2730904-0.2777634l-5.139452,5.1393204   C32.8982887,68.6540451,37.90382,66.5438919,41.5980988,63.6327972z"/><path d="M58.3905258,36.3602219c-0.0287704,0.1891098-0.0630836,0.3696098-0.095829,0.552784   c0.1699982-0.0546646,0.3276672-0.1033287,0.4575462-0.1412926c0.5842896-0.1717606,3.3975983-0.9321823,4.4423065-0.2778282   l5.1279068-5.1279049C67.0669785,31.4351254,62.122963,33.4201698,58.3905258,36.3602219z"/><path d="M68.6077194,31.6860771l-5.102726,5.102726c0.4924431,0.8084984,0.2769127,2.7934761-0.4118843,4.9006348   c0.1810226-0.0332031,0.3577385-0.0690155,0.5446968-0.0983696C66.4936447,37.9635849,68.5748444,33.078022,68.6077194,31.6860771z   "/><path d="M24.8551178,43.0408707l13.0701637,3.5021667c0.3859825-0.1636696,0.7794037-0.3109627,1.173542-0.44104   c-0.7407875-0.9923248-1.3785057-2.2164879-1.8652077-3.4660912c-1.7033653-0.3640022-3.5441132-0.5182114-5.2911205-0.5182114   C28.6745148,42.1176949,25.7689037,42.6081161,24.8551178,43.0408707z"/><path d="M33.7313156,49.438343c0.496685-0.8141747,1.9136124-1.8285484,3.577774-2.6174126l-12.6483002-3.389183   C25.2649136,44.5004616,29.4479179,47.6709824,33.7313156,49.438343z"/><path d="M75.158165,56.9629135L62.0970688,53.463028c-0.3931618,0.1656265-0.795063,0.3147507-1.1985931,0.445282   c0.7218018,0.9837799,1.347908,2.2065735,1.829525,3.4571571C67.5473557,58.3992805,73.8123398,57.6976318,75.158165,56.9629135z"/><path d="M66.263504,50.5610695c-0.4864426,0.8254585-1.8864136,1.8394432-3.5480919,2.6247177l12.579998,3.3709183   C74.6148376,55.5208702,70.5743027,52.3449974,66.263504,50.5610695z"/><path d="M43.0385094,75.1285629l3.4907532-13.0272408c-0.1641273-0.389637-0.3117485-0.7879524-0.4414978-1.1878319   c-1.1346664,0.8506393-2.4320183,1.4586143-3.4701385,1.856144C41.5767021,67.6630249,42.3748932,73.7384415,43.0385094,75.1285629   z"/><path d="M49.431221,66.2669067c-0.8255272-0.4859848-1.8393784-1.8856888-2.6246529-3.5473709l-3.3793983,12.6118317   C44.4954262,74.7275696,47.6633377,70.5482178,49.431221,66.2669067z"/><path d="M50.5537491,33.7346573c0.8141747,0.4971428,1.8285484,1.914135,2.6174774,3.5781631l3.3806381-12.6173134   C55.5171394,25.3750401,52.3375473,29.4210548,50.5537491,33.7346573z"/><path d="M56.9576149,24.8341923l-3.5085602,13.09482c0.1622353,0.3825264,0.3082924,0.7724266,0.4375839,1.163105   c1.1314011-0.8471146,2.4337158-1.4529343,3.4797897-1.8500748C58.3933296,32.4249077,57.6925964,26.1787109,56.9576149,24.8341923   z"/><path d="M24.7518539,56.5392876l12.5194664-3.3544807c-1.6616821-0.7855988-3.0610619-1.7998428-3.546463-2.6252365   C29.4938412,52.311142,25.5313244,55.4048195,24.7518539,56.5392876z"/><path d="M37.2604904,57.3650742c0.4818115-1.2505188,1.1080475-2.4731827,1.8300476-3.4566345   c-0.4043121-0.1307945-0.8071938-0.2802429-1.2011337-0.4462585l-13.1190891,3.5151482   C25.9556007,57.676693,32.3580284,58.4187851,37.2604904,57.3650742z"/><path d="M75.266777,43.447403l-12.5882874,3.3728104c1.6637039,0.7884064,3.0806961,1.8023262,3.5784912,2.6165009   C70.4584427,47.70158,74.5559921,44.6142273,75.266777,43.447403z"/><path d="M62.7602272,42.6227264c-0.4872932,1.2540398-1.1267052,2.4833603-1.8701019,3.4792709   c0.3936806,0.129879,0.7865143,0.2769814,1.171978,0.4403877l13.1224136-3.5159302   C73.9505005,42.4047203,67.7384872,41.5638657,62.7602272,42.6227264z"/><path d="M56.534317,75.238739l-3.3640671-12.5543671c-0.7891922,1.6641617-1.8038254,3.0806961-2.6178055,3.5768585   C52.3040848,70.4945297,55.3995247,74.4590073,56.534317,75.238739z"/><path d="M57.3676682,62.7679367c-1.0420303-0.3994217-2.3444099-1.010067-3.4810295-1.8650131   c-0.1294899,0.3913994-0.2758713,0.7822113-0.4384995,1.1654549l3.5241547,13.1517677   C57.6695023,74.0375366,58.4076805,67.6651154,57.3676682,62.7679367z"/><path d="M43.4414558,24.7227745l3.3640022,12.5549507c0.7847519-1.6613541,1.7984772-3.0613861,2.6240005-3.5485497   C47.6934738,29.5278416,44.6069717,25.4323139,43.4414558,24.7227745z"/><path d="M42.6193886,37.2410011c1.0420952,0.3955078,2.3389282,0.9985847,3.4681778,1.8408737   c0.129425-0.3991585,0.2768517-0.7966881,0.4406509-1.1857414l-3.5073204-13.0897961   C42.3979187,26.0430908,41.5560226,32.261631,42.6193886,37.2410011z"/><path d="M37.4300957,37.1212959l9.9753761,9.9817047c-0.9535789-1.5756416-1.846489-3.4833832-1.846489-5.1215134   c0-0.6302834,0.100853-1.3176422,0.2737846-2.0188332c-1.1896553-0.9516869-2.9317055-1.8136749-4.8359222-2.3700485   c-1.3411903-0.391922-2.3603935-0.520298-3.0043755-0.520298C37.7483673,37.0723076,37.5640182,37.0918121,37.4300957,37.1212959z"/><path d="M39.965313,45.8448486c0.7045174-0.1787376,1.3909645-0.2828484,2.0131607-0.2828484   c1.6429596,0,3.5572243,0.8981285,5.1354713,1.8548355L37.1169128,37.413475   C36.8132515,38.5215263,37.7162094,43.0956001,39.965313,45.8448486z"/><path d="M60.0298309,54.1591301c-0.7015152,0.1730614-1.3891373,0.274044-2.01968,0.274044   c-1.6408081,0-3.5525932-0.8963013-5.1299286-1.851902l9.983139,9.9894638   C63.117115,61.469017,62.2409706,56.8905678,60.0298309,54.1591301z"/><path d="M58.9766426,62.4166565c1.8825607,0.5565681,3.1036606,0.5801849,3.5846863,0.4574165l-9.9809837-9.9873123   c0.9548149,1.5766144,1.8498154,3.4867706,1.8498154,5.1264038c0,0.6216698-0.1038513,1.3073997-0.2823296,2.0112648   C55.3404236,60.9861603,57.0817528,61.856369,58.9766426,62.4166565z"/><path d="M37.1246109,62.5708694l9.9832039-9.9891396c-1.5771408,0.9554024-3.4885368,1.8514442-5.1293411,1.8514442   c-0.6305428,0-1.3181648-0.1009827-2.019619-0.274044C37.7466736,56.8903732,36.8708534,61.4712982,37.1246109,62.5708694z"/><path d="M45.8326378,60.0312157c-0.1727371-0.7009315-0.2736549-1.388031-0.2736549-2.0180511   c0-1.6399574,0.895195-3.5505066,1.8500748-5.1273193l-9.9823532,9.9883575   c0.4812889,0.124073,1.7009506,0.0990219,3.5852737-0.4575462C42.9028244,61.8576736,44.6397209,60.990139,45.8326378,60.0312157z"/><path d="M62.8709259,37.4137383l-9.9968376,10.0035553c1.5784454-0.9568405,3.493103-1.8552933,5.1360626-1.8552933   c0.6221275,0,1.308445,0.1040459,2.012764,0.2827187C62.27248,43.0950165,63.1751747,38.5218506,62.8709259,37.4137383z"/><path d="M54.1475716,39.9695663c0.1786079,0.7040634,0.282589,1.3900528,0.282589,2.0119209   c0,1.6378059-0.8927803,3.5451546-1.8462257,5.1205978l9.9740677-9.9807892   c-0.1335945-0.0294838-0.3176842-0.0489883-0.5618515-0.0489883c-0.6450233,0-1.6637039,0.128376-3.0048943,0.520298   C57.083252,38.1499557,55.3370934,39.0150146,54.1475716,39.9695663z"/><path d="M50.2082748,34.4986v14.5468445c1.0709953-1.3910294,3.3660278-4.6528778,3.3660278-7.0639572   C53.5743027,38.9578018,51.1472397,35.1514549,50.2082748,34.4986z"/><path d="M46.4137993,41.9814873c0,2.413559,2.2954865,5.6742973,3.3665466,7.0642853V34.4847069   C48.8473816,35.0881119,46.4137993,38.8601494,46.4137993,41.9814873z"/><path d="M49.7803459,65.508049V50.9491425c-1.0710602,1.3909645-3.3665466,4.6528778-3.3665466,7.0640221   C46.4137993,61.1318283,48.8439255,64.9009933,49.7803459,65.508049z"/><path d="M53.5743027,58.0131645c0-2.4110794-2.2950325-5.6729279-3.3660278-7.0639572v14.5480156   C51.1437836,64.8491364,53.5743027,61.0394554,53.5743027,58.0131645z"/><path d="M34.4955215,49.7833595h14.5469742c-1.3909645-1.0710602-4.6528778-3.3665466-7.0640221-3.3665466   C38.9538116,46.4168129,35.1479187,48.8443298,34.4955215,49.7833595z"/><path d="M41.9784737,53.5773163c2.4134903,0,5.6742325-2.2950287,7.0642166-3.3660278h-14.560997   C35.0850983,51.1441879,38.8571358,53.5773163,41.9784737,53.5773163z"/><path d="M65.5050354,50.2112885H50.9461937c1.3910294,1.0709991,4.6528778,3.3660278,7.0639572,3.3660278   C61.1288109,53.5773163,64.8979797,51.1477089,65.5050354,50.2112885z"/><path d="M58.0101509,46.4168129c-2.4111443,0-5.6730614,2.2954865-7.0640259,3.3665466h14.5480843   C64.8461151,48.8477249,61.0364418,46.4168129,58.0101509,46.4168129z"/></g><text x="0" y="115" fill="#000000" font-size="5px" font-weight="bold" font-family="'Helvetica Neue', Helvetica, Arial-Unicode, Arial, Sans-serif">Created by emilegraphics</text><text x="0" y="120" fill="#000000" font-size="5px" font-weight="bold" font-family="'Helvetica Neue', Helvetica, Arial-Unicode, Arial, Sans-serif">from the Noun Project</text></svg>