<svg xmlns:dc="http://purl.org/dc/elements/1.1/" xmlns:cc="http://creativecommons.org/ns#" xmlns:rdf="http://www.w3.org/1999/02/22-rdf-syntax-ns#" xmlns:svg="http://www.w3.org/2000/svg" xmlns="http://www.w3.org/2000/svg" xmlns:sodipodi="http://sodipodi.sourceforge.net/DTD/sodipodi-0.dtd" xmlns:inkscape="http://www.inkscape.org/namespaces/inkscape" viewBox="0 0 12.7 15.875" version="1.1" x="0px" y="0px"><g transform="translate(0,-284.29998)"><path style="" d="m 6.8516839,291.06866 a 0.50210935,0.50210935 0 1 0 -1.0040408,0 0.50210935,0.50210935 0 1 0 1.0040408,0 z" fill="#000000" stroke="none"/><path style="" d="m 3.5427094,287.15437 a 1.8303808,1.8303808 0 0 0 -2.1365409,0.56881 1.8559131,1.8559131 0 0 1 1.0647559,-2.14392 l 1.3762775,-0.5969 a 1.8559131,1.8559131 0 0 1 2.3113515,0.71771 5.442399,5.442399 0 0 1 0.822201,3.18346 4.976421,4.976421 0 0 0 -0.6310909,1.21676 4.976421,4.976421 0 0 0 -2.8069541,-2.94592 z" fill="#000000" stroke="none"/><path style="" d="m 9.247894,290.36009 -1.8898093,0.2618 1.4846682,-0.96717 a 0.10782155,0.10782155 0 0 0 -0.117661,-0.18071 l -1.7963936,1.1702 a 0.71773634,0.71773634 0 0 0 -0.4392678,-0.27956 4.760794,4.760794 0 0 1 2.7491932,-3.01073 1.6147538,1.6147538 0 0 1 1.9974873,0.66593 l 0.675303,1.12983 a 1.6147538,1.6147538 0 0 1 -0.641075,2.26122 4.760794,4.760794 0 0 1 -1.3785183,0.46618 4.976421,4.976421 0 0 0 -2.540867,-1.03655 l 1.9268904,-0.26686 a 0.10783788,0.10783788 0 0 0 -0.029543,-0.21358 z" fill="#000000" stroke="none"/><path style="" d="m 7.2039538,288.59135 a 4.976421,4.976421 0 0 1 1.9526637,-1.43698 1.8303808,1.8303808 0 0 1 2.1365405,0.56881 1.8559131,1.8559131 0 0 0 -1.064042,-2.14392 l -1.3770928,-0.5969 a 1.8559131,1.8559131 0 0 0 -2.3112497,0.71771 5.442399,5.442399 0 0 0 -0.066216,0.10939 5.6580261,5.6580261 0 0 1 0.7294984,2.78189 z" fill="#000000" stroke="none"/><path style="" d="m 2.0465297,292.97211 a 1.6147538,1.6147538 0 0 0 0.1625862,2.09921 l 0.9321198,0.92886 a 1.6147538,1.6147538 0 0 0 2.3490438,-0.0745 4.760794,4.760794 0 0 0 0.4101328,-0.535 0.53845531,0.53845531 0 0 1 0.8992155,0 4.760794,4.760794 0 0 0 0.4093177,0.535 1.6147538,1.6147538 0 0 0 2.3491457,0.0745 l 0.9327308,-0.92886 a 1.6147538,1.6147538 0 0 0 0.162688,-2.09921 4.760794,4.760794 0 0 0 -3.5871839,-1.93825 0.71773634,0.71773634 0 0 1 -0.1647254,0.49364 l 1.5703417,1.45952 a 0.10785792,0.10785792 0 0 1 -0.146898,0.15796 l -1.2979387,-1.20635 0.7117729,1.77051 a 0.10795455,0.10795455 0 0 1 -0.2003803,0.0804 l -0.8408434,-2.09301 a 0.71773634,0.71773634 0 0 1 -0.6959828,0 l -0.8408434,2.09301 a 0.10795455,0.10795455 0 0 1 -0.2003803,-0.0804 l 0.7117728,-1.77051 -1.2979387,1.20635 a 0.10785792,0.10785792 0 0 1 -0.146898,-0.15796 l 1.5703418,-1.45952 a 0.71773634,0.71773634 0 0 1 -0.1647255,-0.49364 4.760794,4.760794 0 0 0 -3.5864711,1.93825 z" fill="#000000" stroke="none"/><path style="" d="m 3.422196,290.57367 1.9261772,0.26686 a 4.976421,4.976421 0 0 0 -2.540867,1.03655 4.760794,4.760794 0 0 1 -1.3785186,-0.46618 1.6147538,1.6147538 0 0 1 -0.64036125,-2.26122 l 0.67530295,-1.12983 a 1.6147538,1.6147538 0 0 1 1.997487,-0.66593 4.760794,4.760794 0 0 1 2.7484801,3.01073 0.71773634,0.71773634 0 0 0 -0.4385547,0.27956 l -1.7963936,-1.1702 a 0.10784735,0.10784735 0 0 0 -0.1177629,0.18071 l 1.4847701,0.96717 -1.8905224,-0.2618 a 0.10781349,0.10781349 0 0 0 -0.029543,0.21358 z" fill="#000000" stroke="none"/></g><text x="0" y="27.7" fill="#000000" font-size="5px" font-weight="bold" font-family="'Helvetica Neue', Helvetica, Arial-Unicode, Arial, Sans-serif">Created by Phạm Thanh Lộc</text><text x="0" y="32.7" fill="#000000" font-size="5px" font-weight="bold" font-family="'Helvetica Neue', Helvetica, Arial-Unicode, Arial, Sans-serif">from the Noun Project</text></svg>