<svg xmlns="http://www.w3.org/2000/svg" xmlns:xlink="http://www.w3.org/1999/xlink" xml:space="preserve" version="1.1" style="shape-rendering:geometricPrecision;text-rendering:geometricPrecision;image-rendering:optimizeQuality;" viewBox="0 0 143 200" x="0px" y="0px" fill-rule="evenodd" clip-rule="evenodd"><defs><style type="text/css">
   
    .fil1 {fill:black;fill-rule:nonzero}
    .fil0 {fill:black;fill-rule:nonzero}
   
  </style></defs><g><path class="fil0" d="M89 19c7,5 -8,10 -10,3 -2,-4 8,-5 10,-3z"/><path class="fil0" d="M115 36c-6,8 -9,11 -18,9 15,-10 13,-23 3,-29 -6,-3 -7,-10 -20,-6 2,-12 14,-10 25,-3 2,1 22,8 10,29z"/><path class="fil0" d="M72 30c-5,-7 2,-10 4,-9 5,14 22,-3 20,6 -4,8 -17,11 -24,3z"/><path class="fil0" d="M94 13c4,1 4,9 -1,8 2,-9 -23,-2 -24,2 -1,1 -1,2 -1,3 -3,2 -8,-4 -3,-8 8,-8 24,-10 29,-5z"/><path class="fil0" d="M68 28c15,18 33,1 29,-4 0,-4 2,-5 1,-8 8,5 9,11 6,17 -4,11 -20,12 -29,9 -7,-2 -14,-10 -7,-14z"/><path class="fil0" d="M98 72c-2,-7 19,-6 24,-23 13,14 -19,31 -24,23z"/><path class="fil0" d="M76 9c-7,1 -19,8 -13,16 -6,14 15,26 31,19 6,6 -27,16 -40,-3 -11,-19 10,-42 23,-33 0,0 0,1 -1,1z"/><path class="fil0" d="M123 44c-8,15 -16,21 -35,20 -5,0 -28,-2 -28,-15 2,3 18,10 35,-1 14,2 23,-10 24,-17 10,2 7,6 4,13z"/><path class="fil0" d="M77 6c-22,-9 -40,26 -19,41 -2,5 -29,-2 -21,-24 9,-29 41,-25 40,-17z"/><path class="fil0" d="M95 66c3,0 -1,7 -11,9 -22,5 -44,-13 -43,-29 5,3 10,5 15,5 3,8 12,12 20,14 10,2 13,1 19,1z"/><path class="fil0" d="M117 96c0,-1 0,-1 1,-2 -4,-2 -15,1 -17,3 0,-2 -1,-2 0,-4 -4,0 -12,6 -14,7 0,-1 -1,-1 -1,-2 -1,1 -2,2 -5,5 -5,6 -7,17 -6,18 1,0 2,0 3,-1 1,-5 3,-10 7,-15 -1,2 -6,10 -5,15 1,0 3,-2 7,-3 3,-7 4,-12 10,-18 -4,6 -7,9 -8,17 5,0 14,-3 17,-8 0,0 0,-1 0,-1 2,-2 5,-4 7,-6 -5,6 -8,9 -7,10 0,1 5,1 13,0 2,-3 4,-4 7,-6 -2,1 -5,4 -5,6 4,-1 13,3 17,2 -3,2 -14,-2 -16,0 2,2 5,4 9,6 -4,-2 -7,-4 -11,-6 -2,0 -5,0 -7,0 2,5 5,7 9,8 -10,-1 -5,-10 -19,-7 -2,1 -4,1 -5,2 2,5 8,10 13,11 -5,2 -13,-8 -15,-11 -5,1 -9,2 -10,4 3,3 9,6 14,9 -6,-2 -11,-4 -16,-8 -2,1 -5,1 -7,3 3,5 12,8 16,10 -1,-2 0,-2 0,-3 4,3 12,4 17,4 0,-1 -1,-2 -1,-3 3,1 7,0 10,0 -1,-1 -1,-2 -1,-3 4,1 6,0 11,-2 -1,-2 -1,-3 -2,-4 3,1 8,-1 11,-2 -1,-2 0,-2 -1,-3 2,0 4,-1 6,-5 -3,-3 -6,-4 -7,-4 0,-1 1,-1 2,-3 -5,-5 -10,-1 -8,-6 -4,-3 -5,-4 -13,-4z"/><path class="fil1" d="M77 78c0,35 -32,68 -59,82 29,-4 64,-48 65,-82l-6 0z"/><path class="fil0" d="M36 72c0,-1 1,-1 1,-2 5,1 13,10 14,14 0,-2 1,-2 2,-4 4,2 7,14 8,16 1,-1 2,0 3,-2 0,2 1,4 1,9 0,8 -5,21 -7,20 -1,0 -2,-1 -2,-2 3,-6 4,-12 4,-19 -1,3 -1,13 -6,17 -1,-1 -2,-4 -4,-7 1,-9 4,-14 2,-24 0,8 1,14 -4,21 -4,-4 -11,-13 -9,-19 0,0 0,0 0,0 -1,-4 -2,-7 -3,-11 1,9 2,13 0,14 -1,1 -5,-3 -12,-9 0,-3 -1,-6 -2,-10 0,2 1,7 0,9 -3,-4 -14,-7 -17,-9 2,3 14,6 16,10 -4,0 -8,0 -14,-1 5,1 10,2 15,3 2,0 4,3 6,4 -5,3 -9,3 -13,2 9,5 10,-6 22,6 1,1 3,3 3,5 -5,3 -14,4 -19,2 3,4 17,1 21,0 3,4 7,8 7,10 -5,1 -14,0 -19,-1 6,1 13,4 20,4 1,2 3,4 4,7 -6,3 -16,0 -22,-2 2,-1 2,-2 3,-3 -6,1 -14,-4 -19,-7 1,-1 2,-1 3,-2 -4,-2 -6,-5 -9,-8 1,0 2,-1 2,-1 -3,-2 -5,-5 -8,-10 3,-1 2,-2 4,-2 -3,-2 -7,-6 -8,-10 2,0 1,-1 3,-1 -2,-2 -3,-4 -3,-9 5,-1 9,0 10,0 1,0 -1,-1 0,-3 8,-1 10,5 11,-1 6,1 7,0 15,6z"/></g><text x="0" y="175" fill="#000000" font-size="5px" font-weight="bold" font-family="'Helvetica Neue', Helvetica, Arial-Unicode, Arial, Sans-serif">Created by kareemovic</text><text x="0" y="180" fill="#000000" font-size="5px" font-weight="bold" font-family="'Helvetica Neue', Helvetica, Arial-Unicode, Arial, Sans-serif">from the Noun Project</text></svg>