<svg xmlns="http://www.w3.org/2000/svg" xmlns:xlink="http://www.w3.org/1999/xlink" version="1.1" x="0px" y="0px" viewBox="0 0 100 125" enable-background="new 0 0 100 100" xml:space="preserve"><g><path d="M85.155,58.218c0,19.326-15.667,34.993-34.993,34.993S15.169,77.544,15.169,58.218S14.845,7.113,14.845,7.113   S85.155,38.892,85.155,58.218z"/><path d="M85.155,7.113c0,0-14.503,6.562-30.332,15.526c11.635,7.116,22.783,14.948,30.045,22.429   C84.951,27.14,85.155,7.113,85.155,7.113z"/><path d="M48.866,6.789c0,0-3.235,3.085-7.691,7.903c3.335,1.855,6.741,3.813,10.137,5.834c2.55-1.43,5.062-2.81,7.515-4.133   C53.177,10.604,48.866,6.789,48.866,6.789z"/></g><text x="0" y="115" fill="#000000" font-size="5px" font-weight="bold" font-family="'Helvetica Neue', Helvetica, Arial-Unicode, Arial, Sans-serif">Created by Kevin Kwok</text><text x="0" y="120" fill="#000000" font-size="5px" font-weight="bold" font-family="'Helvetica Neue', Helvetica, Arial-Unicode, Arial, Sans-serif">from the Noun Project</text></svg>