<svg xmlns="http://www.w3.org/2000/svg" xmlns:xlink="http://www.w3.org/1999/xlink" version="1.1" x="0px" y="0px" viewBox="0 0 512 640" style="enable-background:new 0 0 512 512;" xml:space="preserve"><g><g><path d="M106.79,208.625c0.553,0.831,1.126,1.653,1.717,2.466c0.111,0.152,0.218,0.306,0.33,0.458    c0.665,0.901,1.353,1.791,2.064,2.668c0.126,0.156,0.259,0.308,0.387,0.462c0.59,0.715,1.196,1.421,1.818,2.118    c0.204,0.229,0.407,0.458,0.614,0.684c0.756,0.828,1.527,1.648,2.328,2.449c1.055,1.055,2.182,2.057,3.373,3.014    c18.404,14.791,52.539,18.297,85.618,21.694c5.218,0.536,10.613,1.09,15.87,1.68c0.06,0.007,0.117,0.022,0.176,0.031    c0.895,0.101,1.791,0.199,2.681,0.303c1.112-3.838,2.904-7.386,5.216-10.527l-61.752-61.949c-1.95-1.956-1.945-5.122,0.011-7.071    c1.955-1.95,5.122-1.944,7.071,0.011l61.725,61.922c3.134-2.329,6.677-4.136,10.514-5.261c-0.484-4.362-0.927-8.774-1.354-13.152    c-0.001-0.015-0.005-0.028-0.007-0.042c-0.219-2.232-0.434-4.468-0.649-6.703c-3.243-33.668-6.592-68.447-22.679-86.471    c-0.52-0.582-1.053-1.147-1.599-1.693c-3.142-3.103-6.515-5.925-10.003-8.367c-0.002-0.001-0.003-0.003-0.005-0.004    c-0.127-0.089-0.253-0.181-0.381-0.269c-0.566-0.39-1.136-0.773-1.712-1.147c-0.157-0.102-0.316-0.199-0.474-0.3    c-7.147-4.55-15.046-7.843-23.396-9.711c-5.239-1.165-10.638-1.784-16.135-1.784c-19.685,0-38.19,7.665-52.107,21.582    c-25.094,25.094-28.268,63.932-9.527,92.506C106.609,208.357,106.7,208.491,106.79,208.625z"/><path d="M256.004,209.742c0.325-0.48,0.642-0.944,0.946-1.389l0.459-4.452c3.789-36.914,7.707-75.084,27.593-94.929    c0.04-0.04,0.081-0.078,0.121-0.117c0.579-0.577,1.164-1.143,1.755-1.7c0.116-0.109,0.234-0.215,0.352-0.324    c0.208-0.194,0.417-0.385,0.626-0.577c0.086-0.079,0.171-0.159,0.258-0.237c0.266-0.241,0.533-0.479,0.802-0.717    c0.042-0.037,0.085-0.074,0.128-0.111c0.688-0.606,1.384-1.197,2.086-1.775c0.022-0.019,0.045-0.037,0.067-0.055    c0.292-0.241,0.582-0.486,0.876-0.722c-9.47-9.5-22.268-14.857-35.844-14.857c-13.501,0-26.254,5.321-35.718,14.757    c0.28,0.225,0.563,0.443,0.841,0.672c0.882,0.727,1.745,1.479,2.599,2.244c0.246,0.22,0.489,0.442,0.733,0.666    c0.888,0.814,1.765,1.641,2.621,2.496c0.002,0.002,0.005,0.004,0.007,0.007c0.001,0.001,0.001,0.002,0.002,0.002    c0.007,0.007,0.014,0.013,0.02,0.02c0.625,0.625,1.235,1.268,1.829,1.928c13.979,15.519,19.38,40.289,22.653,66.795    c1.053,8.51,1.89,17.197,2.717,25.818c0.163,1.695,0.33,3.42,0.497,5.14C255.355,208.794,255.68,209.267,256.004,209.742z"/><path d="M256.229,77.781c16.846,0,32.678,6.905,44.123,19.061c0.537-0.332,1.077-0.659,1.622-0.979    c0.178-0.104,0.359-0.203,0.538-0.305c1.263-0.728,2.543-1.418,3.839-2.077c0.227-0.115,0.454-0.23,0.682-0.343    c2.201-1.092,4.447-2.084,6.735-2.975c0.211-0.082,0.422-0.164,0.634-0.245c2.219-0.843,4.474-1.592,6.762-2.243    c0.197-0.056,0.393-0.119,0.59-0.174C314.546,57.396,287.726,36,256.312,36c-31.317,0-58.115,21.299-65.39,51.276    c7.524,2.115,14.699,5.276,21.349,9.418C223.71,84.632,239.481,77.781,256.229,77.781z"/><path d="M278.111,264.117c0.007-0.018,0.013-0.035,0.02-0.053c0.234-0.642,0.438-1.298,0.616-1.965    c0.029-0.108,0.059-0.216,0.086-0.324c0.134-0.531,0.246-1.071,0.343-1.616c0.034-0.191,0.073-0.382,0.103-0.576    c0.177-1.162,0.27-2.352,0.27-3.563c0-10.912-7.441-20.112-17.507-22.783c-0.078-0.021-0.155-0.042-0.234-0.062    c-0.646-0.165-1.305-0.299-1.972-0.409c-0.082-0.014-0.162-0.031-0.243-0.043c-1.165-0.178-2.357-0.271-3.571-0.271    c-10.896,0-20.085,7.434-22.771,17.495c-0.027,0.102-0.056,0.203-0.081,0.306c-0.113,0.449-0.21,0.903-0.298,1.362    c-0.053,0.283-0.108,0.566-0.151,0.853c-0.176,1.159-0.268,2.346-0.268,3.554c0,10.125,6.441,18.777,15.448,22.088    c0.028,0.01,0.056,0.02,0.084,0.029c0.628,0.229,1.27,0.427,1.92,0.602c0.123,0.033,0.245,0.067,0.368,0.098    c0.412,0.104,0.829,0.194,1.249,0.276c0.313,0.06,0.625,0.119,0.942,0.166c1.16,0.177,2.348,0.269,3.557,0.269    C266.15,279.548,274.805,273.113,278.111,264.117z"/><path d="M320.546,98.339c-0.666,0.225-1.331,0.454-1.989,0.698c-0.099,0.037-0.195,0.076-0.293,0.113    c-1.445,0.542-2.871,1.131-4.276,1.763c-0.145,0.065-0.289,0.126-0.433,0.192c-0.668,0.305-1.331,0.624-1.989,0.949    c-0.234,0.116-0.468,0.235-0.701,0.354c-1.958,0.993-3.868,2.078-5.731,3.244c-0.355,0.223-0.712,0.445-1.064,0.675    c-0.482,0.313-0.961,0.634-1.436,0.959c-0.457,0.313-0.91,0.635-1.36,0.959c-0.384,0.275-0.771,0.545-1.149,0.829    c-0.79,0.591-1.568,1.201-2.337,1.826c-0.288,0.234-0.571,0.477-0.856,0.715c-0.582,0.488-1.159,0.985-1.729,1.493    c-0.258,0.229-0.517,0.459-0.771,0.692c-0.799,0.733-1.589,1.478-2.36,2.249c-0.542,0.542-1.071,1.104-1.587,1.682    c-11.812,13.249-16.874,35.928-20.125,60.62c-0.018,0.134-0.036,0.268-0.054,0.402c-0.039,0.297-0.076,0.596-0.114,0.894    c-1.078,8.4-1.959,17.016-2.83,25.563c-0.624,6.115-1.264,12.396-1.974,18.559c3.826,1.111,7.362,2.9,10.495,5.208l61.942-61.746    c1.958-1.949,5.123-1.944,7.071,0.011c1.949,1.956,1.944,5.122-0.011,7.071l-61.919,61.722c2.328,3.135,4.135,6.679,5.259,10.517    c4.362-0.484,8.773-0.927,13.152-1.354c0.014-0.001,0.027-0.005,0.041-0.007c2.232-0.219,4.469-0.434,6.703-0.649    c33.669-3.243,68.447-6.592,86.471-22.679c0.582-0.52,1.146-1.053,1.693-1.599c3.1-3.138,5.92-6.508,8.361-9.995    c0.095-0.134,0.19-0.267,0.284-0.402c0.385-0.561,0.766-1.125,1.135-1.695c0.11-0.169,0.216-0.341,0.324-0.511    c4.529-7.122,7.811-14.99,9.679-23.306c1.174-5.258,1.798-10.679,1.798-16.198c0-19.685-7.664-38.19-21.581-52.107    s-32.423-21.582-52.107-21.582c-5.761,0-11.415,0.675-16.889,1.953c-0.893,0.209-1.78,0.435-2.661,0.677    c-0.417,0.114-0.834,0.224-1.248,0.345c-0.632,0.186-1.26,0.384-1.886,0.586C321.177,98.128,320.86,98.233,320.546,98.339z"/><path d="M405.879,224.684c-0.804,0.876-1.621,1.743-2.465,2.588c-0.013,0.013-0.024,0.027-0.037,0.04    c-0.005,0.005-0.01,0.009-0.015,0.014c-0.003,0.003-0.005,0.006-0.008,0.008c-0.626,0.625-1.269,1.235-1.928,1.829    c-15.614,14.064-40.593,19.445-67.281,22.713c-8.354,1.025-16.874,1.845-25.33,2.657c-1.695,0.163-3.42,0.33-5.141,0.497    c-0.47,0.326-0.941,0.65-1.418,0.975c0.449,0.305,0.911,0.619,1.389,0.946l4.452,0.459c36.914,3.789,75.085,7.707,94.929,27.593    c0.067,0.068,0.132,0.139,0.2,0.206c0.55,0.554,1.091,1.111,1.622,1.676c0.1,0.105,0.196,0.214,0.295,0.32    c0.208,0.224,0.414,0.447,0.619,0.672c0.069,0.075,0.14,0.149,0.208,0.226c0.25,0.275,0.496,0.553,0.742,0.83    c0.023,0.026,0.046,0.054,0.069,0.08c0.623,0.707,1.23,1.421,1.823,2.142c0.006,0.006,0.011,0.013,0.016,0.019    c0.247,0.3,0.499,0.598,0.741,0.9c9.499-9.469,14.856-22.268,14.856-35.844c0-13.501-5.321-26.254-14.757-35.719    c-0.226,0.28-0.444,0.565-0.674,0.843c-0.727,0.881-1.479,1.744-2.242,2.597C406.325,224.195,406.103,224.439,405.879,224.684z"/><path d="M109.31,227.317c-0.109-0.107-0.226-0.208-0.333-0.316c-0.624-0.625-1.234-1.257-1.835-1.896    c-0.088-0.093-0.172-0.188-0.26-0.281c-0.268-0.287-0.533-0.575-0.796-0.865c-0.034-0.038-0.069-0.074-0.104-0.112    c-0.234-0.258-0.464-0.518-0.694-0.778c-0.025-0.028-0.049-0.057-0.074-0.084c-0.886-1.006-1.75-2.024-2.576-3.057    c-9.5,9.469-14.857,22.268-14.857,35.844c0,13.502,5.322,26.255,14.758,35.719c0.022-0.027,0.044-0.056,0.066-0.083    c0.148-0.185,0.292-0.371,0.443-0.555c0.772-0.942,1.57-1.868,2.386-2.779c0.191-0.213,0.385-0.425,0.578-0.637    c0.839-0.918,1.692-1.825,2.574-2.709c0.013-0.013,0.024-0.026,0.037-0.039c0.004-0.005,0.01-0.009,0.014-0.014    c0.003-0.003,0.005-0.005,0.008-0.008c15.602-15.602,41.953-21.261,70.109-24.653c8.066-0.975,16.28-1.764,24.433-2.546    c1.694-0.163,3.419-0.33,5.139-0.497c0.474-0.329,0.946-0.653,1.417-0.974c-0.452-0.307-0.915-0.622-1.389-0.946l-4.45-0.459    C167.192,250.824,129.246,246.921,109.31,227.317z"/><path d="M255.997,302.258c-0.306,0.451-0.622,0.914-0.946,1.388l-0.458,4.449c-3.783,36.854-7.696,74.96-27.499,94.831    c-0.031,0.031-0.061,0.065-0.092,0.097c-0.001,0.001-0.001,0.002-0.002,0.003l-0.001,0.001c-0.007,0.008-0.015,0.015-0.022,0.021    c-0.614,0.613-1.235,1.214-1.862,1.804c-0.102,0.097-0.207,0.189-0.309,0.285c-0.22,0.205-0.441,0.408-0.663,0.61    c-0.084,0.077-0.167,0.155-0.251,0.231c-0.272,0.247-0.545,0.49-0.819,0.732c-0.029,0.025-0.058,0.05-0.086,0.075    c-0.702,0.618-1.411,1.221-2.126,1.811c-0.013,0.011-0.026,0.021-0.039,0.032c-0.297,0.244-0.591,0.494-0.891,0.733    c9.469,9.499,22.268,14.856,35.844,14.856c13.502,0,26.255-5.321,35.719-14.758c-0.279-0.225-0.563-0.442-0.841-0.671    c-0.882-0.728-1.745-1.48-2.6-2.245c-0.245-0.22-0.489-0.442-0.732-0.666c-0.872-0.799-1.732-1.611-2.573-2.449    c-0.018-0.019-0.037-0.035-0.056-0.053c-0.007-0.007-0.013-0.014-0.02-0.021c-0.001-0.001-0.001-0.001-0.002-0.002    c-0.626-0.626-1.235-1.269-1.829-1.928c-13.854-15.381-19.283-39.849-22.565-66.088c-1.096-8.735-1.955-17.666-2.806-26.525    c-0.162-1.694-0.329-3.419-0.496-5.139C256.642,303.201,256.317,302.729,255.997,302.258z"/><path d="M414.958,324.822c-0.133-0.49-0.263-0.981-0.405-1.469c-0.18-0.609-0.371-1.215-0.565-1.818    c-0.11-0.343-0.224-0.685-0.339-1.026c-0.219-0.646-0.441-1.292-0.678-1.932c-0.054-0.145-0.112-0.287-0.166-0.432    c-0.521-1.378-1.082-2.738-1.684-4.081c-0.079-0.177-0.155-0.355-0.236-0.532c-0.298-0.652-0.609-1.299-0.927-1.941    c-0.126-0.255-0.254-0.508-0.383-0.761c-0.983-1.936-2.056-3.825-3.209-5.668c-0.231-0.37-0.463-0.741-0.702-1.107    c-0.308-0.475-0.622-0.944-0.941-1.411c-0.322-0.47-0.652-0.934-0.984-1.396c-0.269-0.373-0.531-0.75-0.807-1.118    c-0.595-0.794-1.207-1.577-1.836-2.35c-0.229-0.282-0.467-0.559-0.7-0.838c-0.493-0.589-0.995-1.172-1.508-1.747    c-0.228-0.254-0.453-0.509-0.684-0.761c-0.733-0.8-1.479-1.592-2.252-2.364c-0.542-0.542-1.104-1.071-1.683-1.587    c-13.266-11.826-35.984-16.887-60.714-20.138c-0.1-0.013-0.198-0.027-0.299-0.04c-0.329-0.043-0.661-0.084-0.992-0.127    c-8.372-1.072-16.957-1.95-25.475-2.818c-6.113-0.624-12.396-1.264-18.558-1.974c-1.111,3.826-2.9,7.362-5.208,10.495    l61.745,61.942c1.949,1.956,1.944,5.122-0.011,7.071c-0.977,0.973-2.254,1.459-3.53,1.459c-1.282,0-2.564-0.49-3.541-1.47    l-61.721-61.919c-3.136,2.328-6.68,4.135-10.518,5.259c0.484,4.359,0.927,8.769,1.354,13.145c0.002,0.017,0.006,0.032,0.008,0.049    c0.219,2.233,0.434,4.471,0.649,6.706c3.243,33.667,6.593,68.445,22.68,86.469c0.52,0.582,1.052,1.146,1.598,1.692    c3.143,3.104,6.516,5.926,10.003,8.366c0.002,0.002,0.004,0.004,0.007,0.006c0.127,0.089,0.253,0.18,0.381,0.269    c0.564,0.389,1.133,0.771,1.708,1.144c0.162,0.105,0.327,0.207,0.49,0.311c7.128,4.536,15.004,7.821,23.328,9.69    c5.256,1.173,10.674,1.796,16.19,1.796c19.685,0,38.19-7.664,52.107-21.581s21.581-32.423,21.581-52.107    c0-5.793-0.682-11.479-1.973-16.98C415.372,326.4,415.172,325.609,414.958,324.822z"/><path d="M424.724,190.922c-2.114,7.524-5.276,14.698-9.418,21.349c12.063,11.439,18.913,27.211,18.913,43.958    c0,16.847-6.904,32.679-19.062,44.123c0.332,0.537,0.659,1.076,0.978,1.621c0.107,0.183,0.209,0.369,0.314,0.554    c0.723,1.255,1.409,2.526,2.063,3.814c0.118,0.233,0.236,0.466,0.353,0.7c1.086,2.188,2.072,4.422,2.959,6.697    c0.091,0.23,0.18,0.461,0.268,0.692c0.833,2.194,1.574,4.424,2.219,6.688c0.061,0.212,0.129,0.422,0.188,0.635    C454.604,314.546,476,287.726,476,256.312C476,224.994,454.7,198.195,424.724,190.922z"/><path d="M255.771,434.219c-16.846,0-32.679-6.904-44.123-19.062c-0.537,0.332-1.077,0.659-1.621,0.978    c-0.184,0.108-0.372,0.21-0.557,0.316c-1.255,0.722-2.527,1.409-3.815,2.063c-0.231,0.117-0.462,0.234-0.694,0.35    c-2.192,1.088-4.43,2.075-6.709,2.964c-0.225,0.088-0.45,0.175-0.676,0.261c-2.2,0.835-4.435,1.578-6.703,2.225    c-0.21,0.06-0.417,0.126-0.627,0.185C197.454,454.604,224.275,476,255.688,476c31.318,0,58.116-21.299,65.391-51.276    c-7.525-2.114-14.699-5.276-21.351-9.418C288.29,427.368,272.519,434.219,255.771,434.219z"/><path d="M191.486,413.65c0.649-0.221,1.298-0.443,1.94-0.681c0.137-0.051,0.272-0.106,0.408-0.158    c1.391-0.524,2.764-1.091,4.118-1.697c0.17-0.076,0.341-0.149,0.511-0.227c0.656-0.301,1.307-0.613,1.954-0.933    c0.249-0.123,0.497-0.249,0.744-0.375c1.944-0.987,3.842-2.064,5.692-3.223c0.363-0.228,0.727-0.454,1.086-0.688    c0.479-0.312,0.953-0.629,1.425-0.951c0.462-0.316,0.919-0.642,1.375-0.97c0.379-0.272,0.762-0.539,1.136-0.819    c0.791-0.593,1.571-1.203,2.341-1.829c0.287-0.232,0.567-0.474,0.851-0.712c0.584-0.489,1.162-0.986,1.733-1.496    c0.257-0.229,0.515-0.457,0.769-0.69c0.799-0.732,1.59-1.478,2.361-2.249c17.353-17.353,21.092-53.771,24.708-88.992    c0.536-5.218,1.09-10.613,1.68-15.87c0.007-0.06,0.022-0.118,0.031-0.178c0.101-0.893,0.199-1.789,0.303-2.678    c-3.838-1.112-7.386-2.904-10.526-5.217l-61.95,61.752c-0.976,0.973-2.253,1.459-3.53,1.459c-1.282,0-2.564-0.49-3.541-1.47    c-1.95-1.956-1.945-5.122,0.011-7.071l61.922-61.725c-2.33-3.134-4.137-6.678-5.262-10.514c-4.36,0.484-8.77,0.927-13.147,1.354    c-0.016,0.002-0.032,0.006-0.048,0.008c-2.233,0.219-4.47,0.434-6.705,0.649c-32.582,3.139-66.204,6.376-84.674,21.162    c-0.093,0.074-0.179,0.154-0.271,0.229c-0.518,0.421-1.03,0.847-1.523,1.287c-0.582,0.52-1.147,1.052-1.693,1.599    c-2.261,2.289-4.368,4.704-6.294,7.196c-0.092,0.119-0.186,0.238-0.277,0.358c-0.514,0.674-1.009,1.354-1.495,2.039    c-0.357,0.505-0.716,1.009-1.059,1.521c-0.154,0.23-0.311,0.459-0.463,0.691c-0.608,0.931-1.199,1.87-1.762,2.822    c-0.021,0.035-0.041,0.072-0.062,0.108c-0.558,0.948-1.089,1.907-1.601,2.874c-0.077,0.145-0.152,0.289-0.228,0.434    c-14.454,27.772-10.044,62.888,13.24,86.171c13.917,13.917,32.422,21.581,52.107,21.581c5.79,0,11.473-0.681,16.972-1.971    c0.807-0.19,1.608-0.394,2.405-0.61c0.481-0.131,0.964-0.259,1.443-0.398c0.612-0.181,1.22-0.373,1.827-0.568    C190.81,413.876,191.148,413.764,191.486,413.65z"/><path d="M95.814,301.185c0.289-0.487,0.584-0.971,0.883-1.452c-12.064-11.439-18.917-27.212-18.917-43.961    c0-16.847,6.906-32.681,19.064-44.125c-4.092-6.645-7.245-13.836-9.342-21.399C57.396,197.454,36,224.275,36,255.688    c0,31.318,21.3,58.117,51.278,65.391c1.565-5.552,3.704-10.897,6.357-15.974c0.065-0.125,0.13-0.25,0.196-0.374    c0.604-1.143,1.229-2.274,1.887-3.388C95.749,301.29,95.783,301.237,95.814,301.185z"/></g></g><text x="0" y="527" fill="#000000" font-size="5px" font-weight="bold" font-family="'Helvetica Neue', Helvetica, Arial-Unicode, Arial, Sans-serif">Created by Flatart</text><text x="0" y="532" fill="#000000" font-size="5px" font-weight="bold" font-family="'Helvetica Neue', Helvetica, Arial-Unicode, Arial, Sans-serif">from the Noun Project</text></svg>