<?xml version="1.0" encoding="utf-8"?>
<!-- Generator: Adobe Illustrator 24.1.2, SVG Export Plug-In . SVG Version: 6.00 Build 0)  -->
<svg version="1.1" id="Layer_1" xmlns="http://www.w3.org/2000/svg" xmlns:xlink="http://www.w3.org/1999/xlink" x="0px" y="0px"
	 viewBox="0 0 512 512" style="enable-background:new 0 0 512 512;" xml:space="preserve">
<style type="text/css">
	.st0{display:none;fill:#73292A;}
	.st1{fill:#239145;}
	.st2{fill:#73292A;}
	.st3{fill:#DA2D29;}
	.st4{fill:#F04D42;}
	.st5{fill:#E76D70;}
	.st6{display:none;fill:#DA2D29;}
	.st7{display:none;fill:#F04D42;}
	.st8{fill:#255438;}
</style>
<path class="st0" d="M487.2,115.2"/>
<path class="st1" d="M265.2,225.4c-11.4,95.4-22.7,190.9-34.1,286.3c0,0.2,0,0.4-0.1,0.5c41.5-142.7,57.2-249.3,55.8-281.3
	c-0.2-3.9-1.4-24.2-5.2-50.3c-2.9-20-5.6-38.6-8.3-38.6C271.1,142,268,156.7,265.2,225.4z"/>
<path class="st0" d="M647.6,26.4c5.2,18.3,3.4,34.3,1.6,50.6c-1.5,13.4-2.2,20.1-5.2,27.5c-10.9,26.6-34.9,38-41.4,40.8l-3.6,3.2
	l-19,17.1c-4,3.6-8.8,4.6-12.9,3.7c-0.1,0-0.2,0.1-0.3,0.1c-3.2,0.8-6.6,0.4-9.5-1.5l-18.9-12.3l-0.8-0.5
	c-13.2,0.3-25.8-4.8-35.2-14.3c-1.4-1.4-7.1-7.2-11.2-16.7c-6-13.8-4.8-26.6-3.8-32.9c0.6-6.7,1.5-15.8,2.6-26.5
	c2.2-20.2,2-16.9,2.6-22.3c4.1-36.8,2.9-40.8,6.7-43.3c10.1-6.4,29-1.8,42.6,14.3c0.7-4,1.7-7.8,3-11.2c0.4-1.2,0.8-2.4,1.4-3.6
	c0-0.1,0.1-0.2,0.2-0.3c4.2-9.3,10.3-15.3,17.8-16.4c11.6-1.8,23.6,8.8,32,26.1c13.3-13.1,30-16.5,39.2-10.6c1,0.6,1.5,1.2,1.5,1.2
	c0,0,0,0,0,0c0,0,0,0,0,0C637-1.4,644.2,14.6,647.6,26.4z"/>
<path class="st2" d="M354.7,158.3c-4.1,7.9-11.8,15.8-20.6,23.2c-18.3,15.3-41.3,28.3-47.2,33.7c-2.2,2-3.4,2.8-5.7,4.3
	c0,0-2.5,1.7-5.8,3.1c-0.6,0.3-1.3,0.3-1.9,0c-3.3-1.4-5.8-3.1-5.8-3.1c-2.3-1.6-3.5-2.4-5.7-4.3c-5.9-5.4-29-18.4-47.2-33.7
	c-8.8-7.4-16.5-15.3-20.6-23.2c-7.7-14.6-5.5-80-5.5-80l1.1-26.5c0.4-11.5,13.3-17.9,23-11.6L235.1,55l0,0c1.2,0.8,2.8,0.4,3.4-0.9
	l3-5.7l2.8-5.3l2.9-5.4l10.4-19.2c3.3-6.1,9.8-8.4,16.1-7.1c0.3,0.1,0.6,0.1,0.9,0c6.3-1.3,12.9,1,16.1,7.1l10.4,19.2l2.9,5.4
	l2.8,5.3l3,5.7c0.7,1.2,2.3,1.7,3.4,0.9h0l22.5-14.7c9.7-6.3,22.6,0.1,23,11.6l1.1,26.5C360.2,78.3,362.4,143.7,354.7,158.3z"/>
<path class="st3" d="M346.5,154.4c-3.7,7.1-10.6,14.2-18.6,20.9c-16.4,13.8-37.1,25.4-42.5,30.3c-2,1.8-3,2.5-5.1,3.9
	c0,0-2.4,1.6-5.5,2.9c-0.4,0.2-0.8,0.2-1.1,0c-3.1-1.3-5.5-2.9-5.5-2.9c-2.1-1.4-3.1-2.1-5.1-3.9c-5.3-4.9-26-16.5-42.5-30.3
	c-7.9-6.6-14.8-13.8-18.6-20.9c-6.9-13.2-5-71.9-5-71.9l1-23.8c0.4-10.3,12-16.1,20.7-10.4l20.3,13.2l0.6,0.4
	c0.7,0.5,1.7,0.2,2.1-0.6l3.1-5.8l2.6-4.7L250,46l9.3-17.3c3-5.5,8.9-7.6,14.6-6.4c0.2,0,0.4,0,0.6,0c5.7-1.2,11.7,0.9,14.6,6.4
	l9.3,17.3l2.6,4.9l2.6,4.7l3.1,5.8c0.4,0.8,1.4,1,2.1,0.6l0.6-0.4l20.3-13.2c8.7-5.7,20.3,0.1,20.7,10.4l1,23.8
	C351.5,82.5,353.4,141.3,346.5,154.4z"/>
<path class="st4" d="M324.4,145.5c-7.9,15.1-36.8,30.5-42.3,35.5c-1.4,1.2-2.1,1.7-3.5,2.7c0,0-1.6,1.1-3.7,2
	c-0.4,0.2-0.8,0.2-1.1,0c-2.1-0.9-3.7-2-3.7-2c-1.4-1-2.2-1.5-3.5-2.7c-5.5-5-34.4-20.4-42.3-35.5c-4.8-9.1-3.4-49.9-3.4-49.9
	l0.7-16.5c0.3-7.1,8.3-11.2,14.3-7.2l14,9.2l0,0c0.7,0.5,1.7,0.2,2.1-0.6l1.9-3.5l1.8-3.3l1.8-3.4l6.5-12c2-3.8,6.1-5.3,10.1-4.5
	c0.2,0,0.4,0,0.6,0c3.9-0.8,8,0.6,10.1,4.5l6.5,12l1.8,3.4l1.8,3.3l1.9,3.5c0.4,0.8,1.4,1,2.1,0.6l0,0l14-9.2c6-4,14.1,0.1,14.3,7.2
	l0.7,16.5C327.8,95.6,329.2,136.3,324.4,145.5z"/>
<path class="st5" d="M312,182.1c-3.5,6.4-8.7,10.2-17.1,16.2c-4.3,3-4.3,2.7-8.2,5.6c-3.7,2.8-6.4,5.2-11.2,7.7
	c-0.9,0.5-1.7,0.9-2.3,1.1l0-0.3c0,0,0,0,0,0l0,0.3c-0.6-0.3-1.4-0.6-2.3-1.1c-4.8-2.5-7.5-5-11.2-7.7c-3.9-2.9-3.9-2.5-8.2-5.6
	c-8.3-6-13.6-9.7-17.1-16.2c-1.6-3-5.1-9.4-2.4-13.4c3.1-4.6,12.8-3.4,17.6-2.8c4.9,0.6,8.8,2,11.5,3.2l1.4-1.4l0.9-0.9l1-0.9
	l3.5-3.3c0.9-0.9,2.6-1.3,4.4-1.3c0.1,0,0.4,0,0.8,0c0.1,0,0.5,0,0.8,0c1.8,0,3.5,0.4,4.4,1.3l3.5,3.3l1,0.9l0.9,0.9l1.4,1.4
	c2.7-1.2,6.6-2.6,11.5-3.2c4.8-0.6,14.5-1.9,17.6,2.8C317.1,172.6,313.6,179.1,312,182.1z"/>
<path class="st6" d="M264.3,181.4c-0.5,0.5-1,0.9-1.5,1.3c-0.2,0.2-0.4,0.3-0.6,0.5c-0.6,0.4-1.3,0.8-1.9,1
	c-1.5,0.6-3.1,0.9-4.6,0.9c0.6,0,1.2-0.1,1.8-0.2c0.3-0.1,0.6-0.1,0.8-0.2C260.5,184.1,262.6,183,264.3,181.4z"/>
<path class="st7" d="M253.7,160c0.4,0.1,0.9,0.2,1.4,0.2c-0.1,0-0.3,0-0.4,0c-1.7,0-3.4-0.5-4.8-1.5c-0.8-0.6-1.5-1.4-2.1-2.4
	l-0.2-0.3l3.4,2.8C251.9,159.3,252.8,159.8,253.7,160z"/>
<path class="st7" d="M266.3,149.6l-0.4,0.6l-1.2,2l0,0.1l-1.8,3c-0.4,0.6-0.8,1.2-1.3,1.7c-0.1,0.1-0.1,0.1-0.2,0.2
	c0.7-0.8,1.3-1.7,1.6-2.8c0.2-0.6,0.4-1.3,0.5-1.9l0.2-1.2l0.7-0.5L266.3,149.6z"/>
<path class="st7" d="M261.1,157.6c-0.3,0.3-0.7,0.6-1.1,0.9c-0.2,0.1-0.3,0.2-0.5,0.3c-0.4,0.3-0.9,0.5-1.3,0.7
	c-1,0.4-2.1,0.7-3.2,0.6c0.4,0,0.8-0.1,1.3-0.1c0.2,0,0.4-0.1,0.6-0.1C258.4,159.6,259.9,158.8,261.1,157.6z"/>
<path class="st8" d="M274.4,314.3c-0.5-13-1.1-66.5,38.2-107.8c5.2-5.5,47.9-49.6,93.2-40.9c7.8,1.5,14.6,4.3,18.6,6
	c26.4,10.8,44.3,28.7,54.7,40.9c-11.5-4.3-60.1-20.9-114.5,1.5C297.9,241.5,277.1,305.5,274.4,314.3z"/>
<path class="st1" d="M273.8,315.6c3.9-17,16.3-59.5,55.7-90.3c30-23.4,84.5-48.6,129-26.7c9.2,4.5,16,10.1,20.7,14.5
	c-16.5-5.7-36.4-9.7-58.7-8C330,211.6,279.5,304.7,273.8,315.6z"/>
<path class="st8" d="M256,387.6c0.5-13.5,0.8-68.3-39.5-110.2c-6.7-6.9-48.7-49.5-93.2-40.9c-7.7,1.5-13.9,4-18.6,6
	c-27.7,11.5-44.9,30.5-54,42.6c11.3-4.4,59.6-21.8,113.8-0.2C233.1,312.2,253.6,379.3,256,387.6z"/>
<path class="st1" d="M256,387.6c-3.9-17-16.3-59.5-55.7-90.3c-30-23.4-84.5-48.6-129-26.7c-9.2,4.5-16,10.1-20.7,14.5
	c16.5-5.7,36.4-9.7,58.7-8C199.7,283.6,250.3,376.7,256,387.6z"/>
</svg>
