<?xml version="1.0" encoding="utf-8"?>
<!-- Generator: Adobe Illustrator 24.1.2, SVG Export Plug-In . SVG Version: 6.00 Build 0)  -->
<svg version="1.1" id="Layer_1" xmlns="http://www.w3.org/2000/svg" xmlns:xlink="http://www.w3.org/1999/xlink" x="0px" y="0px"
	 viewBox="0 0 512 512" style="enable-background:new 0 0 512 512;" xml:space="preserve">
<style type="text/css">
	.st0{fill:#239145;}
	.st1{fill:#722A27;}
	.st2{fill:#D92C2B;}
	.st3{fill:#F24B3F;}
	.st4{fill:#F47E78;}
	.st5{fill:#255438;}
</style>
<path class="st0" d="M256.7,219.8c-11.3,95.4-22.7,190.8-34,286.2c0,0.2,0,0.4-0.1,0.5c41.5-142.7,57.2-249.3,55.8-281.3
	c-0.2-3.9-1.4-24.2-5.2-50.3c-2.9-20-5.6-38.6-8.3-38.6C262.6,136.4,259.6,151,256.7,219.8z"/>
<path class="st1" d="M346.2,152.7c-4.1,7.9-11.8,15.8-20.6,23.2c-18.3,15.3-41.3,28.3-47.2,33.7c-2.2,2-3.4,2.8-5.7,4.3
	c0,0-2.5,1.7-5.8,3.1c-0.6,0.3-1.3,0.3-1.9,0c-3.3-1.4-5.8-3.1-5.8-3.1c-2.3-1.6-3.5-2.4-5.7-4.3c-5.9-5.4-29-18.4-47.2-33.7
	c-8.8-7.4-16.5-15.3-20.6-23.2c-7.7-14.6-5.5-80-5.5-80l1.1-26.5c0.4-11.5,13.3-17.9,23-11.6l22.5,14.7l0,0c1.2,0.8,2.8,0.4,3.4-0.9
	l3-5.7l2.8-5.3l2.9-5.4l10.4-19.2c3.3-6.1,9.8-8.4,16.1-7.1c0.3,0.1,0.6,0.1,0.9,0c6.3-1.3,12.9,1,16.1,7.1L292.8,32l2.9,5.4
	l2.8,5.3l3,5.7c0.7,1.2,2.3,1.7,3.4,0.9l0,0l22.5-14.7c9.7-6.3,22.6,0.1,23,11.6l1.1,26.5C351.7,72.7,353.9,138,346.2,152.7z"/>
<path class="st2" d="M338.1,148.8c-3.7,7.1-10.6,14.2-18.6,20.9c-16.4,13.8-37.1,25.4-42.5,30.3c-2,1.8-3,2.5-5.1,3.9
	c0,0-2.4,1.6-5.5,2.9c-0.4,0.2-0.8,0.2-1.1,0c-3.1-1.3-5.5-2.9-5.5-2.9c-2.1-1.4-3.1-2.1-5.1-3.9c-5.3-4.9-26-16.5-42.5-30.3
	c-7.9-6.6-14.8-13.8-18.6-20.9c-6.9-13.2-5-71.9-5-71.9l1-23.8c0.4-10.3,12-16.1,20.7-10.4l20.3,13.2l0.6,0.4
	c0.7,0.5,1.7,0.2,2.1-0.6l3.1-5.8l2.6-4.7l2.6-4.9l9.3-17.3c3-5.5,8.9-7.6,14.6-6.4c0.2,0,0.4,0,0.6,0c5.7-1.2,11.7,0.9,14.6,6.4
	l9.3,17.3l2.6,4.9l2.6,4.7l3.1,5.8c0.4,0.8,1.4,1,2.1,0.6l0.6-0.4l20.3-13.2c8.7-5.7,20.3,0.1,20.7,10.4l1,23.8
	C343.1,76.8,345,135.6,338.1,148.8z"/>
<path class="st3" d="M315.9,139.8c-7.9,15.1-36.8,30.5-42.3,35.5c-1.4,1.2-2.1,1.7-3.5,2.7c0,0-1.6,1.1-3.7,2
	c-0.4,0.2-0.8,0.2-1.1,0c-2.1-0.9-3.7-2-3.7-2c-1.4-1-2.2-1.5-3.5-2.7c-5.5-5-34.4-20.4-42.3-35.5c-4.8-9.1-3.4-49.9-3.4-49.9
	l0.7-16.5c0.3-7.1,8.3-11.2,14.3-7.2l14,9.2l0,0c0.7,0.5,1.7,0.2,2.1-0.6l1.9-3.5l1.8-3.3l1.8-3.4l6.5-12c2-3.8,6.1-5.3,10.1-4.5
	c0.2,0,0.4,0,0.6,0c3.9-0.8,8,0.6,10.1,4.5l6.5,12l1.8,3.4l1.8,3.3l1.9,3.5c0.4,0.8,1.4,1,2.1,0.6l0,0l14-9.2c6-4,14.1,0.1,14.3,7.2
	l0.7,16.5C319.4,89.9,320.7,130.7,315.9,139.8z"/>
<path class="st4" d="M303.5,176.4c-3.5,6.4-8.7,10.2-17.1,16.2c-4.3,3-4.3,2.7-8.2,5.6c-3.7,2.8-6.4,5.2-11.2,7.7
	c-0.9,0.5-1.7,0.9-2.3,1.1v-0.3l0,0v0.3c-0.6-0.3-1.4-0.6-2.3-1.1c-4.8-2.5-7.5-5-11.2-7.7c-3.9-2.9-3.9-2.5-8.2-5.6
	c-8.3-6-13.6-9.7-17.1-16.2c-1.6-3-5.1-9.4-2.4-13.4c3.1-4.6,12.8-3.4,17.6-2.8c4.9,0.6,8.8,2,11.5,3.2l1.4-1.4l0.9-0.9l1-0.9
	l3.5-3.3c0.9-0.9,2.6-1.3,4.4-1.3c0.1,0,0.4,0,0.8,0c0.1,0,0.5,0,0.8,0c1.8,0,3.5,0.4,4.4,1.3l3.5,3.3l1,0.9l0.9,0.9l1.4,1.4
	c2.7-1.2,6.6-2.6,11.5-3.2c4.8-0.6,14.5-1.9,17.6,2.8C308.6,167,305.2,173.4,303.5,176.4z"/>
<path class="st5" d="M266,308.7c-0.5-13-1.1-66.5,38.2-107.8c5.2-5.5,47.9-49.6,93.2-40.9c7.8,1.5,14.6,4.3,18.6,6
	c26.4,10.8,44.3,28.7,54.7,40.9c-11.5-4.3-60.1-20.9-114.5,1.5C289.5,235.8,268.7,299.8,266,308.7z"/>
<path class="st0" d="M265.3,309.9c3.9-17,16.3-59.5,55.7-90.3c30-23.4,84.5-48.6,129-26.7c9.2,4.5,16,10.1,20.7,14.5
	c-16.5-5.7-36.4-9.7-58.7-8C321.6,206,271,299,265.3,309.9z"/>
<path class="st5" d="M247.6,381.9c0.5-13.5,0.8-68.3-39.5-110.2c-6.7-6.9-48.7-49.5-93.2-40.9c-7.7,1.5-13.9,4-18.6,6
	c-27.7,11.5-44.9,30.5-54,42.6c11.3-4.4,59.6-21.8,113.8-0.2C224.7,306.6,245.2,373.6,247.6,381.9z"/>
<path class="st0" d="M247.6,381.9c-3.9-17-16.3-59.5-55.7-90.3c-30-23.4-84.5-48.6-129-26.7c-9.2,4.5-16,10.1-20.7,14.5
	c16.5-5.7,36.4-9.7,58.7-8C191.3,278,241.8,371,247.6,381.9z"/>
</svg>
