<?xml version="1.0" encoding="utf-8"?>
<!-- Generator: Adobe Illustrator 24.1.2, SVG Export Plug-In . SVG Version: 6.00 Build 0)  -->
<svg version="1.1" id="Layer_1" xmlns="http://www.w3.org/2000/svg" xmlns:xlink="http://www.w3.org/1999/xlink" x="0px" y="0px"
	 viewBox="0 0 512 512" style="enable-background:new 0 0 512 512;" xml:space="preserve">
<style type="text/css">
	.st0{fill:#196332;}
	.st1{fill:#118C44;}
	.st2{fill:#74191C;}
	.st3{fill:#CE2028;}
	.st4{fill:#EB2E38;}
	.st5{fill:#B32025;}
	.st6{fill:#EF3E45;}
</style>
<path class="st0" d="M316.8,333.2c-21.2-11.5-43-12.3-54.3-11.9c-1-1-2.6-2.4-4.6-4c-3.8-3.1-5.7-4.6-8-5.4
	c-4.7-1.7-11.2-1.2-15.4,1.9c0.2-9.1,0.7-17.8,1.3-26.2l5-4.9l-4.4-1.9c1.4-16.6,3.4-31.9,5.6-45.7c-2.3-0.6-4.5-1.2-6.8-1.8
	c-5.1,22.2-8.1,42.7-9.7,61.3l-5.2,1.6l4.6,5c-1.1,15.3-1.2,29.3-0.7,41.7c-4.1-1.2-7.5-1.3-9.7-1.2c-6.6,0.2-12.1,3.1-23.1,8.9
	c0,0-2.3,1.2-5.4,3.8c-2.4,2-3.5,3.4-4,4.4c-27,9.5-35.5,21.2-38.1,30.2c-2.8,9.5,0.2,18.6-2.9,45.2c-0.7,5.9-1.4,10.7-1.9,13.8
	c13.9-6.8,24.3-14.2,31.3-19.9c13.3-10.7,20.2-16.4,21.6-25.6c0.9-6.1-1.4-8.5-4.4-25.1c-1.3-7.2-2.1-13.3-2.6-17.8
	c3.5-4,9.1-9.1,17.2-12.2c5.5-2.1,15.5-6.1,22.1-2c0,0,0,0,0,0c0.3,8.1,0.9,15.5,1.6,22.3c0.4,4.3,1,8.7,1.6,13.1l-3.5,1.1l4.3,4.6
	c8,55,25.5,113.6,26.5,118.1c0,0,4.3,0,6.1,0c-8.4-26.8-16.3-58.9-21.3-95.6l4.2-4.3l-5-1.8c-0.4-3.3-0.8-6.7-1.2-10.1
	c-1.2-11.1-2-21.9-2.6-32.4l4.5-4.6l-4.8-1.7c-0.3-6.7-0.4-13.3-0.5-19.7l5.3-5.4l-5.3-1.8c0-4,0.1-8,0.2-11.9
	c4.4-2.5,9.5-3.5,14-2.3c4,1.1,6.8,3.8,7.6,4.6c2.4,2.3,3.4,4.7,3.9,6.1c-0.5,1.4-1.1,3.5-1.5,6c0,0-1.4,7.2-0.5,15.4
	c2.2,19.9,13.1,33.2,13.1,33.2c9,11,16.9,11.4,60.4,33.4c7.9,4,14.2,7.3,18,9.3c3.3-4.6,7.7-12.3,9.2-22.3
	C362.5,371.1,340.2,345.8,316.8,333.2z"/>
<g>
	<path class="st1" d="M180.1,364.5c0.3,3.4,0.9,8.6,2.1,14.8c2.3,12.5,4,14.2,3.3,18.8c-1.1,6.9-6.2,11.2-16.2,19.2
		c-5.3,4.2-13.1,9.8-23.5,14.9c0.4-2.3,1-5.9,1.5-10.4c2.3-20,0.1-26.8,2.2-34C151.4,380.9,158.1,371.8,180.1,364.5z"/>
	<path class="st1" d="M263.5,333c1.1,23.7,18.2,40,19.6,41.2c14.2,13.1,23.5,8.3,45.7,24.4c7.3,5.3,12.6,10.4,15.8,13.7
		c1.8-5.8,4-15.9,2-28c-3.8-23.5-20.3-37.3-25.5-41.6c-23.4-19-51.1-17.7-57.4-17.2C263.5,327.4,263.3,329.9,263.5,333z"/>
</g>
<path class="st2" d="M343,136.6c4.6-6.5,11.2-15.5,19.7-26.3c-4.4-3.9-11.3-10.4-18.5-19.5c-7.7-9.8-10.8-16.2-13.8-20.8
	c-2.6-7.9-4.2-14.6-5.2-19.3c-15.6,2.3-28.3,3.6-37.1,4.4c-0.9,0.1-1.7,0.2-2.4,0.2c-1.7-8.4-5.4-16-11-21c-7.7-6.9-15-5.1-35.7-14
	c-11.6-5-20.5-10.4-25.9-14c-9.4,12.6-17.4,22.6-23.1,29.4c-6.3,7.6-8.3,9.7-9.8,14c-0.6,1.6-0.9,3.2-1.2,4.8
	c-7,1.2-11,6.1-26.5,12.2c-9.6,3.8-17.8,5.8-23,6.8c1.5,10.6,2.6,19.5,3.2,26.3c-4.5,2.7-8.4,4.8-11.3,6.3c3.4,8,6.3,15.1,8.7,21.1
	c-3.6,2.8-6.8,6.2-8.8,10.5c-2,4.1-2,7-3,16.8c-0.8,8.8-2.2,21.5-4.4,37.1c5.6,1.1,14.1,3.2,24.1,6.9c-0.5,1.7-1,3.2-1.4,4.5
	c10.9,4.3,19.6,8.2,25.6,10.9c6.7,3.1,8.6,4.1,11.9,4.3c0.2,0,0.5,0,0.7,0c-3.4,7.8-5.3,17.2-2.3,25.8c1.5,4.3,3.5,6.4,9.8,14
	c5.6,6.8,13.6,16.7,23.1,29.4c5.4-3.6,14.2-9,25.9-14c20.6-8.9,27.9-7.1,35.7-14c5.3-4.7,8.9-11.8,10.7-19.7
	c3.8,3.5,8.4,6.2,13.5,7.2c4,0.8,6.6,0.2,15.5-1.4c8-1.4,19.5-3.2,33.8-4.9c-0.1-1.1-0.1-2.4-0.2-3.8c0.3,0,0.6,0.1,0.9,0.1
	c1.3-6.3,3.7-16.4,8.4-28.2c8.3-20.9,14.7-24.8,15.3-35.1C365.8,160.4,356.1,144.9,343,136.6z"/>
<path class="st3" d="M331.9,137.2c4.1-6.3,6.5-13.4,6.1-19.9c-0.5-9.3-6.3-12.8-13.8-31.6c-4.2-10.6-6.4-19.7-7.6-25.4
	c-14.1,2-25.5,3.3-33.4,4c-0.8,0.1-1.5,0.1-2.2,0.2c-1.5-7.5-4.9-14.4-9.9-18.9c-6.9-6.2-13.5-4.6-32.1-12.6
	c-10.5-4.5-18.4-9.4-23.3-12.6c-8.5,11.4-15.7,20.3-20.8,26.4c-5.7,6.9-7.5,8.7-8.8,12.6c-0.5,1.4-0.8,2.9-1,4.4
	c-6.3,1.1-9.9,5.5-23.8,11c-8.6,3.4-16,5.2-20.7,6.2c1.7,11.4,2.7,20.7,3.3,27.2c0.7,7.2,0.7,9.3,2.2,12.3c0.8,1.6,1.7,3,2.8,4.3
	c-6.4,2.9-12.5,7.4-15.7,14c-1.8,3.7-1.8,6.3-2.7,15.1c-0.7,7.9-2,19.3-4,33.4c5.7,1.2,14.8,3.4,25.4,7.6
	c18.2,7.2,22.1,12.9,30.7,13.7c-3.8,7.4-6.4,17.1-3.4,25.9c1.3,3.8,3.1,5.7,8.8,12.6c5.1,6.1,12.3,15.1,20.8,26.4
	c4.9-3.2,12.8-8.1,23.3-12.6c18.6-8,25.1-6.4,32.1-12.6c8-7.1,11.8-20.5,10.5-32.9c2.2,2.5,4.8,4.6,7.8,6c3.7,1.8,6.3,1.8,15.1,2.7
	c7.9,0.7,19.3,2,33.4,4c1.2-5.7,3.4-14.8,7.6-25.4c7.5-18.8,13.3-22.3,13.8-31.6C353.2,158.8,344.1,144.5,331.9,137.2z M264.8,192.1
	c0.1,0.7,0.2,1.3,0.3,2.1c-10.6-10.3-28.6-13.3-45.3-10.2c0.9-2.1,1.6-4.2,2.1-6.4c3.8-18.2-10-37.5-27.9-48.3
	c9.3-5.2,17.4-13.2,21.7-22.2c11.2,4.1,24.2,5.3,35.7,3c3.6,15.8,15.3,31.8,29.5,40.2C270.1,162.2,263.3,178.2,264.8,192.1z"/>
<g>
	<path class="st4" d="M210,114c-1.1-5.2-2.1-12.8-0.8-21.6c1.5-10.8,4.9-13.8,2.7-18.6c-3.6-7.8-17.4-10-27-8.6
		c-4.7,0.7-8,2.1-10.1,3.1c-8,3.5-19.9,7.9-36.3,12c-0.6,6.2-0.9,15,0.4,25.5c1.8,14.5,3,23.5,10.1,29.9c10,8.9,24.9,6.3,28,5.8
		C198.6,137.4,208.8,116.7,210,114z"/>
	<path class="st4" d="M229.3,176.3c-6.2,0.5-15.5,2.2-23.6,8.7c-2.3,1.8-2.3,2.3-9.6,10.9c-13.1,15.3-15.5,16.7-17,22.1
		c-2.1,7.5-0.2,14.1,0.6,16.6c2.6,8.4,7.4,11.3,17.8,23.3c3.1,3.6,7.7,9.2,12.8,16.3c3.6-2.7,9-6.4,16.1-10
		c20.2-10.2,29.4-6.8,39-16.4c6.4-6.4,10.6-16.3,9.5-25.8c-0.6-5.1-2.7-9.7-7.1-15.6C262.5,199.5,251.3,186.7,229.3,176.3z"/>
	<path class="st4" d="M270.4,149.4c10.3,0.4,18.9-0.5,25.1-1.5c4.8-0.8,8.1-1.6,14.7-3.2c13.6-3.3,20.4-5,22.9-7.5
		c7.9-8,4.4-23.6,3-29.8c-2.1-9.3-5.2-11.8-11.6-26.9c-3.8-8.8-6.2-16.2-7.7-20.8c-10.3,1.3-18.1,2.3-21.6,2.8
		c-21.4,2.7-32.3,4.2-38.6,8.2c-2.5,1.6-14.2,9-16.6,22c-0.9,5.1-0.2,10,2.3,17C245.2,117.7,252.3,133.2,270.4,149.4z"/>
</g>
<path class="st5" d="M247.4,53.5c-9.5-1.4-12.8,0.5-29.3,1c-9.6,0.3-17.3-0.1-22.2-0.5c-2.5,10.1-4.4,17.7-5.3,21.2
	c-5.3,21-7.9,31.6-6.5,38.9c0.3,1.7,1.4,7.2,4.5,12.8c-7.1,4.4-12.6,14.9-14.7,23.6c-1.3,5.4-1.1,9.6-1,12.3
	c0.4,10.2,0.2,24.9-2.4,44.5c6.4,3.2,15.9,7.4,27.9,10.4c16.5,4.2,26.8,6.8,36.7,1.8c14-7.1,17.4-24.3,18.2-27.9
	c0.4-1.9,0.6-3.7,0.7-5.6c2.9,5.6,4.1,7.4,6.9,9.6c6.2,4.7,13.1,5.3,15.7,5.5c8.8,0.7,13.2-2.8,28.2-8.1c4.5-1.6,11.3-3.8,19.9-5.9
	c-1.2-4.3-2.7-10.7-3.5-18.6c-2.2-22.6,4.4-29.8-1.1-42.3c-3.7-8.3-11.3-15.8-20.5-18.3c-5-1.3-10-1-17.1,0.9
	c-3.5,1-8.4,2.6-14.2,5.3c0.8-2.9,1.5-5.6,2-8c1-4.7,1.5-8.1,2.4-14.8c1.8-13.9,2.8-20.8,1.3-24C269.4,56.9,253.7,54.5,247.4,53.5z
	 M226.3,141.1c3.7-0.4,8-1.1,12.7-2.3c-0.4,1.8-0.6,3.7-0.8,5.8c-0.3-0.3-0.5-0.5-0.6-0.7C234.4,143.4,230.6,142.5,226.3,141.1z"/>
<path class="st4" d="M303.9,148.6c-1.3-3.8-4.9-15.3-7.2-22.4c-1.1-3.5-1.7-5.2-2.5-5.4c0,0,0,0,0,0c-3.7-7.9-10.7-14.1-19.8-16.4
	c-2.1-0.5-4.3-0.8-6.4-0.9c-0.8-1.5-1.7-3-2.7-4.4c0,0,0,0,0,0c0.2-0.8-1.1-2.1-3.6-4.7c-5.3-5.4-13.7-13.9-16.4-16.9
	c-2.8-3-6.6-7.6-10.1-14.1c0.1,2.9,0,7.2-1.9,11.8c-1.6,3.9-3.6,5.9-6.9,10.5c-2.1,2.9-5,7.2-8.1,13c0,0,0,0,0,0
	c-2.5,3.2-4.4,7-5.5,11.2c-0.7,2.9-1,5.7-0.9,8.5c-3.3,0.6-6.6,1.9-9.7,3.7c-8,4.8-13,12.8-14.2,21.4c0,0,0,0,0,0
	c-0.7,0.4-0.7,2.3-0.8,5.9c-0.1,7.5-0.2,19.6-0.3,23.6c-0.2,4.1-0.8,10-2.8,17.2c1.9-2.1,5.1-5.1,9.7-7c3.9-1.6,6.7-1.6,12.3-2.5
	c3.5-0.6,8.7-1.6,14.9-3.4c0,0,0,0,0,0c4.1-0.5,8.1-1.8,11.8-4c7.2-4.3,11.9-11.1,13.6-18.7c3.7,3.6,8.3,6.3,13.6,7.6
	c4.2,1.1,8.5,1.1,12.5,0.4c0,0,0,0,0,0c6.5,0,11.7-0.6,15.2-1c5.6-0.8,8.3-1.6,12.5-1.2c5,0.5,8.9,2.4,11.3,3.9
	C307.6,158,305.3,152.5,303.9,148.6z"/>
<path class="st2" d="M227.8,135.1c1.3,0.8,4.1,2.5,6.6,2.1c1.6,1.9,3.4,2.6,6.2,6.1c1.2,1.5,2,2.8,2.5,3.7c2.9-5.3,5.3-9,7.2-11.7
	c0.3-0.4,0.6-0.9,1-1.5c1.2-0.5,2.3-1.2,3-1.6c2.9-1.8,6.7-3.9,12-6.6c-0.9-0.5-2.2-1.4-3.6-2.7c-3.4-3-4-4.8-6-6.6
	c-2.8-2.6-8.2-4.4-12-2.5c-2.4,1.2-3.7,3.6-4.3,6.2c-0.7-1.4-1.8-2.5-3.2-3.2c-3.8-1.9-9.1,0-12,2.5c-1.9,1.7-2.5,3.6-6,6.6
	c-1.4,1.3-2.7,2.1-3.6,2.7C221.1,131.1,224.9,133.3,227.8,135.1z"/>
<path class="st6" d="M238.5,107.1c-2.9,5.3-5.3,9-7.2,11.7c-0.9,1.4-2.9,4.2-2.3,6.8c0.1,0.3,0.3,1.5,1,2.9c0,0,0.7,1.4,1.5,2.4
	c2.1,2.7,14.4,4.6,17.9-1.8c2.1-3.7,0.4-9.1-2-12.1c-1.6-2-3.5-2.7-6.3-6.2C239.8,109.3,239,108,238.5,107.1z"/>
</svg>
