<?xml version="1.0" encoding="utf-8"?>
<!-- Generator: Adobe Illustrator 24.1.2, SVG Export Plug-In . SVG Version: 6.00 Build 0)  -->
<svg version="1.1" id="Layer_1" xmlns="http://www.w3.org/2000/svg" xmlns:xlink="http://www.w3.org/1999/xlink" x="0px" y="0px"
	 viewBox="0 0 512 512" style="enable-background:new 0 0 512 512;" xml:space="preserve">
<style type="text/css">
	.st0{fill:#106D38;}
	.st1{fill:#A21E21;}
	.st2{fill:#EE323E;}
	.st3{fill:#F15C53;}
	.st4{fill:#55B948;}
</style>
<g>
	<rect x="246.9" y="242.6" class="st0" width="30.1" height="267.3"/>
	<path class="st0" d="M266.3,456.6c6.9-36.3,26.9-104.4,96-211.9c-3.1,83.1-25.2,141.6-44.4,178.9c-14.3,27.8-42.8,74.6-52.1,70.8
		C259.7,491.9,264.2,467.8,266.3,456.6z"/>
	<path class="st0" d="M231.6,482.6c-20.8-30.5-54.8-92.8-82-217.7c56.6,61,82.3,117.9,95.1,157.9c9.5,29.8,22.5,83,13.2,86.9
		C251.8,512.2,238,492,231.6,482.6z"/>
</g>
<path class="st1" d="M357.6,176.8c-0.4-3.7-3.4-6.5-6.6-8c0.8-0.5,1.5-1.2,1.9-2c0.9-1.8,0.7-4.4-0.8-6c-0.7-0.7-1.6-1.2-2.5-1.4
	c2-3.9,0.9-9.3-1.2-12.6c-0.3-0.5-2.7-4.2-5-3.8c-1.6,0.3-2.4,2.5-2.7,3.4c-0.3,0.7-0.4,1.3-0.5,2c-1.1-1.2-2.5-2.3-4-3.1
	c-0.4-1.4-0.9-2.7-1.6-3.8c0,0,0,0,0,0c0.5-0.2,0.8-0.6,0.8-0.7c0.9-1.2,0.2-3-0.3-3.8c-0.2-0.3-0.4-0.5-0.6-0.8
	c3-0.3,5.2-1,5.6-2.5c0.2-0.6,0-1.4-0.5-2.2c1.1,0,2.2-0.1,3.2-0.1c6.1-0.2,12.2-0.3,13-2.8c1-3.5-8.6-10.1-18.2-12
	c-0.3-0.1-0.7-0.1-1.1-0.2c-1.9-1.3-4.2-2.5-6.7-3.4c0.1-0.1,0.2-0.2,0.2-0.2c0.9-1.2,0.2-3-0.2-3.7c-0.8-1.4-2.5-2.2-4.3-2.6
	c0.6-0.1,1.3-0.2,2.1,0c0.9,0.2,1.3,0.5,1.5,0.3c0.3-0.3,0.2-1-0.2-1.8c0.1,0,0.1,0,0.2,0c1.7,0.1,2.6-0.6,4.7-1.3
	c1.9-0.6,2.5-0.5,2.8-0.9c1,0.5,2.5,1.4,4.1,3c1.3,1.4,2.2,2.8,3.5,2.8c0.9,0,1.5-0.8,1.6-0.9c0.9-1.2,0.2-3-0.2-3.7
	c-0.8-1.4-2.5-2.2-4.3-2.6c0.6-0.1,1.3-0.2,2.1,0c0.9,0.2,1.3,0.5,1.5,0.3c0.5-0.5-0.2-2.6-1.6-3.7c-1.4-1.1-3.2-1-4.8-0.5
	c0.1-0.4,0.1-0.9-0.1-1.3c-0.3-0.9-1.2-1.7-2.3-1.7c-0.5,0-0.9,0.1-1.3,0.3c-0.7-1.9-2.8-3.3-4.6-3.7c-0.3-0.1-2.3-0.5-2.8,0.3
	c-0.1,0.1-0.1,0.2-0.1,0.3c-0.8-0.1-1.6,0-2.4,0.2c0.5-0.8,0.8-1.6,1-2.2c1-3.1-0.3-6.6-2.2-9.6c1.1,0.7,2.1,1.6,3,3
	c0.9,1.5,1.1,2.5,1.8,2.6c1.4,0.1,3.6-3.8,3.2-7.4c-0.4-3.4-3.1-5.9-6.1-7.4c0.7-0.5,1.4-1.1,1.8-1.9c0.9-1.7,0.7-4-0.8-5.5
	c-0.7-0.7-1.5-1.1-2.3-1.3c1.8-3.6,0.8-8.6-1.1-11.6c-0.3-0.5-2.5-3.9-4.6-3.5c-1.5,0.3-2.2,2.3-2.5,3.1c-0.2,0.6-0.4,1.2-0.5,1.8
	c-1.3-1.5-3.1-2.6-4.8-3.5c-0.4-1.3-0.9-2.5-1.5-3.4c-0.3-0.5-2.5-3.9-4.6-3.5c-0.3,0.1-0.6,0.2-0.9,0.4c-0.1-0.2-0.2-0.4-0.4-0.6
	c-0.3-0.3-0.7-0.5-1.1-0.7c0.7-1.6,0.5-3.7-0.3-5.2v0c1.3,1.4,2.1,2.7,3.4,2.7c0.9,0,1.5-0.8,1.6-0.9c0.9-1.2,0.2-3-0.2-3.7
	c-0.8-1.4-2.5-2.2-4.3-2.6c0.6-0.1,1.3-0.2,2.1,0c0.9,0.2,1.3,0.5,1.5,0.3c0.3-0.3,0.2-1-0.2-1.8c0.1,0,0.1,0,0.2,0
	c1.7,0.1,2.6-0.6,4.7-1.3c1.9-0.6,2.5-0.5,2.8-0.9c1,0.5,2.5,1.4,4.1,3c1.3,1.4,2.2,2.8,3.5,2.8c0.9,0,1.5-0.8,1.6-0.9
	c0.9-1.2,0.2-3-0.2-3.7c-0.8-1.4-2.5-2.2-4.3-2.6c0.6-0.1,1.3-0.2,2.1,0c0.9,0.2,1.3,0.5,1.5,0.3c0.5-0.5-0.2-2.6-1.6-3.7
	c-1.4-1.1-3.2-1-4.8-0.5c0.1-0.4,0.1-0.9-0.1-1.3c-0.3-0.9-1.2-1.7-2.3-1.7c-0.5,0-0.9,0.1-1.3,0.3c-0.7-1.9-2.8-3.3-4.6-3.7
	c-0.3-0.1-2.3-0.5-2.8,0.3c-0.1,0.1-0.1,0.2-0.1,0.3c-0.9-0.1-1.8,0-2.7,0.3c0.1-0.4,0.1-0.9-0.1-1.3c-0.3-0.9-1.2-1.7-2.3-1.7
	c-0.5,0-0.9,0.1-1.3,0.3c-0.7-1.9-2.8-3.3-4.6-3.7c-0.3-0.1-2.3-0.5-2.8,0.3c0,0,0,0,0,0.1c0,0,0,0,0,0c-1.9-0.8-4.4-1.3-6.7-1
	c-0.6,0.1-1.1,0.2-1.6,0.4c0,0,0,0,0,0c-0.8-0.6-1.7-1-2.5-1.1c0,0,0,0-0.1,0c0.2-0.2,0.4-0.4,0.4-0.7c0.1-1.8-5.3-4.6-10.1-4
	c-1.5,0.2-2.9,0.7-4.1,1.5c-1.4-1.6-5.7-3.3-9.5-2.8c-4.6,0.6-8,4.1-9.9,8c-0.6-0.9-1.5-1.8-2.6-2.3c-2.3-1.1-5.5-0.8-7.5,1.1
	c-0.9,0.9-1.5,1.9-1.8,3.1c-4.9-2.3-11.6-0.9-15.7,1.6c-0.7,0.4-5.3,3.3-4.7,6c0.4,1.9,3.2,2.8,4.3,3.2c0.9,0.3,1.7,0.5,2.5,0.5
	c-2,1.8-3.6,4.2-4.7,6.5c-2-1.4-4.5-1.1-4.8-1c-4.6,0.6-7.2,5.9-8,8.5c-1.5,4.8,0.4,10.2,3.5,14.9c-1.7-1.1-3.3-2.5-4.6-4.6
	c-1.5-2.3-1.6-3.9-2.8-4c-2.2-0.1-5.6,5.9-4.9,11.5c0.6,5.2,4.8,9.2,9.5,11.4c-1.1,0.7-2.1,1.7-2.8,2.9c-1.3,2.6-1.1,6.3,1.2,8.6
	c0.2,0.2,0.4,0.4,0.6,0.5c0,0,0,0,0,0c-0.9,0.7-1.7,1.5-2.1,2.6c-0.4-0.2-0.8-0.4-1.3-0.3c-0.2,0-0.4,0-0.5,0.1
	c-1-0.9-3.2-1.9-5.2-1.7c0.2-0.2,0.4-0.5,0.5-0.8c0.2-0.4,0.7-1.4,0.3-2c-0.6-0.9-2.5-0.4-2.8-0.3c-1.8,0.4-3.9,1.8-4.6,3.7
	c-0.4-0.2-0.8-0.4-1.3-0.3c-1,0-2,0.8-2.3,1.7c-0.2,0.4-0.2,0.9-0.1,1.3c-1.5-0.5-3.4-0.6-4.8,0.5c-1.4,1.1-2.1,3.3-1.6,3.7
	c0.3,0.2,0.7-0.1,1.5-0.3c0.8-0.2,1.5-0.2,2.1,0c-1.8,0.4-3.5,1.2-4.3,2.6c-0.4,0.8-1.1,2.6-0.2,3.7c0.1,0.1,0.6,0.8,1.6,0.9
	c1.3,0,2.1-1.4,3.5-2.8c1.6-1.6,3.1-2.5,4.1-3c0.3,0.4,0.9,0.2,2.8,0.9c1.1,0.4,1.9,0.7,2.6,1c-0.2,0.2-0.4,0.5-0.5,0.7
	c-0.4,0.8-1.1,2.6-0.2,3.7c0,0,0,0,0.1,0.1c0,0,0,0,0,0c-0.6,0.5-1.3,0.9-2.3,1.2c-2.2,0.6-3.7-0.1-4.1,0.6
	c-0.5,0.9,1.4,2.6,2.9,4.3c0.5,0.6,0.9,1.2,1.4,1.7c-0.3,0.8-0.3,1.9,0.2,2.6c0.1,0.1,0.6,0.8,1.6,0.9c0.1,0,0.2,0,0.3,0
	c1.3,2.7,2,5.1,2.8,6.8c-2.1-1.1-5.5-1.7-9.5-0.3c-1.8,0.7-6.3,2.3-8.3,7.2c-0.6,1.4-1.7,4.7-0.6,5.8c1.3,1.4,4.1-3.4,10.6-4.7
	c0.9-0.2,1.7-0.3,2.6-0.4c-1.2,0.7-2.3,1.6-3.2,2.7c-2.9,3.5-2.6,7.6-2.5,9.2c0.2,2.8,1.1,6,2.3,7.8c-1-0.2-1.8-0.1-1.9-0.1
	c-3.2,0.4-5.1,4.1-5.6,6c-1,3.4,0.3,7.2,2.4,10.5c-1.2-0.8-2.3-1.7-3.3-3.3c-1-1.6-1.2-2.8-1.9-2.8c-1.5-0.1-3.9,4.2-3.5,8
	c0.4,3.7,3.4,6.5,6.6,8c-0.8,0.5-1.5,1.2-1.9,2c-0.9,1.8-0.7,4.4,0.8,6c0.7,0.7,1.6,1.2,2.5,1.4c-2,3.9-0.9,9.3,1.2,12.6
	c0.3,0.5,2.7,4.2,5,3.8c1.6-0.3,2.4-2.5,2.7-3.4c0.3-0.7,0.4-1.3,0.5-2c0.6,0.7,1.3,1.3,2.1,1.8c-0.3,0.9-0.5,1.8-0.6,2.8
	c-1.1,1.5-2.1,4.3-1.8,6.8c0.4,3.7,3.4,6.5,6.6,8c-0.8,0.5-1.5,1.2-1.9,2c-0.8,1.6-0.8,3.8,0.3,5.4c-0.1,0-0.2,0-0.2,0.1
	c-1.8,0.7-6.3,2.3-8.3,7.2c-0.6,1.4-1.7,4.7-0.6,5.8c1.3,1.4,4.1-3.4,10.6-4.7c0.2,0,0.5-0.1,0.7-0.1c0,0.3,0.1,0.7,0.1,1
	c-0.5,0.4-1,0.9-1.4,1.4c-2.9,3.6-2.6,7.6-2.5,9.2c0.2,4.3,2.4,9.5,4.5,9.5c1.3,0,1.6-2.1,2.8-5.2c1.5-1.1,3.5-2.6,6.4-3.4
	c0,0.2,0,0.4,0,0.6c0,0.7,0.1,1.4,0.2,2.1c-2.4,3.4-2.2,7.1-2.1,8.6c0,0.4,0.1,0.8,0.1,1.1c-0.6-0.3-1.2-0.4-1.8-0.4
	c-2,0.1-3.4,1.8-3.5,1.9c-1,1.3-1.1,3-0.9,4.6c-0.6-0.6-1.3-1.2-1.9-1.9c-2.8-3-4.5-6.1-7.4-6c-2,0.1-3.4,1.8-3.5,1.9
	c-2,2.6-0.6,6.5,0.2,8.2c1.6,3.1,5.3,4.9,9.1,5.7c-1.4,0.3-2.8,0.4-4.6,0c-1.9-0.4-2.8-1.1-3.3-0.6c-1.2,1,0.2,5.7,3.2,8.1
	c2.6,2.1,6.2,2.2,9.5,1.3c0.3,0.2,0.5,0.4,0.8,0.6c0,0.6,0,1.3,0.2,1.9c0,0.1,0.1,0.2,0.1,0.3c-1-0.3-1.5-0.6-2-0.2
	c-1.2,1,0.2,5.7,3.2,8.1c2.8,2.2,6.6,2.2,10,1.1c0.1,0.1,0.2,0.3,0.3,0.4c-0.1,0.7-0.1,1.5,0.2,2.3c0.6,2,2.6,3.6,4.8,3.7
	c1,0,2-0.3,2.8-0.8c0.2,0.6,0.5,1.2,0.8,1.8c-0.2,1.3-0.1,3,0.6,4.4c0.7,1.5,1.9,2.6,3.3,3.3c-1.5,0.4-2.2,0.4-2.6,1
	c-2.2-1.1-5.4-2.9-8.7-6.5c-2.8-3-4.5-6.1-7.4-6c-2,0.1-3.4,1.8-3.5,1.9c-2,2.6-0.6,6.5,0.2,8.2c1.6,3.1,5.3,4.9,9.1,5.7
	c-1.4,0.3-2.8,0.4-4.6,0c-1.9-0.4-2.8-1.1-3.3-0.6c-1.2,1,0.2,5.7,3.2,8.1c2.9,2.3,6.9,2.2,10.4,1c-0.2,0.9-0.2,1.9,0.1,2.8
	c0.6,2,2.6,3.6,4.8,3.7c1,0,2-0.3,2.8-0.8c1.4,4.2,5.9,7.2,9.8,8.1c0.5,0.1,4,0.9,5.6-0.3c1.5-0.2,3.1-0.9,4.5-1.8
	c0.7-0.4,1.3-1,2-1.6c-0.6,1.1-1.1,2.3-1.4,3.6c-0.5,2.3-0.2,5.2,0.8,7.5c-0.9,0.3-1.9,0.4-3,0c-2.8-1-3.1-4.6-4.2-4.4
	c-1.2,0.2-2.3,4.1-0.8,7.2c1.5,3.3,5.7,4.9,9,4c0.2-0.1,0.8-0.2,1.4-0.5c-0.2,1-0.4,2.3-1.3,3.9c-0.9,1.4-1.2,1.2-2.4,2.9
	c-0.3,0.4-3.6,5.1-2.4,6.8c1,1.3,4.9,0.5,7.5-1.2c1.9-1.2,3.7-3.3,4.6-5.6c0.2,0.6,0.6,1.2,1,1.8c0.3,0.4,1.9,2.5,4.5,2.7
	c5,0.5,9.1-6.4,8.4-7.2c-0.3-0.4-1.5,1-3.2,0.8c-2.9-0.5-3.8-5.4-5.3-7.9c1.1-1.1,2.1-2.5,2.7-3.7c1.7-3,3-8,1.2-9.1
	c-1.6-1-5,1.2-6.8,3.1c-1.4,1.5-2.5,3.5-2.9,5.4c-0.4-0.7-0.8-1.5-1.1-2.5c-0.4-1.6,0-1.7-0.4-3.8c-0.1-0.3-0.5-3-1.4-4.8
	c0.8,0.7,1.9,1.4,3.4,1.5c2.6,0.3,4.9-1.4,6.5-3.3c1.6-0.1,3.4-2,4.9-4.4c0.5,0.7,2.1,2.3,4.3,2.5c5,0.5,9.1-6.4,8.4-7.2
	c-0.3-0.4-1.5,1-3.2,0.8c-2.9-0.5-3.8-5.4-5.3-7.9c0.8-0.8,1.5-1.8,2.1-2.7c1,0.1,2.2,0,3.5-0.3c-0.6,0.6-0.9,1.3-1,2.2
	c-0.2,2,1.2,3.6,1.3,3.7c2.2,2.3,6.3,1.7,8.1,1c3.1-1.1,5.3-4,6.7-7.4c0.1,0.2,0.2,0.4,0.3,0.5c-0.1,1-0.2,2.1-0.7,3.3
	c-0.7,1.8-1.6,2.5-1.1,3.2c0.4,0.7,2.1,0.9,3.9,0.4c0.2,0.9,0.4,1.8,0.6,2.9c0.8,4.4,0.3,5.6,1,6.4c-1.5,2-3.7,4.9-7.8,7.6
	c-3.4,2.3-6.7,3.5-7.1,6.3c-0.2,2,1.2,3.6,1.3,3.7c2.2,2.3,6.3,1.7,8.1,1c3.3-1.1,5.6-4.4,7-8.1c0.1,1.4-0.1,2.9-0.7,4.5
	c-0.7,1.8-1.6,2.5-1.1,3.2c0.8,1.3,5.7,0.7,8.5-1.9c2.7-2.5,3.2-6.5,2.6-10.1c0.9,0.4,1.8,0.5,2.8,0.4c2-0.3,4-2,4.4-4.2
	c0.2-1,0-2-0.3-2.9c4.3-0.7,8.1-4.7,9.5-8.4c0.2-0.6,1.9-4.7,0.1-6.3c-1.2-1.1-3.5-0.5-4.4-0.2c-0.7,0.2-1.3,0.5-1.9,0.8
	c0.4-2.1,0.3-4.5,0-6.6c0.5-1.9,0.5-3.9,0.1-5.8c0.9,0.4,1.8,0.5,2.8,0.4c2-0.3,4-2,4.4-4.2c0.2-1,0-2-0.3-2.9
	c4.3-0.7,8.1-4.7,9.5-8.4c0.2-0.6,1.9-4.7,0.1-6.3c-1.2-1.1-3.5-0.5-4.4-0.2c-0.7,0.2-1.3,0.5-1.9,0.8c0.3-1.4,0.3-2.9,0.2-4.3
	c0.4-1,1.7-4.6,0.1-6.1c-0.5-0.4-1.1-0.6-1.8-0.6c-0.7-1.4-1.6-2.4-2.3-2.5c-0.1,0-0.5,0-1.1,0.4c-0.3,0.2-0.5,0.4-0.7,0.6
	c0-1.3-0.1-2.6-0.3-3.9c0.5-1.9,0.5-3.9,0.1-5.8c0.8,0.3,1.6,0.5,2.5,0.4c-0.6,2.2,0.2,4.9,0.7,5c0.3,0,0.2-1.1,1.1-1.8
	c1.5-1.1,4.2,0.7,5.9,1.2c0,1,0.2,2.1,0.4,2.9c0.6,2.1,2.2,5,3.6,4.6c1.2-0.3,1.7-2.8,1.7-4.5c0-1.3-0.4-2.7-1.1-3.8
	c0.5,0.1,1,0.3,1.6,0.7c0.9,0.5,0.8,0.8,1.9,1.5c0.3,0.2,3.3,2.3,4.3,1.5c0.9-0.7,0.3-3.1-0.8-4.8c-0.8-1.2-2.2-2.4-3.8-3
	c0.3-0.5,0.7-1,1.3-1.3c1.7-0.8,3.5,0.7,3.9,0.1c0.4-0.6-0.8-2.9-2.9-3.6c-2.2-0.8-4.8,0.4-5.9,2.3c-0.1,0.1-0.3,0.5-0.4,0.9
	c-0.4-0.5-0.9-1.2-1.2-2.3c-0.3-1,0-1.1-0.2-2.4c0-0.2-0.3-1.5-0.7-2.7c2-1.6,3.6-3.8,4.4-5.9c0-0.1,0.1-0.3,0.2-0.6
	c2.5-1,4-4.1,4.5-5.7c0.3-1,0.4-2,0.3-3c0.8,1.9,2.1,3.7,3.2,3.5c1.2-0.3,1.7-2.8,1.7-4.5c0-0.7-0.1-1.4-0.4-2.1
	c0.2-0.3,0.4-0.7,0.6-1.1c0.1,0,0.2,0.1,0.3,0.1c0.9,0.5,0.8,0.8,1.9,1.5c0.3,0.2,3.3,2.3,4.3,1.5c0.9-0.7,0.3-3.1-0.8-4.8
	c-0.8-1.2-2.2-2.4-3.8-3c0.3-0.5,0.7-1,1.3-1.3c1.7-0.8,3.5,0.7,3.9,0.1c0.4-0.6-0.8-2.9-2.9-3.6c-1.6-0.6-3.4-0.1-4.7,0.9
	c-0.8-1.3-1.9-2.4-3.2-3.3c-0.2-0.7-0.5-1.8-0.9-2.5c0.2-0.3,0.4-0.6,0.6-0.9c0.9-1.8,0.7-4.4-0.8-6c-0.7-0.7-1.6-1.2-2.5-1.4
	c0.6-1.1,0.9-2.4,1-3.7c0.2-0.3,0.4-0.6,0.6-1c-0.2,2.7-0.3,4.9,1.2,6.3c1.5,1.4,3.6,1.1,3.8,1.1c3.2-0.4,5.1-4.1,5.6-6
	c1-3.4-0.3-7.2-2.4-10.5c1.2,0.8,2.3,1.7,3.3,3.3c1,1.6,1.2,2.8,1.9,2.8C355.7,185,358.1,180.7,357.6,176.8z M334.9,97.1
	c0.3,0.2,0.7,0.5,1.1,0.9c0.1,0.2,0.2,0.3,0.3,0.4c-0.3,0.2-0.6,0.6-0.9,1c-0.4-0.4-0.7-0.8-1.1-1.1C334.6,98,334.8,97.6,334.9,97.1
	z M311.9,21.5c0.3,0.2,0.7,0.5,1.1,0.9c0.1,0.2,0.2,0.3,0.3,0.4c-0.3,0.2-0.6,0.6-0.9,1c-0.4-0.4-0.7-0.8-1.1-1.1
	C311.5,22.4,311.7,22,311.9,21.5z M186.5,84.8c-0.3-0.4-0.6-0.8-0.9-1c0.1-0.1,0.2-0.3,0.3-0.4c0.4-0.4,0.8-0.7,1.1-0.9
	c0.1,0.5,0.3,0.9,0.6,1.2C187.3,84,186.9,84.4,186.5,84.8z M186.5,141.5c1.1-0.3,1.4-2.3,2.5-5.2c1.2-0.9,2.8-2.1,5-2.9
	c0.3,0.2,0.6,0.4,1.1,0.4c0.1,0,0.3,0,0.4,0c0,0.6,0.1,1.2,0.2,1.8v0c-1.6,2.3-2,4.8-2.1,6.6c-1.8,1.3-2.9,3.7-3.4,5
	c-0.6,2.1-0.4,4.4,0.4,6.6c0,0,0,0,0,0c-0.3,0.4-0.6,0.8-0.9,1.2c-0.1-0.2-0.2-0.4-0.4-0.5c-1-1.6-1.2-2.8-1.9-2.8
	c-0.2,0-0.4,0-0.5,0.1c0-0.4,0-0.9,0-1.4C187.1,146.6,187.9,143.5,186.5,141.5C186.5,141.5,186.5,141.5,186.5,141.5z M193.7,87.8
	c0.3,0,0.5,0,0.8,0.1c-0.2,0-0.4,0.1-0.7,0.2C193.8,88,193.8,87.9,193.7,87.8z M195,92.4c1.6-1.6,3.1-2.5,4.1-3
	c0.2,0.3,0.6,0.3,1.4,0.5c-0.7,0.6-1.2,1.3-1.5,2.1c-0.4-0.2-0.8-0.4-1.3-0.3c-1,0-2,0.8-2.3,1.7c-0.1,0.4-0.2,0.9-0.1,1.3
	c-0.2-0.1-0.3-0.1-0.5-0.2c-0.2-0.4-0.5-0.7-0.8-1C194.4,93.1,194.7,92.7,195,92.4z M249,307.2c-0.1,0.2-0.2,0.5-0.3,0.7
	c-0.2-0.1-0.3-0.1-0.5-0.2c0.2-0.3,0.4-0.5,0.6-0.8C248.9,307.1,249,307.2,249,307.2z M292,34.2c0.3,1.5,2.3,2.4,3.7,4.7
	c0.3,0.6,0.5,1.1,0.7,1.6c-1,0.1-1.9,0.3-2.8,0.5c-0.8-0.7-1.7-1.2-2.6-1c-0.2,0-0.5,0.1-0.7,0.3c-0.4-0.3-0.8-0.6-1.2-0.8
	c0.3-0.2,0.7-0.6,0.8-1c0.4-0.9,0.3-2-0.4-2.8c-0.3-0.3-0.7-0.5-1.2-0.7c0.2-0.5,0.3-0.9,0.4-1.4c0.1,0,0.2-0.1,0.3-0.2c0,0,0,0,0,0
	c0,0.3,0,0.5,0.1,0.7c0.2,0.2,0.5,0.2,1.2,0.3C291,34.4,291.5,34.3,292,34.2C292,34.2,292,34.2,292,34.2z M299.2,42.8
	c0.4-0.1,0.8-0.2,1.3-0.5c0.1,0.4,0.2,0.8,0.2,1.4c0,0.2,0,0.4-0.1,0.5c-0.3,0-0.8,0-1.2,0c0,0-0.1-0.1-0.1-0.1
	C299.3,43.7,299.3,43.2,299.2,42.8z M262.9,272.5c-0.1-0.3-0.1-0.6-0.2-0.9c0.3-0.8,0.6-1.5,0.9-2.3c0.3,0.1,0.6,0.2,1,0.3
	c0.2,0,0.7,0.1,1.4,0.2c-0.1,0.8-0.2,1.7,0,3.4c0.1,0.6,0.6,5.8,2.2,8.6c-1.7-0.8-3.3-1.7-4.6-2.2
	C263.6,277.1,263.3,274.5,262.9,272.5z M322.1,213.4c-0.1,0-0.3-0.1-0.4-0.1c-0.1,0-0.2,0-0.3,0c0.1-0.3,0.3-0.7,0.5-1
	c0.2-0.4,0.4-0.6,0.6-0.8c0.1,0.6,0.2,1.1,0.4,1.6C322.5,213.2,322.3,213.3,322.1,213.4z M271.5,24.1c-0.3,0.2-0.5,0.3-0.8,0.5
	c0.1-0.1,0.2-0.3,0.3-0.4C271.1,24.2,271.3,24.2,271.5,24.1z M308,215.1c-1.2-0.4-2.8,0.1-3.5,0.3c-0.7,0.2-1.3,0.5-1.9,0.8
	c0.6-2.9,0.2-6.1-0.6-8.7c0,0,0,0,0,0c1.3,0.7,2.4,1.2,3.5,1.2c0.1,0.3,0.3,0.5,0.4,0.5c0.1,0,0.2-0.3,0.3-0.6c0,0,0,0,0,0
	c0.2,0,0.3-0.1,0.5-0.1c0.8-0.3,1.3-0.9,1.6-1.4c0,0,0,0,0,0c0.3,0,0.7,0.1,1.1,0.2C308.9,209.3,308.9,212.1,308,215.1z
	 M235.3,287.9c0.4,0,0.8-0.1,1.2-0.2c-0.2,0.5-0.4,1.1-0.5,1.6c-0.1-0.2-0.2-0.4-0.3-0.6C235.6,288.5,235.5,288.2,235.3,287.9z
	 M276.8,37.8c0.1,0.1,0.1,0.2,0.2,0.3c-0.2,0-0.3,0-0.4,0.1C276.7,38.1,276.8,37.9,276.8,37.8z M299.2,80.5c0,0.2,0.1,0.3,0.2,0.5
	c-0.2-0.1-0.5-0.2-0.7-0.3c0-0.1,0-0.2,0-0.3C298.9,80.5,299,80.6,299.2,80.5z M315.7,205.4c-0.3-0.1-0.8,0-1.3,0.3
	c0-0.1-0.1-0.1-0.1-0.2c-0.2-0.4-0.3-0.9-0.5-1.2c1.1,0.3,2.3,0.1,3-0.4c0,0.1,0,0.1,0.1,0.2C316.4,204.5,316,204.9,315.7,205.4z
	 M247.7,273.9c-0.1-0.3-0.2-0.7-0.3-1c0.7-1,1.3-2.1,1.8-3.3c0.3,0.8,0.6,1.8,0.8,2.9c0.1,0.8,0.2,1.3,0.2,1.8
	C249.4,274.2,248.6,274.1,247.7,273.9z M221.5,209.9c-0.1-0.1-0.2-0.2-0.3-0.3c-0.1-1.2-0.3-2.4-0.5-3.6c0.4,0.5,0.9,1.2,1.5,1.8
	C221.9,208.5,221.7,209.2,221.5,209.9z M258.9,59.9c0,0,0.1,0.2,0.3,0.4c-0.5,0-1,0.1-1.4,0.1c-0.2-1.1-0.6-2.3-1.3-3.4
	c0.7-0.2,1.5-0.3,2.4-0.4C258.5,57.4,258.1,58.9,258.9,59.9z M259.8,237c0.3,0,0.6,0.1,0.9,0.1c0,0.3-0.1,0.7-0.1,1
	c0,1,0,2.1,0.1,3.1c-0.3-0.1-0.6-0.2-0.8-0.3C260,239.6,260,238.3,259.8,237z M218.1,142.3c-1.4,1.8-2,3.8-2.4,5.7
	c0-0.7-0.1-1.4-0.2-2.1c0.4-1.1,0.9-2.6,1.6-4.3C217.5,141.9,217.8,142.1,218.1,142.3z M258.6,230.7c0,0-0.1,0-0.1,0
	c-0.8-2.3-1.9-4.6-3.1-6.2c0,0,0,0,0,0c0,0,0,0,0,0c0.1-0.3,0.1-0.5,0.2-0.7c0.3,0.3,0.6,0.5,0.9,0.7c0.2,2.1,1.3,4.4,2.9,6.4
	c0,0,0,0,0,0C259.1,230.8,258.9,230.8,258.6,230.7z M237.9,203.1c-0.2-1.5-3.5-2.1-3.8-2.2c-1.4-0.3-2.8-0.2-4.2,0.2
	c-0.1,0-0.2-0.1-0.3-0.1c0.3-1.3,1.1-2.6,1.4-3.7c1,0,2.1-0.2,2.9-0.4c1.5-0.4,3.3-1.4,4.2-2.3c0,0,0,0,0,0h0c0.1,0,0.1,0,0.2,0
	c0.5,3.6,3.4,6.4,6.6,8c-0.8,0.5-1.5,1.2-1.9,2c-0.4,0.8-0.6,1.6-0.6,2.5c0,0,0,0,0,0c-1.6,0.7-3.1,1.7-4.2,2.9c-0.9,1-1.5,2-1.9,3
	c-0.1,0-0.3,0.1-0.4,0.1c-0.3-0.3-0.6-0.6-1.1-0.8c-0.1-0.3-0.1-0.6-0.2-0.9c-0.1-0.3-0.4-1.7-0.9-3.4
	C236,205.2,238.1,204.4,237.9,203.1z M229.7,185.4c-0.5,0.2-0.9,0.4-1.3,0.6c0.3-1,0.1-2.3-0.4-3c0.1,0,0.1,0,0.2,0
	c0.5,0.6,1.2,1.1,1.8,1.4c0,0,0,0,0,0c-0.1,0.3-0.3,0.7-0.3,1v0C229.8,185.4,229.8,185.4,229.7,185.4z M224.6,183.8
	c0.5-0.3,1-0.6,1.3-1c0,0,0,0,0,0c0.1,0,0.1,0.1,0.2,0.1C225.7,183.2,225.3,183.5,224.6,183.8z M237.7,189.5c-1,0.3-1.1,0-2.4,0.2
	c-0.3,0-3.7,0.6-4.1,1.9c0-0.3,0-0.7,0.1-1.1c0,0,0,0,0,0c0.3-0.3,0.5-0.5,1-1.2c0.1-0.1,0.5-0.7,0.9-1.5c0,0,0,0,0,0
	c0.6,0.4,1.3,0.6,2,0.5c1-0.2,1.7-1.2,2.2-2.1c0.4,0.7,1,1.2,1.7,1.6c0.1,0,0.3,0.1,0.5,0.3c-0.1,0.2-0.3,0.4-0.4,0.7
	C238.8,189.1,238.3,189.3,237.7,189.5z M251.3,148c0-1.3,0.2-2.6,0.3-3.7c0,0.3,0.1,0.5,0.2,0.7c0.7,0.8,2.5-0.5,4.5,0.7
	c0,0,0,0,0.1,0c-0.8,1.1-1.4,2.4-1.6,3.3c-0.8,2.7-0.1,5.7,1.3,8.5c-0.2,0-0.3,0-0.5,0c-0.3-0.2-0.7-0.3-0.9-0.3
	c-0.2-0.3-0.5-0.6-0.7-1c-1-1.6-1.1-2.8-1.9-2.8c-0.1,0-0.3,0-0.4,0.1C251.4,151.8,251.3,150,251.3,148z M253.4,135.7
	c0.5,0,1.1-0.1,1.6-0.2c0.4-0.1,1.3-0.3,2.2-0.7c0.8,0.3,1.5,0.4,2.1,0.3c0.3,3.4,3.1,7.1,6.1,9.5c-0.2-0.1-0.4-0.1-0.6-0.2
	c-0.1-0.1-0.2-0.2-0.4-0.2c0-0.1-0.1-0.1-0.2-0.2c-0.6-0.5-1.2-0.8-1.8-1c-2.2-1.1-4.6-1.8-6.5-1.8
	C256,139.1,254.9,137.4,253.4,135.7z M280.4,113.3c-0.3,0.4-0.7,0.9-1,1.4c-0.2,0.1-0.3,0.2-0.5,0.4c-0.7-1.3-1.8-2.4-3.2-3.4
	c0.2-0.3,0.4-0.5,0.5-0.7C277.8,111.7,279.1,112.5,280.4,113.3z M268.2,217.2c-0.5-0.3-1.1-0.6-2-0.7c0.5-0.2,0.9-0.4,1.3-0.8
	c0.4,0.4,0.9,0.7,1.3,1.1C268.6,216.9,268.4,217.1,268.2,217.2z M261.1,129.9c0-0.2,0.1-0.5,0.1-0.7c0.4,0,0.8-0.1,1.2-0.2
	c0.1,0.1,0.2,0.1,0.3,0.1C262.1,129.2,261.5,129.5,261.1,129.9z M266.4,157.9c0.1-0.9,0.1-1.8-0.1-2.5c0.3,0.1,0.7,0.1,1,0
	c0.1,0,0.1,0,0.2,0c0.5,0.4,1,0.9,1.5,1.3c0,0.1,0,0.1,0,0.2c-0.2,0.1-0.5,0.3-0.7,0.4C267.6,157.2,266.9,157.4,266.4,157.9z
	 M280,169.4c-0.1-0.5-0.1-1.1-0.3-1.7c0.4,0.4,0.9,0.8,1.4,1.1C280.7,168.9,280.4,169.1,280,169.4z M282.4,177.8
	c0,0.2,0,0.4,0.1,0.5c-0.3-0.2-0.6-0.4-0.9-0.5C281.9,177.9,282.1,177.9,282.4,177.8z M284.1,172.7c0.1-0.5,0.1-1.1,0.1-1.6
	c0.5,0.3,1,0.6,1.5,0.9C285.1,172,284.6,172.3,284.1,172.7z M272.1,182.8C272.1,182.8,272.1,182.8,272.1,182.8
	c0.1,0.1,0.2,0.1,0.3,0.1c-0.1,0-0.2,0-0.3,0.1C272.1,182.9,272.1,182.8,272.1,182.8z M263.4,172.3c0,0.6,0,1.2,0.1,1.7
	c-0.5,0.1-1.1,0.3-1.7,0.5c-0.4-0.2-0.9-0.4-1.4-0.6c0-0.3-0.1-0.7-0.1-1C261.4,172.7,262.4,172.5,263.4,172.3z M284.7,141.6
	c-0.2,1.1-0.3,2.3-0.2,3.6c-0.1,0.3-0.3,0.6-0.4,0.9c-0.6,0.4-0.9,0.7-0.9,1.1c0,0.1,0,0.2,0.1,0.3c-0.1,0.1-0.2,0.2-0.3,0.4
	c-0.6-0.3-1.2-0.6-1.8-0.9c0.2-0.5,0.3-1,0.3-1.5c0-1.7-0.7-3.9-1.7-4c-1.1-0.1-1.4,2.3-3,4.2c-1.3-0.2-2.4-0.2-3.3,0.1
	c0.2-0.3,0.3-0.7,0.2-0.9c-0.3-1-2.5-0.5-4-2.3c-1.3-1.6-0.5-3.1-1.4-6.1c-0.2-0.6-0.4-1.2-0.7-1.9c0.4,0.3,0.8,0.5,1.2,0.7
	c1.1,0.7,2.3,1.2,3.3,1.3c0,0.9,0.3,1.6,0.8,1.9c0.3,0.2,0.7,0.2,1.3,0c0.5,1.1,1.2,2.1,2,2.3c1.1,0.2,1.5-1.4,2.4-3.7
	C280.4,139.1,282.7,140.9,284.7,141.6z M271.6,147c-0.1,0.2-0.2,0.4-0.3,0.5h-0.2c-0.2-0.2-0.4-0.3-0.7-0.5
	C270.9,147.1,271.3,147.1,271.6,147z M262.8,195.3c0.6-0.1,1-0.5,1.4-0.9c-0.3,1.4-0.4,2.6-0.4,3.5v0c0,0,0,0,0,0
	c-0.1-1-0.6-1.8-1.3-2.6C262.7,195.3,262.7,195.3,262.8,195.3z M293.2,151.5c-1.2-0.4-2.4-0.7-3.5-0.7c0.1-0.3,0.3-0.7,0.4-1.1
	c1.5,0.5,2.8,1,3.9,1.6C293.7,151.4,293.5,151.5,293.2,151.5z M256.6,124.9c0.4,0.4,0.9,0.8,1.4,1.1c-0.3,0.2-0.7,0.4-1.1,0.6
	C256.9,126.1,256.8,125.5,256.6,124.9z M277.7,95.7c-0.2,0.4-0.3,0.8-0.4,1.3c-0.3-0.2-0.6-0.3-1-0.5c0.3-0.3,0.6-0.6,1-0.9
	C277.4,95.6,277.5,95.6,277.7,95.7z M266.7,108.1c-0.2,0-0.3,0-0.5,0c0-0.2,0-0.4,0-0.5c0.1,0.1,0.3,0.3,0.5,0.4V108.1z
	 M246.4,122.2c0.3,0.3,0.7,0.6,1.1,0.8c0.2,2.1,1.3,4.4,2.9,6.4c-0.3,0-0.5,0-0.8,0c-1.6-0.2-2.9-1.1-3.9-1.8
	c-0.5-0.7-1-1.5-1.5-2.3c-0.4-0.6-0.7-1.2-0.9-1.8C243.9,123.3,245.2,122.9,246.4,122.2z M251.7,143.8c0,0.1,0,0.1,0,0.2
	C251.6,143.9,251.6,143.8,251.7,143.8L251.7,143.8z M288.3,216.2C288.3,216.2,288.3,216.2,288.3,216.2c-1.3-1.2-2.4-2.3-3.5-3.2
	c0,0,0,0,0,0c1.5-2,2.3-3.2,2.3-4.9c0-0.8-0.1-1.6-0.4-2.3c0.4-0.3,0.7-0.5,0.9-0.7v0.2c0.1,2.6,1.6,5.4,3.7,7.8
	C290.5,213.1,289.5,214.6,288.3,216.2C288.4,216.1,288.3,216.1,288.3,216.2z M282.4,102.8c-0.4-0.3-0.8-0.7-1.3-1.1c0,0,0,0,0-0.1
	c0.4,0,0.8,0.1,1.3,0.2C282.4,102.2,282.4,102.5,282.4,102.8z M263.1,99.1c0.2,0.1,0.5,0.2,0.9,0.3c0.5,0,1-0.2,1.5-0.6
	c0,0,0.1,0,0.1,0c1.2-0.1,2.3,0,3.1,0.1c-0.8,2.7-1.5,5.2-1.8,7.2c-0.3,0.2-0.6,0.4-0.7,0.7c-0.3-1.4-1.1-2.7-2.2-3.9
	c-0.3-0.8-0.8-1.5-1.3-1.5c-0.1,0-0.1,0-0.2,0c-0.5-0.5-1.1-1-1.6-1.5C261.6,99.5,262.3,99.3,263.1,99.1z M241.4,150
	c-0.3,0.4-0.6,0.8-0.9,1.2c-0.1-0.2-0.3-0.3-0.4-0.5c-1-1.6-1.2-2.8-1.9-2.8c-0.2,0-0.4,0-0.5,0.1c0-0.4,0-0.9,0-1.4
	c0.1-2.5,0.5-4.8,0.3-6.7c0,0,0,0,0.1,0c1.1,0.7,2.3,1.5,3.4,2.2c-0.2,0.5-0.4,0.9-0.5,1.3C240.3,145.5,240.5,147.8,241.4,150z
	 M253,203.9C253,203.9,253,203.9,253,203.9L253,203.9C253,203.9,253,203.9,253,203.9z M305.8,187.6c-0.1-0.6-0.3-1.3-0.7-1.8
	c0.2,0,0.3-0.1,0.4-0.3c0.4-0.7-0.5-2.4-2.1-3.7c0,0,0-0.1,0-0.2c0.7,0.6,1.4,1.2,2.1,1.6c0.9,1,1.9,1.9,2.9,2.7
	C307.5,186.4,306.6,187,305.8,187.6z M296.8,139.9c0-0.1,0-0.2,0-0.3c0.1-0.1,0.2-0.2,0.3-0.3C297,139.5,296.9,139.7,296.8,139.9z
	 M244.8,218.1c0.1-0.2,0.3-0.4,0.4-0.6c0-0.1,0.1-0.1,0.1-0.2v0c0,0.3,0,0.7,0.1,1C245.1,218.3,244.9,218.2,244.8,218.1z
	 M298.9,154.2C298.9,154.2,298.9,154.2,298.9,154.2C298.9,154.2,298.9,154.2,298.9,154.2C298.9,154.2,298.9,154.2,298.9,154.2z
	 M298.5,106.5c0.1-0.1,0.2-0.2,0.3-0.3c0,0.2-0.1,0.4-0.1,0.5C298.7,106.7,298.6,106.6,298.5,106.5z M225.8,188.7
	c-0.1,0.2-0.2,0.4-0.2,0.6c-0.2-0.1-0.3-0.2-0.4-0.4C225.4,188.8,225.6,188.8,225.8,188.7z M247.1,224.9c0.2,0,0.4,0.1,0.7,0.1
	c0.1,0.2,0.3,0.5,0.6,0.8c0,0,0,0,0,0c0,0,0,0,0,0.1C247.9,225.5,247.5,225.2,247.1,224.9C247,224.9,247,224.9,247.1,224.9z
	 M270.1,231.2c0-0.2,0-0.4,0.1-0.6c0.4,0,0.8-0.1,1.2-0.1c0.1,0,0.2,0.1,0.3,0.1c0,0,0,0,0,0C271.1,230.7,270.6,230.9,270.1,231.2
	C270.2,231.3,270.1,231.3,270.1,231.2z M276.6,235.8c0,0,0.1,0,0.1,0.1c0,0,0,0-0.1,0.1C276.7,235.9,276.7,235.9,276.6,235.8z
	 M255.7,86.8c0.1,0,0.1,0,0.2,0c-0.8,1.1-1.1,2.1-0.8,2.7c0,0.1,0.2,0.3,0.7,0.7c0,0,0,0,0,0c-0.3,1-0.5,2-0.7,2.9
	c-0.2-0.3-0.4-0.7-0.6-1c-0.6-1.1-1.1-2.2-1.5-3.2C254.4,88.3,255.3,87.6,255.7,86.8z M214.5,157.2c0-0.7,0.1-1.3,0.1-1.9
	c0.3,0,0.5-0.1,0.8-0.2c0-0.1,0-0.1,0-0.2c0.2,1.6,0.5,2.1,0.9,2.3c0,0,0,0,0,0c-0.5,0.6-0.8,1.3-1,2.1c-0.3-0.1-0.6-0.2-0.9-0.3
	C214.5,158.4,214.5,157.8,214.5,157.2z M226.5,147.7c0.4,0.2,0.7,0.4,1.1,0.6c0.5,1.4,1.2,2.8,2.1,4.2c-1.2-0.8-2.3-1.7-3.3-3.3
	c-0.1-0.2-0.2-0.4-0.3-0.6C226.3,148.2,226.4,148,226.5,147.7z M283.1,241.3c0,0.3,0,0.7,0,1c-0.2,0.2-0.4,0.3-0.6,0.5
	C282.7,242.3,283,241.8,283.1,241.3z M216.3,163.6c2.2,3.7,7.6,7.2,11.3,9.6c0.3,0.2,0.5,0.4,0.8,0.5c0,0.1,0,0.1,0,0.2
	c-1.7-1-3.7-1.6-6.6-2.9c-4-2-4.6-3.1-5.7-2.9c-0.3-0.9-0.7-2.1-0.9-3.4C215.6,164.2,216,163.9,216.3,163.6z M221.6,199.8
	c0.8-0.1,1.7-0.2,2.4-0.5c-0.2,0.4-0.3,0.8-0.4,1.3c0,0,0,0.1,0,0.2C223.1,200.3,222.2,200,221.6,199.8z M223.8,202.8
	c0.1,0.4,0.3,0.7,0.6,1.1c0,0,0,0,0,0c0,0-0.1,0-0.1,0c-0.8,0.2-1.4,0.3-2,0.3C223,203.6,223.5,203.2,223.8,202.8z M250.4,259.8
	c0-0.1,0-0.2,0-0.3c0.2-0.2,0.4-0.5,0.6-0.7c0.1,0.2,0.2,0.5,0.3,0.7c-0.2,0.1-0.3,0.2-0.5,0.2C250.6,259.8,250.5,259.8,250.4,259.8
	z M284.2,70.5c-0.1,0.1-0.1,0.3-0.1,0.5c-0.1,0.6,0.4,1.1,1.3,2.1c0.2,0.2,0.5,0.5,0.7,0.7c-3.2,0.4-5.8,1.1-5.9,2.1
	c0,0.3,0.2,0.5,0.6,1c1.2,1.3,2.2,1.4,4.2,2.4c0,0,0.1,0,0.2,0.1c-0.7,0.3-1.4,0.8-2,1.3c-0.1,0-0.1,0-0.2-0.1
	c-0.1-0.7-0.4-1.4-0.9-2c-1.1-1.4-3.2-2.1-5-1.5c0,0,0,0-0.1,0c-1.1-0.2-2.2-0.2-3.3,0.1c-2.3-1.7-5.4-2.5-8-2.3
	c-0.2-0.1-0.5-0.3-0.7-0.4c0.4-1,0.9-2.2,1.6-3.4c1.1-2.2,2-3.5,2.6-4.5c2,0.7,2.8,1.4,4.5,1.3c0.7,0,1-0.1,1.2-0.3
	c0.2-0.3,0.2-0.7,0-1.3c0.9-0.3,1.7-1.3,2.6-2.3c1.3,0.6,2.8,1.1,4.7,2c0.2,0.1,0.3,0.2,0.5,0.3c-0.4,0-0.7,0.1-0.9,0.3
	c0,0-0.1,0.2-0.2,0.5C281.5,68.3,282.9,69.1,284.2,70.5z M276,52.6c0.5-0.8,1.1-1.5,1.8-2.2c0.4,0.1,0.8,0.3,1.2,0.5
	C278,51.4,277,52,276,52.6z M213.1,106.3c-0.4,1-0.7,2.1-0.9,3.1c-0.1-1.6-0.3-3.2-0.6-4.9C212,105.1,212.6,105.7,213.1,106.3z
	 M214.9,195.5c0.2-0.7,0.4-1.3,0.5-1.9c0.6,0.7,1.3,1.2,2,1.8c0,0,0,0,0,0c-0.4,0.1-0.7,0.3-1,0.5c-0.3-0.2-0.7-0.4-1-0.4
	C215.2,195.5,215,195.5,214.9,195.5C214.9,195.5,214.9,195.5,214.9,195.5z M278.5,248.6c0-0.1,0-0.2,0-0.3c0.8,0.2,1.5,0.3,2.1,0.1
	c0,0,0,0,0.1,0c0.1,0.2,0.2,0.4,0.3,0.6c-0.6,0-1.2,0-1.8,0C279.1,248.9,278.8,248.7,278.5,248.6z M310,201.4c0.3-0.5,0.5-1,0.6-1.5
	v0c0,0,0,0,0,0c0.1,0.6,0.2,1.3,0.5,1.9C310.8,201.5,310.4,201.4,310,201.4C310,201.4,310,201.4,310,201.4z M316.9,202
	c-0.1-0.1-0.2-0.2-0.3-0.4c0.1,0.1,0.2,0.1,0.3,0.2c0,0,0,0,0,0C316.9,201.9,316.9,201.9,316.9,202z M319.9,193.3
	C319.9,193.3,319.9,193.3,319.9,193.3L319.9,193.3c-1.3-0.5-2.7-0.8-4.2-0.8c0.2-0.4,0.3-0.7,0.4-1.1c0,0,0,0,0,0c0.1,0,0.2,0,0.3,0
	c1.6-0.2,2.5,0.1,2.8-0.4c0.1-0.2,0.1-0.5,0-0.9c0,0,0,0,0,0c0,0,0.1,0,0.1,0c1.5-0.4,3.3-1.3,4.1-2.3c0.3,0.4,0.6,0.9,0.8,1.3
	c0.3,0.5,0.5,1,0.7,1.5c0,0.1,0,0.1,0.1,0.2c0,0.6-0.1,1.2-0.1,1.8C323.3,192.8,321.5,193,319.9,193.3z M264.1,45
	c-0.5-0.1-0.9-0.1-1.4-0.1c0.2-0.2,0.4-0.5,0.5-0.8c0.1-0.2,0.3-0.6,0.4-1C263.7,43.7,263.9,44.4,264.1,45z M264.4,48.8
	c-0.1,0.2-0.2,0.3-0.3,0.5c-0.5,0-1,0-1.5,0.2c-0.1-0.1-0.3-0.3-0.4-0.4C263,48.8,263.7,48.8,264.4,48.8z M204.7,160.2
	c-0.3,0.1-0.5,0.3-0.8,0.5c-0.1-0.1-0.2-0.2-0.3-0.4C204,160.3,204.3,160.3,204.7,160.2z M220.3,218.6c-0.2-0.2-0.4-0.3-0.6-0.5
	c0.3,0,0.5-0.1,0.9-0.2C220.4,218.2,220.4,218.4,220.3,218.6z M318.1,208.8c-0.1-0.4-0.3-0.7-0.5-1c0.3,0.1,0.7,0.2,1,0.4
	C318.4,208.4,318.2,208.6,318.1,208.8z M262.9,39.8c0.1,0.8,0.3,1.5,0.4,2.2c-0.3-0.3-0.9-0.4-1.5-0.3
	C262.2,40.9,262.6,40.3,262.9,39.8z M204.1,142.4c0.2-0.3,0.4-0.5,0.5-0.7c1.5,2,2.5,3.9,3.2,5.6c-1.6,1-2.7,2.8-3.3,4.2
	c-1.2,0-2.5,0.3-3.9,0.8c0-0.2,0-0.3,0-0.5c0-1.3,0.2-2.4,0.3-3.5C201.6,146.5,202.6,144.5,204.1,142.4z M205.5,191.3
	c0.1,0.4,0.3,0.9,0.4,1.3c-0.3-0.4-0.6-0.9-0.9-1.4c-0.1-0.1-0.1-0.2-0.2-0.3h0C205.1,191,205.3,191.2,205.5,191.3z M224.9,249
	c0,0.2-0.1,0.4-0.1,0.5c0-0.2,0-0.4,0-0.6C224.8,248.9,224.9,248.9,224.9,249z M328,206.8c0.4,0.2,0.7,0.3,1.1,0.3
	c0,0.1,0,0.2,0.1,0.2c-0.3-0.2-0.7-0.3-1.1-0.3C328.1,207,328,206.9,328,206.8z M286.7,38.8c-0.3,0-0.8,0-1.3,0.1
	c0-0.5,0-1.1-0.1-1.5c0.4-0.1,0.8-0.2,1.3-0.5c0.1,0.4,0.2,0.8,0.2,1.4C286.8,38.5,286.8,38.7,286.7,38.8z M282.5,35.1
	c-1.9,0.3-3.7,0.6-4.8,1c0.5-0.8,0.9-1.5,1.2-2.1c1.1,0.1,2.2,0.1,3.3,0.2C282.3,34.6,282.4,34.8,282.5,35.1z M286.4,271.1
	c0,0.7,0.1,1.5,0.2,2.2c-0.6-0.2-1.3-0.4-1.9-0.9C285.3,272,285.8,271.5,286.4,271.1z M314.2,94.4c0-0.1,0.1-0.1,0.1-0.2
	c0.5,0,1,0,1.5,0.1c0.1,0,0.2,0.1,0.3,0.1c-0.1,0.2-0.3,0.4-0.4,0.6C315.2,94.7,314.7,94.5,314.2,94.4z M291.6,28.9L291.6,28.9
	c-0.1,0.1-0.2,0.3-0.3,0.4c0-0.2,0-0.3,0-0.4C291.4,28.9,291.5,28.9,291.6,28.9z M333.1,200.5c-0.2,0-0.5,0.1-0.7,0.1
	c0-0.4,0-0.8,0-1.2c1-0.8,1.8-1.8,2.4-2.9c0.1-0.1,0.3-0.1,0.4-0.2c0.2,0.8,0.4,1.8,0.3,3c0,0.2,0,0.4-0.1,0.6
	C334.7,200,333.9,200.2,333.1,200.5z M321,97.7c-0.8,0.3-1.5,0.8-2.2,1.3c0,0,0,0,0,0c-0.1-0.2-0.2-0.3-0.3-0.5c0,0,0,0,0,0
	c0.4-0.2,0.9-0.4,1.5-0.6c0.4-0.1,0.8-0.3,1.1-0.3C321.1,97.7,321,97.7,321,97.7z M311,76.4c-0.2-0.4-0.4-0.7-0.6-1.1
	c0.1-0.1,0.2-0.2,0.3-0.3c0.7,0.6,1.4,1.3,2.1,2.3c0.2,0.3,0.3,0.6,0.5,0.8C312.6,77.5,311.8,76.9,311,76.4z M198.4,96.8
	c-0.3-0.4-0.6-0.8-0.9-1c0.1-0.1,0.2-0.3,0.3-0.4c0.4-0.4,0.8-0.7,1.1-0.9c0.1,0.5,0.3,0.9,0.6,1.2C199.1,96,198.8,96.4,198.4,96.8z
	 M197.3,100c0.2,0.3,0.6,0.3,1.7,0.6c0.4,0.5,0.9,1,1.3,1.4c0.2,0.2,0.3,0.4,0.5,0.6c-1.2,1.7-1.8,3.5-2.1,5.2c0,0,0,0-0.1,0
	c-0.1-1.5-0.3-3.1-0.6-4.7c-0.1-0.3-0.3-1.5-0.8-3.1C197.2,100,197.2,100,197.3,100z M310.3,249.2c0.2-0.3,0.3-0.7,0.4-1.1
	c0,0.6,0,1.2-0.1,1.8C310.5,249.7,310.4,249.4,310.3,249.2z M335.6,174.1c-0.1-0.1-0.1-0.2-0.2-0.3c0.1,0,0.1-0.1,0.2-0.1
	c0.5,0.4,1,0.8,1.5,1.3C336.6,174.7,336.1,174.4,335.6,174.1z M325.7,111.5C325.7,111.5,325.6,111.5,325.7,111.5L325.7,111.5
	C325.6,111.5,325.7,111.5,325.7,111.5C325.7,111.5,325.7,111.5,325.7,111.5z M316.4,85.3L316.4,85.3c-0.1,0.1-0.3,0-0.4,0
	c0.1-0.7,0.1-1.4,0-2.1c-0.1-1.2-0.6-2.3-1.2-3.2c0.4,0,0.8-0.3,1.2-0.8C316.3,80.9,316.5,82.9,316.4,85.3z M298.2,34.5
	c-0.1,0.3-0.2,0.6-0.2,0.9c-0.9-1-2.2-1.8-3.4-2.2c0.1-0.1,0.3-0.1,0.4-0.2c1.9-0.6,2.5-0.5,2.8-0.9c0.4,0.2,0.8,0.4,1.3,0.7
	C298.6,33.2,298.3,34.1,298.2,34.5z M199.3,208.9c0-0.3,0.1-0.6,0.1-0.9c0.6,1.2,1,2.4,1.4,3.4c-0.4,0.1-0.8,0.3-1.2,0.5
	C199.4,211.1,199.2,210.1,199.3,208.9z M213.1,243.9c0.2-0.3,0.4-0.5,0.6-0.7c2.6,3.4,3.7,6.8,4.6,9.3c-0.3,0-0.6,0.1-1,0.1
	c-0.8-0.5-1.6-0.9-2.5-0.8c0,0-0.1,0-0.1,0c-0.3,0-0.5,0-0.7,0.1c-1,0.3-1.8,0.9-2.3,1.3c-0.7,0.1-1.3,0.3-2,0.5
	c-0.3-0.3-0.6-0.6-0.9-0.9C209.6,250.7,210.5,247.5,213.1,243.9z M306.3,291.2c0.1,1.4-0.1,2.9-0.7,4.5c-0.7,1.8-1.6,2.5-1.1,3.2
	c0.2,0.4,0.9,0.6,1.7,0.7c-0.6,1.2-1.2,2.2-1.8,3c-1.3-1.4-2.5-2.7-3.7-3.9C303.2,297.2,305,294.3,306.3,291.2z M329.1,137.6
	C329.1,137.6,329.1,137.6,329.1,137.6c-1.3,0.6-2,2.5-2.3,3.3c-0.3,0.7-0.4,1.3-0.5,2c-0.7-0.8-1.5-1.4-2.4-2.1c0,0,0,0,0,0v-0.1
	c0-1.5,0.2-2.8,0.4-4.1c1,0,2,0,2.8-0.1c0.1,0,0.3,0,0.4,0C328.1,136.8,328.6,137.2,329.1,137.6z M327.6,102.9
	c-0.6-0.5-1.3-0.7-2-0.8c0,0,0,0,0,0c0.2-1,0.5-1.9,0.6-2.6c0.2,0.2,0.4,0.4,0.6,0.6c0.6,0.7,1.2,1.3,1.7,1.9c0,0,0,0,0,0
	c-0.3,0.5-0.4,0.9-0.6,1.2C327.8,103.1,327.7,103,327.6,102.9z M320.6,65.5c0.2,0.7,0.4,1.6,0.3,2.8c0,0.4-0.1,0.8-0.1,1
	c-0.7-0.1-1.7-0.1-2.7,0.1c0.1-1,0-2.1-0.1-3C318.8,66.2,319.7,65.9,320.6,65.5z M298.1,16.1C298.1,16.1,298.1,16.1,298.1,16.1
	C298.1,16.1,298.1,16.1,298.1,16.1c-0.1,0-0.1,0-0.1,0c0,0,0,0,0,0C298,16.1,298,16.1,298.1,16.1C298,16.1,298.1,16.1,298.1,16.1z
	 M276.5,10.1c0.1-0.1,0.2-0.1,0.3-0.2c0.1,0.3,0.3,0.7,0.3,0.8c0.1,0.3,0.3,0.5,0.5,0.7c0,0,0,0,0,0c-0.1,0-0.1,0-0.2,0.1h0
	c0,0,0,0,0,0c-0.4,0-0.8,0-1.2,0.1c0,0,0,0,0,0c-0.3-0.2-0.7-0.4-1-0.6C275.6,10.7,276,10.4,276.5,10.1z M260.9,10.1
	c-0.3,0.5-0.6,1.1-0.9,1.7c-0.1-0.1-0.2-0.3-0.3-0.4C260.1,11,260.5,10.5,260.9,10.1z M199.7,84.8c0.4-0.4,0.8-0.7,1.1-0.9
	c0.1,0.5,0.3,0.9,0.6,1.2c-0.4,0.3-0.8,0.7-1.1,1.1c-0.3-0.4-0.6-0.8-0.9-1C199.4,85.1,199.5,84.9,199.7,84.8z M192.9,83.5
	c1.7-0.5,3.1-0.3,4.3-0.3c0,0.3,0,0.5,0,0.8c-1.5-0.5-3.4-0.6-4.8,0.5c-0.2,0.2-0.4,0.3-0.5,0.5c-0.2-0.3-0.4-0.5-0.6-0.8
	C191.7,84,192.3,83.7,192.9,83.5z M182.1,168.9c0-0.4,0.1-0.8,0.2-1.1c0,0,0,0,0,0c-0.1,0.8-0.2,1.7-0.1,2.5
	c0.1,0.5,0.2,1.1,0.4,1.6c-0.1,0-0.1,0.1-0.2,0.1C182.2,171.1,182,170.1,182.1,168.9z M221.5,307.4c-0.3-0.3-0.5-0.6-0.7-0.9
	c0.6-0.5,1.4-1.3,2-2.2c0.6,0.7,1.3,1.4,2,2c-0.4,0.9-0.8,1.8-0.8,2.6c-0.1,0.1-0.1,0.3-0.2,0.4C223.1,309,222.3,308.4,221.5,307.4z
	 M247.3,317.2c0.4-0.6,0.7-1.2,1-1.8c0.2,0.5,0.4,0.9,0.7,1.4c-0.1,0-0.2-0.1-0.3-0.1C248.2,316.6,247.8,316.8,247.3,317.2z
	 M253.5,333.8c0.2,0.5,0.5,1.1,0.9,1.5c-0.4,0.8-0.7,1.5-0.9,2.2c-0.9-1.5-2.4-2.6-3.7-2.9c0.1-0.1,0.1-0.2,0.1-0.3
	C251.2,334.4,252.5,334.2,253.5,333.8z M304.3,314.4c-0.4,0.2-0.7,0.4-1,0.5c-0.4-0.6-1-1.6-1.8-2.3c1-0.6,1.9-1.3,2.6-2
	c0.7,0.6,1.5,1.3,2.5,1.8C306.1,313,305.4,313.7,304.3,314.4z M314.7,281.2c-0.4,0.2-0.7,0.4-1,0.5c-0.1-0.1-0.2-0.3-0.3-0.4
	c0.9-0.9,1.6-2,2.2-3c0.4,0.3,0.9,0.6,1.4,0.9C316.4,279.8,315.7,280.6,314.7,281.2z M319.1,238.2c-0.4,0.2-0.7,0.4-1,0.5
	c-0.1-0.1-0.2-0.3-0.3-0.4c0.9-0.9,1.6-2,2.2-3c0.4,0.3,0.9,0.6,1.4,0.9C320.9,236.8,320.2,237.5,319.1,238.2z M334,244
	c0,0.1,0,0.1,0.1,0.2c-0.6,0.5-1.1,1.2-1.4,1.8c-0.3-0.2-0.7-0.3-1.1-0.3c-0.2-0.5-0.4-1-0.6-1.4C332,244.6,333.3,244.4,334,244z
	 M328.3,241.7c-0.4-0.2-0.8-0.3-1.3-0.4c-0.1,0-0.2,0-0.3,0c0.2-0.4,0.4-0.8,0.5-1.3c0.2-1,0-2-0.3-2.9c0.4-0.1,0.7-0.2,1.1-0.3
	c0,0.1-0.1,0.2-0.1,0.3C327.6,238.5,327.7,240.3,328.3,241.7z M340.4,215.4c0,0,0.1,0,0.1,0c0,0.1,0,0.2,0,0.3
	C340.5,215.6,340.5,215.5,340.4,215.4z M345.9,166.2c0,0.4-0.1,0.8-0.2,1.1c-0.8-0.1-1.9-0.1-2.9,0.1c0.1-1.1,0.1-2.3-0.1-3.3
	c0.9-0.2,1.9-0.5,2.9-1C345.8,164,346,165,345.9,166.2z"/>
<g>
	<path class="st2" d="M183.5,100.6c1.3,0,2.1-1.4,3.5-2.8c1.6-1.6,3.1-2.5,4.1-3c0.3,0.4,0.9,0.2,2.8,0.9c2.1,0.7,3,1.4,4.7,1.3
		c0.7,0,1-0.1,1.2-0.3c0.7-0.8-0.8-3.1-2.7-5.7c0.4-0.2,0.9-0.5,1.6-0.7c2.9-0.8,5.1,0.3,6.3-1.1c0.2-0.3,0.3-0.4,0.3-0.5
		c0.1-1-3-2.8-5.7-2.6c0.2-0.2,0.4-0.5,0.5-0.8c0.2-0.4,0.7-1.4,0.3-2c-0.6-0.9-2.5-0.4-2.8-0.3c-1.8,0.4-3.9,1.8-4.6,3.7
		c-0.4-0.2-0.8-0.4-1.3-0.3c-1,0-2,0.8-2.3,1.7c-0.2,0.4-0.2,0.9-0.1,1.3c-1.5-0.5-3.4-0.6-4.8,0.5c-1.4,1.1-2.1,3.3-1.6,3.7
		c0.3,0.2,0.7-0.1,1.5-0.3c0.8-0.2,1.5-0.2,2.1,0c-1.8,0.4-3.5,1.2-4.3,2.6c-0.4,0.8-1.1,2.6-0.2,3.7
		C181.9,99.8,182.5,100.6,183.5,100.6z M191.6,90.2c0.4-0.4,0.8-0.7,1.1-0.9c0.1,0.5,0.3,0.9,0.6,1.2c-0.4,0.3-0.8,0.7-1.1,1.1
		c-0.3-0.4-0.6-0.8-0.9-1C191.3,90.5,191.5,90.4,191.6,90.2z"/>
	<path class="st2" d="M349.4,192.2c-0.4-3.7-3.4-6.5-6.6-8c0.8-0.5,1.5-1.2,1.9-2c0.9-1.8,0.7-4.4-0.8-6c-0.7-0.7-1.6-1.2-2.5-1.4
		c2-3.9,0.9-9.3-1.2-12.6c-0.3-0.5-2.7-4.2-5-3.8c-1.6,0.3-2.4,2.5-2.7,3.4c-0.3,0.7-0.4,1.3-0.5,2c-0.2-0.2-0.4-0.4-0.5-0.5
		c-0.2-0.9-0.6-1.7-1.2-2.4c-0.7-0.7-1.6-1.2-2.5-1.4c2-3.9,0.9-9.2-1.1-12.5c2.9,0.2,5.8,0.1,8.2,0c6.1-0.2,12.2-0.4,13-2.9
		c1-3.5-8.6-10.1-18.2-12c-1.1-0.2-2.6-0.5-4.1-0.7c4.4-0.2,8-0.8,8.6-2.7c0.7-2.4-3.7-6.4-9.7-9.2c0.4-0.2,0.9-0.4,1.5-0.5
		c1.9-0.6,2.5-0.5,2.8-0.9c1,0.5,2.5,1.4,4.1,3c1.3,1.4,2.2,2.8,3.5,2.8c0.9,0,1.5-0.8,1.6-0.9c0.9-1.2,0.2-3-0.2-3.7
		c-0.8-1.4-2.5-2.2-4.3-2.6c0.6-0.1,1.3-0.2,2.1,0c0.9,0.2,1.3,0.5,1.5,0.3c0.5-0.5-0.2-2.6-1.6-3.7c-1.4-1.1-3.2-1-4.8-0.5
		c0.1-0.4,0.1-0.9-0.1-1.3c-0.3-0.9-1.2-1.7-2.3-1.7c-0.5,0-0.9,0.1-1.3,0.3c-0.4-1.2-1.5-2.2-2.6-2.9c0.4-1.1-0.1-2.6-0.5-3.3
		c-0.8-1.4-2.5-2.2-4.3-2.6c0.6-0.1,1.3-0.2,2.1,0c0.9,0.2,1.3,0.5,1.5,0.3c0.4-0.3,0.1-1.5-0.6-2.6c0.8-1.4,1.3-3.5,1.1-5.5
		c-0.4-3.4-3.1-5.9-6.1-7.4c0.7-0.4,1.4-1.1,1.8-1.9c0.9-1.7,0.7-4-0.8-5.5c-0.6-0.7-1.5-1.1-2.3-1.3c1.8-3.6,0.8-8.5-1.1-11.6
		c-0.3-0.5-2.5-3.9-4.6-3.5c-1.5,0.3-2.2,2.3-2.5,3.1c-0.2,0.6-0.4,1.2-0.5,1.8c-0.5-0.5-1-1-1.5-1.4c-0.2-0.9-0.5-1.8-1.2-2.5
		c-0.6-0.7-1.5-1.1-2.3-1.3c1.8-3.6,0.8-8.5-1.1-11.6c-0.3-0.5-2.5-3.9-4.6-3.5c-1.5,0.3-2.2,2.3-2.5,3.1c-0.1,0.3-0.2,0.5-0.2,0.8
		c-0.1-0.3-0.2-0.5-0.4-0.8c-0.2-0.2-1.2-2-2.2-1.8c-0.4,0.1-0.7,0.5-0.9,0.9c-2.5-1.5-5.2-2.3-7-2.3c-0.6-0.8-1.4-1.4-2.3-1.9
		c0.2-0.2,0.4-0.4,0.6-0.6c1.2-0.1,2.6-0.1,4-0.1c4.6,0.1,8.5,1,11-0.7c0,0.3,0,0.5,0.1,0.7c0.2,0.2,0.5,0.2,1.2,0.3
		c1.7,0.1,2.6-0.6,4.7-1.3c1.9-0.6,2.5-0.5,2.8-0.9c1,0.5,2.5,1.4,4.1,3c1.3,1.4,2.2,2.8,3.5,2.8c0.9,0,1.5-0.8,1.6-0.9
		c0.9-1.2,0.2-3-0.2-3.7c-0.8-1.4-2.5-2.2-4.3-2.6c0.6-0.1,1.3-0.2,2.1,0c0.9,0.2,1.3,0.5,1.5,0.3c0.5-0.5-0.2-2.6-1.6-3.7
		c-1.4-1.1-3.2-1-4.8-0.5c0.1-0.4,0.1-0.9-0.1-1.3c-0.3-0.9-1.2-1.7-2.3-1.7c-0.5,0-0.9,0.1-1.3,0.3c-0.4-1.2-1.5-2.2-2.6-2.9
		c0.4-1.1-0.1-2.6-0.5-3.3c-0.8-1.4-2.5-2.2-4.3-2.6c0.6-0.1,1.3-0.2,2.1,0c0.9,0.2,1.3,0.5,1.5,0.3c0.5-0.5-0.2-2.6-1.6-3.7
		c-1.4-1.1-3.2-1-4.8-0.5c0.1-0.4,0.1-0.9-0.1-1.3c-0.3-0.9-1.2-1.7-2.3-1.7c-0.5,0-0.9,0.1-1.3,0.3c-0.7-1.9-2.8-3.3-4.6-3.7
		c-0.3-0.1-2.3-0.5-2.8,0.3c-0.4,0.6,0.1,1.6,0.3,2c0.2,0.3,0.3,0.6,0.5,0.8c-0.5,0-1,0-1.5,0.1c-1.5-1.1-3.2-1.8-4.3-2.1
		c-4.2-1.2-8.9,0.5-13,3c0.9-1.4,2.1-2.8,4-3.9c2-1.2,3.4-1.4,3.5-2.3c0.1-1.8-5.3-4.6-10.1-4c-4.6,0.6-8,4.1-9.9,8
		c-0.6-0.9-1.5-1.8-2.6-2.3c-2.3-1.1-5.5-0.8-7.5,1.1c-0.9,0.9-1.5,1.9-1.8,3.1c-4.9-2.3-11.6-0.9-15.7,1.6c-0.6,0.4-5.3,3.2-4.7,6
		c0.4,1.9,3.2,2.8,4.3,3.2c0.9,0.3,1.7,0.5,2.5,0.6c-2,1.8-3.6,4.2-4.7,6.5c-2.1-1.4-4.5-1.1-4.8-1.1c-4.5,0.6-7.2,5.9-8,8.5
		c-1.5,4.8,0.4,10.2,3.5,14.9c-1.7-1.1-3.3-2.5-4.6-4.6c-1.5-2.3-1.6-3.9-2.7-4c-2.2-0.1-5.6,5.9-4.9,11.4c0.6,5.2,4.8,9.2,9.5,11.4
		c-1.1,0.7-2.1,1.7-2.8,2.9c-1.3,2.6-1.1,6.3,1.2,8.6c1,1.1,2.3,1.7,3.6,2c-1.7,3.4-1.8,7.6-0.9,11.4c-1.7,0.5-3.5,1.9-4.1,3.6
		c-0.4-0.2-0.8-0.4-1.3-0.3c-1,0-2,0.8-2.3,1.7c-0.2,0.4-0.2,0.9-0.1,1.3c-0.3-0.1-0.6-0.2-0.9-0.2c-0.9-2.5-2.2-5-3.9-5.1
		c-1.5,0-1.9,2.1-4.8,2.9c-2.2,0.6-3.7-0.1-4.1,0.6c-0.5,0.9,1.4,2.6,2.9,4.3c1.5,1.7,2.5,3.4,3.3,5c-0.3,0.9-0.4,2,0.2,2.7
		c0,0.1,0.5,0.7,1.4,0.8c0.5,1.3,0.9,2.5,1.4,3.5c-2.1-1.1-5.5-1.7-9.5-0.3c-1.8,0.7-6.3,2.3-8.3,7.2c-0.6,1.4-1.7,4.7-0.6,5.8
		c1.3,1.4,4.1-3.4,10.6-4.7c0.9-0.2,1.7-0.3,2.6-0.4c-1.2,0.7-2.3,1.6-3.2,2.7c-2.9,3.6-2.6,7.6-2.5,9.2c0.2,2.8,1.1,6,2.4,7.9
		c-1-0.2-1.8-0.1-2-0.1c-3.2,0.4-5.1,4.1-5.6,6c-1,3.4,0.3,7.2,2.4,10.5c-1.2-0.8-2.3-1.7-3.3-3.3c-1-1.6-1.2-2.8-1.9-2.8
		c-1.5-0.1-3.9,4.2-3.5,8c0.4,3.7,3.4,6.5,6.6,8c-0.8,0.5-1.5,1.2-1.9,2c-0.9,1.8-0.7,4.4,0.8,6c0.7,0.7,1.6,1.2,2.5,1.4
		c-2,3.9-0.9,9.3,1.2,12.6c0.3,0.5,2.7,4.2,5,3.8c1.6-0.3,2.4-2.5,2.7-3.4c0.3-0.7,0.4-1.3,0.5-2c0.2,0.2,0.4,0.4,0.5,0.5
		c0.2,0.9,0.6,1.7,1.2,2.4c0.7,0.7,1.6,1.2,2.5,1.4c-2,3.9-0.9,9.3,1.2,12.6c0.3,0.5,2.7,4.2,5,3.8c0.3,0,0.5-0.2,0.7-0.3
		c1.3,2.7,1.9,5.1,2.8,6.8c-2.1-1.1-5.5-1.7-9.5-0.3c-1.8,0.7-6.3,2.3-8.3,7.2c-0.6,1.4-1.7,4.7-0.6,5.8c1.3,1.4,4.1-3.4,10.6-4.7
		c0.9-0.2,1.7-0.3,2.6-0.4c-1.2,0.7-2.3,1.6-3.2,2.7c-2.9,3.6-2.6,7.6-2.5,9.2c0.2,4.3,2.4,9.5,4.5,9.5c0.7,0,1.1-0.6,1.5-1.6
		c0.1,0.3,0.2,0.6,0.3,0.7c1.3,1.4,4.1-3.4,10.6-4.7c0.9-0.2,1.7-0.3,2.6-0.4c-1.2,0.7-2.3,1.6-3.2,2.7c-2.9,3.6-2.6,7.6-2.5,9.2
		c0.1,2.6,1,5.5,2.1,7.3c-2,0.5-2.8,0.5-3.2,1.1c-2.2-1.1-5.4-2.9-8.7-6.5c-2.8-3-4.5-6.1-7.4-6c-2,0.1-3.4,1.8-3.5,1.9
		c-2,2.6-0.6,6.5,0.2,8.2c1.6,3.1,5.3,4.9,9.1,5.7c-1.4,0.3-2.8,0.4-4.6,0c-1.9-0.4-2.8-1.1-3.3-0.6c-1.2,1,0.2,5.7,3.2,8.1
		c2.5,2,5.9,2.2,9,1.4c0.1,0.3,0.2,0.6,0.4,0.8c0.3,0.6,0.7,1.1,1.1,1.6c0,0,0,0,0,0.1c0.6,2,2.6,3.6,4.8,3.7c0.4,0,0.8,0,1.2-0.1
		c0.6,0.2,1.3,0.4,2,0.5c-1.4,0.3-2.8,0.4-4.6,0c-1.9-0.4-2.8-1.1-3.3-0.6c-1.2,1,0.2,5.7,3.2,8.1c2.9,2.3,6.9,2.2,10.4,1
		c-0.2,0.9-0.2,1.9,0.1,2.8c0.6,2,2.6,3.6,4.8,3.7c0.6,0,1.2-0.1,1.7-0.3c0.1,0.8,0.3,1.6,0.6,2.4c1.3,2.8,4.5,4.4,7.4,4.2
		c0.9,0.4,1.8,0.7,2.7,0.9c-0.2,0.6-0.5,1.4-0.9,2.1c-0.9,1.4-1.2,1.2-2.4,2.9c-0.3,0.4-3.6,5.1-2.4,6.8c1,1.3,4.9,0.5,7.5-1.2
		c0.5-0.3,1-0.7,1.5-1.2c0.1,0.3,0.2,0.5,0.3,0.8c1.5,3.3,5.7,4.9,9,4c0.2-0.1,0.8-0.2,1.4-0.5c-0.2,1-0.4,2.3-1.3,3.9
		c-0.9,1.4-1.2,1.2-2.4,2.9c-0.3,0.4-3.6,5.1-2.4,6.8c1,1.3,4.9,0.5,7.5-1.2c1.9-1.2,3.7-3.3,4.6-5.6c0.2,0.6,0.6,1.2,1,1.8
		c0.3,0.4,1.9,2.5,4.5,2.7c5,0.5,9.1-6.4,8.4-7.2c-0.3-0.4-1.5,1-3.2,0.8c-2.9-0.5-3.8-5.4-5.3-7.9c1.1-1.1,2.1-2.5,2.7-3.7
		c1.7-3,3-8,1.2-9.1c-1.6-1-5,1.2-6.8,3.1c-1.4,1.5-2.5,3.5-2.9,5.4c-0.2-0.3-0.4-0.7-0.6-1.2c0.9-1.4,1.4-2.6,1.2-2.9
		c-0.2-0.3-0.9,0.3-1.8,0.6c-0.1-0.9,0.1-1.3-0.2-2.9c-0.1-0.5-1.1-6.2-3.1-6.5c-0.9-0.1-2,0.9-2.9,2.4c-0.1-0.3-0.3-0.5-0.4-0.7
		c1.1-1.1,2.1-2.5,2.7-3.7c0.3-0.5,0.6-1.1,0.8-1.7c1.3-0.9,2.1-1.9,2-2.7c0-0.1,0-0.5-0.5-1c-0.1-0.1-0.2-0.2-0.3-0.3
		c0.2-1.5,0-2.8-0.8-3.4c-1.3-0.8-3.9,0.5-5.7,2.1c-1.7,0-3.5,0-5.5-0.3c-0.2-1.2-0.9-4.1-2-5.3c0.2-0.3,0.5-0.7,0.7-1
		c0.2,0.1,0.5,0.2,0.7,0.3c2.8,1.2,6,1.1,8.8,0c1.1,0.1,2.3-0.7,3.4-2c0.9-0.7,1.6-1.5,2.2-2.4c0.2-0.3,0.7-1.1,1.1-2.1
		c0.8,1.3,1.9,3.1,2.4,5.8c0.4,2.5-0.2,2.7,0.1,5.8c0.1,0.8,1,9.6,4.1,10.3c2.5,0.5,6.2-4.4,7.5-9c0.9-3.3,0.9-7.5-0.3-11.1
		c0.9,0.5,1.9,0.8,3,1.1c0.7,0.1,4.7,0.9,8-1.4c0.8-0.6,1.4-1.2,2-2c0.3,2.6,0.1,3.5,0.7,4.2c-1.5,2-3.7,4.9-7.8,7.6
		c-3.4,2.3-6.7,3.5-7.1,6.3c-0.2,2,1.2,3.6,1.3,3.7c2.2,2.3,6.3,1.7,8.1,1c3.3-1.1,5.6-4.4,7-8.1c0.1,1.4-0.1,2.9-0.7,4.5
		c-0.7,1.8-1.6,2.5-1.1,3.2c0.8,1.3,5.7,0.7,8.5-1.9c2.7-2.5,3.2-6.5,2.6-10.1c0.4,0.2,0.9,0.3,1.3,0.4c0.2,0.7,0.3,1.5,0.5,2.3
		c0.8,4.4,0.3,5.6,1,6.4c-1.5,2-3.7,4.9-7.8,7.6c-3.4,2.3-6.7,3.5-7.1,6.3c-0.2,2,1.2,3.6,1.3,3.7c2.2,2.3,6.3,1.7,8.1,1
		c3.3-1.1,5.6-4.4,7-8.1c0.1,1.4-0.1,2.9-0.7,4.5c-0.7,1.8-1.6,2.5-1.1,3.2c0.8,1.3,5.7,0.7,8.5-1.9c2.7-2.5,3.2-6.5,2.6-10.1
		c0.9,0.4,1.8,0.5,2.8,0.4c2-0.3,4-2,4.4-4.2c0.2-1,0-2-0.3-2.9c4.3-0.7,8.1-4.7,9.5-8.4c0.2-0.6,1.9-4.7,0.1-6.3
		c-1.2-1.1-3.5-0.5-4.4-0.2c-0.7,0.2-1.3,0.5-1.9,0.8c1.2-5.9-1.6-13.2-3.8-13.5c-0.1,0-0.5,0-1.1,0.4c-3.4,2.1-1.7,7.4-4.4,13.3
		c-0.6,1.3-1.3,2.3-1.9,3.2c-1.7-1.8-3.3-3.5-4.8-4.9c3.8-1.2,7-4.8,8.4-8.1c0.2-0.4,1.1-2.8,0.9-4.7c1.2-2.3,1.4-5.2,0.9-7.9
		c0.9,0.4,1.8,0.5,2.8,0.4c2-0.3,4-2,4.4-4.2c0.2-1,0-2-0.3-2.9c4.3-0.7,8.1-4.7,9.5-8.4c0.2-0.6,1.9-4.7,0.1-6.3
		c-1.2-1.1-3.5-0.5-4.4-0.2c-0.7,0.2-1.3,0.5-1.9,0.8c1.2-5.9-1.6-13.2-3.8-13.5c-0.1,0-0.5,0-1.1,0.4c-3.4,2.1-1.7,7.4-4.4,13.3
		c-0.6,1.3-1.3,2.3-1.9,3.2c-1.7-1.8-3.3-3.5-4.8-4.9c3.8-1.2,7-4.8,8.4-8.1c0.2-0.6,1.9-4.7,0.1-6.3c-1.2-1.1-3.5-0.5-4.4-0.2
		c-0.7,0.2-1.3,0.5-1.9,0.8c0.4-2,0.4-4.1,0-6.1c2.3,1.3,4.1,2.4,5.9,1.7c1.6-0.6,2.1-2.3,2.2-2.4c0.2-0.5,0.2-1.1,0.1-1.6
		c0.7,0.3,1.5,0.6,2.1,0.8c0,1,0.2,2.1,0.4,2.9c0.6,2.1,2.2,5,3.6,4.6c1.2-0.3,1.7-2.8,1.7-4.5c0-1.3-0.4-2.7-1.1-3.8
		c0.5,0.1,1,0.3,1.6,0.7c0.9,0.5,0.8,0.8,1.9,1.5c0.2,0.2,2.2,1.6,3.6,1.7c-0.1,0.3-0.1,0.5-0.2,0.8c-0.3,1.4-0.2,3.1,0.4,4.6
		c-0.4-0.2-0.8-0.3-1.3-0.4c-0.3,0-2-0.3-3.3,0.8c-2.5,2-1.2,7-0.6,7c0.3,0,0.2-1.1,1.1-1.8c1.5-1.1,4.2,0.7,5.9,1.2
		c0,1,0.2,2.1,0.4,2.9c0.6,2.1,2.2,5,3.6,4.6c1.2-0.3,1.7-2.8,1.7-4.5c0-1.3-0.4-2.7-1.1-3.8c0.5,0.1,1,0.3,1.6,0.7
		c0.9,0.5,0.8,0.8,1.9,1.5c0.3,0.2,3.3,2.3,4.3,1.5c0.9-0.7,0.3-3.1-0.8-4.8c-0.8-1.2-2.2-2.4-3.8-3c0.3-0.5,0.7-1,1.3-1.3
		c1.7-0.8,3.5,0.7,3.9,0.1c0.4-0.6-0.8-2.9-2.9-3.6c-2.2-0.8-4.8,0.4-5.9,2.3c-0.1,0.1-0.3,0.5-0.4,0.9c-0.4-0.5-0.9-1.2-1.2-2.3
		c-0.3-1,0-1.1-0.2-2.4c-0.1-0.3-0.7-3.9-2-4.1c-0.5-0.1-1,0.4-1.5,1c-0.2-0.9-0.6-2-1.1-2.8c-0.8-1.2-2.2-2.4-3.8-3
		c0.3-0.5,0.7-1,1.3-1.3c1.7-0.8,3.5,0.7,3.9,0.1c0.4-0.6-0.8-2.9-2.9-3.6c-1.8-0.7-4,0.1-5.3,1.4c-0.2-0.1-0.5-0.3-0.6-0.5
		c-1.1-1.5,0.7-4.2,1.2-5.9c1,0,2.1-0.2,2.9-0.4c2.1-0.6,5-2.2,4.6-3.6c-0.3-1.2-2.8-1.7-4.5-1.7c-1.3,0-2.7,0.4-3.8,1.1
		c0.1-0.2,0.1-0.5,0.3-0.8c0.1,0,0.2,0,0.3,0c3.2-0.4,5.1-4.1,5.6-6c0.1-0.2,0.1-0.4,0.1-0.6c0.7,0.4,1.1,0.6,1.6,0.6
		c0.8,2.4,1.8,5.9,1.6,10.8c-0.2,4.1-1.1,7.5,1,9.4c1.5,1.4,3.6,1.1,3.8,1.1c3.2-0.4,5.1-4.1,5.6-6c1-3.4-0.3-7.2-2.4-10.5
		c1.2,0.8,2.3,1.7,3.3,3.3c1,1.6,1.2,2.8,1.9,2.8C347.5,200.3,349.9,196.1,349.4,192.2z M326.7,112.5c0.3,0.2,0.7,0.5,1.1,0.9
		c0.1,0.2,0.2,0.3,0.3,0.4c-0.3,0.2-0.6,0.6-0.9,1c-0.4-0.4-0.7-0.8-1.1-1.1C326.4,113.4,326.6,112.9,326.7,112.5z M303.6,36.9
		c0.3,0.2,0.7,0.5,1.1,0.9c0.1,0.2,0.2,0.3,0.3,0.4c-0.3,0.2-0.6,0.6-0.9,1c-0.4-0.4-0.7-0.8-1.1-1.1
		C303.3,37.8,303.5,37.4,303.6,36.9z M336.1,226.2c0,0.1,0,0.1,0.1,0.2c-0.6,0.5-1.1,1.2-1.4,1.8c-0.3-0.2-0.7-0.3-1.1-0.3
		c-0.2-0.5-0.4-1-0.6-1.4C334.2,226.8,335.4,226.6,336.1,226.2z M321.2,199.3c-0.5,0.2-1,0.4-1.4,0.6c0.3-1.1,0.1-2.3-0.4-3
		c0.1,0,0.1,0,0.2-0.1c0.5,0.6,1.2,1.1,1.8,1.4C321.3,198.5,321.2,198.9,321.2,199.3z M314.7,179c0,0.2,0.1,0.5,0.2,0.7
		c-0.5-0.1-1-0.1-1.5-0.1c-0.1,0-0.2,0-0.3,0c0-1.2-0.2-2.5-0.7-3.3c0.6-1,1.4-2.7,0.9-3.4c-0.7-0.9-3.1-0.3-4.8,0.8
		c-1.2,0.8-2.4,2.2-3,3.8c-0.5-0.3-1-0.7-1.3-1.3c-0.1-0.1-0.1-0.3-0.1-0.4c0.1-0.1,0.2-0.3,0.3-0.4c1.6-2.1,2.5-3.3,2.5-5.1
		c0-0.5,0-1-0.1-1.4c1.4,0.6,3,1.2,5.1,2.2c4,2,4.7,3.1,5.7,2.9c0.2,0.7,0.5,1.6,0.7,2.5C316.1,177.1,314.8,178,314.7,179z
		 M258.9,240.9c0.6,3.2,4.8,6.1,9.2,6.5c-0.4,0.9-0.9,2.1-2.1,2.9c-0.6,0.4-1.3,0.6-2,0.6c-1.6-4.3-4.2-8.3-6.7-7.9
		c-1.5,0.3-2.7,2-3.5,4.2c-0.6-0.3-1.3-0.6-1.9-0.8c0.1-2.4-0.1-5-0.6-7c-1.1-5.3-4.5-12.3-7.8-11.8c-2.9,0.5-4.6,6.5-4.8,10.5
		c0,0.7,0,1.4,0,2c-1-0.8-2.2-1.4-3.4-1.8c-0.3-0.7-0.6-1.3-0.9-2c1.2-1.3,2-2.6,2.5-3.4c1.1-1.8,0.7-1.6,1.5-2.8
		c2.6-3.9,5.3-4.7,5.1-6.1c-0.2-1.5-3.5-2.1-3.8-2.2c-3.6-0.7-7.4,1-9.8,3.6c-0.7,0.8-1.2,1.6-1.6,2.4c-0.6-0.6-1.4-1.4-2.2-2.1
		c-0.5-2-1.5-5.8-3-7.9c0.1-0.1,0.1-0.2,0.2-0.3c1.1-1.8,0.7-1.6,1.5-2.8c1.7-2.5,3.4-3.7,4.3-4.6c0.8-0.1,1.7-0.2,2.4-0.5
		c-0.2,0.4-0.3,0.8-0.4,1.3c0,0.3-0.3,2,0.8,3.3c2,2.5,7,1.2,7,0.6c0-0.3-1.1-0.2-1.8-1.1c-1.1-1.5,0.7-4.2,1.2-5.9
		c1,0,2.1-0.2,2.9-0.4c2.1-0.6,5-2.2,4.6-3.6c-0.3-1.2-2.8-1.7-4.5-1.7c-1.3,0-2.7,0.4-3.8,1.1c0.1-0.5,0.3-1,0.7-1.6
		c0.5-0.9,0.8-0.8,1.5-1.9c0.2-0.3,2.3-3.3,1.5-4.3c0,0-0.1-0.1-0.1-0.1c1.4-0.5,2.1-2.5,2.4-3.3c0.3-0.7,0.4-1.3,0.5-2
		c0.2,0.2,0.4,0.4,0.5,0.5c0.2,0.9,0.6,1.7,1.2,2.4c0.7,0.7,1.6,1.2,2.5,1.4c-2,3.9-0.9,9.3,1.2,12.6c0.2,0.3,1.1,1.7,2.3,2.8
		c-0.6,0.1-1.2,0.3-1.6,0.6c-1,0.8-1.6,2.3-1.1,3c0.7,0.8,2.5-0.5,4.5,0.7c1.7,1,1.6,2.7,3.6,5.2c0.9,1.1,2.1,2.3,3.4,3.2
		c-2.1,1-4.8,3.8-8.4,3.3c-3.4-0.5-5.3-3.7-6.7-2.9c-0.8,0.5-0.7,2-0.6,2.8c0.7,4.1,7.2,7.5,12.6,6.2c0.8-0.2,2.9-0.7,4.4-2.2
		c-0.1,0.4-0.1,0.9-0.1,1.3c0.1,3.5,2.9,7.5,6.1,10c-0.7,0.1-1.4,0.2-2.1,0.1c-3.4-0.5-5.3-3.7-6.7-2.9
		C258.7,238.6,258.7,240.1,258.9,240.9z M228.1,260c0,0,0-0.1-0.1-0.1c-0.4-0.5-1.1-0.5-2.6-0.6c-0.9,0-1.7,0-2.5,0.2
		c-1.7-0.6-2.9-1.2-3.5-0.5c-0.3,0.3-0.3,1-0.2,1.7c-0.7,0.3-1.5,0.6-2.5,1c0.7-2,1.7-4.6,3.8-7.5c1.3-1.7,2.6-3,3.8-4.1
		c1.9,2.7,4.7,5.3,7.8,6.8c-0.8,1.2-1.8,2.4-3.4,3C228.6,259.8,228.3,259.9,228.1,260z M205.8,163.7c1.7-0.5,1.5-5.3,5.7-11.1
		c2.5-3.4,5.3-5.4,6.9-6.9c2,3.3,6.4,6.3,9.9,8.7c-1.1,1.5-2.1,4.3-1.8,6.9c0.4,3.7,3.4,6.5,6.6,8c-0.8,0.5-1.5,1.2-1.9,2
		c-0.9,1.8-0.7,4.4,0.8,6c0.7,0.7,1.6,1.2,2.5,1.4c-2,3.9-0.9,9.3,1.2,12.6c0.3,0.4,1.6,2.6,3.3,3.5c-0.9,0.2-1.8,0.6-2.6,1.1
		c-1.2,0.8-2.4,2.2-3,3.8c-0.5-0.3-1-0.7-1.3-1.3c-0.8-1.7,0.7-3.5,0.1-3.9c-0.6-0.4-2.9,0.8-3.6,2.9c-0.8,2.2,0.4,4.8,2.3,5.9
		c0.1,0.1,0.5,0.3,0.9,0.4c-0.5,0.4-1.2,0.9-2.3,1.2c-1,0.3-1.1,0-2.4,0.2c-0.2,0-2.5,0.4-3.5,1.2c-1.8,0.2-3.6,0.8-5.2,1.8
		c-1.7-1.7-4.1-3.6-5.8-6.7c-0.7-1.3-1.2-2.4-1.4-3.4c2.3-0.3,4.5-0.6,6.4-1c0.1,0.5,0.3,1.1,0.7,1.6c2,2.5,7,1.2,7,0.6
		c0-0.3-1.1-0.2-1.8-1.1c-0.6-0.8-0.3-2,0.1-3.2c0.5-0.4,0.8-0.8,0.9-1.3c0-0.2,0-0.4-0.1-0.6c0.1-0.3,0.2-0.6,0.3-0.9
		c1,0,2.1-0.2,2.9-0.4c2.1-0.6,5-2.2,4.6-3.6c-0.3-1.2-2.8-1.7-4.5-1.7c-1.3,0-2.7,0.4-3.8,1.1c0.1-0.5,0.3-1,0.7-1.6
		c0.5-0.9,0.8-0.8,1.5-1.9c0.2-0.3,2.3-3.3,1.5-4.3c-0.7-0.9-3.1-0.3-4.8,0.8c-1.2,0.8-2.4,2.2-3,3.8c-0.5-0.3-1-0.7-1.3-1.3
		c-0.8-1.7,0.7-3.5,0.1-3.9c-0.6-0.4-2.9,0.8-3.6,2.9c-0.7,2,0.2,4.5,2,5.7c-1-0.4-2-0.8-3.2-1.4c-4-2-4.7-3.1-5.7-2.9
		c-0.2-0.7-0.5-1.6-0.7-2.5c2.1-0.7,3.5-1.5,3.6-2.5c0.1-0.6-0.4-1.2-1.4-2.2c-1-1.1-1.9-1.8-3-2.3c0-0.4,0-0.8,0-1.2
		C206.5,168.9,207.3,165.7,205.8,163.7z M262.2,94.2c-0.2-0.2-0.4-0.4-0.6-0.6c0.3,0,0.5,0.1,0.7,0.1
		C262.4,93.9,262.3,94.1,262.2,94.2z M261,98.9c-0.7,3.2-0.8,5.6,0.3,6.2c0.5,0.3,1.1,0.1,2.2-0.2c0.5-0.2,1-0.3,1.4-0.5
		c-2.8,2-4.7,4.8-4.1,6c0,0.1,0.2,0.3,0.7,0.7c1.5,0.8,3.1,0.4,4.9-0.3c-0.6,1-1.3,2.1-2.6,2.9c-2.9,1.7-5.3-0.1-6.8,1.5
		c-1.8-3.1-6.2-5.7-10-6.6c-0.2-0.3-0.4-0.6-0.6-1c-1-1.8-1.6-3.4-2.1-4.9C251.3,101.8,257.7,100.6,261,98.9z M320.1,131.4
		c-1.2,0.3-2.3,0.7-3.3,1.5c0.1-0.5,0.2-1,0.3-1.4C318.1,131.5,319.1,131.5,320.1,131.4z M303.7,181.4c-0.1,0-0.1,0-0.2,0
		c-1.5,0-2-1.1-4-1.4c0.5-0.2,1-0.5,1.5-0.9c0.4,0.8,1.1,1.4,1.8,1.8C303,181.1,303.3,181.3,303.7,181.4
		C303.7,181.4,303.7,181.4,303.7,181.4z M300.9,163.6c-0.1,0.6,0.4,1.2,1.4,2.2c0.5,0.6,1.1,1.1,1.6,1.5c-0.7,1.2-1.4,3.3-3.4,4.4
		c-2.9,1.7-5.3-0.1-6.8,1.5c-0.1-0.1-0.1-0.2-0.2-0.3c2.9-1.3,5.1-4,5.7-6.9c0.5-2.5-0.2-5.7-1.6-6c0,0,0,0,0,0
		c0.5-1.5,1.2-3.3,2.4-5.2c1.4,0.7,2.6,0.9,3.4,0.5c0,2.3,0.7,4.3,1.4,5.8C302.5,161.7,301,162.6,300.9,163.6z M294.3,236.4
		c0.1-0.1,0.2-0.1,0.2-0.2C294.5,236.3,294.4,236.4,294.3,236.4C294.4,236.5,294.3,236.4,294.3,236.4z M285.5,238.7
		c0.4-0.1,0.7-0.3,1.1-0.6c-0.2,0.2-0.3,0.5-0.5,0.7C285.9,238.8,285.7,238.8,285.5,238.7z M280.3,241.1c-0.2-0.1-0.4-0.2-0.7-0.2
		c-0.7-0.1-1.4,0.1-2,0.7c0.1-0.9,0.1-1.8-0.1-2.5c0.3,0.1,0.7,0.1,1,0c0.7-0.2,1.3-0.7,1.7-1.4c0.6,0.6,1.3,1,2,1.2
		c-0.8,0.2-1.6,0.5-1.8,1.1C280.2,240.2,280.2,240.6,280.3,241.1z M235.2,159.3c-0.8-0.5-1.6-1.2-2.3-2c0.6,0.4,1.2,0.7,1.7,1
		C234.8,158.7,235,159,235.2,159.3z M235.1,95.6C235.1,95.6,235.1,95.6,235.1,95.6c-0.9-1.1-1.7-2.2-2.5-3.6
		c-0.2-0.3-0.3-0.6-0.5-0.9c0.9,0,1.9,0,2.9-0.2C234.8,92.5,234.9,94.2,235.1,95.6z M293.4,115.4c-0.8-1.1-1.7-2.1-2.7-3.2
		c0.5,0.1,1.1,0.2,1.7,0.4C292.7,113.6,293.1,114.5,293.4,115.4z M264.1,225.6c-0.1,0-0.1,0.1-0.2,0.1c0.1-0.7,0-1.4-0.1-2.1
		c0.3,0.1,0.7,0.1,1,0c0.7-0.2,1.3-0.7,1.7-1.4c0.6,0.6,1.3,1,2,1.2c-0.8,0.2-1.6,0.5-1.8,1.1c0,0.1-0.1,0.2-0.1,0.3
		C265.5,224.9,264.7,225.1,264.1,225.6z M275.8,224.8c-1.5,0-2-1.1-4-1.4c1.7-0.6,2.8-2.1,4.7-4.7c1.6-2.1,2.5-3.3,2.5-5.1
		c0-0.8-0.2-1.8-0.4-2.5c1-0.3,2.2-0.6,3.5-0.6c1.2-0.1,2.3,0,3.1,0.1c-1,3.1-1.7,6-1.9,8.1C281.3,218.7,279.5,224.8,275.8,224.8z
		 M268.5,137.6c0.3,0.1,0.7,0.1,1,0c0.7-0.2,1.3-0.7,1.7-1.4c0.6,0.6,1.3,1,2,1.2c-0.8,0.2-1.6,0.5-1.8,1.1c-0.1,0.3-0.2,0.7,0,1.2
		c-0.2-0.1-0.4-0.2-0.7-0.2c-0.7-0.1-1.4,0.1-2,0.7C268.7,139.3,268.7,138.3,268.5,137.6z M246.5,123.8c-1,0.3-2,0.5-3.2,0.4
		c-2.5-0.4-4.2-2.1-5.4-2.8c0-0.1,0.1-0.2,0.1-0.3c0.4-1,0.6-1.9,0.7-2.8C240.9,120.6,243.7,122.5,246.5,123.8z M263.5,137.2
		c-0.9-1.1-0.8-2.1-1-3.7c0.8,0.9,1.9,1.9,2.9,2.7c-0.6,0.3-1.2,0.7-1.9,1.1C263.6,137.3,263.5,137.2,263.5,137.2z M276.1,123.2
		c0.2-0.9,0.2-1.8,0.1-2.7c0.3-0.1,0.6-0.2,1-0.3c1.9-0.6,3-1.4,4.3-2.6c3.9,1.8,6.6,4.1,8.8,5.5c0,0.2-0.1,0.3-0.1,0.5
		c-2,0.4-4.3,1.5-6.5,3.5c-0.1-1.7-0.8-3.6-1.7-3.7c-1.4-0.1-1.5,3.7-4.6,5.5c-2.9,1.7-5.3-0.1-6.8,1.5c-0.1-0.1-0.1-0.2-0.2-0.3
		C273.3,128.8,275.5,126.1,276.1,123.2z M292.2,151.6c-0.3-0.4-0.6-0.7-0.9-0.7c-1.4-0.1-1.5,3.7-4.6,5.5c-2.9,1.7-5.3-0.1-6.8,1.5
		c-0.1-0.2-0.3-0.5-0.5-0.7c1.1-0.4,2-1.5,1.7-2.2c-0.3-1-2.6-0.4-4-2.3c-1.2-1.6-0.5-3.1-1.4-6.1c-0.2-0.6-0.4-1.2-0.7-1.8
		c1.3,0.9,2.8,1.6,4.5,1.7c0.3,0,0.5,0,0.8,0c0.4,0.6,0.9,1,1.4,1.2c0.8,0.2,1.2-0.5,1.7-1.7c2.9-1.1,5.3-3.5,6.2-6.3
		c-0.1,4.7,2.4,8,3.5,9.4C292.7,149.7,292.4,150.6,292.2,151.6z M277.4,192.1c0.2-0.7,0.3-1.6,0.2-2.5c0.7,0.1,1.5,0.3,2.5,0.9
		c0.3,0.2,0.6,0.4,0.8,0.5c-0.3,0.5-0.7,1.4-0.9,2.2C279.2,192.7,278.3,192.4,277.4,192.1z M278.1,166.9c-0.1,0-0.1,0.1-0.2,0.1
		c0.1-0.7,0-1.4-0.1-2.1c0.3,0.1,0.7,0.1,1,0c0.7-0.2,1.3-0.7,1.7-1.4c0.6,0.6,1.3,1,2,1.2c-0.8,0.2-1.6,0.5-1.8,1.1
		c0,0.1-0.1,0.2-0.1,0.3C279.5,166.2,278.7,166.5,278.1,166.9z M290,136.6c0-0.5-0.1-1.1-0.2-1.5c0.4-0.3,0.7-0.6,1.1-0.9
		C290.5,134.9,290.2,135.7,290,136.6z M278.3,137.9c-0.5-0.2-1-0.5-1.8-0.6c0.8-0.3,1.4-0.8,2.1-1.5
		C278.4,136.5,278.3,137.2,278.3,137.9z M286.6,180c-0.9-1.1-0.8-2.1-1-3.7c0.8,0.9,1.9,1.9,2.9,2.7c-0.6,0.3-1.2,0.7-1.9,1.1
		C286.6,180,286.6,180,286.6,180z M255.2,186.1c-0.1,1,0,2,0.1,2.9c-0.9-0.8-1.8-1.7-2.8-2.8C253.2,186.2,254.2,186.3,255.2,186.1z
		 M268.3,195c1.2-0.1,2.3,0,3.1,0.1c-1.3,4-2.1,7.7-1.9,9.8c-1.8-1.9-4.4-3.8-6.4-7.2c-0.2-0.4-0.4-0.8-0.6-1.2
		C264.2,195.8,266,195.2,268.3,195z M271.3,208.1c-0.1-0.5-0.2-1-0.5-1.4c0.4,0,0.9-0.1,1.6-0.4c0.5-0.2,1-0.3,1.4-0.5
		C272.9,206.5,272,207.3,271.3,208.1z M277.3,203.3c0.2,0.2,0.4,0.3,0.7,0.5c-0.8,0.2-1.6,0.6-2.4,1
		C276.2,204.3,276.7,203.8,277.3,203.3z M289.8,166.1c-1.5,0-2-1.1-4-1.4c1.7-0.6,2.8-2.1,4.7-4.7c0.8-1,1.4-1.8,1.8-2.6
		c0.4,1.5,1.2,4,2.3,5.1C293.4,164.1,291.9,166.1,289.8,166.1z M303.7,151.9c-0.1-0.4-0.2-0.9-0.4-1.4c0.4-0.4,0.8-0.7,1.2-1.1
		C304.2,150.3,303.9,151.1,303.7,151.9z M302.1,139.5c0.1-0.8,0.1-1.5,0.2-2.2c0.8,0.6,1.6,1.1,2.4,1.5
		C303.9,139,303,139.2,302.1,139.5z M300,123.6C300,123.6,300,123.6,300,123.6C300,123.6,300,123.6,300,123.6
		C300,123.6,300,123.6,300,123.6z M284.8,104.4c0.3,0.2,0.6,0.4,0.8,0.5c-0.3,0.5-0.7,1.3-0.9,2.2c-0.8-0.6-1.7-1.1-2.5-1.6
		c0.1-0.6,0.2-1.3,0.1-2C283,103.7,283.8,103.9,284.8,104.4z M269.5,109.6c1-0.3,2.2-0.6,3.5-0.6c1.2-0.1,2.2,0,3.1,0.1
		c-0.2,0.5-0.6,1.1-1,1.6c-1.7,2-3.5,2.3-3.4,3.3c0.1,0.7,1.3,1.1,2.8,1.5c-0.1,0.6-0.2,1.2-0.2,1.7c-2,0.1-3.8,6.2-7.5,6.2
		c-1.5,0-2-1.1-4-1.4c1.7-0.6,2.8-2.1,4.7-4.7c1.6-2.1,2.5-3.3,2.5-5.1C270,111.3,269.8,110.3,269.5,109.6z M258,122.6
		c-0.1-0.5-0.2-1.1-0.4-1.6c0.6,0.5,1.2,0.8,1.8,1C258.8,122.1,258.3,122.3,258,122.6z M225.1,103c-0.1,0.2-0.1,0.3-0.2,0.5
		c0-0.2,0.1-0.4,0.1-0.6C225,102.9,225,103,225.1,103z M214,116.3c0.1-0.1,0.1-0.2,0.2-0.3c1.1-1.8,0.7-1.6,1.5-2.8
		c0.9-1.3,1.8-2.3,2.6-3c0.7,0.3,1.4,0.5,2.2,0.3c2-0.4,3.2-2.9,3.7-4.3c-0.9,4.9,0.5,10.4,2.9,14.2c-2.3,0.5-4.5,1.8-6.1,3.5
		c-0.7,0.8-1.2,1.6-1.6,2.4c-0.6-0.6-1.4-1.4-2.2-2.1C216.5,122.2,215.5,118.4,214,116.3z M226.3,136.9c-0.3-0.7-0.6-1.3-0.9-2
		c1.2-1.3,2-2.6,2.5-3.4c1.1-1.8,0.7-1.6,1.5-2.8c0.9-1.3,1.8-2.3,2.6-3c0.7,0.3,1.4,0.5,2.2,0.3c0.8-0.2,1.5-0.7,2.1-1.4
		c1.2,3.8,7.3,7,12.5,5.7c0.8-0.2,2.9-0.7,4.4-2.2c-0.1,0.4-0.1,0.9-0.1,1.3c0.1,3.5,2.9,7.5,6.1,10c-0.7,0.1-1.4,0.2-2.1,0.1
		c-3.4-0.5-5.3-3.7-6.7-2.9c-0.8,0.5-0.7,2-0.6,2.8c0.7,4.1,7.2,7.5,12.6,6.2c0.8-0.2,2.9-0.7,4.4-2.2c-0.1,0.4-0.1,0.9-0.1,1.3
		c0.1,2,1.1,4.3,2.5,6.3c-2-0.4-3.8-0.3-4.9,0.5c-1,0.8-1.6,2.3-1.1,3c0.7,0.8,2.5-0.5,4.5,0.7c1.7,1,1.6,2.7,3.6,5.2
		c0.9,1.1,2.1,2.3,3.4,3.2c-2.1,1-4.8,3.8-8.4,3.3c-3.4-0.5-5.3-3.7-6.7-2.9c-0.8,0.5-0.7,2-0.6,2.8c0.7,4.1,7.2,7.5,12.6,6.2
		c0.8-0.2,2.9-0.7,4.4-2.2c-0.1,0.4-0.1,0.9-0.1,1.3c0.1,3.5,2.9,7.5,6.1,10c-0.7,0.1-1.4,0.2-2.1,0.1c-3.4-0.5-5.3-3.7-6.7-2.9
		c-0.8,0.5-0.7,2-0.6,2.8c0.1,0.3,0.2,0.6,0.3,0.9c-2.3-1.2-5.1-1.6-7.4-1.4c-0.2,0-1.2,0.1-2.2,0.5c-3.4-1.8-4-2.7-5-2.6
		c-0.2-0.7-0.5-1.6-0.7-2.5c2.1-0.7,3.5-1.5,3.6-2.5c0.1-0.6-0.4-1.2-1.4-2.2c-1-1.1-1.9-1.8-3-2.3c0-0.4,0-0.8,0-1.2
		c0.2-4.1,1.1-7.5-1-9.4c-1.5-1.4-3.6-1.1-3.8-1.1c-3.2,0.4-5.1,4.1-5.6,6c-0.1,0.2-0.1,0.4-0.1,0.6c-0.7-0.4-1.1-0.6-1.6-0.6
		c-0.8-2.4-1.8-5.9-1.6-10.8c0.2-4.1,1.1-7.5-1-9.4c-1.5-1.4-3.6-1.1-3.8-1.1c-1.2,0.2-2.2,0.8-3,1.6c-0.7-0.8-1.4-1.6-2.1-2.4
		C231.8,140.4,229.2,137.8,226.3,136.9z M238.4,171.9c0-0.4,0.1-0.8,0.2-1.1c0.8,0.1,1.9,0.1,2.9-0.1c0,0.1,0,0.1,0,0.2
		c-0.5,1-0.9,2.1-1.1,3.4c-0.6,0.2-1.1,0.4-1.7,0.7C238.4,174.2,238.3,173.2,238.4,171.9z M257.3,207.2c0.3-0.7,0.4-1.3,0.5-2
		c3.4,3.7,9.2,5.8,12,5.4c-0.1,0.5-0.2,0.9,0,1.2c0,0.1,0.2,0.3,0.7,0.7c1.5,0.8,3.1,0.4,4.9-0.3c-0.6,1-1.3,2.1-2.6,2.9
		c-2.9,1.7-5.3-0.1-6.8,1.5c-1.8-3.2-6.2-5.7-10.1-6.6C256.7,209,257.1,207.8,257.3,207.2z M272.5,238.6c-0.9-1.1-0.8-2.1-1-3.7
		c0.8,0.9,1.9,1.9,2.9,2.7c-0.6,0.3-1.2,0.7-1.9,1.1C272.6,238.7,272.6,238.7,272.5,238.6z M279.7,231.9c-0.1-0.1-0.1-0.2-0.2-0.3
		c2.5-1.2,4.6-3.4,5.4-5.9c0.3,1.4,0.7,3,1.1,5C283.4,231.9,281.1,230.4,279.7,231.9z M287,198.5c1.1,0.3,2.4,0.7,3.8,1.2
		c-0.4,0.3-0.8,0.6-1.1,0.9C289,199.8,288,199.1,287,198.5z M291.4,205c0.7,0.1,1.5,0.3,2.5,0.9c0.3,0.2,0.6,0.4,0.8,0.5
		c-0.3,0.5-0.7,1.4-0.9,2.2c-0.9-0.5-1.7-0.8-2.6-1.1C291.3,206.7,291.4,205.9,291.4,205z M291,192.6c0.1-0.1,0.3-0.2,0.5-0.3
		c0,0.1,0.1,0.1,0.1,0.2C291.4,192.6,291.2,192.6,291,192.6z M294.3,181.2c-0.1,0.3-0.2,0.7,0,1.2c-0.2-0.1-0.4-0.2-0.7-0.2
		c-0.7-0.1-1.4,0.1-2,0.7c0.1-0.9,0.1-1.8-0.1-2.5c0.3,0.1,0.7,0.1,1,0c0.7-0.2,1.3-0.7,1.7-1.4c0.6,0.6,1.3,1,2,1.2
		C295.3,180.3,294.6,180.6,294.3,181.2z M309,143.1c0.2-0.9,0.5-2.4-0.3-3.4c0,0,0,0-0.1-0.1c0.1,0,0.3-0.1,0.4-0.1
		c0.5-0.2,1.5-0.7,2.4-2c0-0.1-0.1-0.1-0.1-0.2c1.2,1.4,1.8,1.7,2.3,1.6c0,0,0,0,0,0c-0.1,0.9,0.1,1.8,0.4,2.7c-1,0.3-2,0.7-2.6,1
		c-0.5,0.2-0.9,0.5-1.4,0.8C309.7,143.3,309.4,143.2,309,143.1z M307.2,130.8C307.1,130.8,307.1,130.7,307.2,130.8
		C307.1,130.7,307.1,130.7,307.2,130.8C307.1,130.7,307.2,130.8,307.2,130.8z M303.3,117.3c-0.1,0.1-0.2,0.1-0.3,0.2
		c0-0.1,0-0.2,0.1-0.3C303.2,117.3,303.2,117.3,303.3,117.3z M280.7,99.2c-0.7-0.9-1.7-1.6-2.8-2.2c1.1,0.3,2.4,0.7,3.8,1.2
		C281.3,98.5,281,98.9,280.7,99.2z M271,91.8c-0.9-0.5-1.7-0.8-2.6-1.1c0.2-0.7,0.3-1.6,0.2-2.5c0.7,0.1,1.5,0.3,2.5,0.9
		c0.3,0.2,0.6,0.4,0.8,0.5C271.6,90.1,271.2,90.9,271,91.8z M268.3,101.8c0.2,0.2,0.4,0.3,0.7,0.5c-0.8,0.2-1.6,0.6-2.4,1
		C267.1,102.8,267.7,102.4,268.3,101.8z M199.1,125c0.6-0.5,1.9-1.6,1.8-2.9c0,0,0,0,0-0.1c0.1,0,0.3,0.1,0.4,0.1
		c0.5,0.1,1.4,0.2,2.7-0.3c0-0.1,0-0.1,0-0.2c0.2,1.6,0.5,2.1,0.9,2.3c0,0,0,0,0,0c-0.5,0.6-0.9,1.3-1,2.1c-0.8-0.3-1.8-0.5-2.4-0.6
		c-0.9-0.2-1.9-0.2-2.9-0.1C198.7,125.3,198.9,125.1,199.1,125z M216,140c0.5,0.4,1.1,0.7,1.6,1c0,0.2-0.1,0.3-0.1,0.5
		c-0.8-0.3-1.8-0.5-2.4-0.6c-0.9-0.2-1.9-0.2-2.9-0.1c0.2-0.1,0.4-0.3,0.6-0.4c0.4-0.3,1-0.9,1.4-1.6
		C214.9,139.2,215.5,139.6,216,140z M233.7,203.8c0.1,0,0.1,0,0.2-0.1c0.5,0.6,1.2,1.1,1.8,1.4c-0.2,0.3-0.3,0.7-0.3,1.1
		c-0.5,0.2-1,0.4-1.4,0.6C234.4,205.7,234.2,204.5,233.7,203.8z M221.5,242.1c0,0,0,0.1,0,0.1c-0.1,0-0.1,0-0.2,0
		C221.3,242.2,221.4,242.1,221.5,242.1z M220,188.4c0.1,0,0.1,0,0.2-0.1c0.5,0.6,1.2,1.1,1.8,1.4c-0.1,0.2-0.2,0.4-0.2,0.6
		c-0.5-0.4-1-0.7-1.5-1C220.3,189,220.1,188.7,220,188.4z M212.9,213c0.4,0.2,0.8,0.3,1.1,0.5c-0.4,1-0.6,1.9-0.8,2.9
		C213.2,215.3,213,214.1,212.9,213z M204.6,192.7c-0.9-0.8-1.8-1.7-2.8-2.8c0.8,0,1.8,0.1,2.8-0.1
		C204.5,190.8,204.5,191.8,204.6,192.7z M208.1,226.4c0.6-0.5,1.9-1.6,1.8-2.9c0,0,0,0,0-0.1c0.1,0,0.3,0.1,0.4,0.1
		c0.5,0.1,1.4,0.2,2.7-0.3c0-0.1,0-0.1,0-0.2c0.2,1.6,0.5,2.1,0.9,2.3c0,0,0,0,0,0c-0.5,0.6-0.9,1.3-1,2.1c-0.8-0.3-1.8-0.5-2.4-0.6
		c-0.9-0.2-1.9-0.2-2.9-0.1C207.7,226.7,207.9,226.6,208.1,226.4z M288.8,248.1c0.1,1.4-0.1,2.9-0.7,4.5c-0.4,0.9-0.8,1.6-1,2.1
		c-0.3-0.2-0.5-0.4-0.8-0.7c-0.2-0.3-0.3-0.5-0.4-0.8C287,251.8,288,250,288.8,248.1z M299,223.2c-0.6,1.3-1.3,2.3-1.9,3.2
		c-2.5-2.8-5-5.2-7.1-6.8c1-0.8,2-1.8,3.5-3c2.9-2.3,4-2.4,4.2-3.2c0.9,0.1,2.1,0.3,3.4,0.6C300.6,216.5,300.6,219.7,299,223.2z
		 M320.8,164.6c0.9,0.8,1.8,1.7,2.8,2.8c-0.8,0-1.8-0.1-2.8,0.1C320.9,166.5,320.9,165.5,320.8,164.6z M318.7,146.3
		c-0.3,0.7-0.4,1.3-0.5,2c-0.3-0.3-0.6-0.7-1-1c0.2-0.8,0.4-1.6,0.6-2.2c0.4,0.2,0.8,0.3,1.2,0.5
		C318.9,145.8,318.8,146.1,318.7,146.3z M317.5,116.9c0.4-1.8,0.8-3,0.6-3.8c0.8,0,1.8,0,2.8,0.3c0.6,0.2,1.2,0.4,1.6,0.7
		c-1,1.3-1.8,2.5-2.4,3.6C319.3,117.4,318.4,117.2,317.5,116.9z M319.4,106.4c-0.1,0.1-0.1,0.1-0.2,0.2c-0.4,0.6,0.1,1.6,0.3,2
		c0.2,0.3,0.3,0.6,0.5,0.8c-2.8-0.2-5.8,1.6-5.7,2.6c0,0.1,0,0.2,0.3,0.5c0,0,0,0,0,0c-0.9,0.2-1.6,0.6-1.8,0.6
		c-1.4,0.6-2.6,1.5-3.6,2.7c-0.8,0-1.7,0.1-2.5,0.2c0.4-0.6,0.6-1.1,0.6-1.2c0.7-2.5-1.5-5.2-2.7-6.3c-0.4-0.3-0.8-0.6-1.3-0.9
		c0-0.3-0.1-0.6-0.1-1.2c-0.1-4.7,1.5-7.2,1.1-8.6c0.8,0,1.8,0,2.8,0.3c0.4,0.1,0.7,0.2,1,0.4c0,0.4,0,0.7,0,1.1
		c-1.6,2.2-2.7,4.2-2.1,4.9c0.2,0.2,0.5,0.2,1.2,0.3c0.2,0,0.4,0,0.6,0c-0.1,1.9,0,3.5,1.2,4.5c1.4,1.3,3.3,1,3.5,1
		c2.9-0.4,4.7-3.8,5.2-5.5c0-0.1,0-0.1,0-0.2c0.3,0.3,0.7,0.6,1,0.9C319,105.9,319.2,106.1,319.4,106.4z M296.1,67.7
		c0.1,0,0.1,0.1,0.2,0.1c0.1,0,0.3-0.1,0.5-0.2c0.5,0.6,1.1,1.1,1.8,1.7c-0.7,0-1.6,0-2.4,0.1C296.1,68.8,296.1,68.3,296.1,67.7z
		 M317.5,97c-0.3,0.1-0.6,0.1-0.9,0.2c0,0,0-0.1-0.1-0.1c0.1-0.4,0-0.8-0.1-1.2C316.8,96.2,317.2,96.6,317.5,97z M312.4,80.8
		c0.2,0.7,0.4,1.6,0.3,2.8c0,0.4-0.1,0.8-0.1,1c-0.7,0-1.7-0.1-2.7,0.1c0.1-1,0.1-2.1-0.1-3C310.5,81.6,311.5,81.3,312.4,80.8z
		 M273.3,46.1c1.8,0.9,2.1,1.4,2.6,1.3c0.4,1.1,0.8,2.8,0.8,5c0,1.9-0.5,3.5,0.5,4.4c0.7,0.6,1.6,0.5,1.7,0.5c1.4-0.2,2.2-2,2.5-2.8
		c0.4-1.6-0.2-3.3-1.1-4.9c0.5,0.4,1,0.8,1.5,1.5c0.5,0.8,0.5,1.3,0.9,1.3c0.1,0,0.3-0.1,0.5-0.2c1.1,1.1,2.5,2.3,3.9,3.9
		c-2.6,0.4-4.6,1-4.7,1.9c0,0.3,0.2,0.5,0.6,1c1.2,1.3,2.2,1.4,4.2,2.4c0.5,0.3,0.9,0.5,1.2,0.7c-3.6,0.5-6.8,1.1-8.7,2
		c-1.7,0.5-3.6,1.8-4.2,3.6c-0.4-0.2-0.8-0.4-1.3-0.3c-1,0-2,0.8-2.3,1.7c-0.2,0.4-0.2,0.9-0.1,1.3c-1.5-0.5-3.4-0.6-4.8,0.5
		c-1.4,1.1-2.1,3.3-1.6,3.7c0.3,0.2,0.7-0.1,1.5-0.3c0.8-0.2,1.5-0.2,2.1,0c-1.8,0.4-3.5,1.2-4.3,2.6c-0.4,0.8-1.1,2.6-0.2,3.7
		c0.1,0.1,0.6,0.8,1.6,0.9c1.3,0,2.1-1.4,3.5-2.8c1.6-1.6,3.1-2.5,4.1-3c0.3,0.4,0.9,0.2,2.8,0.9c2.1,0.7,3,1.4,4.7,1.3
		c0.7,0,1-0.1,1.2-0.3c0.7-0.8-0.8-3.1-2.7-5.7c0.4-0.2,0.9-0.5,1.6-0.7c1-0.3,1.9-0.3,2.7-0.3c1.1,0.5,2.4,1,3.9,1.7
		c3.7,1.8,4.3,2.8,5.3,2.7c0.3,1,0.7,2.3,1,3.8c-1.5,0.6-2.4,1.2-2.5,2c0,0.6,0.4,1.1,1.3,2c0.6,0.6,1.1,1.1,1.7,1.5
		c0,0.2,0,0.4,0,0.5c-0.2,3.8-1,6.9,0.9,8.7c1.4,1.3,3.3,1,3.5,1c2.9-0.4,4.7-3.8,5.2-5.5c0,0,0,0,0,0c1.2,0.7,1.8,1.2,2.3,1.3
		c-0.3,0.1-0.6,0.2-0.8,0.5c-0.4,0.6,0.1,1.6,0.3,2c0.2,0.3,0.3,0.6,0.5,0.8c-2.8-0.2-5.8,1.6-5.7,2.6c0,0.1,0,0.2,0.3,0.5
		c0,0,0,0,0,0c-0.9,0.2-1.6,0.6-1.8,0.6c-0.9,0.4-1.8,1-2.5,1.6c-1-0.2-1.9-0.3-2.9-0.1c0.6-2.5-1.6-5-2.8-6.1c-2.3-2-5.7-2.3-9-1.9
		c1-0.6,2.1-1.1,3.6-1.3c1.6-0.2,2.5,0.1,2.8-0.4c0.6-1.1-1.9-4.4-5.1-5.4c-3-1-6.2,0.2-8.5,2.1c-0.1-0.8-0.4-1.5-0.9-2.2
		c-1.1-1.4-3.2-2.1-5-1.5c-0.8,0.3-1.5,0.8-2,1.4c-2.4-2.9-6.9-4-10.2-3.6c-0.5,0.1-4.2,0.5-4.6,2.3c-0.3,1.3,1.2,2.7,1.7,3.2
		c0.4,0.4,0.9,0.8,1.4,1.1c-0.9,0.3-1.7,0.6-2.5,1.1c-1.4-0.6-3-1.2-4.8-2.1c-1.1-0.5-1.9-1-2.7-1.4c2.6-0.9,4.3-2,4.4-3.3
		c0.1-0.9-0.6-1.7-2-3.2c-2.9-3.2-5.7-4-10-5.8c-0.2-1.8-0.2-3.7-0.2-5.7c0.1-1.6,0.2-3.2,0.3-4.7c3.6-1.3,5.9-6.3,11.9-9.6
		c1.6-0.9,3-1.4,4.2-1.8c0.2,1.6,0.4,3.1,0.7,4.6c-0.5,0.1-1,0.3-1.4,0.7c-1.4,1.1-2.1,3.3-1.6,3.7c0.3,0.2,0.7-0.1,1.5-0.3
		c0.8-0.2,1.5-0.2,2.1,0c-1.8,0.4-3.5,1.2-4.3,2.6c-0.4,0.8-1.1,2.6-0.2,3.7c0.1,0.1,0.6,0.8,1.6,0.9c1.3,0,2.1-1.4,3.5-2.8
		c0.3-0.3,0.5-0.5,0.8-0.8c0.8,2.1,1.8,3.4,2.9,3.5c0.8,0.1,1.5-0.5,2.8-1.7c0.9-0.8,1.6-1.7,2.2-2.5c1,0.4,1.7,0.7,2.9,0.6
		c0.7,0,1-0.1,1.2-0.3c0.6-0.7-0.4-2.5-1.9-4.6c0.2-0.5,0.5-1.1,0.7-1.7c0,0,0.1,0,0.1,0c2.9-0.8,5.1,0.3,6.3-1.1
		c0.2-0.3,0.3-0.4,0.3-0.5c0.1-0.9-2.2-2.3-4.7-2.6c2-3.6,3-4.4,2.9-5.5c0.3-0.1,0.6-0.2,1-0.3C273.2,46,273.3,46,273.3,46.1z
		 M275.9,71.5c-0.4,0.3-0.8,0.7-1.1,1.1c-0.3-0.4-0.6-0.8-0.9-1c0.1-0.1,0.2-0.3,0.3-0.4c0.4-0.4,0.8-0.7,1.1-0.9
		C275.5,70.7,275.7,71.2,275.9,71.5z M264,42.4c-1.4-0.1-2.8,0-4.1,0.2c-0.2-1.1-0.6-2.3-1.3-3.4c1-0.3,2.2-0.5,3.8-0.4
		c0.6,0,1,0.1,1.4,0.2C263.8,39.8,263.8,41.1,264,42.4z M298.7,39.6c0-0.6,0-1.1,0-1.2c0,0,0-0.1,0-0.1c0.3,0.1,0.5,0.2,0.8,0.4
		C299.2,38.9,299,39.3,298.7,39.6z M289.9,21.6c0.3,0.2,0.7,0.5,1.1,0.9c0.1,0.2,0.2,0.3,0.3,0.4c-0.3,0.2-0.6,0.6-0.9,1
		c-0.4-0.4-0.7-0.8-1.1-1.1C289.6,22.4,289.8,22,289.9,21.6z M288.8,27.9c1.9-0.6,2.5-0.5,2.8-0.9c1,0.5,2.5,1.4,4.1,3
		c0.2,0.3,0.5,0.5,0.7,0.7c-0.1,0.1-0.1,0.1-0.2,0.2c-0.4,0.6,0.1,1.6,0.3,2c0.2,0.3,0.3,0.6,0.5,0.8c-0.5,0-1,0-1.5,0.1
		c-1.5-1.1-3.2-1.8-4.3-2.1c-3.8-1.1-8,0.2-11.8,2.3c-0.1-0.1-0.2-0.3-0.4-0.4c0.8-1,1.8-1.9,3.1-2.7c1.5-0.9,2.7-1.3,3.2-1.8
		C286.4,29,287.3,28.4,288.8,27.9z M285.7,23.3c-0.2,0.3-0.5,0.6-0.7,1c0-0.6,0-1.1,0-1.2c0,0,0-0.1,0-0.1
		C285.2,23,285.5,23.1,285.7,23.3z M268,29c-0.9,1.1-1.7,2.3-2.4,3.6c-0.6-0.9-1.5-1.8-2.6-2.3c-0.4-0.2-0.8-0.3-1.1-0.4
		C263.6,29.5,265.6,29.2,268,29z M248.7,23.4c0.6,0,1,0.1,1.4,0.2c-0.1,0.9-0.1,2.3,0.2,3.5c-1.4-0.1-2.8,0-4.1,0.2
		c-0.2-1.1-0.6-2.3-1.3-3.4C245.9,23.5,247.1,23.3,248.7,23.4z M236,36.7c1.6-0.9,3-1.4,4.2-1.8c0,0,0,0,0,0.1
		c-0.8,0.3-1.5,0.7-2.1,1.1c-0.6,0.4-5.3,3.2-4.7,6c0.4,1.9,3.2,2.8,4.3,3.2c0.9,0.3,1.7,0.5,2.5,0.6c-2,1.8-3.6,4.2-4.7,6.5
		c-2.1-1.4-4.5-1.1-4.8-1.1c-3.1,0.4-5.4,3.1-6.7,5.5c-0.2-1.8-0.3-3.7-0.2-5.8c0.1-1.6,0.2-3.2,0.3-4.7C227.7,45,230,40,236,36.7z
		 M205.3,105.6c0.4-0.4,0.8-0.7,1.1-0.9c0.1,0.5,0.3,0.9,0.6,1.2c-0.4,0.3-0.8,0.7-1.1,1.1c-0.3-0.4-0.6-0.8-0.9-1
		C205.1,105.9,205.2,105.8,205.3,105.6z M205.6,110.6c-0.8,1.4-1.2,2.9-1.5,4.3c-0.1-1.3-0.2-2.7-0.5-4.1c0.4-0.2,0.8-0.4,1.1-0.6
		C204.9,110.4,205.1,110.5,205.6,110.6z M204.7,130.4c0.7,1.1,1.7,2.3,2.8,3.3c-1.5,0-3.2,0.2-4.9,0.8c-1,0.3-2.6,1-4.3,2.1
		C200.7,133.6,203.2,131.8,204.7,130.4z M193.3,146.8c0.1,0.3,0.2,0.6,0.3,0.7c1.3,1.4,4.1-3.4,10.6-4.7c0.9-0.2,1.7-0.3,2.6-0.4
		c-1.2,0.7-2.3,1.6-3.2,2.7c-2.9,3.6-2.6,7.6-2.5,9.2c0.2,2.8,1.1,6,2.4,7.9c-1-0.2-1.8-0.1-2-0.1c-3.2,0.4-5.1,4.1-5.6,6
		c-0.1,0.2-0.1,0.4-0.1,0.6c-0.7-0.4-1.1-0.6-1.6-0.6c-0.8-2.4-1.8-5.9-1.6-10.8c0.1-3.7,0.9-6.9-0.5-8.9
		C192.6,148.2,193,147.6,193.3,146.8z M187.7,175.7c0-0.4,0.1-0.8,0.2-1.1c0.8,0.1,1.9,0.1,2.9-0.1c0,0.1,0,0.1,0,0.2
		c-0.5,1-0.9,2.1-1.1,3.4c-0.6,0.2-1.1,0.4-1.7,0.7C187.8,178,187.6,177,187.7,175.7z M211.6,236c-1,0.3-2.6,1-4.3,2.1
		c2.4-3.1,4.9-4.9,6.4-6.3c0.7,1.1,1.7,2.3,2.8,3.3C215.1,235.1,213.4,235.3,211.6,236z M224.1,290.1c0.8,0.1,1.8,0,2.6-0.2
		c-0.3,0.5-0.5,1-0.7,1.6C225.4,291.2,224.8,290.8,224.1,290.1z M241.7,300.7c0.1,0,0.1,0,0.2-0.1c0.2,0.5,0.5,1.1,0.9,1.5
		c-0.2,0.5-0.4,0.9-0.6,1.4C242.4,302.5,242,301.4,241.7,300.7z M242,304.2c0,0,0,0.1,0,0.1C241.9,304.3,241.9,304.3,242,304.2
		C241.9,304.3,241.9,304.2,242,304.2z M241.9,310.5c0-0.1,0.1-0.2,0.1-0.3c0.2,0.4,0.4,0.9,0.7,1.3
		C242.4,311.2,242.1,310.8,241.9,310.5z M255.6,316c0.2,0.5,0.5,1.1,0.9,1.5c-0.4,0.8-0.7,1.5-0.9,2.2c-0.9-1.5-2.4-2.6-3.7-2.9
		c0.1-0.1,0.1-0.2,0.1-0.3C253.3,316.6,254.7,316.4,255.6,316z M242.5,275.1c-0.2,0.1-0.5,0.2-0.7,0.2c0,0,0-0.1-0.1-0.1
		c-0.4-0.5-1.1-0.5-2.6-0.6c-0.8,0-1.5,0-2.2,0.1c-0.4-0.1-0.8-0.2-1.2-0.3c-1.2-0.4-2.2-0.8-2.6-0.2c0,0,0,0.1-0.1,0.1
		c-2.3,0-5,0.2-8.1-0.6c-1.4-0.4-2.5-0.9-3.4-1.4c1.3-1.6,2.4-3.2,3.4-4.6c0.2,0.1,0.5,0.2,0.7,0.3c4.2,1.8,9.4,0.6,12.7-2.3
		c1.4,2,3.3,3.8,5.4,5.2c0,0.6,0,1.3,0.1,2.2c0,0.1,0.1,0.5,0.1,1.1C243.6,274.6,243.1,274.9,242.5,275.1z M256,272.1
		c0-0.2,0.1-0.5,0.1-0.7c1.4-1.1,2.5-2.5,3.1-3.8c0.7,0.4,1.7,0.8,2.5,0.8c0.3,1.3,0.8,2.5,1.2,3.4
		C260.6,271.1,257.8,271.3,256,272.1z M281.3,261.1c-0.6,0.3-0.7,1-1,2.4c-0.1,0.6-0.2,1.2-0.2,1.8c-0.1,0.1-0.3,0.2-0.5,0.3
		c-3.4,2.2-8.6-1.4-12.6-3.3c4.3-4,3.7-11.9,2.6-15c0.6,0,1.2-0.1,1.8-0.3c0.8-0.2,2.9-0.7,4.4-2.2c-0.1,0.4-0.1,0.9-0.1,1.3
		c0,0.3,0,0.6,0.1,1c-2,1.2-3.5,2.4-3.7,4.3c-0.2,2,1.2,3.6,1.3,3.7c2.2,2.3,6.3,1.7,8.1,1c0,0,0.1,0,0.1,0c2.3,1.8,4.7,2.9,6.4,2.5
		c1.2-0.3,2.2-1.5,2.1-2.2c1.7-0.3,3.7-1.1,5.1-2.5c2.7-2.5,3.2-6.5,2.6-10.1c0.4,0.2,0.9,0.3,1.3,0.4c0.2,0.7,0.3,1.5,0.5,2.3
		c0.8,4.4,0.3,5.6,1,6.4c0,0,0,0,0,0c-0.3-0.2-0.5-0.3-0.8-0.4c-0.1,0-0.5,0-1.1,0.4c-1.6,1-2.1,2.7-2.4,4.8c-1,0.9-2.2,1.8-3.5,2.8
		c-2.1,1.4-4.2,2.4-5.6,3.7C284.7,261.7,282.5,260.4,281.3,261.1z M292.7,281.2c-0.4,0.2-0.7,0.4-1,0.5c-0.4-0.6-1-1.6-1.8-2.3
		c1-0.6,1.9-1.3,2.6-2c0.5,0.4,1,0.9,1.6,1.2c0,0.1,0,0.1,0,0.2c-0.1,0.5-0.2,1-0.2,1.5C293.5,280.7,293.2,281,292.7,281.2z
		 M306.2,292.8c0.7,0.6,1.5,1.3,2.5,1.8c-0.5,0.6-1.2,1.4-2.3,2c-0.4,0.2-0.7,0.4-1,0.5c-0.4-0.6-1-1.6-1.8-2.3
		C304.6,294.2,305.5,293.5,306.2,292.8z M310.7,249.8c0.7,0.6,1.5,1.3,2.5,1.8c-0.5,0.6-1.2,1.4-2.3,2c-0.4,0.2-0.7,0.4-1,0.5
		c-0.4-0.6-1-1.6-1.8-2.3C309,251.2,309.9,250.5,310.7,249.8z M315.4,208.2c-0.3,0-1.9-0.2-3.2,0.8c-2.1-1.1-4.8-1.3-7.5-1
		c1-0.6,2.1-1.1,3.6-1.3c1.6-0.2,2.5,0.1,2.8-0.4c0.6-1.1-1.9-4.4-5.1-5.4c-1.1-0.4-2.3-0.4-3.4-0.3c0.1-0.3,0.1-0.6,0.1-0.9
		c1-0.5,1.7-1.5,1.5-2.1c-0.2-0.7-1.5-0.6-2.8-1.3c-0.5-0.8-1.1-1.4-1.6-1.8c0,0-0.1-0.1-0.1-0.1c-0.5-1.3-0.2-2.8-0.9-5.3
		c-0.2-0.5-0.4-1.1-0.7-1.7c0.1,0,0.2,0,0.2,0.1c1.2,0.8,2.7,1.4,4.2,1.5c0.1,0,0.3,0,0.4,0c0,0.7,0.1,1.8,0.8,2.6
		c2,2.5,7,1.2,7,0.6c0-0.3-1.1-0.2-1.8-1.1c-0.9-1.2,0.1-3.2,0.8-4.8c0.4-0.4,0.8-0.8,1.1-1.2c0.8-0.1,1.6-0.2,2.2-0.4
		c1.5-0.4,3.4-1.4,4.2-2.4c0.5,0.4,1.1,0.7,1.6,1.1c0,0.4,0,0.8,0,1.2c-0.1,3.3-0.7,6.1,0,8.1c-0.5-0.3-1-0.7-1.2-1.3
		c-0.8-1.7,0.7-3.5,0.1-3.9c-0.6-0.4-2.9,0.8-3.6,2.9c-0.8,2.2,0.4,4.8,2.3,5.9c0.1,0.1,0.5,0.3,0.9,0.4c-0.5,0.4-1.2,0.9-2.3,1.2
		c-1,0.3-1.1,0-2.4,0.2c-0.3,0.1-3.9,0.7-4.1,2c-0.1,1.1,2,2.4,3.9,2.8c1.2,0.3,2.7,0.2,4-0.3c-0.2,0.4-0.3,0.8-0.4,1.2
		c-0.3,1.4-0.2,3.1,0.4,4.6C316.3,208.4,315.9,208.2,315.4,208.2z M321.1,212.8c-0.3-0.2-0.7-0.3-1.1-0.3c-0.2-0.5-0.4-1-0.6-1.4
		c1.1,0.3,2.3,0.1,3-0.4c0,0.1,0,0.1,0.1,0.2C321.8,211.5,321.3,212.2,321.1,212.8z M322.6,208.5c-0.1,0.1-0.1,0.2-0.1,0.4
		c-0.1-0.1-0.2-0.2-0.2-0.3C322.4,208.5,322.5,208.5,322.6,208.5z M337.7,181.6c0,0.4-0.1,0.8-0.2,1.1c-0.8-0.1-1.9-0.1-2.9,0.1
		c0-0.1,0-0.1,0-0.2c0.5-1,0.9-2.1,1.1-3.4c0.6-0.2,1.1-0.4,1.7-0.7C337.6,179.3,337.8,180.3,337.7,181.6z"/>
</g>
<g>
	<path class="st3" d="M321.6,116.9c-3.4-0.7-9.4-1.9-13.1,1.1c0.7-3.2,0.7-6.1,0.6-7.8c-0.1-2.5-0.4-2-0.4-3.8
		c-0.1-5.5,2.1-8.2,0.9-9.4c-1.2-1.3-4.8,0.3-5.2,0.4c-4,1.8-6.6,5.9-7.2,10.1c-0.5,3.2,0.4,5.8,1.4,8.2c-1.1-1.5-2.4-3-3.9-4.4
		c-0.8-0.7-9.1-8.7-12.3-6.6c-1.5,1-0.4,3.3-2.8,6.1c-1.7,2.1-3.6,2.4-3.6,3.4c0.1,1.2,3.2,1.6,5.8,2.3c7,1.8,10.9,5.8,14.1,7.6
		c-2.8,0.4-6.6,2-9.5,6.1c-1.3,1.9-4.6,6.4-3.3,12.6c0.4,1.7,1.6,5.8,3.3,6.1c2.3,0.5,1.7-6.1,7.2-11.8c0.7-0.8,1.5-1.4,2.3-2.1
		c-0.7,1.5-1.1,3-1.3,4.8c-0.4,5.4,2.5,9.2,3.7,10.7c3.1,4.1,8.7,7.7,10.7,6.2c1.9-1.4-1.9-6-1.6-14.9c0.2-5.1,1.6-8.8,2.1-11.4
		c4.7,2.1,12.2,1.9,17.5,1.8c6.3-0.2,12.7-0.4,13.4-3C341.4,125.7,331.4,118.8,321.6,116.9z M300,129.8c0.1-0.3,0.2-0.5,0.3-0.8
		c0.2-0.9,0.8-2.8-0.2-4c0,0,0,0-0.1-0.1c0.2,0,0.3-0.1,0.5-0.2c0.6-0.2,1.5-0.7,2.5-2c0-0.1-0.1-0.1-0.1-0.2
		c1.3,1.4,1.8,1.7,2.4,1.7c0,0,0,0,0,0c-0.1,0.9,0.1,1.9,0.4,2.8c-1,0.3-2,0.7-2.7,1.1C302,128.4,301,129.1,300,129.8z"/>
	<path class="st3" d="M222.2,127.4c-2.1-2.1-5.8-6-9.9-5.7c2.1-1.9,3.5-4,4.3-5.3c1.1-1.9,0.7-1.6,1.6-2.9c2.7-4,5.5-4.8,5.3-6.3
		c-0.2-1.6-3.6-2.2-4-2.2c-3.7-0.7-7.7,1-10.2,3.7c-1.9,2.1-2.6,4.4-3,6.6c-0.1-1.6-0.3-3.3-0.7-5.1c-0.2-0.9-2.3-10.7-5.5-10.8
		c-1.6-0.1-1.9,2.2-5,3c-2.3,0.7-3.8-0.1-4.2,0.7c-0.5,0.9,1.5,2.7,3,4.5c4.1,4.8,5,9.5,6.4,12.4c-2.2-1.1-5.7-1.8-9.8-0.3
		c-1.9,0.7-6.5,2.3-8.6,7.4c-0.6,1.4-1.7,4.9-0.7,6c1.4,1.5,4.3-3.6,11-4.9c0.9-0.2,1.8-0.3,2.7-0.4c-1.2,0.7-2.3,1.6-3.3,2.8
		c-3,3.7-2.7,7.9-2.6,9.5c0.2,4.5,2.5,9.8,4.6,9.8c2.1-0.1,1.6-5.2,6.2-11.5c2.6-3.6,5.5-5.6,7.1-7.1c2.3,3.8,7.8,7.4,11.7,9.9
		c4.6,3,9.3,6,11.1,4.5C232.1,143.5,228.3,133.6,222.2,127.4z M200.4,126.1c0.2-0.1,0.4-0.3,0.6-0.4c0.6-0.5,2-1.7,1.9-3
		c0,0,0,0,0-0.1c0.1,0,0.3,0.1,0.4,0.1c0.5,0.1,1.4,0.2,2.8-0.3c0-0.1,0-0.1,0-0.2c0.2,1.6,0.5,2.2,0.9,2.4c0,0,0,0,0,0
		c-0.5,0.7-0.9,1.4-1.1,2.2c-0.9-0.3-1.8-0.5-2.5-0.6C202.4,126,201.4,126,200.4,126.1z"/>
	<path class="st3" d="M302.8,161.7c-2.1-0.5-4,6.4-8,6.4c-1.6,0-2.1-1.1-4.2-1.4c1.7-0.6,2.9-2.2,4.9-4.8c1.6-2.2,2.6-3.4,2.6-5.3
		c0-1.8-0.7-4-1.8-4.1c-1.4-0.2-1.5,3.8-4.7,5.7c-2.9,1.7-5.5-0.1-7.1,1.5c-3-5.2-12.9-8.9-16.1-6.5c-1.1,0.8-1.7,2.4-1.1,3.1
		c0.7,0.8,2.6-0.5,4.7,0.7c1.8,1,1.7,2.8,3.7,5.4c0.9,1.1,2.2,2.4,3.5,3.3c-2.2,1-5,4-8.7,3.4c-3.6-0.5-5.5-3.8-6.9-2.9
		c-0.8,0.5-0.8,2-0.6,2.9c0.8,4.2,7.4,7.8,13.1,6.4c0.8-0.2,3-0.7,4.6-2.3c-0.1,0.4-0.1,0.9-0.1,1.3c0.2,6.2,8.7,14,12.8,12.9
		c1.3-0.3,2.4-1.6,2.1-2.5c-0.3-1-2.6-0.5-4.1-2.3c-1.3-1.6-0.5-3.2-1.5-6.3c-0.2-0.6-0.4-1.3-0.7-1.9c1.3,0.9,2.9,1.6,4.7,1.8
		c5,0.5,9.8-3.6,10.6-8C305,165.3,304.2,162,302.8,161.7z M284.5,168.9c-0.8-0.1-1.5,0.1-2.1,0.7c0.1-0.9,0.1-1.8-0.1-2.6
		c0.4,0.1,0.7,0.1,1,0c0.8-0.2,1.4-0.7,1.7-1.5c0.6,0.7,1.4,1,2.1,1.2c-0.9,0.2-1.6,0.5-1.9,1.1c-0.1,0.3-0.2,0.8,0,1.3
		C285,169,284.8,168.9,284.5,168.9z"/>
	<path class="st3" d="M279,117.5c-2.1-0.5-4,6.4-8,6.4c-1.6,0-2.1-1.1-4.2-1.4c1.7-0.6,2.9-2.2,4.9-4.8c1.6-2.2,2.6-3.4,2.6-5.3
		c0-1.8-0.7-4-1.8-4.1c-1.4-0.2-1.5,3.8-4.7,5.7c-2.9,1.7-5.5-0.1-7.1,1.5c-3-5.2-12.9-8.9-16.1-6.5c-1.1,0.8-1.7,2.4-1.1,3.1
		c0.7,0.8,2.6-0.5,4.7,0.7c1.8,1,1.7,2.8,3.7,5.4c0.9,1.1,2.2,2.4,3.5,3.3c-2.2,1-5,4-8.7,3.4c-3.6-0.5-5.5-3.8-6.9-2.9
		c-0.8,0.5-0.8,2-0.6,2.9c0.8,4.2,7.4,7.8,13.1,6.4c0.8-0.2,3-0.7,4.6-2.3c-0.1,0.4-0.1,0.9-0.1,1.3c0.2,6.2,8.7,14,12.8,12.9
		c1.3-0.3,2.4-1.6,2.1-2.5c-0.3-1-2.6-0.5-4.1-2.3c-1.3-1.6-0.5-3.2-1.5-6.3c-0.2-0.6-0.4-1.3-0.7-1.9c1.3,0.9,2.9,1.6,4.7,1.8
		c5,0.5,9.8-3.6,10.6-8C281.1,121.1,280.3,117.8,279,117.5z M260.7,124.7c-0.8-0.1-1.5,0.1-2.1,0.7c0.1-0.9,0.1-1.8-0.1-2.6
		c0.4,0.1,0.7,0.1,1,0c0.8-0.2,1.4-0.7,1.7-1.5c0.6,0.7,1.4,1,2.1,1.2c-0.9,0.2-1.6,0.5-1.9,1.1c-0.1,0.3-0.2,0.8,0,1.3
		C261.1,124.8,260.9,124.7,260.7,124.7z"/>
	<path class="st3" d="M288,83.3c-3.1-1-6.4,0.2-8.8,2.1c-0.1-0.8-0.4-1.6-1-2.2c-1.1-1.4-3.3-2.2-5.1-1.6c-0.8,0.3-1.5,0.8-2,1.4
		c-2.5-3-7.2-4.1-10.6-3.7c-0.5,0.1-4.3,0.5-4.8,2.4c-0.3,1.4,1.2,2.8,1.8,3.3c0.5,0.4,0.9,0.8,1.4,1.1c-5,1.5-9.3,6.5-8.5,8.3
		c0,0.1,0.2,0.4,0.8,0.7c3.1,1.7,6.3-1.7,12-2.1c1.3-0.1,2.3,0,3.2,0.1c-1.8,5.8-2.9,10.9-1.2,11.8c0.5,0.3,1.1,0.1,2.3-0.2
		c3.1-0.9,4.1-2.7,7.5-5.3c3-2.3,4.1-2.4,4.4-3.3c2.2,0.3,5.4,0.8,9.2,2.7c3.2,1.6,5.7,3.6,7.9,2.7c1.6-0.6,2.2-2.4,2.2-2.5
		c0.8-2.6-1.6-5.4-2.8-6.5c-2.3-2-5.9-2.4-9.3-2c1-0.6,2.2-1.1,3.8-1.3c1.7-0.2,2.6,0.1,2.9-0.5C293.9,87.8,291.3,84.4,288,83.3z
		 M272.8,87.5c0.7,0.1,1.6,0.4,2.6,0.9c0.3,0.2,0.6,0.4,0.9,0.5c-0.3,0.6-0.7,1.4-0.9,2.3c-0.9-0.5-1.8-0.9-2.7-1.1
		C272.8,89.4,272.9,88.5,272.8,87.5z"/>
	<path class="st3" d="M202,60.7c0.7,5.4,5,9.5,9.8,11.8c-1.2,0.7-2.2,1.7-2.9,3c-1.4,2.7-1.1,6.5,1.2,8.9c1,1.1,2.4,1.8,3.8,2.1
		c-2.9,5.8-1.3,13.7,1.8,18.6c0.5,0.8,3.9,6.3,7.3,5.6c2.4-0.5,3.6-3.8,4-5c0.4-1,0.6-2,0.7-2.9c6,6.6,17.1,9.6,19.4,7.1
		c0.1-0.1,0.4-0.5,0.5-1.6c0.4-5.9-7.3-8.4-12.1-16.7c-1.1-1.9-1.7-3.5-2.1-5c10.5-1.2,19.4-3.2,19.7-6.4c0.1-0.9-0.6-1.7-2.1-3.3
		c-3.8-4.1-7.3-4.4-13.9-7.7c-5.9-2.9-6.9-4.5-8.4-4.3c-1.2-3.5-2.6-8.7-2.3-15.9c0.2-6,1.6-11.1-1.4-13.9c-2.2-2-5.3-1.7-5.6-1.6
		c-4.7,0.6-7.5,6.1-8.3,8.8c-1.5,5,0.4,10.6,3.6,15.4c-1.7-1.1-3.4-2.6-4.8-4.8c-1.5-2.4-1.7-4.1-2.8-4.1
		C204.8,48.7,201.3,55,202,60.7z M219.7,80.8c-0.3-1.2-0.6-2.6-0.4-4.5c0-0.7,0.1-1.2,0.2-1.7c1.1,0.1,2.8,0.1,4.3-0.2
		c-0.1,1.7-0.1,3.4,0.1,4.9C222.7,79.6,221.2,80.1,219.7,80.8z"/>
	<path class="st3" d="M231.6,232.3c-2.1-2.1-5.8-6-9.9-5.7c2.1-1.9,3.5-4,4.3-5.3c1.1-1.9,0.7-1.6,1.6-2.9c2.7-4,5.5-4.8,5.3-6.3
		c-0.2-1.6-3.6-2.2-4-2.2c-3.7-0.7-7.7,1-10.2,3.7c-1.9,2.1-2.6,4.4-3,6.6c-0.1-1.6-0.3-3.3-0.7-5.1c-0.2-0.9-2.3-10.7-5.5-10.8
		c-1.6-0.1-1.9,2.2-5,3c-2.3,0.7-3.8-0.1-4.2,0.7c-0.5,0.9,1.5,2.7,3,4.5c4.1,4.8,5,9.5,6.4,12.4c-2.2-1.1-5.7-1.8-9.8-0.3
		c-1.9,0.7-6.5,2.3-8.6,7.4c-0.6,1.4-1.7,4.9-0.7,6c1.4,1.5,4.3-3.6,11-4.9c0.9-0.2,1.8-0.3,2.7-0.4c-1.2,0.7-2.3,1.6-3.3,2.8
		c-3,3.7-2.7,7.9-2.6,9.5c0.2,4.5,2.5,9.8,4.6,9.8c2.1-0.1,1.6-5.2,6.2-11.5c2.6-3.6,5.5-5.6,7.1-7.1c2.3,3.8,7.8,7.4,11.7,9.9
		c4.6,3,9.3,6,11.1,4.5C241.5,248.4,237.7,238.5,231.6,232.3z M209.7,230.9c0.2-0.1,0.4-0.3,0.6-0.4c0.6-0.5,2-1.7,1.9-3
		c0,0,0,0,0-0.1c0.1,0,0.3,0.1,0.4,0.1c0.5,0.1,1.4,0.2,2.8-0.3c0-0.1,0-0.1,0-0.2c0.2,1.6,0.5,2.2,0.9,2.4c0,0,0,0,0,0
		c-0.5,0.7-0.9,1.4-1.1,2.2c-0.9-0.3-1.8-0.5-2.5-0.6C211.8,230.9,210.8,230.9,209.7,230.9z"/>
	<path class="st3" d="M288.3,222.4c-2.1-0.5-4,6.4-8,6.4c-1.6,0-2.1-1.1-4.2-1.4c1.7-0.6,2.9-2.2,4.9-4.8c1.6-2.2,2.6-3.4,2.6-5.3
		c0-1.8-0.7-4-1.8-4.1c-1.4-0.2-1.5,3.8-4.7,5.7c-2.9,1.7-5.5-0.1-7.1,1.5c-3-5.2-12.9-8.9-16.1-6.5c-1.1,0.8-1.7,2.4-1.1,3.1
		c0.7,0.8,2.6-0.5,4.7,0.7c1.8,1,1.7,2.8,3.7,5.4c0.9,1.1,2.2,2.4,3.5,3.3c-2.2,1-5,4-8.7,3.4c-3.6-0.5-5.5-3.8-6.9-2.9
		c-0.8,0.5-0.8,2-0.6,2.9c0.8,4.2,7.4,7.8,13.1,6.4c0.8-0.2,3-0.7,4.6-2.3c-0.1,0.4-0.1,0.9-0.1,1.3c0.2,6.2,8.7,14,12.8,12.9
		c1.3-0.3,2.4-1.6,2.1-2.5c-0.3-1-2.6-0.5-4.1-2.3c-1.3-1.6-0.5-3.2-1.5-6.3c-0.2-0.6-0.4-1.3-0.7-1.9c1.3,0.9,2.9,1.6,4.7,1.8
		c5,0.5,9.8-3.6,10.6-8C290.5,226,289.7,222.7,288.3,222.4z M270,229.6c-0.8-0.1-1.5,0.1-2.1,0.7c0.1-0.9,0.1-1.8-0.1-2.6
		c0.4,0.1,0.7,0.1,1,0c0.8-0.2,1.4-0.7,1.7-1.5c0.6,0.7,1.4,1,2.1,1.2c-0.9,0.2-1.6,0.5-1.9,1.1c-0.1,0.3-0.2,0.8,0,1.3
		C270.5,229.7,270.3,229.6,270,229.6z"/>
	<path class="st3" d="M297.4,188.2c-3.1-1-6.4,0.2-8.8,2.1c-0.1-0.8-0.4-1.6-1-2.2c-1.1-1.4-3.3-2.2-5.1-1.6c-0.8,0.3-1.5,0.8-2,1.4
		c-2.5-3-7.2-4.1-10.6-3.7c-0.5,0.1-4.3,0.5-4.8,2.4c-0.3,1.4,1.2,2.8,1.8,3.3c0.5,0.4,0.9,0.8,1.4,1.1c-5,1.5-9.3,6.5-8.5,8.3
		c0,0.1,0.2,0.4,0.8,0.7c3.1,1.7,6.3-1.7,12-2.1c1.3-0.1,2.3,0,3.2,0.1c-1.8,5.8-2.9,10.9-1.2,11.8c0.5,0.3,1.1,0.1,2.3-0.2
		c3.1-0.9,4.1-2.7,7.5-5.3c3-2.3,4.1-2.4,4.4-3.3c2.2,0.3,5.4,0.8,9.2,2.7c3.2,1.6,5.7,3.6,7.9,2.7c1.6-0.6,2.2-2.4,2.2-2.5
		c0.8-2.6-1.6-5.4-2.8-6.5c-2.3-2-5.9-2.4-9.3-2c1-0.6,2.2-1.1,3.8-1.3c1.7-0.2,2.6,0.1,2.9-0.5
		C303.3,192.7,300.7,189.3,297.4,188.2z M282.2,192.4c0.7,0.1,1.6,0.4,2.6,0.9c0.3,0.2,0.6,0.4,0.9,0.5c-0.3,0.6-0.7,1.4-0.9,2.3
		c-0.9-0.5-1.8-0.9-2.7-1.1C282.2,194.2,282.3,193.4,282.2,192.4z"/>
	<path class="st3" d="M265.8,5.9c-4.7,0.6-8.3,4.2-10.3,8.3c-0.6-1-1.5-1.8-2.7-2.4c-2.4-1.1-5.7-0.8-7.7,1.1
		c-0.9,0.9-1.5,2-1.8,3.2c-5.1-2.4-12-1-16.3,1.7c-0.7,0.4-5.4,3.4-4.8,6.2c0.4,2,3.3,2.9,4.4,3.3c0.9,0.3,1.7,0.5,2.5,0.6
		c-5.7,5.1-8.2,14.4-6.1,16.3c0.1,0.1,0.5,0.4,1.4,0.4c5.2,0.3,7.2-6.2,14.5-10.3c1.6-0.9,3.1-1.5,4.4-1.8c1.2,8.7,3,16.2,5.8,16.4
		c0.8,0.1,1.5-0.5,2.9-1.7c3.6-3.2,3.8-6.2,6.6-11.7c2.5-4.9,3.9-5.8,3.7-7.1c3-1,7.6-2.3,13.9-2.1c5.3,0.1,9.7,1.2,12.2-1.4
		c1.8-1.9,1.4-4.5,1.4-4.7c-0.6-3.9-5.4-6.2-7.8-6.8c-4.4-1.2-9.2,0.5-13.5,3.1c1-1.5,2.2-2.9,4.1-4.1c2.1-1.3,3.5-1.5,3.6-2.4
		C276.4,8.1,270.8,5.3,265.8,5.9z M248.4,21c1-0.3,2.3-0.5,3.9-0.4c0.6,0,1.1,0.1,1.5,0.2c-0.1,0.9-0.1,2.3,0.2,3.6
		c-1.5-0.1-2.9,0-4.3,0.2C249.5,23.4,249,22.1,248.4,21z"/>
	<path class="st3" d="M288.8,46.7c-0.2-1.8-1.6-3.1-3.1-3.8c0.4-0.2,0.7-0.6,0.9-1c0.4-0.9,0.3-2.1-0.4-2.9
		c-0.3-0.4-0.8-0.6-1.2-0.7c0.9-1.9,0.4-4.5-0.6-6.1c-0.2-0.3-1.3-2-2.3-1.8c-0.7,0.2-1.1,1.2-1.2,1.7c-0.1,0.3-0.2,0.6-0.2,1
		c-1.9-2.1-5.4-3.1-6.1-2.3c0,0-0.1,0.2-0.2,0.5c-0.1,1.9,2.3,2.7,3.8,5.4c0.3,0.6,0.5,1.2,0.7,1.6c-3.3,0.4-6.1,1.1-6.2,2.2
		c0,0.3,0.2,0.6,0.7,1.1c1.2,1.3,2.3,1.4,4.4,2.5c1.9,0.9,2.2,1.5,2.7,1.4c0.4,1.1,0.8,2.8,0.8,5.2c-0.1,2-0.5,3.6,0.5,4.6
		c0.7,0.7,1.7,0.5,1.8,0.5c1.5-0.2,2.3-2,2.6-2.9c0.5-1.6-0.2-3.5-1.2-5.1c0.5,0.4,1.1,0.8,1.5,1.6c0.5,0.8,0.5,1.3,0.9,1.3
		C288,50.6,289,48.6,288.8,46.7z M283.2,40.1c0.1,0.4,0.2,0.9,0.2,1.5c0,0.2,0,0.4-0.1,0.5c-0.4,0-0.9,0-1.4,0.1
		c0-0.5,0-1.1-0.1-1.6C282.2,40.5,282.7,40.4,283.2,40.1z"/>
	<path class="st3" d="M327.4,97.4c-1.4-1.1-3.3-1.1-4.9-0.5c0.1-0.4,0.1-0.9-0.1-1.3c-0.3-0.9-1.3-1.7-2.3-1.8
		c-0.5,0-0.9,0.1-1.3,0.4c-0.7-2-2.9-3.4-4.8-3.9c-0.3-0.1-2.3-0.6-2.9,0.4c-0.4,0.6,0.1,1.7,0.3,2.1c0.2,0.3,0.3,0.6,0.5,0.8
		c-2.9-0.2-6,1.6-5.9,2.7c0,0.1,0,0.2,0.3,0.5c1.3,1.5,3.6,0.3,6.6,1.1c0.7,0.2,1.2,0.4,1.6,0.7c-2,2.6-3.5,5.1-2.8,5.9
		c0.2,0.2,0.5,0.3,1.2,0.3c1.8,0.1,2.6-0.6,4.8-1.4c2-0.7,2.6-0.5,2.9-0.9c1.1,0.5,2.6,1.4,4.2,3.1c1.4,1.4,2.2,2.9,3.6,2.9
		c1,0,1.6-0.8,1.6-0.9c0.9-1.2,0.2-3.1-0.3-3.9c-0.8-1.5-2.6-2.3-4.4-2.7c0.6-0.1,1.3-0.2,2.2,0c0.9,0.2,1.3,0.5,1.6,0.3
		C329.5,100.8,328.8,98.6,327.4,97.4z M318.7,96.8c0.3,0.2,0.7,0.5,1.2,0.9c0.1,0.2,0.3,0.3,0.3,0.4c-0.3,0.2-0.6,0.6-0.9,1
		c-0.4-0.4-0.8-0.8-1.2-1.1C318.4,97.7,318.6,97.3,318.7,96.8z"/>
	<path class="st3" d="M303.5,19.3c-1.4-1.1-3.3-1.1-4.9-0.5c0.1-0.4,0.1-0.9-0.1-1.3c-0.3-0.9-1.3-1.7-2.3-1.8
		c-0.5,0-0.9,0.1-1.3,0.4c-0.7-2-2.9-3.4-4.8-3.9c-0.3-0.1-2.3-0.6-2.9,0.4c-0.4,0.6,0.1,1.7,0.3,2.1c0.2,0.3,0.3,0.6,0.5,0.8
		c-2.9-0.2-6,1.6-5.9,2.7c0,0.1,0,0.2,0.3,0.5c1.3,1.5,3.6,0.3,6.6,1.1c0.7,0.2,1.2,0.4,1.6,0.7c-2,2.6-3.5,5.1-2.8,5.9
		c0.2,0.2,0.5,0.3,1.2,0.3c1.8,0.1,2.6-0.6,4.8-1.4c2-0.7,2.6-0.5,2.9-0.9c1.1,0.5,2.6,1.4,4.2,3.1c1.4,1.4,2.2,2.9,3.6,2.9
		c1,0,1.6-0.8,1.6-0.9c0.9-1.2,0.2-3.1-0.3-3.9c-0.8-1.5-2.6-2.3-4.4-2.7c0.6-0.1,1.3-0.2,2.2,0c0.9,0.2,1.3,0.5,1.6,0.3
		C305.7,22.7,305,20.5,303.5,19.3z M294.9,18.7c0.3,0.2,0.7,0.5,1.2,0.9c0.1,0.2,0.3,0.3,0.3,0.4c-0.3,0.2-0.6,0.6-0.9,1
		c-0.4-0.4-0.8-0.8-1.2-1.1C294.5,19.6,294.7,19.2,294.9,18.7z"/>
	<path class="st3" d="M257,53.8c1.4-1.1,3.3-1.1,4.9-0.5c-0.1-0.4-0.1-0.9,0.1-1.3c0.3-0.9,1.3-1.7,2.3-1.8c0.5,0,0.9,0.1,1.3,0.4
		c0.7-2,2.9-3.4,4.8-3.9c0.3-0.1,2.3-0.6,2.9,0.4c0.4,0.6-0.1,1.7-0.3,2.1c-0.2,0.3-0.3,0.6-0.5,0.8c2.9-0.2,6,1.6,5.9,2.7
		c0,0.1,0,0.2-0.3,0.5c-1.3,1.5-3.6,0.3-6.6,1.1c-0.7,0.2-1.2,0.4-1.6,0.7c2,2.6,3.5,5.1,2.8,5.9c-0.2,0.2-0.5,0.3-1.2,0.3
		c-1.8,0.1-2.6-0.6-4.8-1.4c-2-0.7-2.6-0.5-2.9-0.9c-1.1,0.5-2.6,1.4-4.2,3.1c-1.4,1.4-2.2,2.9-3.6,2.9c-1,0-1.6-0.8-1.6-0.9
		c-0.9-1.2-0.2-3.1,0.3-3.9c0.8-1.5,2.6-2.3,4.4-2.7c-0.6-0.1-1.3-0.2-2.2,0c-0.9,0.2-1.3,0.5-1.6,0.3
		C254.8,57.2,255.5,54.9,257,53.8z M265.6,53.1c-0.3,0.2-0.7,0.5-1.2,0.9c-0.1,0.2-0.3,0.3-0.3,0.4c0.3,0.2,0.6,0.6,0.9,1
		c0.4-0.4,0.8-0.8,1.2-1.1C266,54.1,265.8,53.6,265.6,53.1z"/>
	<path class="st3" d="M185.8,89.4c1.4-1.1,3.3-1.1,4.9-0.5c-0.1-0.4-0.1-0.9,0.1-1.3c0.3-0.9,1.3-1.7,2.3-1.8c0.5,0,0.9,0.1,1.3,0.4
		c0.7-2,2.9-3.4,4.8-3.9c0.3-0.1,2.3-0.6,2.9,0.4c0.4,0.6-0.1,1.7-0.3,2.1c-0.2,0.3-0.3,0.6-0.5,0.8c2.9-0.2,6,1.6,5.9,2.7
		c0,0.1,0,0.2-0.3,0.5c-1.3,1.5-3.6,0.3-6.6,1.1c-0.7,0.2-1.2,0.4-1.6,0.7c2,2.6,3.5,5.1,2.8,5.9c-0.2,0.2-0.5,0.3-1.2,0.3
		c-1.8,0.1-2.6-0.6-4.8-1.4c-2-0.7-2.6-0.5-2.9-0.9c-1.1,0.5-2.6,1.4-4.2,3.1c-1.4,1.4-2.2,2.9-3.6,2.9c-1,0-1.6-0.8-1.6-0.9
		c-0.9-1.2-0.2-3.1,0.3-3.9c0.8-1.5,2.6-2.3,4.4-2.7c-0.6-0.1-1.3-0.2-2.2,0c-0.9,0.2-1.3,0.5-1.6,0.3
		C183.6,92.8,184.3,90.6,185.8,89.4z M194.4,88.8c-0.3,0.2-0.7,0.5-1.2,0.9c-0.1,0.2-0.3,0.3-0.3,0.4c0.3,0.2,0.6,0.6,0.9,1
		c0.4-0.4,0.8-0.8,1.2-1.1C194.7,89.7,194.5,89.2,194.4,88.8z"/>
	<path class="st3" d="M229.4,163.2c0.5,3.8,3.5,6.7,6.9,8.3c-0.8,0.5-1.5,1.2-2,2.1c-1,1.9-0.8,4.5,0.9,6.2c0.7,0.8,1.7,1.2,2.6,1.5
		c-2,4.1-0.9,9.6,1.2,13c0.3,0.5,2.8,4.4,5.2,3.9c1.7-0.3,2.5-2.6,2.8-3.5c0.3-0.7,0.4-1.4,0.5-2c4.2,4.6,12,6.7,13.6,5
		c0.1-0.1,0.3-0.4,0.4-1.1c0.3-4.2-5.2-5.9-8.5-11.7c-0.7-1.3-1.2-2.5-1.5-3.5c7.4-0.9,13.6-2.2,13.8-4.5c0.1-0.7-0.4-1.2-1.4-2.3
		c-2.7-2.9-5.1-3.1-9.8-5.4c-4.1-2-4.8-3.2-5.9-3c-0.8-2.5-1.8-6.1-1.6-11.1c0.2-4.2,1.1-7.8-1-9.8c-1.6-1.4-3.7-1.2-3.9-1.1
		c-3.3,0.4-5.2,4.3-5.8,6.2c-1.1,3.5,0.3,7.4,2.5,10.8c-1.2-0.8-2.4-1.8-3.4-3.4c-1.1-1.7-1.2-2.8-2-2.9
		C231.4,154.8,229,159.2,229.4,163.2z M241.9,177.3c-0.2-0.8-0.4-1.8-0.3-3.1c0-0.5,0.1-0.8,0.2-1.2c0.8,0.1,2,0.1,3-0.1
		c-0.1,1.2-0.1,2.4,0.1,3.4C243.9,176.5,242.9,176.8,241.9,177.3z"/>
	<path class="st3" d="M342.2,179.2c-0.5-3.8-3.5-6.7-6.9-8.3c0.8-0.5,1.5-1.2,2-2.1c1-1.9,0.8-4.5-0.9-6.2c-0.7-0.8-1.7-1.2-2.6-1.5
		c2-4.1,0.9-9.6-1.2-13c-0.3-0.5-2.8-4.4-5.2-3.9c-1.7,0.3-2.5,2.6-2.8,3.5c-0.3,0.7-0.4,1.4-0.5,2c-4.2-4.6-12-6.7-13.6-5
		c-0.1,0.1-0.3,0.4-0.4,1.1c-0.3,4.2,5.2,5.9,8.5,11.7c0.7,1.3,1.2,2.5,1.5,3.5c-7.4,0.9-13.6,2.2-13.8,4.5
		c-0.1,0.7,0.4,1.2,1.4,2.3c2.7,2.9,5.1,3.1,9.8,5.4c4.1,2,4.8,3.2,5.9,3c0.8,2.5,1.8,6.1,1.6,11.1c-0.2,4.2-1.1,7.8,1,9.8
		c1.6,1.4,3.7,1.2,3.9,1.1c3.3-0.4,5.2-4.3,5.8-6.2c1.1-3.5-0.3-7.4-2.5-10.8c1.2,0.8,2.4,1.8,3.4,3.4c1.1,1.7,1.2,2.8,2,2.9
		C340.2,187.6,342.7,183.2,342.2,179.2z M329.8,165.1c0.2,0.8,0.4,1.8,0.3,3.1c0,0.5-0.1,0.8-0.2,1.2c-0.8-0.1-2-0.1-3,0.1
		c0.1-1.2,0.1-2.4-0.1-3.4C327.7,165.9,328.7,165.6,329.8,165.1z"/>
	<path class="st3" d="M177.1,167.1c0.5,3.8,3.5,6.7,6.9,8.3c-0.8,0.5-1.5,1.2-2,2.1c-1,1.9-0.8,4.5,0.9,6.2c0.7,0.8,1.7,1.2,2.6,1.5
		c-2,4.1-0.9,9.6,1.2,13c0.3,0.5,2.8,4.4,5.2,3.9c1.7-0.3,2.5-2.6,2.8-3.5c0.3-0.7,0.4-1.4,0.5-2c4.2,4.6,12,6.7,13.6,5
		c0.1-0.1,0.3-0.4,0.4-1.1c0.3-4.2-5.2-5.9-8.5-11.7c-0.7-1.3-1.2-2.5-1.5-3.5c7.4-0.9,13.6-2.2,13.8-4.5c0.1-0.7-0.4-1.2-1.4-2.3
		c-2.7-2.9-5.1-3.1-9.8-5.4c-4.1-2-4.8-3.2-5.9-3c-0.8-2.5-1.8-6.1-1.6-11.1c0.2-4.2,1.1-7.8-1-9.8c-1.6-1.4-3.7-1.2-3.9-1.1
		c-3.3,0.4-5.2,4.3-5.8,6.2c-1.1,3.5,0.3,7.4,2.5,10.8c-1.2-0.8-2.4-1.8-3.4-3.4c-1.1-1.7-1.2-2.8-2-2.9
		C179,158.7,176.6,163.1,177.1,167.1z M189.5,181.2c-0.2-0.8-0.4-1.8-0.3-3.1c0-0.5,0.1-0.8,0.2-1.2c0.8,0.1,2,0.1,3-0.1
		c-0.1,1.2-0.1,2.4,0.1,3.4C191.6,180.4,190.5,180.7,189.5,181.2z"/>
	<path class="st3" d="M195.8,280.8c3,2.3,7.2,2.3,10.7,1c-0.2,0.9-0.2,1.9,0.1,2.9c0.7,2,2.7,3.7,5,3.8c1.1,0,2.1-0.3,2.9-0.8
		c1.4,4.3,6.1,7.5,10.1,8.4c0.6,0.1,5.1,1.1,6.4-0.9c1-1.4-0.1-3.6-0.5-4.5c-0.3-0.7-0.7-1.3-1.1-1.8c6.3,0.3,13.3-3.8,13.2-6.1
		c0-0.1,0-0.5-0.6-1.1c-2.7-3.1-7.8-0.5-14.3-2.3c-1.4-0.4-2.6-0.9-3.5-1.4c4.6-5.8,8.1-11.2,6.6-12.9c-0.4-0.5-1.2-0.5-2.6-0.6
		c-3.9-0.2-5.8,1.4-10.7,3.1c-4.4,1.5-5.6,1.2-6.3,2c-2.3-1.2-5.6-3-9-6.7c-2.9-3.1-4.7-6.3-7.6-6.2c-2.1,0.1-3.5,1.8-3.6,2
		c-2,2.6-0.7,6.7,0.3,8.5c1.7,3.2,5.4,5,9.4,5.9c-1.4,0.3-2.9,0.4-4.8,0c-1.9-0.4-2.9-1.2-3.5-0.6
		C191.2,273.4,192.6,278.3,195.8,280.8z M214.6,282c-0.7-0.4-1.6-1-2.4-2c-0.3-0.3-0.5-0.7-0.7-0.9c0.6-0.5,1.4-1.3,2.1-2.2
		c0.8,0.9,1.6,1.7,2.5,2.4C215.4,279.9,215,280.9,214.6,282z"/>
	<path class="st3" d="M296,303.5c2.8-2.6,3.4-6.7,2.7-10.4c0.9,0.4,1.9,0.5,2.9,0.4c2.1-0.3,4.1-2,4.5-4.3c0.2-1,0-2.1-0.3-3
		c4.5-0.7,8.3-4.9,9.8-8.7c0.2-0.6,1.9-4.8,0.2-6.5c-1.2-1.2-3.6-0.5-4.5-0.2c-0.7,0.2-1.4,0.5-1.9,0.8c1.3-6.1-1.6-13.7-3.9-14
		c-0.1,0-0.5,0-1.1,0.4c-3.5,2.2-1.7,7.6-4.5,13.7c-0.6,1.4-1.3,2.4-2,3.3c-5-5.5-9.8-9.7-11.7-8.6c-0.6,0.3-0.7,1.1-1,2.5
		c-0.8,3.8,0.5,6,1.4,11.1c0.8,4.5,0.3,5.8,1,6.6c-1.5,2.1-3.9,5.1-8.1,7.8c-3.5,2.4-7,3.6-7.3,6.6c-0.2,2.1,1.3,3.7,1.4,3.9
		c2.3,2.4,6.5,1.7,8.4,1.1c3.4-1.2,5.8-4.6,7.3-8.4c0.1,1.4-0.1,3-0.7,4.7c-0.7,1.8-1.6,2.6-1.2,3.3
		C288,306.8,293.1,306.2,296,303.5z M300.1,285.1c-0.5,0.7-1.3,1.4-2.4,2.1c-0.4,0.2-0.7,0.4-1,0.6c-0.4-0.7-1.1-1.6-1.9-2.4
		c1-0.6,1.9-1.3,2.7-2.1C298.3,283.9,299.1,284.5,300.1,285.1z"/>
	<path class="st3" d="M300.6,258.9c2.8-2.6,3.4-6.7,2.7-10.4c0.9,0.4,1.9,0.5,2.9,0.4c2.1-0.3,4.1-2,4.5-4.3c0.2-1,0-2.1-0.3-3
		c4.5-0.7,8.3-4.9,9.8-8.7c0.2-0.6,1.9-4.8,0.2-6.5c-1.2-1.2-3.6-0.5-4.5-0.2c-0.7,0.2-1.4,0.5-1.9,0.8c1.3-6.1-1.6-13.7-3.9-14
		c-0.1,0-0.5,0-1.1,0.4c-3.5,2.2-1.7,7.6-4.5,13.7c-0.6,1.4-1.3,2.4-2,3.3c-5-5.5-9.8-9.7-11.7-8.6c-0.6,0.3-0.7,1.1-1,2.5
		c-0.8,3.8,0.5,6,1.4,11.1c0.8,4.5,0.3,5.8,1,6.6c-1.5,2.1-3.9,5.1-8.1,7.8c-3.5,2.4-7,3.6-7.3,6.6c-0.2,2.1,1.3,3.7,1.4,3.9
		c2.3,2.4,6.5,1.7,8.4,1.1c3.4-1.2,5.8-4.6,7.3-8.4c0.1,1.4-0.1,3-0.7,4.7c-0.7,1.8-1.6,2.6-1.2,3.3
		C292.6,262.3,297.6,261.7,300.6,258.9z M304.7,240.6c-0.5,0.7-1.3,1.4-2.4,2.1c-0.4,0.2-0.7,0.4-1,0.6c-0.4-0.7-1.1-1.6-1.9-2.4
		c1-0.6,1.9-1.3,2.7-2.1C302.8,239.4,303.7,240,304.7,240.6z"/>
	<path class="st3" d="M315.3,77.1c-0.4-3.5-3.2-6.1-6.3-7.6c0.8-0.5,1.4-1.1,1.8-1.9c0.9-1.7,0.7-4.2-0.8-5.7
		c-0.7-0.7-1.5-1.1-2.4-1.4c1.9-3.7,0.8-8.8-1.1-12c-0.3-0.5-2.5-4-4.7-3.6c-1.5,0.3-2.3,2.4-2.6,3.2c-0.2,0.7-0.4,1.3-0.5,1.9
		c-3.9-4.2-11.1-6.2-12.5-4.6c-0.1,0.1-0.3,0.3-0.3,1.1c-0.3,3.8,4.7,5.4,7.8,10.8c0.7,1.2,1.1,2.3,1.4,3.2
		c-6.8,0.8-12.5,2-12.7,4.1c-0.1,0.6,0.4,1.1,1.3,2.1c2.4,2.6,4.7,2.9,9,4.9c3.8,1.9,4.4,2.9,5.4,2.8c0.7,2.3,1.7,5.6,1.5,10.2
		c-0.2,3.9-1.1,7.1,0.9,9c1.4,1.3,3.4,1.1,3.6,1.1c3-0.4,4.8-3.9,5.3-5.7c1-3.2-0.3-6.8-2.3-9.9c1.1,0.7,2.2,1.6,3.1,3.1
		c1,1.5,1.1,2.6,1.8,2.7C313.5,84.8,315.8,80.7,315.3,77.1z M303.9,64.1c0.2,0.8,0.4,1.7,0.3,2.9c0,0.4-0.1,0.8-0.1,1.1
		c-0.7-0.1-1.8-0.1-2.8,0.1c0.1-1.1,0.1-2.2-0.1-3.1C302,64.9,303,64.5,303.9,64.1z"/>
	<path class="st3" d="M273.1,250.9c-0.8-0.1-0.7,2.8-3,4.2c-4,2.5-10.2-2.5-14.5-4c0.1-2.5-0.1-5.2-0.6-7.3
		c-1.1-5.4-4.7-12.7-8.1-12.2c-3,0.5-4.7,6.7-4.9,10.9c-0.2,3.3,0.6,6.8,2.1,9.6c-1.2-0.4-2.5-0.9-3.9-1.9c-2.2-1.5-1.8-2.1-4.4-4.2
		c-0.6-0.5-7.7-6.3-10.5-4.5c-2.2,1.5-1.3,7.7,1.1,12.1c1.8,3.2,5.1,6.5,8.8,8.2c-0.8,1.3-1.9,2.5-3.5,3.1c-4.4,1.7-8.5-2.3-9.7-0.9
		c-1.2,1.4,1.6,7.3,6.5,9.5c5.3,2.3,12,0,15-4.6c0.2-0.3,0.7-1.1,1.2-2.2c0.9,1.4,2,3.2,2.5,6c0.5,2.6-0.2,2.8,0.1,6
		c0.1,0.8,1,9.9,4.2,10.6c2.6,0.5,6.4-4.5,7.7-9.3c1-3.4,0.9-7.8-0.3-11.5c0.9,0.5,1.9,0.9,3.1,1.1c0.8,0.1,4.9,1,8.3-1.4
		C277,263.7,274.6,251.1,273.1,250.9z M245.3,262c0-0.2-0.1-0.3-0.1-0.5c1.7-1.1,3.1-2.8,3.7-4.3c0.8,0.4,1.7,0.8,2.6,0.9
		c0.3,1.3,0.8,2.5,1.3,3.6C250.2,260.7,247.2,261,245.3,262z"/>
	<path class="st3" d="M259.8,314.4c-0.3-0.4-1.5,1.1-3.3,0.8c-3-0.5-3.9-5.6-5.4-8.1c1.1-1.2,2.1-2.6,2.8-3.8
		c1.8-3.2,3.1-8.2,1.2-9.4c-1.7-1-5.2,1.3-7.1,3.3c-1.5,1.5-2.6,3.6-3,5.6c-0.4-0.7-0.8-1.5-1.1-2.6c-0.4-1.7,0-1.8-0.4-3.9
		c-0.1-0.5-1.1-6.4-3.2-6.7c-1.7-0.2-3.9,3.2-4.6,6.4c-0.5,2.4-0.2,5.4,0.8,7.8c-1,0.3-2,0.4-3.1,0c-2.9-1-3.2-4.8-4.4-4.6
		c-1.2,0.2-2.3,4.3-0.9,7.4c1.6,3.4,5.9,5.1,9.3,4.1c0.2-0.1,0.8-0.2,1.5-0.6c-0.2,1-0.4,2.4-1.3,4c-0.9,1.5-1.3,1.3-2.5,3
		c-0.3,0.4-3.7,5.3-2.4,7c1.1,1.4,5.1,0.5,7.8-1.3c1.9-1.3,3.8-3.4,4.8-5.7c0.2,0.6,0.6,1.2,1,1.8c0.3,0.4,2,2.6,4.7,2.8
		C256.3,322.3,260.4,315.2,259.8,314.4z M241.4,308c0.1-0.1,0.1-0.2,0.1-0.3c1.3,0.2,2.7-0.1,3.7-0.5c0.2,0.5,0.5,1.1,0.9,1.5
		c-0.4,0.8-0.7,1.6-0.9,2.3C244.4,309.5,242.7,308.3,241.4,308z"/>
	<path class="st3" d="M316.6,195.2c0-0.3-1.2-0.2-1.8-1.1c-1.2-1.6,0.8-4.3,1.2-6.1c1,0,2.1-0.2,3-0.5c2.2-0.6,5.1-2.3,4.8-3.7
		c-0.3-1.2-2.9-1.8-4.7-1.7c-1.4,0-2.8,0.4-3.9,1.2c0.1-0.5,0.3-1,0.7-1.7c0.6-0.9,0.8-0.8,1.6-1.9c0.2-0.3,2.4-3.4,1.6-4.5
		c-0.7-0.9-3.2-0.3-5,0.8c-1.3,0.9-2.5,2.3-3.1,3.9c-0.6-0.3-1.1-0.7-1.4-1.4c-0.8-1.8,0.7-3.6,0.1-4c-0.6-0.4-3,0.9-3.7,3
		c-0.8,2.2,0.4,5,2.3,6.1c0.1,0.1,0.5,0.3,0.9,0.4c-0.5,0.4-1.3,0.9-2.4,1.2c-1.1,0.3-1.2,0-2.5,0.2c-0.3,0.1-4.1,0.7-4.3,2.1
		c-0.1,1.1,2.1,2.5,4.1,2.9c1.4,0.3,3.3,0.2,4.7-0.4c-0.2,0.4-0.3,0.8-0.4,1.3c0,0.3-0.3,2.1,0.8,3.4
		C311.4,197.2,316.5,195.9,316.6,195.2z M311.2,184c0.1,0,0.1,0,0.2-0.1c0.5,0.7,1.2,1.2,1.9,1.4c-0.2,0.3-0.3,0.7-0.3,1.1
		c-0.5,0.2-1,0.4-1.4,0.6C311.9,186,311.7,184.8,311.2,184z"/>
	<path class="st3" d="M228,202.4c0-0.3-1.2-0.2-1.8-1.1c-1.2-1.6,0.8-4.3,1.2-6.1c1,0,2.1-0.2,3-0.5c2.2-0.6,5.1-2.3,4.8-3.7
		c-0.3-1.2-2.9-1.8-4.7-1.7c-1.4,0-2.8,0.4-3.9,1.2c0.1-0.5,0.3-1,0.7-1.7c0.6-0.9,0.8-0.8,1.6-1.9c0.2-0.3,2.4-3.4,1.6-4.5
		c-0.7-0.9-3.2-0.3-5,0.8c-1.3,0.9-2.5,2.3-3.1,3.9c-0.6-0.3-1.1-0.7-1.4-1.4c-0.8-1.8,0.7-3.6,0.1-4c-0.6-0.4-3,0.9-3.7,3
		c-0.8,2.2,0.4,5,2.3,6.1c0.1,0.1,0.5,0.3,0.9,0.4c-0.5,0.4-1.3,0.9-2.4,1.2c-1.1,0.3-1.2,0-2.5,0.2c-0.3,0.1-4.1,0.7-4.3,2.1
		c-0.1,1.1,2.1,2.5,4.1,2.9c1.4,0.3,3.3,0.2,4.7-0.4c-0.2,0.4-0.3,0.8-0.4,1.3c0,0.3-0.3,2.1,0.8,3.4
		C222.8,204.4,227.9,203,228,202.4z M222.6,191.2c0.1,0,0.1,0,0.2-0.1c0.5,0.7,1.2,1.2,1.9,1.4c-0.2,0.3-0.3,0.7-0.3,1.1
		c-0.5,0.2-1,0.4-1.4,0.6C223.3,193.2,223.1,192,222.6,191.2z"/>
	<path class="st3" d="M317.3,219.7c0.3,0,0.2-1.2,1.1-1.8c1.6-1.2,4.3,0.8,6.1,1.2c0,1,0.2,2.1,0.5,3c0.6,2.2,2.3,5.1,3.7,4.8
		c1.2-0.3,1.8-2.9,1.7-4.7c0-1.4-0.4-2.8-1.2-3.9c0.5,0.1,1,0.3,1.7,0.7c0.9,0.6,0.8,0.8,1.9,1.6c0.3,0.2,3.4,2.4,4.5,1.6
		c0.9-0.7,0.3-3.2-0.8-5c-0.9-1.3-2.3-2.5-3.9-3.1c0.3-0.6,0.7-1.1,1.4-1.4c1.8-0.8,3.6,0.7,4,0.1c0.4-0.6-0.9-3-3-3.7
		c-2.2-0.8-5,0.4-6.1,2.3c-0.1,0.1-0.3,0.5-0.4,0.9c-0.4-0.5-0.9-1.3-1.2-2.4c-0.3-1.1,0-1.2-0.2-2.5c-0.1-0.3-0.7-4.1-2.1-4.3
		c-1.1-0.1-2.5,2.1-2.9,4.1c-0.3,1.4-0.2,3.3,0.4,4.7c-0.4-0.2-0.8-0.3-1.3-0.4c-0.3,0-2.1-0.3-3.4,0.8
		C315.3,214.6,316.7,219.7,317.3,219.7z M328.5,214.3c0,0.1,0,0.1,0.1,0.2c-0.7,0.5-1.2,1.2-1.4,1.9c-0.3-0.2-0.7-0.3-1.1-0.3
		c-0.2-0.5-0.4-1-0.6-1.4C326.5,215,327.7,214.8,328.5,214.3z"/>
</g>
<path class="st4" d="M274.5,443.3c6.2-40.8,27.7-63.2,47.5-97c9-15.4,20.9-38.7,30.6-70c-2.6,18-7.4,43.7-16.9,73.5
	c-19.2,60.6-52.4,121.5-60.8,118.5C270.9,466.9,273.4,450.6,274.5,443.3z"/>
<path class="st4" d="M161.4,287.9c17.2,19.2,36.7,45.1,53.1,78.4c7,14.2,12.5,27.7,16.9,40.3C208,367,184.7,327.4,161.4,287.9z"/>
</svg>
