<?xml version="1.0" encoding="utf-8"?>
<!-- Generator: Adobe Illustrator 24.1.2, SVG Export Plug-In . SVG Version: 6.00 Build 0)  -->
<svg version="1.1" id="Layer_1" xmlns="http://www.w3.org/2000/svg" xmlns:xlink="http://www.w3.org/1999/xlink" x="0px" y="0px"
	 viewBox="0 0 512 512" style="enable-background:new 0 0 512 512;" xml:space="preserve">
<style type="text/css">
	.st0{fill:#106D38;}
	.st1{fill:#7A8669;}
	.st2{fill:#C0CBB1;}
	.st3{fill:#FFFFFF;}
	.st4{fill:#55B948;}
</style>
<g>
	<rect x="247.2" y="241.1" class="st0" width="30.1" height="267.3"/>
	<path class="st0" d="M266.6,455.1c6.9-36.3,26.9-104.4,96-211.9c-3.1,83.1-25.2,141.6-44.4,178.9c-14.3,27.8-42.8,74.6-52.1,70.8
		C259.9,490.3,264.4,466.3,266.6,455.1z"/>
	<path class="st0" d="M231.8,481.1c-20.8-30.5-54.8-92.8-82-217.7c56.6,61,82.3,117.9,95.1,157.9c9.5,29.8,22.5,83,13.2,86.9
		C252,510.7,238.2,490.5,231.8,481.1z"/>
</g>
<path class="st1" d="M357.9,175.3c-0.4-3.7-3.4-6.5-6.6-8c0.8-0.5,1.5-1.2,1.9-2c0.9-1.8,0.7-4.4-0.8-6c-0.7-0.7-1.6-1.2-2.5-1.4
	c2-3.9,0.9-9.3-1.2-12.6c-0.3-0.5-2.7-4.2-5-3.8c-1.6,0.3-2.4,2.5-2.7,3.4c-0.3,0.7-0.4,1.3-0.5,2c-1.1-1.2-2.5-2.3-4-3.1
	c-0.4-1.4-0.9-2.7-1.6-3.8c0,0,0,0,0,0c0.5-0.2,0.8-0.6,0.8-0.7c0.9-1.2,0.2-3-0.3-3.8c-0.2-0.3-0.4-0.5-0.6-0.8
	c3-0.3,5.2-1,5.6-2.5c0.2-0.6,0-1.4-0.5-2.2c1.1,0,2.2-0.1,3.2-0.1c6.1-0.2,12.2-0.3,13-2.8c1-3.5-8.6-10.1-18.2-12
	c-0.3-0.1-0.7-0.1-1.1-0.2c-1.9-1.3-4.2-2.5-6.7-3.4c0.1-0.1,0.2-0.2,0.2-0.2c0.9-1.2,0.2-3-0.2-3.7c-0.8-1.4-2.5-2.2-4.3-2.6
	c0.6-0.1,1.3-0.2,2.1,0c0.9,0.2,1.3,0.5,1.5,0.3c0.3-0.3,0.2-1-0.2-1.8c0.1,0,0.1,0,0.2,0c1.7,0.1,2.6-0.6,4.7-1.3
	c1.9-0.6,2.5-0.5,2.8-0.9c1,0.5,2.5,1.4,4.1,3c1.3,1.4,2.2,2.8,3.5,2.8c0.9,0,1.5-0.8,1.6-0.9c0.9-1.2,0.2-3-0.2-3.7
	c-0.8-1.4-2.5-2.2-4.3-2.6c0.6-0.1,1.3-0.2,2.1,0c0.9,0.2,1.3,0.5,1.5,0.3c0.5-0.5-0.2-2.6-1.6-3.7c-1.4-1.1-3.2-1-4.8-0.5
	c0.1-0.4,0.1-0.9-0.1-1.3c-0.3-0.9-1.2-1.7-2.3-1.7c-0.5,0-0.9,0.1-1.3,0.3c-0.7-1.9-2.8-3.3-4.6-3.7c-0.3-0.1-2.3-0.5-2.8,0.3
	c-0.1,0.1-0.1,0.2-0.1,0.3c-0.8-0.1-1.6,0-2.4,0.2c0.5-0.8,0.8-1.6,1-2.2c1-3.1-0.3-6.6-2.2-9.6c1.1,0.7,2.1,1.6,3,3
	c0.9,1.5,1.1,2.5,1.8,2.6c1.4,0.1,3.6-3.8,3.2-7.4c-0.4-3.4-3.1-5.9-6.1-7.4c0.7-0.5,1.4-1.1,1.8-1.9c0.9-1.7,0.7-4-0.8-5.5
	c-0.7-0.7-1.5-1.1-2.3-1.3c1.8-3.6,0.8-8.6-1.1-11.6c-0.3-0.5-2.5-3.9-4.6-3.5c-1.5,0.3-2.2,2.3-2.5,3.1c-0.2,0.6-0.4,1.2-0.5,1.8
	c-1.3-1.5-3.1-2.6-4.8-3.5c-0.4-1.3-0.9-2.5-1.5-3.4c-0.3-0.5-2.5-3.9-4.6-3.5c-0.3,0.1-0.6,0.2-0.9,0.4c-0.1-0.2-0.2-0.4-0.4-0.6
	c-0.3-0.3-0.7-0.5-1.1-0.7c0.7-1.6,0.5-3.7-0.3-5.2v0c1.3,1.4,2.1,2.7,3.4,2.7c0.9,0,1.5-0.8,1.6-0.9c0.9-1.2,0.2-3-0.2-3.7
	c-0.8-1.4-2.5-2.2-4.3-2.6c0.6-0.1,1.3-0.2,2.1,0c0.9,0.2,1.3,0.5,1.5,0.3c0.3-0.3,0.2-1-0.2-1.8c0.1,0,0.1,0,0.2,0
	c1.7,0.1,2.6-0.6,4.7-1.3c1.9-0.6,2.5-0.5,2.8-0.9c1,0.5,2.5,1.4,4.1,3c1.3,1.4,2.2,2.8,3.5,2.8c0.9,0,1.5-0.8,1.6-0.9
	c0.9-1.2,0.2-3-0.2-3.7c-0.8-1.4-2.5-2.2-4.3-2.6c0.6-0.1,1.3-0.2,2.1,0c0.9,0.2,1.3,0.5,1.5,0.3c0.5-0.5-0.2-2.6-1.6-3.7
	c-1.4-1.1-3.2-1-4.8-0.5c0.1-0.4,0.1-0.9-0.1-1.3c-0.3-0.9-1.2-1.7-2.3-1.7c-0.5,0-0.9,0.1-1.3,0.3c-0.7-1.9-2.8-3.3-4.6-3.7
	c-0.3-0.1-2.3-0.5-2.8,0.3c-0.1,0.1-0.1,0.2-0.1,0.3c-0.9-0.1-1.8,0-2.7,0.3c0.1-0.4,0.1-0.9-0.1-1.3c-0.3-0.9-1.2-1.7-2.3-1.7
	c-0.5,0-0.9,0.1-1.3,0.3c-0.7-1.9-2.8-3.3-4.6-3.7c-0.3-0.1-2.3-0.5-2.8,0.3c0,0,0,0,0,0.1c0,0,0,0,0,0c-1.9-0.8-4.4-1.3-6.7-1
	c-0.6,0.1-1.1,0.2-1.6,0.4c0,0,0,0,0,0c-0.8-0.6-1.7-1-2.5-1.1c0,0,0,0-0.1,0c0.2-0.2,0.4-0.4,0.4-0.7c0.1-1.8-5.3-4.6-10.1-4
	c-1.5,0.2-2.9,0.7-4.1,1.5c-1.4-1.6-5.7-3.3-9.5-2.8c-4.6,0.6-8,4.1-9.9,8c-0.6-0.9-1.5-1.8-2.6-2.3c-2.3-1.1-5.5-0.8-7.5,1.1
	c-0.9,0.9-1.5,1.9-1.8,3.1c-4.9-2.3-11.6-0.9-15.7,1.6c-0.7,0.4-5.3,3.3-4.7,6c0.4,1.9,3.2,2.8,4.3,3.2c0.9,0.3,1.7,0.5,2.5,0.5
	c-2,1.8-3.6,4.2-4.7,6.5c-2-1.4-4.5-1.1-4.8-1c-4.6,0.6-7.2,5.9-8,8.5c-1.5,4.8,0.4,10.2,3.5,14.9c-1.7-1.1-3.3-2.5-4.6-4.6
	c-1.5-2.3-1.6-3.9-2.8-4c-2.2-0.1-5.6,5.9-4.9,11.5c0.6,5.2,4.8,9.2,9.5,11.4c-1.1,0.7-2.1,1.7-2.8,2.9c-1.3,2.6-1.1,6.3,1.2,8.6
	c0.2,0.2,0.4,0.4,0.6,0.5c0,0,0,0,0,0c-0.9,0.7-1.7,1.5-2.1,2.6c-0.4-0.2-0.8-0.4-1.3-0.3c-0.2,0-0.4,0-0.5,0.1
	c-1-0.9-3.2-1.9-5.2-1.7c0.2-0.2,0.4-0.5,0.5-0.8c0.2-0.4,0.7-1.4,0.3-2c-0.6-0.9-2.5-0.4-2.8-0.3c-1.8,0.4-3.9,1.8-4.6,3.7
	c-0.4-0.2-0.8-0.4-1.3-0.3c-1,0-2,0.8-2.3,1.7c-0.2,0.4-0.2,0.9-0.1,1.3c-1.5-0.5-3.4-0.6-4.8,0.5c-1.4,1.1-2.1,3.3-1.6,3.7
	c0.3,0.2,0.7-0.1,1.5-0.3c0.8-0.2,1.5-0.2,2.1,0c-1.8,0.4-3.5,1.2-4.3,2.6c-0.4,0.8-1.1,2.6-0.2,3.7c0.1,0.1,0.6,0.8,1.6,0.9
	c1.3,0,2.1-1.4,3.5-2.8c1.6-1.6,3.1-2.5,4.1-3c0.3,0.4,0.9,0.2,2.8,0.9c1.1,0.4,1.9,0.7,2.6,1c-0.2,0.2-0.4,0.5-0.5,0.7
	c-0.4,0.8-1.1,2.6-0.2,3.7c0,0,0,0,0.1,0.1c0,0,0,0,0,0c-0.6,0.5-1.3,0.9-2.3,1.2c-2.2,0.6-3.7-0.1-4.1,0.6
	c-0.5,0.9,1.4,2.6,2.9,4.3c0.5,0.6,0.9,1.2,1.4,1.7c-0.3,0.8-0.3,1.9,0.2,2.6c0.1,0.1,0.6,0.8,1.6,0.9c0.1,0,0.2,0,0.3,0
	c1.3,2.7,2,5.1,2.8,6.8c-2.1-1.1-5.5-1.7-9.5-0.3c-1.8,0.7-6.3,2.3-8.3,7.2c-0.6,1.4-1.7,4.7-0.6,5.8c1.3,1.4,4.1-3.4,10.6-4.7
	c0.9-0.2,1.7-0.3,2.6-0.4c-1.2,0.7-2.3,1.6-3.2,2.7c-2.9,3.5-2.6,7.6-2.5,9.2c0.2,2.8,1.1,6,2.3,7.8c-1-0.2-1.8-0.1-1.9-0.1
	c-3.2,0.4-5.1,4.1-5.6,6c-1,3.4,0.3,7.2,2.4,10.5c-1.2-0.8-2.3-1.7-3.3-3.3c-1-1.6-1.2-2.8-1.9-2.8c-1.5-0.1-3.9,4.2-3.5,8
	c0.4,3.7,3.4,6.5,6.6,8c-0.8,0.5-1.5,1.2-1.9,2c-0.9,1.8-0.7,4.4,0.8,6c0.7,0.7,1.6,1.2,2.5,1.4c-2,3.9-0.9,9.3,1.2,12.6
	c0.3,0.5,2.7,4.2,5,3.8c1.6-0.3,2.4-2.5,2.7-3.4c0.3-0.7,0.4-1.3,0.5-2c0.6,0.7,1.3,1.3,2.1,1.8c-0.3,0.9-0.5,1.8-0.6,2.8
	c-1.1,1.5-2.1,4.3-1.8,6.8c0.4,3.7,3.4,6.5,6.6,8c-0.8,0.5-1.5,1.2-1.9,2c-0.8,1.6-0.8,3.8,0.3,5.4c-0.1,0-0.2,0-0.2,0.1
	c-1.8,0.7-6.3,2.3-8.3,7.2c-0.6,1.4-1.7,4.7-0.6,5.8c1.3,1.4,4.1-3.4,10.6-4.7c0.2,0,0.5-0.1,0.7-0.1c0,0.3,0.1,0.7,0.1,1
	c-0.5,0.4-1,0.9-1.4,1.4c-2.9,3.6-2.6,7.6-2.5,9.2c0.2,4.3,2.4,9.5,4.5,9.5c1.3,0,1.6-2.1,2.8-5.2c1.5-1.1,3.5-2.6,6.4-3.4
	c0,0.2,0,0.4,0,0.6c0,0.7,0.1,1.4,0.2,2.1c-2.4,3.4-2.2,7.1-2.1,8.6c0,0.4,0.1,0.8,0.1,1.1c-0.6-0.3-1.2-0.4-1.8-0.4
	c-2,0.1-3.4,1.8-3.5,1.9c-1,1.3-1.1,3-0.9,4.6c-0.6-0.6-1.3-1.2-1.9-1.9c-2.8-3-4.5-6.1-7.4-6c-2,0.1-3.4,1.8-3.5,1.9
	c-2,2.6-0.6,6.5,0.2,8.2c1.6,3.1,5.3,4.9,9.1,5.7c-1.4,0.3-2.8,0.4-4.6,0c-1.9-0.4-2.8-1.1-3.3-0.6c-1.2,1,0.2,5.7,3.2,8.1
	c2.6,2.1,6.2,2.2,9.5,1.3c0.3,0.2,0.5,0.4,0.8,0.6c0,0.6,0,1.3,0.2,1.9c0,0.1,0.1,0.2,0.1,0.3c-1-0.3-1.5-0.6-2-0.2
	c-1.2,1,0.2,5.7,3.2,8.1c2.8,2.2,6.6,2.2,10,1.1c0.1,0.1,0.2,0.3,0.3,0.4c-0.1,0.7-0.1,1.5,0.2,2.3c0.6,2,2.6,3.6,4.8,3.7
	c1,0,2-0.3,2.8-0.8c0.2,0.6,0.5,1.2,0.8,1.8c-0.2,1.3-0.1,3,0.6,4.4c0.7,1.5,1.9,2.6,3.3,3.3c-1.5,0.4-2.2,0.4-2.6,1
	c-2.2-1.1-5.4-2.9-8.7-6.5c-2.8-3-4.5-6.1-7.4-6c-2,0.1-3.4,1.8-3.5,1.9c-2,2.6-0.6,6.5,0.2,8.2c1.6,3.1,5.3,4.9,9.1,5.7
	c-1.4,0.3-2.8,0.4-4.6,0c-1.9-0.4-2.8-1.1-3.3-0.6c-1.2,1,0.2,5.7,3.2,8.1c2.9,2.3,6.9,2.2,10.4,1c-0.2,0.9-0.2,1.9,0.1,2.8
	c0.6,2,2.6,3.6,4.8,3.7c1,0,2-0.3,2.8-0.8c1.4,4.2,5.9,7.2,9.8,8.1c0.5,0.1,4,0.9,5.6-0.3c1.5-0.2,3.1-0.9,4.5-1.8
	c0.7-0.4,1.3-1,2-1.6c-0.6,1.1-1.1,2.3-1.4,3.6c-0.5,2.3-0.2,5.2,0.8,7.5c-0.9,0.3-1.9,0.4-3,0c-2.8-1-3.1-4.6-4.2-4.4
	c-1.2,0.2-2.3,4.1-0.8,7.2c1.5,3.3,5.7,4.9,9,4c0.2-0.1,0.8-0.2,1.4-0.5c-0.2,1-0.4,2.3-1.3,3.9c-0.9,1.4-1.2,1.2-2.4,2.9
	c-0.3,0.4-3.6,5.1-2.4,6.8c1,1.3,4.9,0.5,7.5-1.2c1.9-1.2,3.7-3.3,4.6-5.6c0.2,0.6,0.6,1.2,1,1.8c0.3,0.4,1.9,2.5,4.5,2.7
	c5,0.5,9.1-6.4,8.4-7.2c-0.3-0.4-1.5,1-3.2,0.8c-2.9-0.5-3.8-5.4-5.3-7.9c1.1-1.1,2.1-2.5,2.7-3.7c1.7-3,3-8,1.2-9.1
	c-1.6-1-5,1.2-6.8,3.1c-1.4,1.5-2.5,3.5-2.9,5.4c-0.4-0.7-0.8-1.5-1.1-2.5c-0.4-1.6,0-1.7-0.4-3.8c-0.1-0.3-0.5-3-1.4-4.8
	c0.8,0.7,1.9,1.4,3.4,1.5c2.6,0.3,4.9-1.4,6.5-3.3c1.6-0.1,3.4-2,4.9-4.4c0.5,0.7,2.1,2.3,4.3,2.5c5,0.5,9.1-6.4,8.4-7.2
	c-0.3-0.4-1.5,1-3.2,0.8c-2.9-0.5-3.8-5.4-5.3-7.9c0.8-0.8,1.5-1.8,2.1-2.7c1,0.1,2.2,0,3.5-0.3c-0.6,0.6-0.9,1.3-1,2.2
	c-0.2,2,1.2,3.6,1.3,3.7c2.2,2.3,6.3,1.7,8.1,1c3.1-1.1,5.3-4,6.7-7.4c0.1,0.2,0.2,0.4,0.3,0.5c-0.1,1-0.2,2.1-0.7,3.3
	c-0.7,1.8-1.6,2.5-1.1,3.2c0.4,0.7,2.1,0.9,3.9,0.4c0.2,0.9,0.4,1.8,0.6,2.9c0.8,4.4,0.3,5.6,1,6.4c-1.5,2-3.7,4.9-7.8,7.6
	c-3.4,2.3-6.7,3.5-7.1,6.3c-0.2,2,1.2,3.6,1.3,3.7c2.2,2.3,6.3,1.7,8.1,1c3.3-1.1,5.6-4.4,7-8.1c0.1,1.4-0.1,2.9-0.7,4.5
	c-0.7,1.8-1.6,2.5-1.1,3.2c0.8,1.3,5.7,0.7,8.5-1.9c2.7-2.5,3.2-6.5,2.6-10.1c0.9,0.4,1.8,0.5,2.8,0.4c2-0.3,4-2,4.4-4.2
	c0.2-1,0-2-0.3-2.9c4.3-0.7,8.1-4.7,9.5-8.4c0.2-0.6,1.9-4.7,0.1-6.3c-1.2-1.1-3.5-0.5-4.4-0.2c-0.7,0.2-1.3,0.5-1.9,0.8
	c0.4-2.1,0.3-4.5,0-6.6c0.5-1.9,0.5-3.9,0.1-5.8c0.9,0.4,1.8,0.5,2.8,0.4c2-0.3,4-2,4.4-4.2c0.2-1,0-2-0.3-2.9
	c4.3-0.7,8.1-4.7,9.5-8.4c0.2-0.6,1.9-4.7,0.1-6.3c-1.2-1.1-3.5-0.5-4.4-0.2c-0.7,0.2-1.3,0.5-1.9,0.8c0.3-1.4,0.3-2.9,0.2-4.3
	c0.4-1,1.7-4.6,0.1-6.1c-0.5-0.4-1.1-0.6-1.8-0.6c-0.7-1.4-1.6-2.4-2.3-2.5c-0.1,0-0.5,0-1.1,0.4c-0.3,0.2-0.5,0.4-0.7,0.6
	c0-1.3-0.1-2.6-0.3-3.9c0.5-1.9,0.5-3.9,0.1-5.8c0.8,0.3,1.6,0.5,2.5,0.4c-0.6,2.2,0.2,4.9,0.7,5c0.3,0,0.2-1.1,1.1-1.8
	c1.5-1.1,4.2,0.7,5.9,1.2c0,1,0.2,2.1,0.4,2.9c0.6,2.1,2.2,5,3.6,4.6c1.2-0.3,1.7-2.8,1.7-4.5c0-1.3-0.4-2.7-1.1-3.8
	c0.5,0.1,1,0.3,1.6,0.7c0.9,0.5,0.8,0.8,1.9,1.5c0.3,0.2,3.3,2.3,4.3,1.5c0.9-0.7,0.3-3.1-0.8-4.8c-0.8-1.2-2.2-2.4-3.8-3
	c0.3-0.5,0.7-1,1.3-1.3c1.7-0.8,3.5,0.7,3.9,0.1c0.4-0.6-0.8-2.9-2.9-3.6c-2.2-0.8-4.8,0.4-5.9,2.3c-0.1,0.1-0.3,0.5-0.4,0.9
	c-0.4-0.5-0.9-1.2-1.2-2.3c-0.3-1,0-1.1-0.2-2.4c0-0.2-0.3-1.5-0.7-2.7c2-1.6,3.6-3.8,4.4-5.9c0-0.1,0.1-0.3,0.2-0.6
	c2.5-1,4-4.1,4.5-5.7c0.3-1,0.4-2,0.3-3c0.8,1.9,2.1,3.7,3.2,3.5c1.2-0.3,1.7-2.8,1.7-4.5c0-0.7-0.1-1.4-0.4-2.1
	c0.2-0.3,0.4-0.7,0.6-1.1c0.1,0,0.2,0.1,0.3,0.1c0.9,0.5,0.8,0.8,1.9,1.5c0.3,0.2,3.3,2.3,4.3,1.5c0.9-0.7,0.3-3.1-0.8-4.8
	c-0.8-1.2-2.2-2.4-3.8-3c0.3-0.5,0.7-1,1.3-1.3c1.7-0.8,3.5,0.7,3.9,0.1c0.4-0.6-0.8-2.9-2.9-3.6c-1.6-0.6-3.4-0.1-4.7,0.9
	c-0.8-1.3-1.9-2.4-3.2-3.3c-0.2-0.7-0.5-1.8-0.9-2.5c0.2-0.3,0.4-0.6,0.6-0.9c0.9-1.8,0.7-4.4-0.8-6c-0.7-0.7-1.6-1.2-2.5-1.4
	c0.6-1.1,0.9-2.4,1-3.7c0.2-0.3,0.4-0.6,0.6-1c-0.2,2.7-0.3,4.9,1.2,6.3c1.5,1.4,3.6,1.1,3.8,1.1c3.2-0.4,5.1-4.1,5.6-6
	c1-3.4-0.3-7.2-2.4-10.5c1.2,0.8,2.3,1.7,3.3,3.3c1,1.6,1.2,2.8,1.9,2.8C356,183.4,358.3,179.2,357.9,175.3z M335.2,95.6
	c0.3,0.2,0.7,0.5,1.1,0.9c0.1,0.2,0.2,0.3,0.3,0.4c-0.3,0.2-0.6,0.6-0.9,1c-0.4-0.4-0.7-0.8-1.1-1.1C334.8,96.5,335,96,335.2,95.6z
	 M312.1,20c0.3,0.2,0.7,0.5,1.1,0.9c0.1,0.2,0.2,0.3,0.3,0.4c-0.3,0.2-0.6,0.6-0.9,1c-0.4-0.4-0.7-0.8-1.1-1.1
	C311.8,20.9,312,20.5,312.1,20z M186.8,83.2c-0.3-0.4-0.6-0.8-0.9-1c0.1-0.1,0.2-0.3,0.3-0.4c0.4-0.4,0.8-0.7,1.1-0.9
	c0.1,0.5,0.3,0.9,0.6,1.2C187.5,82.5,187.1,82.9,186.8,83.2z M186.7,140c1.1-0.3,1.4-2.3,2.5-5.2c1.2-0.9,2.8-2.1,5-2.9
	c0.3,0.2,0.6,0.4,1.1,0.4c0.1,0,0.3,0,0.4,0c0,0.6,0.1,1.2,0.2,1.8v0c-1.6,2.3-2,4.8-2.1,6.6c-1.8,1.3-2.9,3.7-3.4,5
	c-0.6,2.1-0.4,4.4,0.4,6.6c0,0,0,0,0,0c-0.3,0.4-0.6,0.8-0.9,1.2c-0.1-0.2-0.2-0.4-0.4-0.5c-1-1.6-1.2-2.8-1.9-2.8
	c-0.2,0-0.4,0-0.5,0.1c0-0.4,0-0.9,0-1.4C187.4,145.1,188.1,141.9,186.7,140C186.7,140,186.7,140,186.7,140z M193.9,86.3
	c0.3,0,0.5,0,0.8,0.1c-0.2,0-0.4,0.1-0.7,0.2C194,86.5,194,86.4,193.9,86.3z M195.2,90.9c1.6-1.6,3.1-2.5,4.1-3
	c0.2,0.3,0.6,0.3,1.4,0.5c-0.7,0.6-1.2,1.3-1.5,2.1c-0.4-0.2-0.8-0.4-1.3-0.3c-1,0-2,0.8-2.3,1.7c-0.1,0.4-0.2,0.9-0.1,1.3
	c-0.2-0.1-0.3-0.1-0.5-0.2c-0.2-0.4-0.5-0.7-0.8-1C194.6,91.6,194.9,91.2,195.2,90.9z M249.3,305.7c-0.1,0.2-0.2,0.5-0.3,0.7
	c-0.2-0.1-0.3-0.1-0.5-0.2c0.2-0.3,0.4-0.5,0.6-0.8C249.1,305.6,249.2,305.6,249.3,305.7z M292.2,32.7c0.3,1.5,2.3,2.4,3.7,4.7
	c0.3,0.6,0.5,1.1,0.7,1.6c-1,0.1-1.9,0.3-2.8,0.5c-0.8-0.7-1.7-1.2-2.6-1c-0.2,0-0.5,0.1-0.7,0.3c-0.4-0.3-0.8-0.6-1.2-0.8
	c0.3-0.2,0.7-0.6,0.8-1c0.4-0.9,0.3-2-0.4-2.8c-0.3-0.3-0.7-0.5-1.2-0.7c0.2-0.5,0.3-0.9,0.4-1.4c0.1,0,0.2-0.1,0.3-0.2c0,0,0,0,0,0
	c0,0.3,0,0.5,0.1,0.7c0.2,0.2,0.5,0.2,1.2,0.3C291.3,32.9,291.8,32.8,292.2,32.7C292.2,32.7,292.2,32.7,292.2,32.7z M299.5,41.3
	c0.4-0.1,0.8-0.2,1.3-0.5c0.1,0.4,0.2,0.8,0.2,1.4c0,0.2,0,0.4-0.1,0.5c-0.3,0-0.8,0-1.2,0c0,0-0.1-0.1-0.1-0.1
	C299.6,42.2,299.5,41.7,299.5,41.3z M263.1,271c-0.1-0.3-0.1-0.6-0.2-0.9c0.3-0.8,0.6-1.5,0.9-2.3c0.3,0.1,0.6,0.2,1,0.3
	c0.2,0,0.7,0.1,1.4,0.2c-0.1,0.8-0.2,1.7,0,3.4c0.1,0.6,0.6,5.8,2.2,8.6c-1.7-0.8-3.3-1.7-4.6-2.2C263.8,275.6,263.5,273,263.1,271z
	 M322.3,211.9c-0.1,0-0.3-0.1-0.4-0.1c-0.1,0-0.2,0-0.3,0c0.1-0.3,0.3-0.7,0.5-1c0.2-0.4,0.4-0.6,0.6-0.8c0.1,0.6,0.2,1.1,0.4,1.6
	C322.8,211.7,322.5,211.8,322.3,211.9z M271.7,22.6c-0.3,0.2-0.5,0.3-0.8,0.5c0.1-0.1,0.2-0.3,0.3-0.4
	C271.3,22.7,271.5,22.6,271.7,22.6z M308.3,213.6c-1.2-0.4-2.8,0.1-3.5,0.3c-0.7,0.2-1.3,0.5-1.9,0.8c0.6-2.9,0.2-6.1-0.6-8.7
	c0,0,0,0,0,0c1.3,0.7,2.4,1.2,3.5,1.2c0.1,0.3,0.3,0.5,0.4,0.5c0.1,0,0.2-0.3,0.3-0.6c0,0,0,0,0,0c0.2,0,0.3-0.1,0.5-0.1
	c0.8-0.3,1.3-0.9,1.6-1.4c0,0,0,0,0,0c0.3,0,0.7,0.1,1.1,0.2C309.1,207.8,309.1,210.5,308.3,213.6z M235.6,286.4
	c0.4,0,0.8-0.1,1.2-0.2c-0.2,0.5-0.4,1.1-0.5,1.6c-0.1-0.2-0.2-0.4-0.3-0.6C235.8,287,235.7,286.7,235.6,286.4z M277,36.3
	c0.1,0.1,0.1,0.2,0.2,0.3c-0.2,0-0.3,0-0.4,0.1C276.9,36.5,277,36.4,277,36.3z M299.5,79c0,0.2,0.1,0.3,0.2,0.5
	c-0.2-0.1-0.5-0.2-0.7-0.3c0-0.1,0-0.2,0-0.3C299.1,79,299.3,79,299.5,79z M316,203.9c-0.3-0.1-0.8,0-1.3,0.3c0-0.1-0.1-0.1-0.1-0.2
	c-0.2-0.4-0.3-0.9-0.5-1.2c1.1,0.3,2.3,0.1,3-0.4c0,0.1,0,0.1,0.1,0.2C316.6,203,316.2,203.4,316,203.9z M248,272.4
	c-0.1-0.3-0.2-0.7-0.3-1c0.7-1,1.3-2.1,1.8-3.3c0.3,0.8,0.6,1.8,0.8,2.9c0.1,0.8,0.2,1.3,0.2,1.8C249.7,272.7,248.8,272.6,248,272.4
	z M221.7,208.4c-0.1-0.1-0.2-0.2-0.3-0.3c-0.1-1.2-0.3-2.4-0.5-3.6c0.4,0.5,0.9,1.2,1.5,1.8C222.1,207,221.9,207.7,221.7,208.4z
	 M259.1,58.3c0,0,0.1,0.2,0.3,0.4c-0.5,0-1,0.1-1.4,0.1c-0.2-1.1-0.6-2.3-1.3-3.4c0.7-0.2,1.5-0.3,2.4-0.4
	C258.7,55.9,258.4,57.3,259.1,58.3z M260.1,235.5c0.3,0,0.6,0.1,0.9,0.1c0,0.3-0.1,0.7-0.1,1c0,1,0,2.1,0.1,3.1
	c-0.3-0.1-0.6-0.2-0.8-0.3C260.2,238.1,260.2,236.8,260.1,235.5z M218.4,140.8c-1.4,1.8-2,3.8-2.4,5.7c0-0.7-0.1-1.4-0.2-2.1
	c0.4-1.1,0.9-2.6,1.6-4.3C217.7,140.4,218.1,140.6,218.4,140.8z M258.9,229.2c0,0-0.1,0-0.1,0c-0.8-2.3-1.9-4.6-3.1-6.2c0,0,0,0,0,0
	c0,0,0,0,0,0c0.1-0.3,0.1-0.5,0.2-0.7c0.3,0.3,0.6,0.5,0.9,0.7c0.2,2.1,1.3,4.4,2.9,6.4c0,0,0,0,0,0
	C259.4,229.3,259.1,229.2,258.9,229.2z M238.1,201.6c-0.2-1.5-3.5-2.1-3.8-2.2c-1.4-0.3-2.8-0.2-4.2,0.2c-0.1,0-0.2-0.1-0.3-0.1
	c0.3-1.3,1.1-2.6,1.4-3.7c1,0,2.1-0.2,2.9-0.4c1.5-0.4,3.3-1.4,4.2-2.3c0,0,0,0,0,0h0c0.1,0,0.1,0,0.2,0c0.5,3.6,3.4,6.4,6.6,8
	c-0.8,0.5-1.5,1.2-1.9,2c-0.4,0.8-0.6,1.6-0.6,2.5c0,0,0,0,0,0c-1.6,0.7-3.1,1.7-4.2,2.9c-0.9,1-1.5,2-1.9,3c-0.1,0-0.3,0.1-0.4,0.1
	c-0.3-0.3-0.6-0.6-1.1-0.8c-0.1-0.3-0.1-0.6-0.2-0.9c-0.1-0.3-0.4-1.7-0.9-3.4C236.2,203.6,238.3,202.8,238.1,201.6z M230,183.9
	c-0.5,0.2-0.9,0.4-1.3,0.6c0.3-1,0.1-2.3-0.4-3c0.1,0,0.1,0,0.2,0c0.5,0.6,1.2,1.1,1.8,1.4c0,0,0,0,0,0c-0.1,0.3-0.3,0.7-0.3,1v0
	C230,183.8,230,183.8,230,183.9z M224.8,182.2c0.5-0.3,1-0.6,1.3-1c0,0,0,0,0,0c0.1,0,0.1,0.1,0.2,0.1
	C226,181.6,225.5,182,224.8,182.2z M237.9,188c-1,0.3-1.1,0-2.4,0.2c-0.3,0-3.7,0.6-4.1,1.9c0-0.3,0-0.7,0.1-1.1c0,0,0,0,0,0
	c0.3-0.3,0.5-0.5,1-1.2c0.1-0.1,0.5-0.7,0.9-1.5c0,0,0,0,0,0c0.6,0.4,1.3,0.6,2,0.5c1-0.2,1.7-1.2,2.2-2.1c0.4,0.7,1,1.2,1.7,1.6
	c0.1,0,0.3,0.1,0.5,0.3c-0.1,0.2-0.3,0.4-0.4,0.7C239.1,187.5,238.6,187.8,237.9,188z M251.6,146.4c0-1.3,0.2-2.6,0.3-3.7
	c0,0.3,0.1,0.5,0.2,0.7c0.7,0.8,2.5-0.5,4.5,0.7c0,0,0,0,0.1,0c-0.8,1.1-1.4,2.4-1.6,3.3c-0.8,2.7-0.1,5.7,1.3,8.5
	c-0.2,0-0.3,0-0.5,0c-0.3-0.2-0.7-0.3-0.9-0.3c-0.2-0.3-0.5-0.6-0.7-1c-1-1.6-1.1-2.8-1.9-2.8c-0.1,0-0.3,0-0.4,0.1
	C251.6,150.3,251.5,148.5,251.6,146.4z M253.6,134.2c0.5,0,1.1-0.1,1.6-0.2c0.4-0.1,1.3-0.3,2.2-0.7c0.8,0.3,1.5,0.4,2.1,0.3
	c0.3,3.4,3.1,7.1,6.1,9.5c-0.2-0.1-0.4-0.1-0.6-0.2c-0.1-0.1-0.2-0.2-0.4-0.2c0-0.1-0.1-0.1-0.2-0.2c-0.6-0.5-1.2-0.8-1.8-1
	c-2.2-1.1-4.6-1.8-6.5-1.8C256.2,137.5,255.2,135.9,253.6,134.2z M280.6,111.8c-0.3,0.4-0.7,0.9-1,1.4c-0.2,0.1-0.3,0.2-0.5,0.4
	c-0.7-1.3-1.8-2.4-3.2-3.4c0.2-0.3,0.4-0.5,0.5-0.7C278,110.1,279.4,111,280.6,111.8z M268.4,215.7c-0.5-0.3-1.1-0.6-2-0.7
	c0.5-0.2,0.9-0.4,1.3-0.8c0.4,0.4,0.9,0.7,1.3,1.1C268.9,215.4,268.6,215.5,268.4,215.7z M261.3,128.4c0-0.2,0.1-0.5,0.1-0.7
	c0.4,0,0.8-0.1,1.2-0.2c0.1,0.1,0.2,0.1,0.3,0.1C262.3,127.7,261.7,128,261.3,128.4z M266.6,156.4c0.1-0.9,0.1-1.8-0.1-2.5
	c0.3,0.1,0.7,0.1,1,0c0.1,0,0.1,0,0.2,0c0.5,0.4,1,0.9,1.5,1.3c0,0.1,0,0.1,0,0.2c-0.2,0.1-0.5,0.3-0.7,0.4
	C267.8,155.6,267.2,155.9,266.6,156.4z M280.2,167.8c-0.1-0.5-0.1-1.1-0.3-1.7c0.4,0.4,0.9,0.8,1.4,1.1
	C281,167.4,280.6,167.6,280.2,167.8z M282.6,176.3c0,0.2,0,0.4,0.1,0.5c-0.3-0.2-0.6-0.4-0.9-0.5
	C282.1,176.3,282.4,176.3,282.6,176.3z M284.4,171.1c0.1-0.5,0.1-1.1,0.1-1.6c0.5,0.3,1,0.6,1.5,0.9
	C285.4,170.5,284.8,170.7,284.4,171.1z M272.3,181.2C272.3,181.2,272.3,181.2,272.3,181.2c0.1,0.1,0.2,0.1,0.3,0.1
	c-0.1,0-0.2,0-0.3,0.1C272.3,181.4,272.3,181.3,272.3,181.2z M263.6,170.7c0,0.6,0,1.2,0.1,1.7c-0.5,0.1-1.1,0.3-1.7,0.5
	c-0.4-0.2-0.9-0.4-1.4-0.6c0-0.3-0.1-0.7-0.1-1C261.6,171.1,262.7,170.9,263.6,170.7z M284.9,140c-0.2,1.1-0.3,2.3-0.2,3.6
	c-0.1,0.3-0.3,0.6-0.4,0.9c-0.6,0.4-0.9,0.7-0.9,1.1c0,0.1,0,0.2,0.1,0.3c-0.1,0.1-0.2,0.2-0.3,0.4c-0.6-0.3-1.2-0.6-1.8-0.9
	c0.2-0.5,0.3-1,0.3-1.5c0-1.7-0.7-3.9-1.7-4c-1.1-0.1-1.4,2.3-3,4.2c-1.3-0.2-2.4-0.2-3.3,0.1c0.2-0.3,0.3-0.7,0.2-0.9
	c-0.3-1-2.5-0.5-4-2.3c-1.3-1.6-0.5-3.1-1.4-6.1c-0.2-0.6-0.4-1.2-0.7-1.9c0.4,0.3,0.8,0.5,1.2,0.7c1.1,0.7,2.3,1.2,3.3,1.3
	c0,0.9,0.3,1.6,0.8,1.9c0.3,0.2,0.7,0.2,1.3,0c0.5,1.1,1.2,2.1,2,2.3c1.1,0.2,1.5-1.4,2.4-3.7C280.6,137.6,282.9,139.3,284.9,140z
	 M271.9,145.5c-0.1,0.2-0.2,0.4-0.3,0.5h-0.2c-0.2-0.2-0.4-0.3-0.7-0.5C271.1,145.6,271.5,145.6,271.9,145.5z M263.1,193.7
	c0.6-0.1,1-0.5,1.4-0.9c-0.3,1.4-0.4,2.6-0.4,3.5v0c0,0,0,0,0,0c-0.1-1-0.6-1.8-1.3-2.6C262.9,193.8,263,193.7,263.1,193.7z
	 M293.4,150c-1.2-0.4-2.4-0.7-3.5-0.7c0.1-0.3,0.3-0.7,0.4-1.1c1.5,0.5,2.8,1,3.9,1.6C294,149.9,293.7,149.9,293.4,150z
	 M256.8,123.4c0.4,0.4,0.9,0.8,1.4,1.1c-0.3,0.2-0.7,0.4-1.1,0.6C257.1,124.5,257,124,256.8,123.4z M277.9,94.1
	c-0.2,0.4-0.3,0.8-0.4,1.3c-0.3-0.2-0.6-0.3-1-0.5c0.3-0.3,0.6-0.6,1-0.9C277.6,94.1,277.8,94.1,277.9,94.1z M266.9,106.5
	c-0.2,0-0.3,0-0.5,0c0-0.2,0-0.4,0-0.5c0.1,0.1,0.3,0.3,0.5,0.4V106.5z M246.6,120.6c0.3,0.3,0.7,0.6,1.1,0.8
	c0.2,2.1,1.3,4.4,2.9,6.4c-0.3,0-0.5,0-0.8,0c-1.6-0.2-2.9-1.1-3.9-1.8c-0.5-0.7-1-1.5-1.5-2.3c-0.4-0.6-0.7-1.2-0.9-1.8
	C244.1,121.7,245.4,121.4,246.6,120.6z M251.9,142.2c0,0.1,0,0.1,0,0.2C251.9,142.3,251.9,142.3,251.9,142.2L251.9,142.2z
	 M288.6,214.6C288.6,214.6,288.6,214.6,288.6,214.6c-1.3-1.2-2.4-2.3-3.5-3.2c0,0,0,0,0,0c1.5-2,2.3-3.2,2.3-4.9
	c0-0.8-0.1-1.6-0.4-2.3c0.4-0.3,0.7-0.5,0.9-0.7v0.2c0.1,2.6,1.6,5.4,3.7,7.8C290.7,211.6,289.8,213.1,288.6,214.6
	C288.6,214.6,288.6,214.6,288.6,214.6z M282.6,101.3c-0.4-0.3-0.8-0.7-1.3-1.1c0,0,0,0,0-0.1c0.4,0,0.8,0.1,1.3,0.2
	C282.6,100.7,282.6,101,282.6,101.3z M263.3,97.6c0.2,0.1,0.5,0.2,0.9,0.3c0.5,0,1-0.2,1.5-0.6c0,0,0.1,0,0.1,0
	c1.2-0.1,2.3,0,3.1,0.1c-0.8,2.7-1.5,5.2-1.8,7.2c-0.3,0.2-0.6,0.4-0.7,0.7c-0.3-1.4-1.1-2.7-2.2-3.9c-0.3-0.8-0.8-1.5-1.3-1.5
	c-0.1,0-0.1,0-0.2,0c-0.5-0.5-1.1-1-1.6-1.5C261.8,98,262.5,97.7,263.3,97.6z M241.6,148.5c-0.3,0.4-0.6,0.8-0.9,1.2
	c-0.1-0.2-0.3-0.3-0.4-0.5c-1-1.6-1.2-2.8-1.9-2.8c-0.2,0-0.4,0-0.5,0.1c0-0.4,0-0.9,0-1.4c0.1-2.5,0.5-4.8,0.3-6.7c0,0,0,0,0.1,0
	c1.1,0.7,2.3,1.5,3.4,2.2c-0.2,0.5-0.4,0.9-0.5,1.3C240.5,144,240.8,146.2,241.6,148.5z M253.2,202.4
	C253.2,202.4,253.3,202.3,253.2,202.4L253.2,202.4C253.3,202.4,253.2,202.4,253.2,202.4z M306.1,186.1c-0.1-0.6-0.3-1.3-0.7-1.8
	c0.2,0,0.3-0.1,0.4-0.3c0.4-0.7-0.5-2.4-2.1-3.7c0,0,0-0.1,0-0.2c0.7,0.6,1.4,1.2,2.1,1.6c0.9,1,1.9,1.9,2.9,2.7
	C307.8,184.9,306.9,185.4,306.1,186.1z M297.1,138.4c0-0.1,0-0.2,0-0.3c0.1-0.1,0.2-0.2,0.3-0.3
	C297.2,137.9,297.1,138.2,297.1,138.4z M245,216.6c0.1-0.2,0.3-0.4,0.4-0.6c0-0.1,0.1-0.1,0.1-0.2v0c0,0.3,0,0.7,0.1,1
	C245.4,216.7,245.2,216.7,245,216.6z M299.1,152.7C299.1,152.7,299.1,152.7,299.1,152.7C299.1,152.7,299.1,152.7,299.1,152.7
	C299.1,152.7,299.1,152.7,299.1,152.7z M298.8,105c0.1-0.1,0.2-0.2,0.3-0.3c0,0.2-0.1,0.4-0.1,0.5C298.9,105.1,298.8,105,298.8,105z
	 M226.1,187.1c-0.1,0.2-0.2,0.4-0.2,0.6c-0.2-0.1-0.3-0.2-0.4-0.4C225.6,187.3,225.8,187.2,226.1,187.1z M247.3,223.3
	c0.2,0,0.4,0.1,0.7,0.1c0.1,0.2,0.3,0.5,0.6,0.8c0,0,0,0,0,0c0,0,0,0,0,0.1C248.1,224,247.7,223.6,247.3,223.3
	C247.3,223.3,247.3,223.3,247.3,223.3z M270.4,229.7c0-0.2,0-0.4,0.1-0.6c0.4,0,0.8-0.1,1.2-0.1c0.1,0,0.2,0.1,0.3,0.1c0,0,0,0,0,0
	C271.4,229.2,270.9,229.4,270.4,229.7C270.4,229.7,270.4,229.7,270.4,229.7z M276.9,234.3c0,0,0.1,0,0.1,0.1c0,0,0,0-0.1,0.1
	C276.9,234.4,276.9,234.3,276.9,234.3z M255.9,85.3c0.1,0,0.1,0,0.2,0c-0.8,1.1-1.1,2.1-0.8,2.7c0,0.1,0.2,0.3,0.7,0.7c0,0,0,0,0,0
	c-0.3,1-0.5,2-0.7,2.9c-0.2-0.3-0.4-0.7-0.6-1c-0.6-1.1-1.1-2.2-1.5-3.2C254.6,86.8,255.6,86,255.9,85.3z M214.8,155.7
	c0-0.7,0.1-1.3,0.1-1.9c0.3,0,0.5-0.1,0.8-0.2c0-0.1,0-0.1,0-0.2c0.2,1.6,0.5,2.1,0.9,2.3c0,0,0,0,0,0c-0.5,0.6-0.8,1.3-1,2.1
	c-0.3-0.1-0.6-0.2-0.9-0.3C214.7,156.9,214.7,156.3,214.8,155.7z M226.7,146.2c0.4,0.2,0.7,0.4,1.1,0.6c0.5,1.4,1.2,2.8,2.1,4.2
	c-1.2-0.8-2.3-1.7-3.3-3.3c-0.1-0.2-0.2-0.4-0.3-0.6C226.5,146.7,226.7,146.4,226.7,146.2z M283.4,239.7c0,0.3,0,0.7,0,1
	c-0.2,0.2-0.4,0.3-0.6,0.5C283,240.7,283.2,240.2,283.4,239.7z M216.6,162c2.2,3.7,7.6,7.2,11.3,9.6c0.3,0.2,0.5,0.4,0.8,0.5
	c0,0.1,0,0.1,0,0.2c-1.7-1-3.7-1.6-6.6-2.9c-4-2-4.6-3.1-5.7-2.9c-0.3-0.9-0.7-2.1-0.9-3.4C215.8,162.7,216.2,162.4,216.6,162z
	 M221.8,198.3c0.8-0.1,1.7-0.2,2.4-0.5c-0.2,0.4-0.3,0.8-0.4,1.3c0,0,0,0.1,0,0.2C223.3,198.8,222.5,198.5,221.8,198.3z
	 M224.1,201.2c0.1,0.4,0.3,0.7,0.6,1.1c0,0,0,0,0,0c0,0-0.1,0-0.1,0c-0.8,0.2-1.4,0.3-2,0.3C223.2,202.1,223.7,201.6,224.1,201.2z
	 M250.7,258.3c0-0.1,0-0.2,0-0.3c0.2-0.2,0.4-0.5,0.6-0.7c0.1,0.2,0.2,0.5,0.3,0.7c-0.2,0.1-0.3,0.2-0.5,0.2
	C250.9,258.3,250.8,258.3,250.7,258.3z M284.4,69c-0.1,0.1-0.1,0.3-0.1,0.5c-0.1,0.6,0.4,1.1,1.3,2.1c0.2,0.2,0.5,0.5,0.7,0.7
	c-3.2,0.4-5.8,1.1-5.9,2.1c0,0.3,0.2,0.5,0.6,1c1.2,1.3,2.2,1.4,4.2,2.4c0,0,0.1,0,0.2,0.1c-0.7,0.3-1.4,0.8-2,1.3
	c-0.1,0-0.1,0-0.2-0.1c-0.1-0.7-0.4-1.4-0.9-2c-1.1-1.4-3.2-2.1-5-1.5c0,0,0,0-0.1,0c-1.1-0.2-2.2-0.2-3.3,0.1
	c-2.3-1.7-5.4-2.5-8-2.3c-0.2-0.1-0.5-0.3-0.7-0.4c0.4-1,0.9-2.2,1.6-3.4c1.1-2.2,2-3.5,2.6-4.5c2,0.7,2.8,1.4,4.5,1.3
	c0.7,0,1-0.1,1.2-0.3c0.2-0.3,0.2-0.7,0-1.3c0.9-0.3,1.7-1.3,2.6-2.3c1.3,0.6,2.8,1.1,4.7,2c0.2,0.1,0.3,0.2,0.5,0.3
	c-0.4,0-0.7,0.1-0.9,0.3c0,0-0.1,0.2-0.2,0.5C281.7,66.8,283.1,67.6,284.4,69z M276.2,51.1c0.5-0.8,1.1-1.5,1.8-2.2
	c0.4,0.1,0.8,0.3,1.2,0.5C278.2,49.9,277.2,50.5,276.2,51.1z M213.4,104.8c-0.4,1-0.7,2.1-0.9,3.1c-0.1-1.6-0.3-3.2-0.6-4.9
	C212.2,103.6,212.8,104.2,213.4,104.8z M215.2,194c0.2-0.7,0.4-1.3,0.5-1.9c0.6,0.7,1.3,1.2,2,1.8c0,0,0,0,0,0
	c-0.4,0.1-0.7,0.3-1,0.5c-0.3-0.2-0.7-0.4-1-0.4C215.4,194,215.3,194,215.2,194C215.2,194,215.2,194,215.2,194z M278.8,247.1
	c0-0.1,0-0.2,0-0.3c0.8,0.2,1.5,0.3,2.1,0.1c0,0,0,0,0.1,0c0.1,0.2,0.2,0.4,0.3,0.6c-0.6,0-1.2,0-1.8,0
	C279.3,247.3,279,247.2,278.8,247.1z M310.2,199.8c0.3-0.5,0.5-1,0.6-1.5v0c0,0,0,0,0,0c0.1,0.6,0.2,1.3,0.5,1.9
	C311,200,310.6,199.9,310.2,199.8C310.2,199.8,310.2,199.8,310.2,199.8z M317.1,200.5c-0.1-0.1-0.2-0.2-0.3-0.4
	c0.1,0.1,0.2,0.1,0.3,0.2c0,0,0,0,0,0C317.2,200.3,317.1,200.4,317.1,200.5z M320.2,191.8C320.2,191.8,320.2,191.8,320.2,191.8
	L320.2,191.8c-1.3-0.5-2.7-0.8-4.2-0.8c0.2-0.4,0.3-0.7,0.4-1.1c0,0,0,0,0,0c0.1,0,0.2,0,0.3,0c1.6-0.2,2.5,0.1,2.8-0.4
	c0.1-0.2,0.1-0.5,0-0.9c0,0,0,0,0,0c0,0,0.1,0,0.1,0c1.5-0.4,3.3-1.3,4.1-2.3c0.3,0.4,0.6,0.9,0.8,1.3c0.3,0.5,0.5,1,0.7,1.5
	c0,0.1,0,0.1,0.1,0.2c0,0.6-0.1,1.2-0.1,1.8C323.5,191.2,321.8,191.5,320.2,191.8z M264.3,43.4c-0.5-0.1-0.9-0.1-1.4-0.1
	c0.2-0.2,0.4-0.5,0.5-0.8c0.1-0.2,0.3-0.6,0.4-1C264,42.2,264.1,42.8,264.3,43.4z M264.6,47.2c-0.1,0.2-0.2,0.3-0.3,0.5
	c-0.5,0-1,0-1.5,0.2c-0.1-0.1-0.3-0.3-0.4-0.4C263.2,47.3,264,47.2,264.6,47.2z M204.9,158.7c-0.3,0.1-0.5,0.3-0.8,0.5
	c-0.1-0.1-0.2-0.2-0.3-0.4C204.2,158.8,204.6,158.7,204.9,158.7z M220.5,217.1c-0.2-0.2-0.4-0.3-0.6-0.5c0.3,0,0.5-0.1,0.9-0.2
	C220.7,216.7,220.6,216.9,220.5,217.1z M318.3,207.3c-0.1-0.4-0.3-0.7-0.5-1c0.3,0.1,0.7,0.2,1,0.4
	C318.6,206.9,318.5,207.1,318.3,207.3z M263.1,38.2c0.1,0.8,0.3,1.5,0.4,2.2c-0.3-0.3-0.9-0.4-1.5-0.3
	C262.5,39.3,262.8,38.7,263.1,38.2z M204.3,140.9c0.2-0.3,0.4-0.5,0.5-0.7c1.5,2,2.5,3.9,3.2,5.6c-1.6,1-2.7,2.8-3.3,4.2
	c-1.2,0-2.5,0.3-3.9,0.8c0-0.2,0-0.3,0-0.5c0-1.3,0.2-2.4,0.3-3.5C201.8,145,202.8,143,204.3,140.9z M205.7,189.7
	c0.1,0.4,0.3,0.9,0.4,1.3c-0.3-0.4-0.6-0.9-0.9-1.4c-0.1-0.1-0.1-0.2-0.2-0.3h0C205.3,189.5,205.5,189.6,205.7,189.7z M225.2,247.4
	c0,0.2-0.1,0.4-0.1,0.5c0-0.2,0-0.4,0-0.6C225.1,247.4,225.1,247.4,225.2,247.4z M328.2,205.3c0.4,0.2,0.7,0.3,1.1,0.3
	c0,0.1,0,0.2,0.1,0.2c-0.3-0.2-0.7-0.3-1.1-0.3C328.3,205.5,328.2,205.4,328.2,205.3z M287,37.3c-0.3,0-0.8,0-1.3,0.1
	c0-0.5,0-1.1-0.1-1.5c0.4-0.1,0.8-0.2,1.3-0.5c0.1,0.4,0.2,0.8,0.2,1.4C287,37,287,37.1,287,37.3z M282.7,33.6
	c-1.9,0.3-3.7,0.6-4.8,1c0.5-0.8,0.9-1.5,1.2-2.1c1.1,0.1,2.2,0.1,3.3,0.2C282.5,33,282.6,33.3,282.7,33.6z M286.6,269.5
	c0,0.7,0.1,1.5,0.2,2.2c-0.6-0.2-1.3-0.4-1.9-0.9C285.5,270.4,286.1,270,286.6,269.5z M314.4,92.9c0-0.1,0.1-0.1,0.1-0.2
	c0.5,0,1,0,1.5,0.1c0.1,0,0.2,0.1,0.3,0.1c-0.1,0.2-0.3,0.4-0.4,0.6C315.4,93.2,314.9,93,314.4,92.9z M291.8,27.4L291.8,27.4
	c-0.1,0.1-0.2,0.3-0.3,0.4c0-0.2,0-0.3,0-0.4C291.6,27.4,291.7,27.4,291.8,27.4z M333.4,199c-0.2,0-0.5,0.1-0.7,0.1
	c0-0.4,0-0.8,0-1.2c1-0.8,1.8-1.8,2.4-2.9c0.1-0.1,0.3-0.1,0.4-0.2c0.2,0.8,0.4,1.8,0.3,3c0,0.2,0,0.4-0.1,0.6
	C334.9,198.5,334.1,198.6,333.4,199z M321.2,96.2c-0.8,0.3-1.5,0.8-2.2,1.3c0,0,0,0,0,0c-0.1-0.2-0.2-0.3-0.3-0.5c0,0,0,0,0,0
	c0.4-0.2,0.9-0.4,1.5-0.6c0.4-0.1,0.8-0.3,1.1-0.3C321.3,96.2,321.3,96.2,321.2,96.2z M311.2,74.9c-0.2-0.4-0.4-0.7-0.6-1.1
	c0.1-0.1,0.2-0.2,0.3-0.3c0.7,0.6,1.4,1.3,2.1,2.3c0.2,0.3,0.3,0.6,0.5,0.8C312.8,76,312.1,75.4,311.2,74.9z M198.6,95.3
	c-0.3-0.4-0.6-0.8-0.9-1c0.1-0.1,0.2-0.3,0.3-0.4c0.4-0.4,0.8-0.7,1.1-0.9c0.1,0.5,0.3,0.9,0.6,1.2C199.4,94.5,199,94.9,198.6,95.3z
	 M197.5,98.4c0.2,0.3,0.6,0.3,1.7,0.6c0.4,0.5,0.9,1,1.3,1.4c0.2,0.2,0.3,0.4,0.5,0.6c-1.2,1.7-1.8,3.5-2.1,5.2c0,0,0,0-0.1,0
	c-0.1-1.5-0.3-3.1-0.6-4.7c-0.1-0.3-0.3-1.5-0.8-3.1C197.4,98.5,197.5,98.5,197.5,98.4z M310.5,247.6c0.2-0.3,0.3-0.7,0.4-1.1
	c0,0.6,0,1.2-0.1,1.8C310.8,248.1,310.6,247.9,310.5,247.6z M335.8,172.6c-0.1-0.1-0.1-0.2-0.2-0.3c0.1,0,0.1-0.1,0.2-0.1
	c0.5,0.4,1,0.8,1.5,1.3C336.9,173.2,336.4,172.9,335.8,172.6z M325.9,110C325.9,110,325.9,110,325.9,110L325.9,110
	C325.9,109.9,325.9,110,325.9,110C325.9,110,325.9,110,325.9,110z M316.6,83.7L316.6,83.7c-0.1,0.1-0.3,0-0.4,0
	c0.1-0.7,0.1-1.4,0-2.1c-0.1-1.2-0.6-2.3-1.2-3.2c0.4,0,0.8-0.3,1.2-0.8C316.5,79.3,316.7,81.4,316.6,83.7z M298.4,32.9
	c-0.1,0.3-0.2,0.6-0.2,0.9c-0.9-1-2.2-1.8-3.4-2.2c0.1-0.1,0.3-0.1,0.4-0.2c1.9-0.6,2.5-0.5,2.8-0.9c0.4,0.2,0.8,0.4,1.3,0.7
	C298.9,31.7,298.6,32.6,298.4,32.9z M199.5,207.3c0-0.3,0.1-0.6,0.1-0.9c0.6,1.2,1,2.4,1.4,3.4c-0.4,0.1-0.8,0.3-1.2,0.5
	C199.6,209.6,199.4,208.6,199.5,207.3z M213.4,242.3c0.2-0.3,0.4-0.5,0.6-0.7c2.6,3.4,3.7,6.8,4.6,9.3c-0.3,0-0.6,0.1-1,0.1
	c-0.8-0.5-1.6-0.9-2.5-0.8c0,0-0.1,0-0.1,0c-0.3,0-0.5,0-0.7,0.1c-1,0.3-1.8,0.9-2.3,1.3c-0.7,0.1-1.3,0.3-2,0.5
	c-0.3-0.3-0.6-0.6-0.9-0.9C209.8,249.2,210.7,246,213.4,242.3z M306.5,289.6c0.1,1.4-0.1,2.9-0.7,4.5c-0.7,1.8-1.6,2.5-1.1,3.2
	c0.2,0.4,0.9,0.6,1.7,0.7c-0.6,1.2-1.2,2.2-1.8,3c-1.3-1.4-2.5-2.7-3.7-3.9C303.4,295.7,305.3,292.8,306.5,289.6z M329.3,136.1
	C329.3,136.1,329.3,136.1,329.3,136.1c-1.3,0.6-2,2.5-2.3,3.3c-0.3,0.7-0.4,1.3-0.5,2c-0.7-0.8-1.5-1.4-2.4-2.1c0,0,0,0,0,0v-0.1
	c0-1.5,0.2-2.8,0.4-4.1c1,0,2,0,2.8-0.1c0.1,0,0.3,0,0.4,0C328.3,135.3,328.8,135.6,329.3,136.1z M327.8,101.3
	c-0.6-0.5-1.3-0.7-2-0.8c0,0,0,0,0,0c0.2-1,0.5-1.9,0.6-2.6c0.2,0.2,0.4,0.4,0.6,0.6c0.6,0.7,1.2,1.3,1.7,1.9c0,0,0,0,0,0
	c-0.3,0.5-0.4,0.9-0.6,1.2C328.1,101.6,327.9,101.5,327.8,101.3z M320.8,63.9c0.2,0.7,0.4,1.6,0.3,2.8c0,0.4-0.1,0.8-0.1,1
	c-0.7-0.1-1.7-0.1-2.7,0.1c0.1-1,0-2.1-0.1-3C319,64.7,319.9,64.4,320.8,63.9z M298.3,14.6C298.3,14.6,298.3,14.6,298.3,14.6
	C298.3,14.6,298.3,14.6,298.3,14.6c-0.1,0-0.1,0-0.1,0c0,0,0,0,0,0C298.2,14.6,298.2,14.6,298.3,14.6
	C298.3,14.6,298.3,14.6,298.3,14.6z M276.7,8.5c0.1-0.1,0.2-0.1,0.3-0.2c0.1,0.3,0.3,0.7,0.3,0.8c0.1,0.3,0.3,0.5,0.5,0.7
	c0,0,0,0,0,0c-0.1,0-0.1,0-0.2,0.1h0c0,0,0,0,0,0c-0.4,0-0.8,0-1.2,0.1c0,0,0,0,0,0c-0.3-0.2-0.7-0.4-1-0.6
	C275.8,9.2,276.3,8.8,276.7,8.5z M261.1,8.6c-0.3,0.5-0.6,1.1-0.9,1.7c-0.1-0.1-0.2-0.3-0.3-0.4C260.3,9.4,260.7,9,261.1,8.6z
	 M199.9,83.2c0.4-0.4,0.8-0.7,1.1-0.9c0.1,0.5,0.3,0.9,0.6,1.2c-0.4,0.3-0.8,0.7-1.1,1.1c-0.3-0.4-0.6-0.8-0.9-1
	C199.7,83.5,199.8,83.4,199.9,83.2z M193.1,82c1.7-0.5,3.1-0.3,4.3-0.3c0,0.3,0,0.5,0,0.8c-1.5-0.5-3.4-0.6-4.8,0.5
	c-0.2,0.2-0.4,0.3-0.5,0.5c-0.2-0.3-0.4-0.5-0.6-0.8C192,82.4,192.5,82.2,193.1,82z M182.3,167.3c0-0.4,0.1-0.8,0.2-1.1c0,0,0,0,0,0
	c-0.1,0.8-0.2,1.7-0.1,2.5c0.1,0.5,0.2,1.1,0.4,1.6c-0.1,0-0.1,0.1-0.2,0.1C182.4,169.6,182.2,168.6,182.3,167.3z M221.7,305.9
	c-0.3-0.3-0.5-0.6-0.7-0.9c0.6-0.5,1.4-1.3,2-2.2c0.6,0.7,1.3,1.4,2,2c-0.4,0.9-0.8,1.8-0.8,2.6c-0.1,0.1-0.1,0.3-0.2,0.4
	C223.4,307.4,222.5,306.9,221.7,305.9z M247.5,315.7c0.4-0.6,0.7-1.2,1-1.8c0.2,0.5,0.4,0.9,0.7,1.4c-0.1,0-0.2-0.1-0.3-0.1
	C248.5,315.1,248,315.3,247.5,315.7z M253.7,332.2c0.2,0.5,0.5,1.1,0.9,1.5c-0.4,0.8-0.7,1.5-0.9,2.2c-0.9-1.5-2.4-2.6-3.7-2.9
	c0.1-0.1,0.1-0.2,0.1-0.3C251.4,332.9,252.8,332.7,253.7,332.2z M304.5,312.9c-0.4,0.2-0.7,0.4-1,0.5c-0.4-0.6-1-1.6-1.8-2.3
	c1-0.6,1.9-1.3,2.6-2c0.7,0.6,1.5,1.3,2.5,1.8C306.3,311.5,305.6,312.2,304.5,312.9z M314.9,279.7c-0.4,0.2-0.7,0.4-1,0.5
	c-0.1-0.1-0.2-0.3-0.3-0.4c0.9-0.9,1.6-2,2.2-3c0.4,0.3,0.9,0.6,1.4,0.9C316.7,278.3,316,279,314.9,279.7z M319.3,236.7
	c-0.4,0.2-0.7,0.4-1,0.5c-0.1-0.1-0.2-0.3-0.3-0.4c0.9-0.9,1.6-2,2.2-3c0.4,0.3,0.9,0.6,1.4,0.9C321.1,235.3,320.4,236,319.3,236.7z
	 M334.2,242.4c0,0.1,0,0.1,0.1,0.2c-0.6,0.5-1.1,1.2-1.4,1.8c-0.3-0.2-0.7-0.3-1.1-0.3c-0.2-0.5-0.4-1-0.6-1.4
	C332.3,243.1,333.5,242.9,334.2,242.4z M328.5,240.2c-0.4-0.2-0.8-0.3-1.3-0.4c-0.1,0-0.2,0-0.3,0c0.2-0.4,0.4-0.8,0.5-1.3
	c0.2-1,0-2-0.3-2.9c0.4-0.1,0.7-0.2,1.1-0.3c0,0.1-0.1,0.2-0.1,0.3C327.8,237,327.9,238.7,328.5,240.2z M340.6,213.9
	c0,0,0.1,0,0.1,0c0,0.1,0,0.2,0,0.3C340.8,214.1,340.7,214,340.6,213.9z M346.1,164.7c0,0.4-0.1,0.8-0.2,1.1
	c-0.8-0.1-1.9-0.1-2.9,0.1c0.1-1.1,0.1-2.3-0.1-3.3c0.9-0.2,1.9-0.5,2.9-1C346,162.4,346.2,163.4,346.1,164.7z"/>
<g>
	<g>
		<path class="st2" d="M183.7,99.1c1.3,0,2.1-1.4,3.5-2.8c1.6-1.6,3.1-2.5,4.1-3c0.3,0.4,0.9,0.2,2.8,0.9c2.1,0.7,3,1.4,4.7,1.3
			c0.7,0,1-0.1,1.2-0.3c0.7-0.8-0.8-3.1-2.7-5.7c0.4-0.2,0.9-0.5,1.6-0.7c2.9-0.8,5.1,0.3,6.3-1.1c0.2-0.3,0.3-0.4,0.3-0.5
			c0.1-1-3-2.8-5.7-2.6c0.2-0.2,0.4-0.5,0.5-0.8c0.2-0.4,0.7-1.4,0.3-2c-0.6-0.9-2.5-0.4-2.8-0.3c-1.8,0.4-3.9,1.8-4.6,3.7
			c-0.4-0.2-0.8-0.4-1.3-0.3c-1,0-2,0.8-2.3,1.7c-0.2,0.4-0.2,0.9-0.1,1.3c-1.5-0.5-3.4-0.6-4.8,0.5c-1.4,1.1-2.1,3.3-1.6,3.7
			c0.3,0.2,0.7-0.1,1.5-0.3c0.8-0.2,1.5-0.2,2.1,0c-1.8,0.4-3.5,1.2-4.3,2.6c-0.4,0.8-1.1,2.6-0.2,3.7
			C182.2,98.3,182.8,99.1,183.7,99.1z M191.8,88.7c0.4-0.4,0.8-0.7,1.1-0.9c0.1,0.5,0.3,0.9,0.6,1.2c-0.4,0.3-0.8,0.7-1.1,1.1
			c-0.3-0.4-0.6-0.8-0.9-1C191.6,89,191.7,88.9,191.8,88.7z"/>
		<path class="st2" d="M349.7,190.7c-0.4-3.7-3.4-6.5-6.6-8c0.8-0.5,1.5-1.2,1.9-2c0.9-1.8,0.7-4.4-0.8-6c-0.7-0.7-1.6-1.2-2.5-1.4
			c2-3.9,0.9-9.3-1.2-12.6c-0.3-0.5-2.7-4.2-5-3.8c-1.6,0.3-2.4,2.5-2.7,3.4c-0.3,0.7-0.4,1.3-0.5,2c-0.2-0.2-0.4-0.4-0.5-0.5
			c-0.2-0.9-0.6-1.7-1.2-2.4c-0.7-0.7-1.6-1.2-2.5-1.4c2-3.9,0.9-9.2-1.1-12.5c2.9,0.2,5.8,0.1,8.2,0c6.1-0.2,12.2-0.4,13-2.9
			c1-3.5-8.6-10.1-18.2-12c-1.1-0.2-2.6-0.5-4.1-0.7c4.4-0.2,8-0.8,8.6-2.7c0.7-2.4-3.7-6.4-9.7-9.2c0.4-0.2,0.9-0.4,1.5-0.5
			c1.9-0.6,2.5-0.5,2.8-0.9c1,0.5,2.5,1.4,4.1,3c1.3,1.4,2.2,2.8,3.5,2.8c0.9,0,1.5-0.8,1.6-0.9c0.9-1.2,0.2-3-0.2-3.7
			c-0.8-1.4-2.5-2.2-4.3-2.6c0.6-0.1,1.3-0.2,2.1,0c0.9,0.2,1.3,0.5,1.5,0.3c0.5-0.5-0.2-2.6-1.6-3.7c-1.4-1.1-3.2-1-4.8-0.5
			c0.1-0.4,0.1-0.9-0.1-1.3c-0.3-0.9-1.2-1.7-2.3-1.7c-0.5,0-0.9,0.1-1.3,0.3c-0.4-1.2-1.5-2.2-2.6-2.9c0.4-1.1-0.1-2.6-0.5-3.3
			c-0.8-1.4-2.5-2.2-4.3-2.6c0.6-0.1,1.3-0.2,2.1,0c0.9,0.2,1.3,0.5,1.5,0.3c0.4-0.3,0.1-1.5-0.6-2.6c0.8-1.4,1.3-3.5,1.1-5.5
			c-0.4-3.4-3.1-5.9-6.1-7.4c0.7-0.4,1.4-1.1,1.8-1.9c0.9-1.7,0.7-4-0.8-5.5c-0.6-0.7-1.5-1.1-2.3-1.3c1.8-3.6,0.8-8.5-1.1-11.6
			c-0.3-0.5-2.5-3.9-4.6-3.5c-1.5,0.3-2.2,2.3-2.5,3.1c-0.2,0.6-0.4,1.2-0.5,1.8c-0.5-0.5-1-1-1.5-1.4c-0.2-0.9-0.5-1.8-1.2-2.5
			c-0.6-0.7-1.5-1.1-2.3-1.3c1.8-3.6,0.8-8.5-1.1-11.6c-0.3-0.5-2.5-3.9-4.6-3.5c-1.5,0.3-2.2,2.3-2.5,3.1c-0.1,0.3-0.2,0.5-0.2,0.8
			c-0.1-0.3-0.2-0.5-0.4-0.8c-0.2-0.2-1.2-2-2.2-1.8c-0.4,0.1-0.7,0.5-0.9,0.9c-2.5-1.5-5.2-2.3-7-2.3c-0.6-0.8-1.4-1.4-2.3-1.9
			c0.2-0.2,0.4-0.4,0.6-0.6c1.2-0.1,2.6-0.1,4-0.1c4.6,0.1,8.5,1,11-0.7c0,0.3,0,0.5,0.1,0.7c0.2,0.2,0.5,0.2,1.2,0.3
			c1.7,0.1,2.6-0.6,4.7-1.3c1.9-0.6,2.5-0.5,2.8-0.9c1,0.5,2.5,1.4,4.1,3c1.3,1.4,2.2,2.8,3.5,2.8c0.9,0,1.5-0.8,1.6-0.9
			c0.9-1.2,0.2-3-0.2-3.7c-0.8-1.4-2.5-2.2-4.3-2.6c0.6-0.1,1.3-0.2,2.1,0c0.9,0.2,1.3,0.5,1.5,0.3c0.5-0.5-0.2-2.6-1.6-3.7
			c-1.4-1.1-3.2-1-4.8-0.5c0.1-0.4,0.1-0.9-0.1-1.3c-0.3-0.9-1.2-1.7-2.3-1.7c-0.5,0-0.9,0.1-1.3,0.3c-0.4-1.2-1.5-2.2-2.6-2.9
			c0.4-1.1-0.1-2.6-0.5-3.3c-0.8-1.4-2.5-2.2-4.3-2.6c0.6-0.1,1.3-0.2,2.1,0c0.9,0.2,1.3,0.5,1.5,0.3c0.5-0.5-0.2-2.6-1.6-3.7
			c-1.4-1.1-3.2-1-4.8-0.5c0.1-0.4,0.1-0.9-0.1-1.3c-0.3-0.9-1.2-1.7-2.3-1.7c-0.5,0-0.9,0.1-1.3,0.3c-0.7-1.9-2.8-3.3-4.6-3.7
			c-0.3-0.1-2.3-0.5-2.8,0.3c-0.4,0.6,0.1,1.6,0.3,2c0.2,0.3,0.3,0.6,0.5,0.8c-0.5,0-1,0-1.5,0.1c-1.5-1.1-3.2-1.8-4.3-2.1
			c-4.2-1.2-8.9,0.5-13,3c0.9-1.4,2.1-2.8,4-3.9c2-1.2,3.4-1.4,3.5-2.3c0.1-1.8-5.3-4.6-10.1-4c-4.6,0.6-8,4.1-9.9,8
			c-0.6-0.9-1.5-1.8-2.6-2.3c-2.3-1.1-5.5-0.8-7.5,1.1c-0.9,0.9-1.5,1.9-1.8,3.1c-4.9-2.3-11.6-0.9-15.7,1.6c-0.6,0.4-5.3,3.2-4.7,6
			c0.4,1.9,3.2,2.8,4.3,3.2c0.9,0.3,1.7,0.5,2.5,0.6c-2,1.8-3.6,4.2-4.7,6.5c-2.1-1.4-4.5-1.1-4.8-1.1c-4.5,0.6-7.2,5.9-8,8.5
			c-1.5,4.8,0.4,10.2,3.5,14.9c-1.7-1.1-3.3-2.5-4.6-4.6c-1.5-2.3-1.6-3.9-2.7-4c-2.2-0.1-5.6,5.9-4.9,11.4
			c0.6,5.2,4.8,9.2,9.5,11.4c-1.1,0.7-2.1,1.7-2.8,2.9c-1.3,2.6-1.1,6.3,1.2,8.6c1,1.1,2.3,1.7,3.6,2c-1.7,3.4-1.8,7.6-0.9,11.4
			c-1.7,0.5-3.5,1.9-4.1,3.6c-0.4-0.2-0.8-0.4-1.3-0.3c-1,0-2,0.8-2.3,1.7c-0.2,0.4-0.2,0.9-0.1,1.3c-0.3-0.1-0.6-0.2-0.9-0.2
			c-0.9-2.5-2.2-5-3.9-5.1c-1.5,0-1.9,2.1-4.8,2.9c-2.2,0.6-3.7-0.1-4.1,0.6c-0.5,0.9,1.4,2.6,2.9,4.3c1.5,1.7,2.5,3.4,3.3,5
			c-0.3,0.9-0.4,2,0.2,2.7c0,0.1,0.5,0.7,1.4,0.8c0.5,1.3,0.9,2.5,1.4,3.5c-2.1-1.1-5.5-1.7-9.5-0.3c-1.8,0.7-6.3,2.3-8.3,7.2
			c-0.6,1.4-1.7,4.7-0.6,5.8c1.3,1.4,4.1-3.4,10.6-4.7c0.9-0.2,1.7-0.3,2.6-0.4c-1.2,0.7-2.3,1.6-3.2,2.7c-2.9,3.6-2.6,7.6-2.5,9.2
			c0.2,2.8,1.1,6,2.4,7.9c-1-0.2-1.8-0.1-2-0.1c-3.2,0.4-5.1,4.1-5.6,6c-1,3.4,0.3,7.2,2.4,10.5c-1.2-0.8-2.3-1.7-3.3-3.3
			c-1-1.6-1.2-2.8-1.9-2.8c-1.5-0.1-3.9,4.2-3.5,8c0.4,3.7,3.4,6.5,6.6,8c-0.8,0.5-1.5,1.2-1.9,2c-0.9,1.8-0.7,4.4,0.8,6
			c0.7,0.7,1.6,1.2,2.5,1.4c-2,3.9-0.9,9.3,1.2,12.6c0.3,0.5,2.7,4.2,5,3.8c1.6-0.3,2.4-2.5,2.7-3.4c0.3-0.7,0.4-1.3,0.5-2
			c0.2,0.2,0.4,0.4,0.5,0.5c0.2,0.9,0.6,1.7,1.2,2.4c0.7,0.7,1.6,1.2,2.5,1.4c-2,3.9-0.9,9.3,1.2,12.6c0.3,0.5,2.7,4.2,5,3.8
			c0.3,0,0.5-0.2,0.7-0.3c1.3,2.7,1.9,5.1,2.8,6.8c-2.1-1.1-5.5-1.7-9.5-0.3c-1.8,0.7-6.3,2.3-8.3,7.2c-0.6,1.4-1.7,4.7-0.6,5.8
			c1.3,1.4,4.1-3.4,10.6-4.7c0.9-0.2,1.7-0.3,2.6-0.4c-1.2,0.7-2.3,1.6-3.2,2.7c-2.9,3.6-2.6,7.6-2.5,9.2c0.2,4.3,2.4,9.5,4.5,9.5
			c0.7,0,1.1-0.6,1.5-1.6c0.1,0.3,0.2,0.6,0.3,0.7c1.3,1.4,4.1-3.4,10.6-4.7c0.9-0.2,1.7-0.3,2.6-0.4c-1.2,0.7-2.3,1.6-3.2,2.7
			c-2.9,3.6-2.6,7.6-2.5,9.2c0.1,2.6,1,5.5,2.1,7.3c-2,0.5-2.8,0.5-3.2,1.1c-2.2-1.1-5.4-2.9-8.7-6.5c-2.8-3-4.5-6.1-7.4-6
			c-2,0.1-3.4,1.8-3.5,1.9c-2,2.6-0.6,6.5,0.2,8.2c1.6,3.1,5.3,4.9,9.1,5.7c-1.4,0.3-2.8,0.4-4.6,0c-1.9-0.4-2.8-1.1-3.3-0.6
			c-1.2,1,0.2,5.7,3.2,8.1c2.5,2,5.9,2.2,9,1.4c0.1,0.3,0.2,0.6,0.4,0.8c0.3,0.6,0.7,1.1,1.1,1.6c0,0,0,0,0,0.1
			c0.6,2,2.6,3.6,4.8,3.7c0.4,0,0.8,0,1.2-0.1c0.6,0.2,1.3,0.4,2,0.5c-1.4,0.3-2.8,0.4-4.6,0c-1.9-0.4-2.8-1.1-3.3-0.6
			c-1.2,1,0.2,5.7,3.2,8.1c2.9,2.3,6.9,2.2,10.4,1c-0.2,0.9-0.2,1.9,0.1,2.8c0.6,2,2.6,3.6,4.8,3.7c0.6,0,1.2-0.1,1.7-0.3
			c0.1,0.8,0.3,1.6,0.6,2.4c1.3,2.8,4.5,4.4,7.4,4.2c0.9,0.4,1.8,0.7,2.7,0.9c-0.2,0.6-0.5,1.4-0.9,2.1c-0.9,1.4-1.2,1.2-2.4,2.9
			c-0.3,0.4-3.6,5.1-2.4,6.8c1,1.3,4.9,0.5,7.5-1.2c0.5-0.3,1-0.7,1.5-1.2c0.1,0.3,0.2,0.5,0.3,0.8c1.5,3.3,5.7,4.9,9,4
			c0.2-0.1,0.8-0.2,1.4-0.5c-0.2,1-0.4,2.3-1.3,3.9c-0.9,1.4-1.2,1.2-2.4,2.9c-0.3,0.4-3.6,5.1-2.4,6.8c1,1.3,4.9,0.5,7.5-1.2
			c1.9-1.2,3.7-3.3,4.6-5.6c0.2,0.6,0.6,1.2,1,1.8c0.3,0.4,1.9,2.5,4.5,2.7c5,0.5,9.1-6.4,8.4-7.2c-0.3-0.4-1.5,1-3.2,0.8
			c-2.9-0.5-3.8-5.4-5.3-7.9c1.1-1.1,2.1-2.5,2.7-3.7c1.7-3,3-8,1.2-9.1c-1.6-1-5,1.2-6.8,3.1c-1.4,1.5-2.5,3.5-2.9,5.4
			c-0.2-0.3-0.4-0.7-0.6-1.2c0.9-1.4,1.4-2.6,1.2-2.9c-0.2-0.3-0.9,0.3-1.8,0.6c-0.1-0.9,0.1-1.3-0.2-2.9c-0.1-0.5-1.1-6.2-3.1-6.5
			c-0.9-0.1-2,0.9-2.9,2.4c-0.1-0.3-0.3-0.5-0.4-0.7c1.1-1.1,2.1-2.5,2.7-3.7c0.3-0.5,0.6-1.1,0.8-1.7c1.3-0.9,2.1-1.9,2-2.7
			c0-0.1,0-0.5-0.5-1c-0.1-0.1-0.2-0.2-0.3-0.3c0.2-1.5,0-2.8-0.8-3.4c-1.3-0.8-3.9,0.5-5.7,2.1c-1.7,0-3.5,0-5.5-0.3
			c-0.2-1.2-0.9-4.1-2-5.3c0.2-0.3,0.5-0.7,0.7-1c0.2,0.1,0.5,0.2,0.7,0.3c2.8,1.2,6,1.1,8.8,0c1.1,0.1,2.3-0.7,3.4-2
			c0.9-0.7,1.6-1.5,2.2-2.4c0.2-0.3,0.7-1.1,1.1-2.1c0.8,1.3,1.9,3.1,2.4,5.8c0.4,2.5-0.2,2.7,0.1,5.8c0.1,0.8,1,9.6,4.1,10.3
			c2.5,0.5,6.2-4.4,7.5-9c0.9-3.3,0.9-7.5-0.3-11.1c0.9,0.5,1.9,0.8,3,1.1c0.7,0.1,4.7,0.9,8-1.4c0.8-0.6,1.4-1.2,2-2
			c0.3,2.6,0.1,3.5,0.7,4.2c-1.5,2-3.7,4.9-7.8,7.6c-3.4,2.3-6.7,3.5-7.1,6.3c-0.2,2,1.2,3.6,1.3,3.7c2.2,2.3,6.3,1.7,8.1,1
			c3.3-1.1,5.6-4.4,7-8.1c0.1,1.4-0.1,2.9-0.7,4.5c-0.7,1.8-1.6,2.5-1.1,3.2c0.8,1.3,5.7,0.7,8.5-1.9c2.7-2.5,3.2-6.5,2.6-10.1
			c0.4,0.2,0.9,0.3,1.3,0.4c0.2,0.7,0.3,1.5,0.5,2.3c0.8,4.4,0.3,5.6,1,6.4c-1.5,2-3.7,4.9-7.8,7.6c-3.4,2.3-6.7,3.5-7.1,6.3
			c-0.2,2,1.2,3.6,1.3,3.7c2.2,2.3,6.3,1.7,8.1,1c3.3-1.1,5.6-4.4,7-8.1c0.1,1.4-0.1,2.9-0.7,4.5c-0.7,1.8-1.6,2.5-1.1,3.2
			c0.8,1.3,5.7,0.7,8.5-1.9c2.7-2.5,3.2-6.5,2.6-10.1c0.9,0.4,1.8,0.5,2.8,0.4c2-0.3,4-2,4.4-4.2c0.2-1,0-2-0.3-2.9
			c4.3-0.7,8.1-4.7,9.5-8.4c0.2-0.6,1.9-4.7,0.1-6.3c-1.2-1.1-3.5-0.5-4.4-0.2c-0.7,0.2-1.3,0.5-1.9,0.8c1.2-5.9-1.6-13.2-3.8-13.5
			c-0.1,0-0.5,0-1.1,0.4c-3.4,2.1-1.7,7.4-4.4,13.3c-0.6,1.3-1.3,2.3-1.9,3.2c-1.7-1.8-3.3-3.5-4.8-4.9c3.8-1.2,7-4.8,8.4-8.1
			c0.2-0.4,1.1-2.8,0.9-4.7c1.2-2.3,1.4-5.2,0.9-7.9c0.9,0.4,1.8,0.5,2.8,0.4c2-0.3,4-2,4.4-4.2c0.2-1,0-2-0.3-2.9
			c4.3-0.7,8.1-4.7,9.5-8.4c0.2-0.6,1.9-4.7,0.1-6.3c-1.2-1.1-3.5-0.5-4.4-0.2c-0.7,0.2-1.3,0.5-1.9,0.8c1.2-5.9-1.6-13.2-3.8-13.5
			c-0.1,0-0.5,0-1.1,0.4c-3.4,2.1-1.7,7.4-4.4,13.3c-0.6,1.3-1.3,2.3-1.9,3.2c-1.7-1.8-3.3-3.5-4.8-4.9c3.8-1.2,7-4.8,8.4-8.1
			c0.2-0.6,1.9-4.7,0.1-6.3c-1.2-1.1-3.5-0.5-4.4-0.2c-0.7,0.2-1.3,0.5-1.9,0.8c0.4-2,0.4-4.1,0-6.1c2.3,1.3,4.1,2.4,5.9,1.7
			c1.6-0.6,2.1-2.3,2.2-2.4c0.2-0.5,0.2-1.1,0.1-1.6c0.7,0.3,1.5,0.6,2.1,0.8c0,1,0.2,2.1,0.4,2.9c0.6,2.1,2.2,5,3.6,4.6
			c1.2-0.3,1.7-2.8,1.7-4.5c0-1.3-0.4-2.7-1.1-3.8c0.5,0.1,1,0.3,1.6,0.7c0.9,0.5,0.8,0.8,1.9,1.5c0.2,0.2,2.2,1.6,3.6,1.7
			c-0.1,0.3-0.1,0.5-0.2,0.8c-0.3,1.4-0.2,3.1,0.4,4.6c-0.4-0.2-0.8-0.3-1.3-0.4c-0.3,0-2-0.3-3.3,0.8c-2.5,2-1.2,7-0.6,7
			c0.3,0,0.2-1.1,1.1-1.8c1.5-1.1,4.2,0.7,5.9,1.2c0,1,0.2,2.1,0.4,2.9c0.6,2.1,2.2,5,3.6,4.6c1.2-0.3,1.7-2.8,1.7-4.5
			c0-1.3-0.4-2.7-1.1-3.8c0.5,0.1,1,0.3,1.6,0.7c0.9,0.5,0.8,0.8,1.9,1.5c0.3,0.2,3.3,2.3,4.3,1.5c0.9-0.7,0.3-3.1-0.8-4.8
			c-0.8-1.2-2.2-2.4-3.8-3c0.3-0.5,0.7-1,1.3-1.3c1.7-0.8,3.5,0.7,3.9,0.1c0.4-0.6-0.8-2.9-2.9-3.6c-2.2-0.8-4.8,0.4-5.9,2.3
			c-0.1,0.1-0.3,0.5-0.4,0.9c-0.4-0.5-0.9-1.2-1.2-2.3c-0.3-1,0-1.1-0.2-2.4c-0.1-0.3-0.7-3.9-2-4.1c-0.5-0.1-1,0.4-1.5,1
			c-0.2-0.9-0.6-2-1.1-2.8c-0.8-1.2-2.2-2.4-3.8-3c0.3-0.5,0.7-1,1.3-1.3c1.7-0.8,3.5,0.7,3.9,0.1c0.4-0.6-0.8-2.9-2.9-3.6
			c-1.8-0.7-4,0.1-5.3,1.4c-0.2-0.1-0.5-0.3-0.6-0.5c-1.1-1.5,0.7-4.2,1.2-5.9c1,0,2.1-0.2,2.9-0.4c2.1-0.6,5-2.2,4.6-3.6
			c-0.3-1.2-2.8-1.7-4.5-1.7c-1.3,0-2.7,0.4-3.8,1.1c0.1-0.2,0.1-0.5,0.3-0.8c0.1,0,0.2,0,0.3,0c3.2-0.4,5.1-4.1,5.6-6
			c0.1-0.2,0.1-0.4,0.1-0.6c0.7,0.4,1.1,0.6,1.6,0.6c0.8,2.4,1.8,5.9,1.6,10.8c-0.2,4.1-1.1,7.5,1,9.4c1.5,1.4,3.6,1.1,3.8,1.1
			c3.2-0.4,5.1-4.1,5.6-6c1-3.4-0.3-7.2-2.4-10.5c1.2,0.8,2.3,1.7,3.3,3.3c1,1.6,1.2,2.8,1.9,2.8
			C347.7,198.8,350.1,194.5,349.7,190.7z M326.9,110.9c0.3,0.2,0.7,0.5,1.1,0.9c0.1,0.2,0.2,0.3,0.3,0.4c-0.3,0.2-0.6,0.6-0.9,1
			c-0.4-0.4-0.7-0.8-1.1-1.1C326.6,111.8,326.8,111.4,326.9,110.9z M303.9,35.4c0.3,0.2,0.7,0.5,1.1,0.9c0.1,0.2,0.2,0.3,0.3,0.4
			c-0.3,0.2-0.6,0.6-0.9,1c-0.4-0.4-0.7-0.8-1.1-1.1C303.5,36.3,303.7,35.9,303.9,35.4z M336.3,224.6c0,0.1,0,0.1,0.1,0.2
			c-0.6,0.5-1.1,1.2-1.4,1.8c-0.3-0.2-0.7-0.3-1.1-0.3c-0.2-0.5-0.4-1-0.6-1.4C334.4,225.3,335.6,225.1,336.3,224.6z M321.4,197.7
			c-0.5,0.2-1,0.4-1.4,0.6c0.3-1.1,0.1-2.3-0.4-3c0.1,0,0.1,0,0.2-0.1c0.5,0.6,1.2,1.1,1.8,1.4C321.5,197,321.4,197.4,321.4,197.7z
			 M314.9,177.4c0,0.2,0.1,0.5,0.2,0.7c-0.5-0.1-1-0.1-1.5-0.1c-0.1,0-0.2,0-0.3,0c0-1.2-0.2-2.5-0.7-3.3c0.6-1,1.4-2.7,0.9-3.4
			c-0.7-0.9-3.1-0.3-4.8,0.8c-1.2,0.8-2.4,2.2-3,3.8c-0.5-0.3-1-0.7-1.3-1.3c-0.1-0.1-0.1-0.3-0.1-0.4c0.1-0.1,0.2-0.3,0.3-0.4
			c1.6-2.1,2.5-3.3,2.5-5.1c0-0.5,0-1-0.1-1.4c1.4,0.6,3,1.2,5.1,2.2c4,2,4.7,3.1,5.7,2.9c0.2,0.7,0.5,1.6,0.7,2.5
			C316.3,175.6,315,176.4,314.9,177.4z M259.1,239.3c0.6,3.2,4.8,6.1,9.2,6.5c-0.4,0.9-0.9,2.1-2.1,2.9c-0.6,0.4-1.3,0.6-2,0.6
			c-1.6-4.3-4.2-8.3-6.7-7.9c-1.5,0.3-2.7,2-3.5,4.2c-0.6-0.3-1.3-0.6-1.9-0.8c0.1-2.4-0.1-5-0.6-7c-1.1-5.3-4.5-12.3-7.8-11.8
			c-2.9,0.5-4.6,6.5-4.8,10.5c0,0.7,0,1.4,0,2c-1-0.8-2.2-1.4-3.4-1.8c-0.3-0.7-0.6-1.3-0.9-2c1.2-1.3,2-2.6,2.5-3.4
			c1.1-1.8,0.7-1.6,1.5-2.8c2.6-3.9,5.3-4.7,5.1-6.1c-0.2-1.5-3.5-2.1-3.8-2.2c-3.6-0.7-7.4,1-9.8,3.6c-0.7,0.8-1.2,1.6-1.6,2.4
			c-0.6-0.6-1.4-1.4-2.2-2.1c-0.5-2-1.5-5.8-3-7.9c0.1-0.1,0.1-0.2,0.2-0.3c1.1-1.8,0.7-1.6,1.5-2.8c1.7-2.5,3.4-3.7,4.3-4.6
			c0.8-0.1,1.7-0.2,2.4-0.5c-0.2,0.4-0.3,0.8-0.4,1.3c0,0.3-0.3,2,0.8,3.3c2,2.5,7,1.2,7,0.6c0-0.3-1.1-0.2-1.8-1.1
			c-1.1-1.5,0.7-4.2,1.2-5.9c1,0,2.1-0.2,2.9-0.4c2.1-0.6,5-2.2,4.6-3.6c-0.3-1.2-2.8-1.7-4.5-1.7c-1.3,0-2.7,0.4-3.8,1.1
			c0.1-0.5,0.3-1,0.7-1.6c0.5-0.9,0.8-0.8,1.5-1.9c0.2-0.3,2.3-3.3,1.5-4.3c0,0-0.1-0.1-0.1-0.1c1.4-0.5,2.1-2.5,2.4-3.3
			c0.3-0.7,0.4-1.3,0.5-2c0.2,0.2,0.4,0.4,0.5,0.5c0.2,0.9,0.6,1.7,1.2,2.4c0.7,0.7,1.6,1.2,2.5,1.4c-2,3.9-0.9,9.3,1.2,12.6
			c0.2,0.3,1.1,1.7,2.3,2.8c-0.6,0.1-1.2,0.3-1.6,0.6c-1,0.8-1.6,2.3-1.1,3c0.7,0.8,2.5-0.5,4.5,0.7c1.7,1,1.6,2.7,3.6,5.2
			c0.9,1.1,2.1,2.3,3.4,3.2c-2.1,1-4.8,3.8-8.4,3.3c-3.4-0.5-5.3-3.7-6.7-2.9c-0.8,0.5-0.7,2-0.6,2.8c0.7,4.1,7.2,7.5,12.6,6.2
			c0.8-0.2,2.9-0.7,4.4-2.2c-0.1,0.4-0.1,0.9-0.1,1.3c0.1,3.5,2.9,7.5,6.1,10c-0.7,0.1-1.4,0.2-2.1,0.1c-3.4-0.5-5.3-3.7-6.7-2.9
			C258.9,237.1,258.9,238.5,259.1,239.3z M228.3,258.4c0,0,0-0.1-0.1-0.1c-0.4-0.5-1.1-0.5-2.6-0.6c-0.9,0-1.7,0-2.5,0.2
			c-1.7-0.6-2.9-1.2-3.5-0.5c-0.3,0.3-0.3,1-0.2,1.7c-0.7,0.3-1.5,0.6-2.5,1c0.7-2,1.7-4.6,3.8-7.5c1.3-1.7,2.6-3,3.8-4.1
			c1.9,2.7,4.7,5.3,7.8,6.8c-0.8,1.2-1.8,2.4-3.4,3C228.8,258.3,228.6,258.4,228.3,258.4z M206.1,162.2c1.7-0.5,1.5-5.3,5.7-11.1
			c2.5-3.4,5.3-5.4,6.9-6.9c2,3.3,6.4,6.3,9.9,8.7c-1.1,1.5-2.1,4.3-1.8,6.9c0.4,3.7,3.4,6.5,6.6,8c-0.8,0.5-1.5,1.2-1.9,2
			c-0.9,1.8-0.7,4.4,0.8,6c0.7,0.7,1.6,1.2,2.5,1.4c-2,3.9-0.9,9.3,1.2,12.6c0.3,0.4,1.6,2.6,3.3,3.5c-0.9,0.2-1.8,0.6-2.6,1.1
			c-1.2,0.8-2.4,2.2-3,3.8c-0.5-0.3-1-0.7-1.3-1.3c-0.8-1.7,0.7-3.5,0.1-3.9c-0.6-0.4-2.9,0.8-3.6,2.9c-0.8,2.2,0.4,4.8,2.3,5.9
			c0.1,0.1,0.5,0.3,0.9,0.4c-0.5,0.4-1.2,0.9-2.3,1.2c-1,0.3-1.1,0-2.4,0.2c-0.2,0-2.5,0.4-3.5,1.2c-1.8,0.2-3.6,0.8-5.2,1.8
			c-1.7-1.7-4.1-3.6-5.8-6.7c-0.7-1.3-1.2-2.4-1.4-3.4c2.3-0.3,4.5-0.6,6.4-1c0.1,0.5,0.3,1.1,0.7,1.6c2,2.5,7,1.2,7,0.6
			c0-0.3-1.1-0.2-1.8-1.1c-0.6-0.8-0.3-2,0.1-3.2c0.5-0.4,0.8-0.8,0.9-1.3c0-0.2,0-0.4-0.1-0.6c0.1-0.3,0.2-0.6,0.3-0.9
			c1,0,2.1-0.2,2.9-0.4c2.1-0.6,5-2.2,4.6-3.6c-0.3-1.2-2.8-1.7-4.5-1.7c-1.3,0-2.7,0.4-3.8,1.1c0.1-0.5,0.3-1,0.7-1.6
			c0.5-0.9,0.8-0.8,1.5-1.9c0.2-0.3,2.3-3.3,1.5-4.3c-0.7-0.9-3.1-0.3-4.8,0.8c-1.2,0.8-2.4,2.2-3,3.8c-0.5-0.3-1-0.7-1.3-1.3
			c-0.8-1.7,0.7-3.5,0.1-3.9c-0.6-0.4-2.9,0.8-3.6,2.9c-0.7,2,0.2,4.5,2,5.7c-1-0.4-2-0.8-3.2-1.4c-4-2-4.7-3.1-5.7-2.9
			c-0.2-0.7-0.5-1.6-0.7-2.5c2.1-0.7,3.5-1.5,3.6-2.5c0.1-0.6-0.4-1.2-1.4-2.2c-1-1.1-1.9-1.8-3-2.3c0-0.4,0-0.8,0-1.2
			C206.7,167.3,207.5,164.2,206.1,162.2z M262.5,92.7c-0.2-0.2-0.4-0.4-0.6-0.6c0.3,0,0.5,0.1,0.7,0.1
			C262.6,92.3,262.5,92.5,262.5,92.7z M261.2,97.4c-0.7,3.2-0.8,5.6,0.3,6.2c0.5,0.3,1.1,0.1,2.2-0.2c0.5-0.2,1-0.3,1.4-0.5
			c-2.8,2-4.7,4.8-4.1,6c0,0.1,0.2,0.3,0.7,0.7c1.5,0.8,3.1,0.4,4.9-0.3c-0.6,1-1.3,2.1-2.6,2.9c-2.9,1.7-5.3-0.1-6.8,1.5
			c-1.8-3.1-6.2-5.7-10-6.6c-0.2-0.3-0.4-0.6-0.6-1c-1-1.8-1.6-3.4-2.1-4.9C251.6,100.2,257.9,99.1,261.2,97.4z M320.3,129.9
			c-1.2,0.3-2.3,0.7-3.3,1.5c0.1-0.5,0.2-1,0.3-1.4C318.3,130,319.3,129.9,320.3,129.9z M304,179.9c-0.1,0-0.1,0-0.2,0
			c-1.5,0-2-1.1-4-1.4c0.5-0.2,1-0.5,1.5-0.9c0.4,0.8,1.1,1.4,1.8,1.8C303.2,179.5,303.5,179.7,304,179.9
			C304,179.9,304,179.9,304,179.9z M301.2,162.1c-0.1,0.6,0.4,1.2,1.4,2.2c0.5,0.6,1.1,1.1,1.6,1.5c-0.7,1.2-1.4,3.3-3.4,4.4
			c-2.9,1.7-5.3-0.1-6.8,1.5c-0.1-0.1-0.1-0.2-0.2-0.3c2.9-1.3,5.1-4,5.7-6.9c0.5-2.5-0.2-5.7-1.6-6c0,0,0,0,0,0
			c0.5-1.5,1.2-3.3,2.4-5.2c1.4,0.7,2.6,0.9,3.4,0.5c0,2.3,0.7,4.3,1.4,5.8C302.7,160.2,301.3,161,301.2,162.1z M294.5,234.9
			c0.1-0.1,0.2-0.1,0.2-0.2C294.7,234.8,294.7,234.9,294.5,234.9C294.6,234.9,294.6,234.9,294.5,234.9z M285.8,237.2
			c0.4-0.1,0.7-0.3,1.1-0.6c-0.2,0.2-0.3,0.5-0.5,0.7C286.1,237.3,286,237.2,285.8,237.2z M280.5,239.6c-0.2-0.1-0.4-0.2-0.7-0.2
			c-0.7-0.1-1.4,0.1-2,0.7c0.1-0.9,0.1-1.8-0.1-2.5c0.3,0.1,0.7,0.1,1,0c0.7-0.2,1.3-0.7,1.7-1.4c0.6,0.6,1.3,1,2,1.2
			c-0.8,0.2-1.6,0.5-1.8,1.1C280.4,238.7,280.4,239.1,280.5,239.6z M235.5,157.8c-0.8-0.5-1.6-1.2-2.3-2c0.6,0.4,1.2,0.7,1.7,1
			C235.1,157.1,235.3,157.5,235.5,157.8z M235.3,94.1C235.3,94.1,235.3,94.1,235.3,94.1c-0.9-1.1-1.7-2.2-2.5-3.6
			c-0.2-0.3-0.3-0.6-0.5-0.9c0.9,0,1.9,0,2.9-0.2C235.1,91,235.1,92.6,235.3,94.1z M293.7,113.9c-0.8-1.1-1.7-2.1-2.7-3.2
			c0.5,0.1,1.1,0.2,1.7,0.4C292.9,112.1,293.3,113,293.7,113.9z M264.3,224.1c-0.1,0-0.1,0.1-0.2,0.1c0.1-0.7,0-1.4-0.1-2.1
			c0.3,0.1,0.7,0.1,1,0c0.7-0.2,1.3-0.7,1.7-1.4c0.6,0.6,1.3,1,2,1.2c-0.8,0.2-1.6,0.5-1.8,1.1c0,0.1-0.1,0.2-0.1,0.3
			C265.8,223.4,264.9,223.6,264.3,224.1z M276,223.2c-1.5,0-2-1.1-4-1.4c1.7-0.6,2.8-2.1,4.7-4.7c1.6-2.1,2.5-3.3,2.5-5.1
			c0-0.8-0.2-1.8-0.4-2.5c1-0.3,2.2-0.6,3.5-0.6c1.2-0.1,2.3,0,3.1,0.1c-1,3.1-1.7,6-1.9,8.1C281.6,217.2,279.7,223.3,276,223.2z
			 M268.7,136.1c0.3,0.1,0.7,0.1,1,0c0.7-0.2,1.3-0.7,1.7-1.4c0.6,0.6,1.3,1,2,1.2c-0.8,0.2-1.6,0.5-1.8,1.1c-0.1,0.3-0.2,0.7,0,1.2
			c-0.2-0.1-0.4-0.2-0.7-0.2c-0.7-0.1-1.4,0.1-2,0.7C268.9,137.7,268.9,136.8,268.7,136.1z M246.7,122.3c-1,0.3-2,0.5-3.2,0.4
			c-2.5-0.4-4.2-2.1-5.4-2.8c0-0.1,0.1-0.2,0.1-0.3c0.4-1,0.6-1.9,0.7-2.8C241.1,119.1,243.9,120.9,246.7,122.3z M263.7,135.7
			c-0.9-1.1-0.8-2.1-1-3.7c0.8,0.9,1.9,1.9,2.9,2.7c-0.6,0.3-1.2,0.7-1.9,1.1C263.8,135.7,263.7,135.7,263.7,135.7z M276.3,121.7
			c0.2-0.9,0.2-1.8,0.1-2.7c0.3-0.1,0.6-0.2,1-0.3c1.9-0.6,3-1.4,4.3-2.6c3.9,1.8,6.6,4.1,8.8,5.5c0,0.2-0.1,0.3-0.1,0.5
			c-2,0.4-4.3,1.5-6.5,3.5c-0.1-1.7-0.8-3.6-1.7-3.7c-1.4-0.1-1.5,3.7-4.6,5.5c-2.9,1.7-5.3-0.1-6.8,1.5c-0.1-0.1-0.1-0.2-0.2-0.3
			C273.5,127.2,275.8,124.5,276.3,121.7z M292.5,150c-0.3-0.4-0.6-0.7-0.9-0.7c-1.4-0.1-1.5,3.7-4.6,5.5c-2.9,1.7-5.3-0.1-6.8,1.5
			c-0.1-0.2-0.3-0.5-0.5-0.7c1.1-0.4,2-1.5,1.7-2.2c-0.3-1-2.6-0.4-4-2.3c-1.2-1.6-0.5-3.1-1.4-6.1c-0.2-0.6-0.4-1.2-0.7-1.8
			c1.3,0.9,2.8,1.6,4.5,1.7c0.3,0,0.5,0,0.8,0c0.4,0.6,0.9,1,1.4,1.2c0.8,0.2,1.2-0.5,1.7-1.7c2.9-1.1,5.3-3.5,6.2-6.3
			c-0.1,4.7,2.4,8,3.5,9.4C293,148.2,292.7,149.1,292.5,150z M277.7,190.6c0.2-0.7,0.3-1.6,0.2-2.5c0.7,0.1,1.5,0.3,2.5,0.9
			c0.3,0.2,0.6,0.4,0.8,0.5c-0.3,0.5-0.7,1.4-0.9,2.2C279.4,191.2,278.5,190.8,277.7,190.6z M278.3,165.4c-0.1,0-0.1,0.1-0.2,0.1
			c0.1-0.7,0-1.4-0.1-2.1c0.3,0.1,0.7,0.1,1,0c0.7-0.2,1.3-0.7,1.7-1.4c0.6,0.6,1.3,1,2,1.2c-0.8,0.2-1.6,0.5-1.8,1.1
			c0,0.1-0.1,0.2-0.1,0.3C279.8,164.7,278.9,164.9,278.3,165.4z M290.2,135.1c0-0.5-0.1-1.1-0.2-1.5c0.4-0.3,0.7-0.6,1.1-0.9
			C290.7,133.4,290.4,134.2,290.2,135.1z M278.5,136.4c-0.5-0.2-1-0.5-1.8-0.6c0.8-0.3,1.4-0.8,2.1-1.5
			C278.7,134.9,278.6,135.6,278.5,136.4z M286.8,178.4c-0.9-1.1-0.8-2.1-1-3.7c0.8,0.9,1.9,1.9,2.9,2.7c-0.6,0.3-1.2,0.7-1.9,1.1
			C286.9,178.5,286.8,178.5,286.8,178.4z M255.4,184.5c-0.1,1,0,2,0.1,2.9c-0.9-0.8-1.8-1.7-2.8-2.8
			C253.4,184.7,254.4,184.7,255.4,184.5z M268.6,193.5c1.2-0.1,2.3,0,3.1,0.1c-1.3,4-2.1,7.7-1.9,9.8c-1.8-1.9-4.4-3.8-6.4-7.2
			c-0.2-0.4-0.4-0.8-0.6-1.2C264.4,194.3,266.3,193.6,268.6,193.5z M271.6,206.6c-0.1-0.5-0.2-1-0.5-1.4c0.4,0,0.9-0.1,1.6-0.4
			c0.5-0.2,1-0.3,1.4-0.5C273.1,205,272.2,205.8,271.6,206.6z M277.5,201.7c0.2,0.2,0.4,0.3,0.7,0.5c-0.8,0.2-1.6,0.6-2.4,1
			C276.4,202.8,276.9,202.3,277.5,201.7z M290.1,164.5c-1.5,0-2-1.1-4-1.4c1.7-0.6,2.8-2.1,4.7-4.7c0.8-1,1.4-1.8,1.8-2.6
			c0.4,1.5,1.2,4,2.3,5.1C293.6,162.6,292.1,164.6,290.1,164.5z M303.9,150.4c-0.1-0.4-0.2-0.9-0.4-1.4c0.4-0.4,0.8-0.7,1.2-1.1
			C304.4,148.7,304.2,149.6,303.9,150.4z M302.3,138c0.1-0.8,0.1-1.5,0.2-2.2c0.8,0.6,1.6,1.1,2.4,1.5
			C304.1,137.4,303.2,137.7,302.3,138z M300.2,122C300.2,122,300.2,122,300.2,122C300.2,122,300.2,122,300.2,122
			C300.2,122,300.2,122,300.2,122z M285,102.9c0.3,0.2,0.6,0.4,0.8,0.5c-0.3,0.5-0.7,1.3-0.9,2.2c-0.8-0.6-1.7-1.1-2.5-1.6
			c0.1-0.6,0.2-1.3,0.1-2C283.2,102.1,284.1,102.3,285,102.9z M269.8,108c1-0.3,2.2-0.6,3.5-0.6c1.2-0.1,2.2,0,3.1,0.1
			c-0.2,0.5-0.6,1.1-1,1.6c-1.7,2-3.5,2.3-3.4,3.3c0.1,0.7,1.3,1.1,2.8,1.5c-0.1,0.6-0.2,1.2-0.2,1.7c-2,0.1-3.8,6.2-7.5,6.2
			c-1.5,0-2-1.1-4-1.4c1.7-0.6,2.8-2.1,4.7-4.7c1.6-2.1,2.5-3.3,2.5-5.1C270.2,109.7,270.1,108.8,269.8,108z M258.2,121
			c-0.1-0.5-0.2-1.1-0.4-1.6c0.6,0.5,1.2,0.8,1.8,1C259.1,120.6,258.6,120.8,258.2,121z M225.3,101.5c-0.1,0.2-0.1,0.3-0.2,0.5
			c0-0.2,0.1-0.4,0.1-0.6C225.2,101.4,225.3,101.4,225.3,101.5z M214.2,114.8c0.1-0.1,0.1-0.2,0.2-0.3c1.1-1.8,0.7-1.6,1.5-2.8
			c0.9-1.3,1.8-2.3,2.6-3c0.7,0.3,1.4,0.5,2.2,0.3c2-0.4,3.2-2.9,3.7-4.3c-0.9,4.9,0.5,10.4,2.9,14.2c-2.3,0.5-4.5,1.8-6.1,3.5
			c-0.7,0.8-1.2,1.6-1.6,2.4c-0.6-0.6-1.4-1.4-2.2-2.1C216.8,120.7,215.7,116.9,214.2,114.8z M226.5,135.4c-0.3-0.7-0.6-1.3-0.9-2
			c1.2-1.3,2-2.6,2.5-3.4c1.1-1.8,0.7-1.6,1.5-2.8c0.9-1.3,1.8-2.3,2.6-3c0.7,0.3,1.4,0.5,2.2,0.3c0.8-0.2,1.5-0.7,2.1-1.4
			c1.2,3.8,7.3,7,12.5,5.7c0.8-0.2,2.9-0.7,4.4-2.2c-0.1,0.4-0.1,0.9-0.1,1.3c0.1,3.5,2.9,7.5,6.1,10c-0.7,0.1-1.4,0.2-2.1,0.1
			c-3.4-0.5-5.3-3.7-6.7-2.9c-0.8,0.5-0.7,2-0.6,2.8c0.7,4.1,7.2,7.5,12.6,6.2c0.8-0.2,2.9-0.7,4.4-2.2c-0.1,0.4-0.1,0.9-0.1,1.3
			c0.1,2,1.1,4.3,2.5,6.3c-2-0.4-3.8-0.3-4.9,0.5c-1,0.8-1.6,2.3-1.1,3c0.7,0.8,2.5-0.5,4.5,0.7c1.7,1,1.6,2.7,3.6,5.2
			c0.9,1.1,2.1,2.3,3.4,3.2c-2.1,1-4.8,3.8-8.4,3.3c-3.4-0.5-5.3-3.7-6.7-2.9c-0.8,0.5-0.7,2-0.6,2.8c0.7,4.1,7.2,7.5,12.6,6.2
			c0.8-0.2,2.9-0.7,4.4-2.2c-0.1,0.4-0.1,0.9-0.1,1.3c0.1,3.5,2.9,7.5,6.1,10c-0.7,0.1-1.4,0.2-2.1,0.1c-3.4-0.5-5.3-3.7-6.7-2.9
			c-0.8,0.5-0.7,2-0.6,2.8c0.1,0.3,0.2,0.6,0.3,0.9c-2.3-1.2-5.1-1.6-7.4-1.4c-0.2,0-1.2,0.1-2.2,0.5c-3.4-1.8-4-2.7-5-2.6
			c-0.2-0.7-0.5-1.6-0.7-2.5c2.1-0.7,3.5-1.5,3.6-2.5c0.1-0.6-0.4-1.2-1.4-2.2c-1-1.1-1.9-1.8-3-2.3c0-0.4,0-0.8,0-1.2
			c0.2-4.1,1.1-7.5-1-9.4c-1.5-1.4-3.6-1.1-3.8-1.1c-3.2,0.4-5.1,4.1-5.6,6c-0.1,0.2-0.1,0.4-0.1,0.6c-0.7-0.4-1.1-0.6-1.6-0.6
			c-0.8-2.4-1.8-5.9-1.6-10.8c0.2-4.1,1.1-7.5-1-9.4c-1.5-1.4-3.6-1.1-3.8-1.1c-1.2,0.2-2.2,0.8-3,1.6c-0.7-0.8-1.4-1.6-2.1-2.4
			C232,138.9,229.4,136.3,226.5,135.4z M238.6,170.4c0-0.4,0.1-0.8,0.2-1.1c0.8,0.1,1.9,0.1,2.9-0.1c0,0.1,0,0.1,0,0.2
			c-0.5,1-0.9,2.1-1.1,3.4c-0.6,0.2-1.1,0.4-1.7,0.7C238.7,172.7,238.5,171.7,238.6,170.4z M257.6,205.7c0.3-0.7,0.4-1.3,0.5-2
			c3.4,3.7,9.2,5.8,12,5.4c-0.1,0.5-0.2,0.9,0,1.2c0,0.1,0.2,0.3,0.7,0.7c1.5,0.8,3.1,0.4,4.9-0.3c-0.6,1-1.3,2.1-2.6,2.9
			c-2.9,1.7-5.3-0.1-6.8,1.5c-1.8-3.2-6.2-5.7-10.1-6.6C256.9,207.5,257.4,206.3,257.6,205.7z M272.8,237.1c-0.9-1.1-0.8-2.1-1-3.7
			c0.8,0.9,1.9,1.9,2.9,2.7c-0.6,0.3-1.2,0.7-1.9,1.1C272.8,237.2,272.8,237.2,272.8,237.1z M279.9,230.3c-0.1-0.1-0.1-0.2-0.2-0.3
			c2.5-1.2,4.6-3.4,5.4-5.9c0.3,1.4,0.7,3,1.1,5C283.6,230.3,281.3,228.9,279.9,230.3z M287.2,197c1.1,0.3,2.4,0.7,3.8,1.2
			c-0.4,0.3-0.8,0.6-1.1,0.9C289.2,198.2,288.3,197.5,287.2,197z M291.6,203.4c0.7,0.1,1.5,0.3,2.5,0.9c0.3,0.2,0.6,0.4,0.8,0.5
			c-0.3,0.5-0.7,1.4-0.9,2.2c-0.9-0.5-1.7-0.8-2.6-1.1C291.6,205.2,291.7,204.3,291.6,203.4z M291.2,191.1c0.1-0.1,0.3-0.2,0.5-0.3
			c0,0.1,0.1,0.1,0.1,0.2C291.6,191.1,291.4,191.1,291.2,191.1z M294.6,179.7c-0.1,0.3-0.2,0.7,0,1.2c-0.2-0.1-0.4-0.2-0.7-0.2
			c-0.7-0.1-1.4,0.1-2,0.7c0.1-0.9,0.1-1.8-0.1-2.5c0.3,0.1,0.7,0.1,1,0c0.7-0.2,1.3-0.7,1.7-1.4c0.6,0.6,1.3,1,2,1.2
			C295.6,178.8,294.8,179.1,294.6,179.7z M309.3,141.6c0.2-0.9,0.5-2.4-0.3-3.4c0,0,0,0-0.1-0.1c0.1,0,0.3-0.1,0.4-0.1
			c0.5-0.2,1.5-0.7,2.4-2c0-0.1-0.1-0.1-0.1-0.2c1.2,1.4,1.8,1.7,2.3,1.6c0,0,0,0,0,0c-0.1,0.9,0.1,1.8,0.4,2.7c-1,0.3-2,0.7-2.6,1
			c-0.5,0.2-0.9,0.5-1.4,0.8C310,141.8,309.6,141.7,309.3,141.6z M307.4,129.2C307.4,129.2,307.4,129.2,307.4,129.2
			C307.3,129.2,307.4,129.2,307.4,129.2C307.4,129.2,307.4,129.2,307.4,129.2z M303.6,115.8c-0.1,0.1-0.2,0.1-0.3,0.2
			c0-0.1,0-0.2,0.1-0.3C303.4,115.8,303.5,115.8,303.6,115.8z M280.9,97.7c-0.7-0.9-1.7-1.6-2.8-2.2c1.1,0.3,2.4,0.7,3.8,1.2
			C281.6,97,281.2,97.3,280.9,97.7z M271.2,90.2c-0.9-0.5-1.7-0.8-2.6-1.1c0.2-0.7,0.3-1.6,0.2-2.5c0.7,0.1,1.5,0.3,2.5,0.9
			c0.3,0.2,0.6,0.4,0.8,0.5C271.8,88.5,271.4,89.4,271.2,90.2z M268.5,100.3c0.2,0.2,0.4,0.3,0.7,0.5c-0.8,0.2-1.6,0.6-2.4,1
			C267.3,101.3,267.9,100.8,268.5,100.3z M199.3,123.4c0.6-0.5,1.9-1.6,1.8-2.9c0,0,0,0,0-0.1c0.1,0,0.3,0.1,0.4,0.1
			c0.5,0.1,1.4,0.2,2.7-0.3c0-0.1,0-0.1,0-0.2c0.2,1.6,0.5,2.1,0.9,2.3c0,0,0,0,0,0c-0.5,0.6-0.9,1.3-1,2.1
			c-0.8-0.3-1.8-0.5-2.4-0.6c-0.9-0.2-1.9-0.2-2.9-0.1C198.9,123.7,199.1,123.6,199.3,123.4z M216.3,138.4c0.5,0.4,1.1,0.7,1.6,1
			c0,0.2-0.1,0.3-0.1,0.5c-0.8-0.3-1.8-0.5-2.4-0.6c-0.9-0.2-1.9-0.2-2.9-0.1c0.2-0.1,0.4-0.3,0.6-0.4c0.4-0.3,1-0.9,1.4-1.6
			C215.1,137.7,215.7,138.1,216.3,138.4z M234,202.3c0.1,0,0.1,0,0.2-0.1c0.5,0.6,1.2,1.1,1.8,1.4c-0.2,0.3-0.3,0.7-0.3,1.1
			c-0.5,0.2-1,0.4-1.4,0.6C234.6,204.2,234.4,203,234,202.3z M221.7,240.5c0,0,0,0.1,0,0.1c-0.1,0-0.1,0-0.2,0
			C221.6,240.6,221.6,240.6,221.7,240.5z M220.2,186.9c0.1,0,0.1,0,0.2-0.1c0.5,0.6,1.2,1.1,1.8,1.4c-0.1,0.2-0.2,0.4-0.2,0.6
			c-0.5-0.4-1-0.7-1.5-1C220.5,187.4,220.4,187.1,220.2,186.9z M213.1,211.5c0.4,0.2,0.8,0.3,1.1,0.5c-0.4,1-0.6,1.9-0.8,2.9
			C213.4,213.7,213.3,212.6,213.1,211.5z M204.8,191.2c-0.9-0.8-1.8-1.7-2.8-2.8c0.8,0,1.8,0.1,2.8-0.1
			C204.7,189.3,204.7,190.3,204.8,191.2z M208.4,224.9c0.6-0.5,1.9-1.6,1.8-2.9c0,0,0,0,0-0.1c0.1,0,0.3,0.1,0.4,0.1
			c0.5,0.1,1.4,0.2,2.7-0.3c0-0.1,0-0.1,0-0.2c0.2,1.6,0.5,2.1,0.9,2.3c0,0,0,0,0,0c-0.5,0.6-0.9,1.3-1,2.1
			c-0.8-0.3-1.8-0.5-2.4-0.6c-0.9-0.2-1.9-0.2-2.9-0.1C208,225.2,208.2,225.1,208.4,224.9z M289,246.6c0.1,1.4-0.1,2.9-0.7,4.5
			c-0.4,0.9-0.8,1.6-1,2.1c-0.3-0.2-0.5-0.4-0.8-0.7c-0.2-0.3-0.3-0.5-0.4-0.8C287.3,250.3,288.2,248.5,289,246.6z M299.2,221.6
			c-0.6,1.3-1.3,2.3-1.9,3.2c-2.5-2.8-5-5.2-7.1-6.8c1-0.8,2-1.8,3.5-3c2.9-2.3,4-2.4,4.2-3.2c0.9,0.1,2.1,0.3,3.4,0.6
			C300.9,215,300.8,218.2,299.2,221.6z M321,163c0.9,0.8,1.8,1.7,2.8,2.8c-0.8,0-1.8-0.1-2.8,0.1C321.1,164.9,321.1,163.9,321,163z
			 M318.9,144.8c-0.3,0.7-0.4,1.3-0.5,2c-0.3-0.3-0.6-0.7-1-1c0.2-0.8,0.4-1.6,0.6-2.2c0.4,0.2,0.8,0.3,1.2,0.5
			C319.1,144.3,319,144.6,318.9,144.8z M317.7,115.4c0.4-1.8,0.8-3,0.6-3.8c0.8,0,1.8,0,2.8,0.3c0.6,0.2,1.2,0.4,1.6,0.7
			c-1,1.3-1.8,2.5-2.4,3.6C319.5,115.9,318.6,115.6,317.7,115.4z M319.7,104.8c-0.1,0.1-0.1,0.1-0.2,0.2c-0.4,0.6,0.1,1.6,0.3,2
			c0.2,0.3,0.3,0.6,0.5,0.8c-2.8-0.2-5.8,1.6-5.7,2.6c0,0.1,0,0.2,0.3,0.5c0,0,0,0,0,0c-0.9,0.2-1.6,0.6-1.8,0.6
			c-1.4,0.6-2.6,1.5-3.6,2.7c-0.8,0-1.7,0.1-2.5,0.2c0.4-0.6,0.6-1.1,0.6-1.2c0.7-2.5-1.5-5.2-2.7-6.3c-0.4-0.3-0.8-0.6-1.3-0.9
			c0-0.3-0.1-0.6-0.1-1.2c-0.1-4.7,1.5-7.2,1.1-8.6c0.8,0,1.8,0,2.8,0.3c0.4,0.1,0.7,0.2,1,0.4c0,0.4,0,0.7,0,1.1
			c-1.6,2.2-2.7,4.2-2.1,4.9c0.2,0.2,0.5,0.2,1.2,0.3c0.2,0,0.4,0,0.6,0c-0.1,1.9,0,3.5,1.2,4.5c1.4,1.3,3.3,1,3.5,1
			c2.9-0.4,4.7-3.8,5.2-5.5c0-0.1,0-0.1,0-0.2c0.3,0.3,0.7,0.6,1,0.9C319.2,104.3,319.4,104.6,319.7,104.8z M296.3,66.2
			c0.1,0,0.1,0.1,0.2,0.1c0.1,0,0.3-0.1,0.5-0.2c0.5,0.6,1.1,1.1,1.8,1.7c-0.7,0-1.6,0-2.4,0.1C296.3,67.3,296.3,66.7,296.3,66.2z
			 M317.8,95.4c-0.3,0.1-0.6,0.1-0.9,0.2c0,0,0-0.1-0.1-0.1c0.1-0.4,0-0.8-0.1-1.2C317.1,94.7,317.4,95.1,317.8,95.4z M312.6,79.3
			c0.2,0.7,0.4,1.6,0.3,2.8c0,0.4-0.1,0.8-0.1,1c-0.7,0-1.7-0.1-2.7,0.1c0.1-1,0.1-2.1-0.1-3C310.8,80.1,311.7,79.8,312.6,79.3z
			 M273.5,44.5c1.8,0.9,2.1,1.4,2.6,1.3c0.4,1.1,0.8,2.8,0.8,5c0,1.9-0.5,3.5,0.5,4.4c0.7,0.6,1.6,0.5,1.7,0.5
			c1.4-0.2,2.2-2,2.5-2.8c0.4-1.6-0.2-3.3-1.1-4.9c0.5,0.4,1,0.8,1.5,1.5c0.5,0.8,0.5,1.3,0.9,1.3c0.1,0,0.3-0.1,0.5-0.2
			c1.1,1.1,2.5,2.3,3.9,3.9c-2.6,0.4-4.6,1-4.7,1.9c0,0.3,0.2,0.5,0.6,1c1.2,1.3,2.2,1.4,4.2,2.4c0.5,0.3,0.9,0.5,1.2,0.7
			c-3.6,0.5-6.8,1.1-8.7,2c-1.7,0.5-3.6,1.8-4.2,3.6c-0.4-0.2-0.8-0.4-1.3-0.3c-1,0-2,0.8-2.3,1.7c-0.2,0.4-0.2,0.9-0.1,1.3
			c-1.5-0.5-3.4-0.6-4.8,0.5c-1.4,1.1-2.1,3.3-1.6,3.7c0.3,0.2,0.7-0.1,1.5-0.3c0.8-0.2,1.5-0.2,2.1,0c-1.8,0.4-3.5,1.2-4.3,2.6
			c-0.4,0.8-1.1,2.6-0.2,3.7c0.1,0.1,0.6,0.8,1.6,0.9c1.3,0,2.1-1.4,3.5-2.8c1.6-1.6,3.1-2.5,4.1-3c0.3,0.4,0.9,0.2,2.8,0.9
			c2.1,0.7,3,1.4,4.7,1.3c0.7,0,1-0.1,1.2-0.3c0.7-0.8-0.8-3.1-2.7-5.7c0.4-0.2,0.9-0.5,1.6-0.7c1-0.3,1.9-0.3,2.7-0.3
			c1.1,0.5,2.4,1,3.9,1.7c3.7,1.8,4.3,2.8,5.3,2.7c0.3,1,0.7,2.3,1,3.8c-1.5,0.6-2.4,1.2-2.5,2c0,0.6,0.4,1.1,1.3,2
			c0.6,0.6,1.1,1.1,1.7,1.5c0,0.2,0,0.4,0,0.5c-0.2,3.8-1,6.9,0.9,8.7c1.4,1.3,3.3,1,3.5,1c2.9-0.4,4.7-3.8,5.2-5.5c0,0,0,0,0,0
			c1.2,0.7,1.8,1.2,2.3,1.3c-0.3,0.1-0.6,0.2-0.8,0.5c-0.4,0.6,0.1,1.6,0.3,2c0.2,0.3,0.3,0.6,0.5,0.8c-2.8-0.2-5.8,1.6-5.7,2.6
			c0,0.1,0,0.2,0.3,0.5c0,0,0,0,0,0c-0.9,0.2-1.6,0.6-1.8,0.6c-0.9,0.4-1.8,1-2.5,1.6c-1-0.2-1.9-0.3-2.9-0.1c0.6-2.5-1.6-5-2.8-6.1
			c-2.3-2-5.7-2.3-9-1.9c1-0.6,2.1-1.1,3.6-1.3c1.6-0.2,2.5,0.1,2.8-0.4c0.6-1.1-1.9-4.4-5.1-5.4c-3-1-6.2,0.2-8.5,2.1
			c-0.1-0.8-0.4-1.5-0.9-2.2c-1.1-1.4-3.2-2.1-5-1.5c-0.8,0.3-1.5,0.8-2,1.4c-2.4-2.9-6.9-4-10.2-3.6c-0.5,0.1-4.2,0.5-4.6,2.3
			c-0.3,1.3,1.2,2.7,1.7,3.2c0.4,0.4,0.9,0.8,1.4,1.1c-0.9,0.3-1.7,0.6-2.5,1.1c-1.4-0.6-3-1.2-4.8-2.1c-1.1-0.5-1.9-1-2.7-1.4
			c2.6-0.9,4.3-2,4.4-3.3c0.1-0.9-0.6-1.7-2-3.2c-2.9-3.2-5.7-4-10-5.8c-0.2-1.8-0.2-3.7-0.2-5.7c0.1-1.6,0.2-3.2,0.3-4.7
			c3.6-1.3,5.9-6.3,11.9-9.6c1.6-0.9,3-1.4,4.2-1.8c0.2,1.6,0.4,3.1,0.7,4.6c-0.5,0.1-1,0.3-1.4,0.7c-1.4,1.1-2.1,3.3-1.6,3.7
			c0.3,0.2,0.7-0.1,1.5-0.3c0.8-0.2,1.5-0.2,2.1,0c-1.8,0.4-3.5,1.2-4.3,2.6c-0.4,0.8-1.1,2.6-0.2,3.7c0.1,0.1,0.6,0.8,1.6,0.9
			c1.3,0,2.1-1.4,3.5-2.8c0.3-0.3,0.5-0.5,0.8-0.8c0.8,2.1,1.8,3.4,2.9,3.5c0.8,0.1,1.5-0.5,2.8-1.7c0.9-0.8,1.6-1.7,2.2-2.5
			c1,0.4,1.7,0.7,2.9,0.6c0.7,0,1-0.1,1.2-0.3c0.6-0.7-0.4-2.5-1.9-4.6c0.2-0.5,0.5-1.1,0.7-1.7c0,0,0.1,0,0.1,0
			c2.9-0.8,5.1,0.3,6.3-1.1c0.2-0.3,0.3-0.4,0.3-0.5c0.1-0.9-2.2-2.3-4.7-2.6c2-3.6,3-4.4,2.9-5.5c0.3-0.1,0.6-0.2,1-0.3
			C273.4,44.5,273.5,44.5,273.5,44.5z M276.1,70c-0.4,0.3-0.8,0.7-1.1,1.1c-0.3-0.4-0.6-0.8-0.9-1c0.1-0.1,0.2-0.3,0.3-0.4
			c0.4-0.4,0.8-0.7,1.1-0.9C275.7,69.2,275.9,69.6,276.1,70z M264.3,40.9c-1.4-0.1-2.8,0-4.1,0.2c-0.2-1.1-0.6-2.3-1.3-3.4
			c1-0.3,2.2-0.5,3.8-0.4c0.6,0,1,0.1,1.4,0.2C264,38.3,264,39.6,264.3,40.9z M299,38c0-0.6,0-1.1,0-1.2c0,0,0-0.1,0-0.1
			c0.3,0.1,0.5,0.2,0.8,0.4C299.4,37.4,299.2,37.7,299,38z M290.1,20c0.3,0.2,0.7,0.5,1.1,0.9c0.1,0.2,0.2,0.3,0.3,0.4
			c-0.3,0.2-0.6,0.6-0.9,1c-0.4-0.4-0.7-0.8-1.1-1.1C289.8,20.9,290,20.5,290.1,20z M289.1,26.4c1.9-0.6,2.5-0.5,2.8-0.9
			c1,0.5,2.5,1.4,4.1,3c0.2,0.3,0.5,0.5,0.7,0.7c-0.1,0.1-0.1,0.1-0.2,0.2c-0.4,0.6,0.1,1.6,0.3,2c0.2,0.3,0.3,0.6,0.5,0.8
			c-0.5,0-1,0-1.5,0.1c-1.5-1.1-3.2-1.8-4.3-2.1c-3.8-1.1-8,0.2-11.8,2.3c-0.1-0.1-0.2-0.3-0.4-0.4c0.8-1,1.8-1.9,3.1-2.7
			c1.5-0.9,2.7-1.3,3.2-1.8C286.6,27.4,287.5,26.9,289.1,26.4z M285.9,21.7c-0.2,0.3-0.5,0.6-0.7,1c0-0.6,0-1.1,0-1.2
			c0,0,0-0.1,0-0.1C285.4,21.5,285.7,21.6,285.9,21.7z M268.2,27.5c-0.9,1.1-1.7,2.3-2.4,3.6c-0.6-0.9-1.5-1.8-2.6-2.3
			c-0.4-0.2-0.8-0.3-1.1-0.4C263.9,28,265.9,27.6,268.2,27.5z M249,21.8c0.6,0,1,0.1,1.4,0.2c-0.1,0.9-0.1,2.3,0.2,3.5
			c-1.4-0.1-2.8,0-4.1,0.2c-0.2-1.1-0.6-2.3-1.3-3.4C246.1,22,247.4,21.7,249,21.8z M236.2,35.2c1.6-0.9,3-1.4,4.2-1.8
			c0,0,0,0,0,0.1c-0.8,0.3-1.5,0.7-2.1,1.1c-0.6,0.4-5.3,3.2-4.7,6c0.4,1.9,3.2,2.8,4.3,3.2c0.9,0.3,1.7,0.5,2.5,0.6
			c-2,1.8-3.6,4.2-4.7,6.5c-2.1-1.4-4.5-1.1-4.8-1.1c-3.1,0.4-5.4,3.1-6.7,5.5c-0.2-1.8-0.3-3.7-0.2-5.8c0.1-1.6,0.2-3.2,0.3-4.7
			C227.9,43.4,230.3,38.5,236.2,35.2z M205.6,104.1c0.4-0.4,0.8-0.7,1.1-0.9c0.1,0.5,0.3,0.9,0.6,1.2c-0.4,0.3-0.8,0.7-1.1,1.1
			c-0.3-0.4-0.6-0.8-0.9-1C205.3,104.4,205.4,104.2,205.6,104.1z M205.9,109c-0.8,1.4-1.2,2.9-1.5,4.3c-0.1-1.3-0.2-2.7-0.5-4.1
			c0.4-0.2,0.8-0.4,1.1-0.6C205.1,108.9,205.4,108.9,205.9,109z M205,128.9c0.7,1.1,1.7,2.3,2.8,3.3c-1.5,0-3.2,0.2-4.9,0.8
			c-1,0.3-2.6,1-4.3,2.1C200.9,132.1,203.5,130.3,205,128.9z M193.5,145.2c0.1,0.3,0.2,0.6,0.3,0.7c1.3,1.4,4.1-3.4,10.6-4.7
			c0.9-0.2,1.7-0.3,2.6-0.4c-1.2,0.7-2.3,1.6-3.2,2.7c-2.9,3.6-2.6,7.6-2.5,9.2c0.2,2.8,1.1,6,2.4,7.9c-1-0.2-1.8-0.1-2-0.1
			c-3.2,0.4-5.1,4.1-5.6,6c-0.1,0.2-0.1,0.4-0.1,0.6c-0.7-0.4-1.1-0.6-1.6-0.6c-0.8-2.4-1.8-5.9-1.6-10.8c0.1-3.7,0.9-6.9-0.5-8.9
			C192.8,146.7,193.2,146.1,193.5,145.2z M187.9,174.2c0-0.4,0.1-0.8,0.2-1.1c0.8,0.1,1.9,0.1,2.9-0.1c0,0.1,0,0.1,0,0.2
			c-0.5,1-0.9,2.1-1.1,3.4c-0.6,0.2-1.1,0.4-1.7,0.7C188,176.4,187.8,175.4,187.9,174.2z M211.9,234.5c-1,0.3-2.6,1-4.3,2.1
			c2.4-3.1,4.9-4.9,6.4-6.3c0.7,1.1,1.7,2.3,2.8,3.3C215.3,233.6,213.7,233.8,211.9,234.5z M224.3,288.6c0.8,0.1,1.8,0,2.6-0.2
			c-0.3,0.5-0.5,1-0.7,1.6C225.6,289.7,225,289.3,224.3,288.6z M241.9,299.1c0.1,0,0.1,0,0.2-0.1c0.2,0.5,0.5,1.1,0.9,1.5
			c-0.2,0.5-0.4,0.9-0.6,1.4C242.6,301,242.3,299.9,241.9,299.1z M242.2,302.7c0,0,0,0.1,0,0.1C242.1,302.8,242.1,302.8,242.2,302.7
			C242.2,302.7,242.2,302.7,242.2,302.7z M242.1,308.9c0-0.1,0.1-0.2,0.1-0.3c0.2,0.4,0.4,0.9,0.7,1.3
			C242.6,309.7,242.3,309.3,242.1,308.9z M255.8,314.4c0.2,0.5,0.5,1.1,0.9,1.5c-0.4,0.8-0.7,1.5-0.9,2.2c-0.9-1.5-2.4-2.6-3.7-2.9
			c0.1-0.1,0.1-0.2,0.1-0.3C253.6,315.1,254.9,314.9,255.8,314.4z M242.8,273.6c-0.2,0.1-0.5,0.2-0.7,0.2c0,0,0-0.1-0.1-0.1
			c-0.4-0.5-1.1-0.5-2.6-0.6c-0.8,0-1.5,0-2.2,0.1c-0.4-0.1-0.8-0.2-1.2-0.3c-1.2-0.4-2.2-0.8-2.6-0.2c0,0,0,0.1-0.1,0.1
			c-2.3,0-5,0.2-8.1-0.6c-1.4-0.4-2.5-0.9-3.4-1.4c1.3-1.6,2.4-3.2,3.4-4.6c0.2,0.1,0.5,0.2,0.7,0.3c4.2,1.8,9.4,0.6,12.7-2.3
			c1.4,2,3.3,3.8,5.4,5.2c0,0.6,0,1.3,0.1,2.2c0,0.1,0.1,0.5,0.1,1.1C243.8,273,243.4,273.4,242.8,273.6z M256.2,270.6
			c0-0.2,0.1-0.5,0.1-0.7c1.4-1.1,2.5-2.5,3.1-3.8c0.7,0.4,1.7,0.8,2.5,0.8c0.3,1.3,0.8,2.5,1.2,3.4
			C260.8,269.6,258.1,269.8,256.2,270.6z M281.5,259.5c-0.6,0.3-0.7,1-1,2.4c-0.1,0.6-0.2,1.2-0.2,1.8c-0.1,0.1-0.3,0.2-0.5,0.3
			c-3.4,2.2-8.6-1.4-12.6-3.3c4.3-4,3.7-11.9,2.6-15c0.6,0,1.2-0.1,1.8-0.3c0.8-0.2,2.9-0.7,4.4-2.2c-0.1,0.4-0.1,0.9-0.1,1.3
			c0,0.3,0,0.6,0.1,1c-2,1.2-3.5,2.4-3.7,4.3c-0.2,2,1.2,3.6,1.3,3.7c2.2,2.3,6.3,1.7,8.1,1c0,0,0.1,0,0.1,0
			c2.3,1.8,4.7,2.9,6.4,2.5c1.2-0.3,2.2-1.5,2.1-2.2c1.7-0.3,3.7-1.1,5.1-2.5c2.7-2.5,3.2-6.5,2.6-10.1c0.4,0.2,0.9,0.3,1.3,0.4
			c0.2,0.7,0.3,1.5,0.5,2.3c0.8,4.4,0.3,5.6,1,6.4c0,0,0,0,0,0c-0.3-0.2-0.5-0.3-0.8-0.4c-0.1,0-0.5,0-1.1,0.4
			c-1.6,1-2.1,2.7-2.4,4.8c-1,0.9-2.2,1.8-3.5,2.8c-2.1,1.4-4.2,2.4-5.6,3.7C285,260.2,282.7,258.8,281.5,259.5z M292.9,279.7
			c-0.4,0.2-0.7,0.4-1,0.5c-0.4-0.6-1-1.6-1.8-2.3c1-0.6,1.9-1.3,2.6-2c0.5,0.4,1,0.9,1.6,1.2c0,0.1,0,0.1,0,0.2
			c-0.1,0.5-0.2,1-0.2,1.5C293.8,279.1,293.4,279.4,292.9,279.7z M306.5,291.3c0.7,0.6,1.5,1.3,2.5,1.8c-0.5,0.6-1.2,1.4-2.3,2
			c-0.4,0.2-0.7,0.4-1,0.5c-0.4-0.6-1-1.6-1.8-2.3C304.8,292.7,305.7,292,306.5,291.3z M310.9,248.2c0.7,0.6,1.5,1.3,2.5,1.8
			c-0.5,0.6-1.2,1.4-2.3,2c-0.4,0.2-0.7,0.4-1,0.5c-0.4-0.6-1-1.6-1.8-2.3C309.2,249.6,310.1,249,310.9,248.2z M315.7,206.6
			c-0.3,0-1.9-0.2-3.2,0.8c-2.1-1.1-4.8-1.3-7.5-1c1-0.6,2.1-1.1,3.6-1.3c1.6-0.2,2.5,0.1,2.8-0.4c0.6-1.1-1.9-4.4-5.1-5.4
			c-1.1-0.4-2.3-0.4-3.4-0.3c0.1-0.3,0.1-0.6,0.1-0.9c1-0.5,1.7-1.5,1.5-2.1c-0.2-0.7-1.5-0.6-2.8-1.3c-0.5-0.8-1.1-1.4-1.6-1.8
			c0,0-0.1-0.1-0.1-0.1c-0.5-1.3-0.2-2.8-0.9-5.3c-0.2-0.5-0.4-1.1-0.7-1.7c0.1,0,0.2,0,0.2,0.1c1.2,0.8,2.7,1.4,4.2,1.5
			c0.1,0,0.3,0,0.4,0c0,0.7,0.1,1.8,0.8,2.6c2,2.5,7,1.2,7,0.6c0-0.3-1.1-0.2-1.8-1.1c-0.9-1.2,0.1-3.2,0.8-4.8
			c0.4-0.4,0.8-0.8,1.1-1.2c0.8-0.1,1.6-0.2,2.2-0.4c1.5-0.4,3.4-1.4,4.2-2.4c0.5,0.4,1.1,0.7,1.6,1.1c0,0.4,0,0.8,0,1.2
			c-0.1,3.3-0.7,6.1,0,8.1c-0.5-0.3-1-0.7-1.2-1.3c-0.8-1.7,0.7-3.5,0.1-3.9c-0.6-0.4-2.9,0.8-3.6,2.9c-0.8,2.2,0.4,4.8,2.3,5.9
			c0.1,0.1,0.5,0.3,0.9,0.4c-0.5,0.4-1.2,0.9-2.3,1.2c-1,0.3-1.1,0-2.4,0.2c-0.3,0.1-3.9,0.7-4.1,2c-0.1,1.1,2,2.4,3.9,2.8
			c1.2,0.3,2.7,0.2,4-0.3c-0.2,0.4-0.3,0.8-0.4,1.2c-0.3,1.4-0.2,3.1,0.4,4.6C316.5,206.8,316.1,206.7,315.7,206.6z M321.3,211.3
			c-0.3-0.2-0.7-0.3-1.1-0.3c-0.2-0.5-0.4-1-0.6-1.4c1.1,0.3,2.3,0.1,3-0.4c0,0.1,0,0.1,0.1,0.2C322,210,321.5,210.7,321.3,211.3z
			 M322.9,206.9c-0.1,0.1-0.1,0.2-0.1,0.4c-0.1-0.1-0.2-0.2-0.2-0.3C322.6,207,322.7,207,322.9,206.9z M337.9,180.1
			c0,0.4-0.1,0.8-0.2,1.1c-0.8-0.1-1.9-0.1-2.9,0.1c0-0.1,0-0.1,0-0.2c0.5-1,0.9-2.1,1.1-3.4c0.6-0.2,1.1-0.4,1.7-0.7
			C337.8,177.8,338,178.8,337.9,180.1z"/>
	</g>
</g>
<g>
	<g>
		<g>
			<g>
				<path class="st3" d="M321.8,115.3c-3.4-0.7-9.4-1.9-13.1,1.1c0.7-3.2,0.7-6.1,0.6-7.8c-0.1-2.5-0.4-2-0.4-3.8
					c-0.1-5.5,2.1-8.2,0.9-9.4c-1.2-1.3-4.8,0.3-5.2,0.4c-4,1.8-6.6,5.9-7.2,10.1c-0.5,3.2,0.4,5.8,1.4,8.2c-1.1-1.5-2.4-3-3.9-4.4
					c-0.8-0.7-9.1-8.7-12.3-6.6c-1.5,1-0.4,3.3-2.8,6.1c-1.7,2.1-3.6,2.4-3.6,3.4c0.1,1.2,3.2,1.6,5.8,2.3c7,1.8,10.9,5.8,14.1,7.6
					c-2.8,0.4-6.6,2-9.5,6.1c-1.3,1.9-4.6,6.4-3.3,12.6c0.4,1.7,1.6,5.8,3.3,6.1c2.3,0.5,1.7-6.1,7.2-11.8c0.7-0.8,1.5-1.4,2.3-2.1
					c-0.7,1.5-1.1,3-1.3,4.8c-0.4,5.4,2.5,9.2,3.7,10.7c3.1,4.1,8.7,7.7,10.7,6.2c1.9-1.4-1.9-6-1.6-14.9c0.2-5.1,1.6-8.8,2.1-11.4
					c4.7,2.1,12.2,1.9,17.5,1.8c6.3-0.2,12.7-0.4,13.4-3C341.7,124.2,331.7,117.3,321.8,115.3z M300.3,128.3
					c0.1-0.3,0.2-0.5,0.3-0.8c0.2-0.9,0.8-2.8-0.2-4c0,0,0,0-0.1-0.1c0.2,0,0.3-0.1,0.5-0.2c0.6-0.2,1.5-0.7,2.5-2
					c0-0.1-0.1-0.1-0.1-0.2c1.3,1.4,1.8,1.7,2.4,1.7c0,0,0,0,0,0c-0.1,0.9,0.1,1.9,0.4,2.8c-1,0.3-2,0.7-2.7,1.1
					C302.2,126.9,301.2,127.5,300.3,128.3z"/>
			</g>
		</g>
		<g>
			<g>
				<path class="st3" d="M222.4,125.8c-2.1-2.1-5.8-6-9.9-5.7c2.1-1.9,3.5-4,4.3-5.3c1.1-1.9,0.7-1.6,1.6-2.9c2.7-4,5.5-4.8,5.3-6.3
					c-0.2-1.6-3.6-2.2-4-2.2c-3.7-0.7-7.7,1-10.2,3.7c-1.9,2.1-2.6,4.4-3,6.6c-0.1-1.6-0.3-3.3-0.7-5.1c-0.2-0.9-2.3-10.7-5.5-10.8
					c-1.6-0.1-1.9,2.2-5,3c-2.3,0.7-3.8-0.1-4.2,0.7c-0.5,0.9,1.5,2.7,3,4.5c4.1,4.8,5,9.5,6.4,12.4c-2.2-1.1-5.7-1.8-9.8-0.3
					c-1.9,0.7-6.5,2.3-8.6,7.4c-0.6,1.4-1.7,4.9-0.7,6c1.4,1.5,4.3-3.6,11-4.9c0.9-0.2,1.8-0.3,2.7-0.4c-1.2,0.7-2.3,1.6-3.3,2.8
					c-3,3.7-2.7,7.9-2.6,9.5c0.2,4.5,2.5,9.8,4.6,9.8c2.1-0.1,1.6-5.2,6.2-11.5c2.6-3.6,5.5-5.6,7.1-7.1c2.3,3.8,7.8,7.4,11.7,9.9
					c4.6,3,9.3,6,11.1,4.5C232.3,142,228.6,132.1,222.4,125.8z M200.6,124.5c0.2-0.1,0.4-0.3,0.6-0.4c0.6-0.5,2-1.7,1.9-3
					c0,0,0,0,0-0.1c0.1,0,0.3,0.1,0.4,0.1c0.5,0.1,1.4,0.2,2.8-0.3c0-0.1,0-0.1,0-0.2c0.2,1.6,0.5,2.2,0.9,2.4c0,0,0,0,0,0
					c-0.5,0.7-0.9,1.4-1.1,2.2c-0.9-0.3-1.8-0.5-2.5-0.6C202.7,124.5,201.6,124.4,200.6,124.5z"/>
			</g>
		</g>
		<g>
			<g>
				<path class="st3" d="M303,160.2c-2.1-0.5-4,6.4-8,6.4c-1.6,0-2.1-1.1-4.2-1.4c1.7-0.6,2.9-2.2,4.9-4.8c1.6-2.2,2.6-3.4,2.6-5.3
					c0-1.8-0.7-4-1.8-4.1c-1.4-0.2-1.5,3.8-4.7,5.7c-2.9,1.7-5.5-0.1-7.1,1.5c-3-5.2-12.9-8.9-16.1-6.5c-1.1,0.8-1.7,2.4-1.1,3.1
					c0.7,0.8,2.6-0.5,4.7,0.7c1.8,1,1.7,2.8,3.7,5.4c0.9,1.1,2.2,2.4,3.5,3.3c-2.2,1-5,4-8.7,3.4c-3.6-0.5-5.5-3.8-6.9-2.9
					c-0.8,0.5-0.8,2-0.6,2.9c0.8,4.2,7.4,7.8,13.1,6.4c0.8-0.2,3-0.7,4.6-2.3c-0.1,0.4-0.1,0.9-0.1,1.3c0.2,6.2,8.7,14,12.8,12.9
					c1.3-0.3,2.4-1.6,2.1-2.5c-0.3-1-2.6-0.5-4.1-2.3c-1.3-1.6-0.5-3.2-1.5-6.3c-0.2-0.6-0.4-1.3-0.7-1.9c1.3,0.9,2.9,1.6,4.7,1.8
					c5,0.5,9.8-3.6,10.6-8C305.2,163.8,304.4,160.5,303,160.2z M284.8,167.4c-0.8-0.1-1.5,0.1-2.1,0.7c0.1-0.9,0.1-1.8-0.1-2.6
					c0.4,0.1,0.7,0.1,1,0c0.8-0.2,1.4-0.7,1.7-1.5c0.6,0.7,1.4,1,2.1,1.2c-0.9,0.2-1.6,0.5-1.9,1.1c-0.1,0.3-0.2,0.8,0,1.3
					C285.2,167.5,285,167.4,284.8,167.4z"/>
			</g>
		</g>
		<g>
			<g>
				<path class="st3" d="M279.2,116c-2.1-0.5-4,6.4-8,6.4c-1.6,0-2.1-1.1-4.2-1.4c1.7-0.6,2.9-2.2,4.9-4.8c1.6-2.2,2.6-3.4,2.6-5.3
					c0-1.8-0.7-4-1.8-4.1c-1.4-0.2-1.5,3.8-4.7,5.7c-2.9,1.7-5.5-0.1-7.1,1.5c-3-5.2-12.9-8.9-16.1-6.5c-1.1,0.8-1.7,2.4-1.1,3.1
					c0.7,0.8,2.6-0.5,4.7,0.7c1.8,1,1.7,2.8,3.7,5.4c0.9,1.1,2.2,2.4,3.5,3.3c-2.2,1-5,4-8.7,3.4c-3.6-0.5-5.5-3.8-6.9-2.9
					c-0.8,0.5-0.8,2-0.6,2.9c0.8,4.2,7.4,7.8,13.1,6.4c0.8-0.2,3-0.7,4.6-2.3c-0.1,0.4-0.1,0.9-0.1,1.3c0.2,6.2,8.7,14,12.8,12.9
					c1.3-0.3,2.4-1.6,2.1-2.5c-0.3-1-2.6-0.5-4.1-2.3c-1.3-1.6-0.5-3.2-1.5-6.3c-0.2-0.6-0.4-1.3-0.7-1.9c1.3,0.9,2.9,1.6,4.7,1.8
					c5,0.5,9.8-3.6,10.6-8C281.3,119.6,280.6,116.3,279.2,116z M260.9,123.1c-0.8-0.1-1.5,0.1-2.1,0.7c0.1-0.9,0.1-1.8-0.1-2.6
					c0.4,0.1,0.7,0.1,1,0c0.8-0.2,1.4-0.7,1.7-1.5c0.6,0.7,1.4,1,2.1,1.2c-0.9,0.2-1.6,0.5-1.9,1.1c-0.1,0.3-0.2,0.8,0,1.3
					C261.4,123.3,261.1,123.2,260.9,123.1z"/>
			</g>
		</g>
		<g>
			<g>
				<path class="st3" d="M288.3,81.8c-3.1-1-6.4,0.2-8.8,2.1c-0.1-0.8-0.4-1.6-1-2.2c-1.1-1.4-3.3-2.2-5.1-1.6
					c-0.8,0.3-1.5,0.8-2,1.4c-2.5-3-7.2-4.1-10.6-3.7c-0.5,0.1-4.3,0.5-4.8,2.4c-0.3,1.4,1.2,2.8,1.8,3.3c0.5,0.4,0.9,0.8,1.4,1.1
					c-5,1.5-9.3,6.5-8.5,8.3c0,0.1,0.2,0.4,0.8,0.7c3.1,1.7,6.3-1.7,12-2.1c1.3-0.1,2.3,0,3.2,0.1c-1.8,5.8-2.9,10.9-1.2,11.8
					c0.5,0.3,1.1,0.1,2.3-0.2c3.1-0.9,4.1-2.7,7.5-5.3c3-2.3,4.1-2.4,4.4-3.3c2.2,0.3,5.4,0.8,9.2,2.7c3.2,1.6,5.7,3.6,7.9,2.7
					c1.6-0.6,2.2-2.4,2.2-2.5c0.8-2.6-1.6-5.4-2.8-6.5c-2.3-2-5.9-2.4-9.3-2c1-0.6,2.2-1.1,3.8-1.3c1.7-0.2,2.6,0.1,2.9-0.5
					C294.1,86.2,291.5,82.8,288.3,81.8z M273.1,86c0.7,0.1,1.6,0.4,2.6,0.9c0.3,0.2,0.6,0.4,0.9,0.5c-0.3,0.6-0.7,1.4-0.9,2.3
					c-0.9-0.5-1.8-0.9-2.7-1.1C273,87.8,273.1,86.9,273.1,86z"/>
			</g>
		</g>
		<g>
			<g>
				<path class="st3" d="M202.2,59.1c0.7,5.4,5,9.5,9.8,11.8c-1.2,0.7-2.2,1.7-2.9,3c-1.4,2.7-1.1,6.5,1.2,8.9
					c1,1.1,2.4,1.8,3.8,2.1c-2.9,5.8-1.3,13.7,1.8,18.6c0.5,0.8,3.9,6.3,7.3,5.6c2.4-0.5,3.6-3.8,4-5c0.4-1,0.6-2,0.7-2.9
					c6,6.6,17.1,9.6,19.4,7.1c0.1-0.1,0.4-0.5,0.5-1.6c0.4-5.9-7.3-8.4-12.1-16.7c-1.1-1.9-1.7-3.5-2.1-5
					c10.5-1.2,19.4-3.2,19.7-6.4c0.1-0.9-0.6-1.7-2.1-3.3c-3.8-4.1-7.3-4.4-13.9-7.7c-5.9-2.9-6.9-4.5-8.4-4.3
					c-1.2-3.5-2.6-8.7-2.3-15.9c0.2-6,1.6-11.1-1.4-13.9c-2.2-2-5.3-1.7-5.6-1.6c-4.7,0.6-7.5,6.1-8.3,8.8c-1.5,5,0.4,10.6,3.6,15.4
					c-1.7-1.1-3.4-2.6-4.8-4.8c-1.5-2.4-1.7-4.1-2.8-4.1C205,47.1,201.5,53.4,202.2,59.1z M220,79.3c-0.3-1.2-0.6-2.6-0.4-4.5
					c0-0.7,0.1-1.2,0.2-1.7c1.1,0.1,2.8,0.1,4.3-0.2c-0.1,1.7-0.1,3.4,0.1,4.9C222.9,78.1,221.4,78.6,220,79.3z"/>
			</g>
		</g>
		<g>
			<g>
				<path class="st3" d="M231.8,230.7c-2.1-2.1-5.8-6-9.9-5.7c2.1-1.9,3.5-4,4.3-5.3c1.1-1.9,0.7-1.6,1.6-2.9c2.7-4,5.5-4.8,5.3-6.3
					c-0.2-1.6-3.6-2.2-4-2.2c-3.7-0.7-7.7,1-10.2,3.7c-1.9,2.1-2.6,4.4-3,6.6c-0.1-1.6-0.3-3.3-0.7-5.1c-0.2-0.9-2.3-10.7-5.5-10.8
					c-1.6-0.1-1.9,2.2-5,3c-2.3,0.7-3.8-0.1-4.2,0.7c-0.5,0.9,1.5,2.7,3,4.5c4.1,4.8,5,9.5,6.4,12.4c-2.2-1.1-5.7-1.8-9.8-0.3
					c-1.9,0.7-6.5,2.3-8.6,7.4c-0.6,1.4-1.7,4.9-0.7,6c1.4,1.5,4.3-3.6,11-4.9c0.9-0.2,1.8-0.3,2.7-0.4c-1.2,0.7-2.3,1.6-3.3,2.8
					c-3,3.7-2.7,7.9-2.6,9.5c0.2,4.5,2.5,9.8,4.6,9.8c2.1-0.1,1.6-5.2,6.2-11.5c2.6-3.6,5.5-5.6,7.1-7.1c2.3,3.8,7.8,7.4,11.7,9.9
					c4.6,3,9.3,6,11.1,4.5C241.7,246.9,237.9,237,231.8,230.7z M210,229.4c0.2-0.1,0.4-0.3,0.6-0.4c0.6-0.5,2-1.7,1.9-3
					c0,0,0,0,0-0.1c0.1,0,0.3,0.1,0.4,0.1c0.5,0.1,1.4,0.2,2.8-0.3c0-0.1,0-0.1,0-0.2c0.2,1.6,0.5,2.2,0.9,2.4c0,0,0,0,0,0
					c-0.5,0.7-0.9,1.4-1.1,2.2c-0.9-0.3-1.8-0.5-2.5-0.6C212,229.4,211,229.3,210,229.4z"/>
			</g>
		</g>
		<g>
			<g>
				<path class="st3" d="M288.6,220.9c-2.1-0.5-4,6.4-8,6.4c-1.6,0-2.1-1.1-4.2-1.4c1.7-0.6,2.9-2.2,4.9-4.8
					c1.6-2.2,2.6-3.4,2.6-5.3c0-1.8-0.7-4-1.8-4.1c-1.4-0.2-1.5,3.8-4.7,5.7c-2.9,1.7-5.5-0.1-7.1,1.5c-3-5.2-12.9-8.9-16.1-6.5
					c-1.1,0.8-1.7,2.4-1.1,3.1c0.7,0.8,2.6-0.5,4.7,0.7c1.8,1,1.7,2.8,3.7,5.4c0.9,1.1,2.2,2.4,3.5,3.3c-2.2,1-5,4-8.7,3.4
					c-3.6-0.5-5.5-3.8-6.9-2.9c-0.8,0.5-0.8,2-0.6,2.9c0.8,4.2,7.4,7.8,13.1,6.4c0.8-0.2,3-0.7,4.6-2.3c-0.1,0.4-0.1,0.9-0.1,1.3
					c0.2,6.2,8.7,14,12.8,12.9c1.3-0.3,2.4-1.6,2.1-2.5c-0.3-1-2.6-0.5-4.1-2.3c-1.3-1.6-0.5-3.2-1.5-6.3c-0.2-0.6-0.4-1.3-0.7-1.9
					c1.3,0.9,2.9,1.6,4.7,1.8c5,0.5,9.8-3.6,10.6-8C290.7,224.5,289.9,221.2,288.6,220.9z M270.3,228c-0.8-0.1-1.5,0.1-2.1,0.7
					c0.1-0.9,0.1-1.8-0.1-2.6c0.4,0.1,0.7,0.1,1,0c0.8-0.2,1.4-0.7,1.7-1.5c0.6,0.7,1.4,1,2.1,1.2c-0.9,0.2-1.6,0.5-1.9,1.1
					c-0.1,0.3-0.2,0.8,0,1.3C270.7,228.1,270.5,228.1,270.3,228z"/>
			</g>
		</g>
		<g>
			<g>
				<path class="st3" d="M297.6,186.7c-3.1-1-6.4,0.2-8.8,2.1c-0.1-0.8-0.4-1.6-1-2.2c-1.1-1.4-3.3-2.2-5.1-1.6
					c-0.8,0.3-1.5,0.8-2,1.4c-2.5-3-7.2-4.1-10.6-3.7c-0.5,0.1-4.3,0.5-4.8,2.4c-0.3,1.4,1.2,2.8,1.8,3.3c0.5,0.4,0.9,0.8,1.4,1.1
					c-5,1.5-9.3,6.5-8.5,8.3c0,0.1,0.2,0.4,0.8,0.7c3.1,1.7,6.3-1.7,12-2.1c1.3-0.1,2.3,0,3.2,0.1c-1.8,5.8-2.9,10.9-1.2,11.8
					c0.5,0.3,1.1,0.1,2.3-0.2c3.1-0.9,4.1-2.7,7.5-5.3c3-2.3,4.1-2.4,4.4-3.3c2.2,0.3,5.4,0.8,9.2,2.7c3.2,1.6,5.7,3.6,7.9,2.7
					c1.6-0.6,2.2-2.4,2.2-2.5c0.8-2.6-1.6-5.4-2.8-6.5c-2.3-2-5.9-2.4-9.3-2c1-0.6,2.2-1.1,3.8-1.3c1.7-0.2,2.6,0.1,2.9-0.5
					C303.5,191.1,300.9,187.7,297.6,186.7z M282.4,190.9c0.7,0.1,1.6,0.4,2.6,0.9c0.3,0.2,0.6,0.4,0.9,0.5c-0.3,0.6-0.7,1.4-0.9,2.3
					c-0.9-0.5-1.8-0.9-2.7-1.1C282.4,192.7,282.5,191.8,282.4,190.9z"/>
			</g>
		</g>
		<g>
			<g>
				<path class="st3" d="M266.1,4.4c-4.7,0.6-8.3,4.2-10.3,8.3c-0.6-1-1.5-1.8-2.7-2.4c-2.4-1.1-5.7-0.8-7.7,1.1
					c-0.9,0.9-1.5,2-1.8,3.2c-5.1-2.4-12-1-16.3,1.7c-0.7,0.4-5.4,3.4-4.8,6.2c0.4,2,3.3,2.9,4.4,3.3c0.9,0.3,1.7,0.5,2.5,0.6
					c-5.7,5.1-8.2,14.4-6.1,16.3c0.1,0.1,0.5,0.4,1.4,0.4c5.2,0.3,7.2-6.2,14.5-10.3c1.6-0.9,3.1-1.5,4.4-1.8
					c1.2,8.7,3,16.2,5.8,16.4c0.8,0.1,1.5-0.5,2.9-1.7c3.6-3.2,3.8-6.2,6.6-11.7c2.5-4.9,3.9-5.8,3.7-7.1c3-1,7.6-2.3,13.9-2.1
					c5.3,0.1,9.7,1.2,12.2-1.4c1.8-1.9,1.4-4.5,1.4-4.7c-0.6-3.9-5.4-6.2-7.8-6.8c-4.4-1.2-9.2,0.5-13.5,3.1c1-1.5,2.2-2.9,4.1-4.1
					c2.1-1.3,3.5-1.5,3.6-2.4C276.6,6.6,271,3.7,266.1,4.4z M248.6,19.4c1-0.3,2.3-0.5,3.9-0.4c0.6,0,1.1,0.1,1.5,0.2
					c-0.1,0.9-0.1,2.3,0.2,3.6c-1.5-0.1-2.9,0-4.3,0.2C249.7,21.8,249.3,20.6,248.6,19.4z"/>
			</g>
		</g>
		<g>
			<g>
				<path class="st3" d="M289,45.2c-0.2-1.8-1.6-3.1-3.1-3.8c0.4-0.2,0.7-0.6,0.9-1c0.4-0.9,0.3-2.1-0.4-2.9
					c-0.3-0.4-0.8-0.6-1.2-0.7c0.9-1.9,0.4-4.5-0.6-6.1c-0.2-0.3-1.3-2-2.3-1.8c-0.7,0.2-1.1,1.2-1.2,1.7c-0.1,0.3-0.2,0.6-0.2,1
					c-1.9-2.1-5.4-3.1-6.1-2.3c0,0-0.1,0.2-0.2,0.5c-0.1,1.9,2.3,2.7,3.8,5.4c0.3,0.6,0.5,1.2,0.7,1.6c-3.3,0.4-6.1,1.1-6.2,2.2
					c0,0.3,0.2,0.6,0.7,1.1c1.2,1.3,2.3,1.4,4.4,2.5c1.9,0.9,2.2,1.5,2.7,1.4c0.4,1.1,0.8,2.8,0.8,5.2c-0.1,2-0.5,3.6,0.5,4.6
					c0.7,0.7,1.7,0.5,1.8,0.5c1.5-0.2,2.3-2,2.6-2.9c0.5-1.6-0.2-3.5-1.2-5.1c0.5,0.4,1.1,0.8,1.5,1.6c0.5,0.8,0.5,1.3,0.9,1.3
					C288.2,49.1,289.3,47,289,45.2z M283.4,38.6c0.1,0.4,0.2,0.9,0.2,1.5c0,0.2,0,0.4-0.1,0.5c-0.4,0-0.9,0-1.4,0.1
					c0-0.5,0-1.1-0.1-1.6C282.5,39,282.9,38.9,283.4,38.6z"/>
			</g>
		</g>
		<g>
			<g>
				<path class="st3" d="M327.6,95.9c-1.4-1.1-3.3-1.1-4.9-0.5c0.1-0.4,0.1-0.9-0.1-1.3c-0.3-0.9-1.3-1.7-2.3-1.8
					c-0.5,0-0.9,0.1-1.3,0.4c-0.7-2-2.9-3.4-4.8-3.9c-0.3-0.1-2.3-0.6-2.9,0.4c-0.4,0.6,0.1,1.7,0.3,2.1c0.2,0.3,0.3,0.6,0.5,0.8
					c-2.9-0.2-6,1.6-5.9,2.7c0,0.1,0,0.2,0.3,0.5c1.3,1.5,3.6,0.3,6.6,1.1c0.7,0.2,1.2,0.4,1.6,0.7c-2,2.6-3.5,5.1-2.8,5.9
					c0.2,0.2,0.5,0.3,1.2,0.3c1.8,0.1,2.6-0.6,4.8-1.4c2-0.7,2.6-0.5,2.9-0.9c1.1,0.5,2.6,1.4,4.2,3.1c1.4,1.4,2.2,2.9,3.6,2.9
					c1,0,1.6-0.8,1.6-0.9c0.9-1.2,0.2-3.1-0.3-3.9c-0.8-1.5-2.6-2.3-4.4-2.7c0.6-0.1,1.3-0.2,2.2,0c0.9,0.2,1.3,0.5,1.6,0.3
					C329.8,99.3,329.1,97,327.6,95.9z M319,95.3c0.3,0.2,0.7,0.5,1.2,0.9c0.1,0.2,0.3,0.3,0.3,0.4c-0.3,0.2-0.6,0.6-0.9,1
					c-0.4-0.4-0.8-0.8-1.2-1.1C318.6,96.2,318.8,95.7,319,95.3z"/>
			</g>
		</g>
		<g>
			<g>
				<path class="st3" d="M303.7,17.8c-1.4-1.1-3.3-1.1-4.9-0.5c0.1-0.4,0.1-0.9-0.1-1.3c-0.3-0.9-1.3-1.7-2.3-1.8
					c-0.5,0-0.9,0.1-1.3,0.4c-0.7-2-2.9-3.4-4.8-3.9c-0.3-0.1-2.3-0.6-2.9,0.4c-0.4,0.6,0.1,1.7,0.3,2.1c0.2,0.3,0.3,0.6,0.5,0.8
					c-2.9-0.2-6,1.6-5.9,2.7c0,0.1,0,0.2,0.3,0.5c1.3,1.5,3.6,0.3,6.6,1.1c0.7,0.2,1.2,0.4,1.6,0.7c-2,2.6-3.5,5.1-2.8,5.9
					c0.2,0.2,0.5,0.3,1.2,0.3c1.8,0.1,2.6-0.6,4.8-1.4c2-0.7,2.6-0.5,2.9-0.9c1.1,0.5,2.6,1.4,4.2,3.1c1.4,1.4,2.2,2.9,3.6,2.9
					c1,0,1.6-0.8,1.6-0.9c0.9-1.2,0.2-3.1-0.3-3.9c-0.8-1.5-2.6-2.3-4.4-2.7c0.6-0.1,1.3-0.2,2.2,0c0.9,0.2,1.3,0.5,1.6,0.3
					C305.9,21.2,305.2,18.9,303.7,17.8z M295.1,17.1c0.3,0.2,0.7,0.5,1.2,0.9c0.1,0.2,0.3,0.3,0.3,0.4c-0.3,0.2-0.6,0.6-0.9,1
					c-0.4-0.4-0.8-0.8-1.2-1.1C294.8,18.1,295,17.6,295.1,17.1z"/>
			</g>
		</g>
		<g>
			<g>
				<path class="st3" d="M257.2,52.2c1.4-1.1,3.3-1.1,4.9-0.5c-0.1-0.4-0.1-0.9,0.1-1.3c0.3-0.9,1.3-1.7,2.3-1.8
					c0.5,0,0.9,0.1,1.3,0.4c0.7-2,2.9-3.4,4.8-3.9c0.3-0.1,2.3-0.6,2.9,0.4c0.4,0.6-0.1,1.7-0.3,2.1c-0.2,0.3-0.3,0.6-0.5,0.8
					c2.9-0.2,6,1.6,5.9,2.7c0,0.1,0,0.2-0.3,0.5c-1.3,1.5-3.6,0.3-6.6,1.1c-0.7,0.2-1.2,0.4-1.6,0.7c2,2.6,3.5,5.1,2.8,5.9
					c-0.2,0.2-0.5,0.3-1.2,0.3c-1.8,0.1-2.6-0.6-4.8-1.4c-2-0.7-2.6-0.5-2.9-0.9c-1.1,0.5-2.6,1.4-4.2,3.1c-1.4,1.4-2.2,2.9-3.6,2.9
					c-1,0-1.6-0.8-1.6-0.9c-0.9-1.2-0.2-3.1,0.3-3.9c0.8-1.5,2.6-2.3,4.4-2.7c-0.6-0.1-1.3-0.2-2.2,0c-0.9,0.2-1.3,0.5-1.6,0.3
					C255,55.6,255.7,53.4,257.2,52.2z M265.8,51.6c-0.3,0.2-0.7,0.5-1.2,0.9c-0.1,0.2-0.3,0.3-0.3,0.4c0.3,0.2,0.6,0.6,0.9,1
					c0.4-0.4,0.8-0.8,1.2-1.1C266.2,52.5,266,52.1,265.8,51.6z"/>
			</g>
		</g>
		<g>
			<g>
				<path class="st3" d="M186,87.9c1.4-1.1,3.3-1.1,4.9-0.5c-0.1-0.4-0.1-0.9,0.1-1.3c0.3-0.9,1.3-1.7,2.3-1.8
					c0.5,0,0.9,0.1,1.3,0.4c0.7-2,2.9-3.4,4.8-3.9c0.3-0.1,2.3-0.6,2.9,0.4c0.4,0.6-0.1,1.7-0.3,2.1c-0.2,0.3-0.3,0.6-0.5,0.8
					c2.9-0.2,6,1.6,5.9,2.7c0,0.1,0,0.2-0.3,0.5c-1.3,1.5-3.6,0.3-6.6,1.1c-0.7,0.2-1.2,0.4-1.6,0.7c2,2.6,3.5,5.1,2.8,5.9
					c-0.2,0.2-0.5,0.3-1.2,0.3c-1.8,0.1-2.6-0.6-4.8-1.4c-2-0.7-2.6-0.5-2.9-0.9c-1.1,0.5-2.6,1.4-4.2,3.1c-1.4,1.4-2.2,2.9-3.6,2.9
					c-1,0-1.6-0.8-1.6-0.9c-0.9-1.2-0.2-3.1,0.3-3.9c0.8-1.5,2.6-2.3,4.4-2.7c-0.6-0.1-1.3-0.2-2.2,0c-0.9,0.2-1.3,0.5-1.6,0.3
					C183.8,91.2,184.5,89,186,87.9z M194.6,87.2c-0.3,0.2-0.7,0.5-1.2,0.9c-0.1,0.2-0.3,0.3-0.3,0.4c0.3,0.2,0.6,0.6,0.9,1
					c0.4-0.4,0.8-0.8,1.2-1.1C195,88.2,194.8,87.7,194.6,87.2z"/>
			</g>
		</g>
		<g>
			<g>
				<path class="st3" d="M229.7,161.6c0.5,3.8,3.5,6.7,6.9,8.3c-0.8,0.5-1.5,1.2-2,2.1c-1,1.9-0.8,4.5,0.9,6.2
					c0.7,0.8,1.7,1.2,2.6,1.5c-2,4.1-0.9,9.6,1.2,13c0.3,0.5,2.8,4.4,5.2,3.9c1.7-0.3,2.5-2.6,2.8-3.5c0.3-0.7,0.4-1.4,0.5-2
					c4.2,4.6,12,6.7,13.6,5c0.1-0.1,0.3-0.4,0.4-1.1c0.3-4.2-5.2-5.9-8.5-11.7c-0.7-1.3-1.2-2.5-1.5-3.5c7.4-0.9,13.6-2.2,13.8-4.5
					c0.1-0.7-0.4-1.2-1.4-2.3c-2.7-2.9-5.1-3.1-9.8-5.4c-4.1-2-4.8-3.2-5.9-3c-0.8-2.5-1.8-6.1-1.6-11.1c0.2-4.2,1.1-7.8-1-9.8
					c-1.6-1.4-3.7-1.2-3.9-1.1c-3.3,0.4-5.2,4.3-5.8,6.2c-1.1,3.5,0.3,7.4,2.5,10.8c-1.2-0.8-2.4-1.8-3.4-3.4
					c-1.1-1.7-1.2-2.8-2-2.9C231.6,153.2,229.2,157.6,229.7,161.6z M242.1,175.8c-0.2-0.8-0.4-1.8-0.3-3.1c0-0.5,0.1-0.8,0.2-1.2
					c0.8,0.1,2,0.1,3-0.1c-0.1,1.2-0.1,2.4,0.1,3.4C244.2,174.9,243.1,175.3,242.1,175.8z"/>
			</g>
		</g>
		<g>
			<g>
				<path class="st3" d="M342.5,177.7c-0.5-3.8-3.5-6.7-6.9-8.3c0.8-0.5,1.5-1.2,2-2.1c1-1.9,0.8-4.5-0.9-6.2
					c-0.7-0.8-1.7-1.2-2.6-1.5c2-4.1,0.9-9.6-1.2-13c-0.3-0.5-2.8-4.4-5.2-3.9c-1.7,0.3-2.5,2.6-2.8,3.5c-0.3,0.7-0.4,1.4-0.5,2
					c-4.2-4.6-12-6.7-13.6-5c-0.1,0.1-0.3,0.4-0.4,1.1c-0.3,4.2,5.2,5.9,8.5,11.7c0.7,1.3,1.2,2.5,1.5,3.5
					c-7.4,0.9-13.6,2.2-13.8,4.5c-0.1,0.7,0.4,1.2,1.4,2.3c2.7,2.9,5.1,3.1,9.8,5.4c4.1,2,4.8,3.2,5.9,3c0.8,2.5,1.8,6.1,1.6,11.1
					c-0.2,4.2-1.1,7.8,1,9.8c1.6,1.4,3.7,1.2,3.9,1.1c3.3-0.4,5.2-4.3,5.8-6.2c1.1-3.5-0.3-7.4-2.5-10.8c1.2,0.8,2.4,1.8,3.4,3.4
					c1.1,1.7,1.2,2.8,2,2.9C340.5,186.1,342.9,181.7,342.5,177.7z M330,163.6c0.2,0.8,0.4,1.8,0.3,3.1c0,0.5-0.1,0.8-0.2,1.2
					c-0.8-0.1-2-0.1-3,0.1c0.1-1.2,0.1-2.4-0.1-3.4C327.9,164.4,329,164.1,330,163.6z"/>
			</g>
		</g>
		<g>
			<g>
				<path class="st3" d="M177.3,165.5c0.5,3.8,3.5,6.7,6.9,8.3c-0.8,0.5-1.5,1.2-2,2.1c-1,1.9-0.8,4.5,0.9,6.2
					c0.7,0.8,1.7,1.2,2.6,1.5c-2,4.1-0.9,9.6,1.2,13c0.3,0.5,2.8,4.4,5.2,3.9c1.7-0.3,2.5-2.6,2.8-3.5c0.3-0.7,0.4-1.4,0.5-2
					c4.2,4.6,12,6.7,13.6,5c0.1-0.1,0.3-0.4,0.4-1.1c0.3-4.2-5.2-5.9-8.5-11.7c-0.7-1.3-1.2-2.5-1.5-3.5c7.4-0.9,13.6-2.2,13.8-4.5
					c0.1-0.7-0.4-1.2-1.4-2.3c-2.7-2.9-5.1-3.1-9.8-5.4c-4.1-2-4.8-3.2-5.9-3c-0.8-2.5-1.8-6.1-1.6-11.1c0.2-4.2,1.1-7.8-1-9.8
					c-1.6-1.4-3.7-1.2-3.9-1.1c-3.3,0.4-5.2,4.3-5.8,6.2c-1.1,3.5,0.3,7.4,2.5,10.8c-1.2-0.8-2.4-1.8-3.4-3.4
					c-1.1-1.7-1.2-2.8-2-2.9C179.3,157.1,176.8,161.5,177.3,165.5z M189.8,179.7c-0.2-0.8-0.4-1.8-0.3-3.1c0-0.5,0.1-0.8,0.2-1.2
					c0.8,0.1,2,0.1,3-0.1c-0.1,1.2-0.1,2.4,0.1,3.4C191.8,178.8,190.8,179.2,189.8,179.7z"/>
			</g>
		</g>
		<g>
			<g>
				<path class="st3" d="M196,279.2c3,2.3,7.2,2.3,10.7,1c-0.2,0.9-0.2,1.9,0.1,2.9c0.7,2,2.7,3.7,5,3.8c1.1,0,2.1-0.3,2.9-0.8
					c1.4,4.3,6.1,7.5,10.1,8.4c0.6,0.1,5.1,1.1,6.4-0.9c1-1.4-0.1-3.6-0.5-4.5c-0.3-0.7-0.7-1.3-1.1-1.8c6.3,0.3,13.3-3.8,13.2-6.1
					c0-0.1,0-0.5-0.6-1.1c-2.7-3.1-7.8-0.5-14.3-2.3c-1.4-0.4-2.6-0.9-3.5-1.4c4.6-5.8,8.1-11.2,6.6-12.9c-0.4-0.5-1.2-0.5-2.6-0.6
					c-3.9-0.2-5.8,1.4-10.7,3.1c-4.4,1.5-5.6,1.2-6.3,2c-2.3-1.2-5.6-3-9-6.7c-2.9-3.1-4.7-6.3-7.6-6.2c-2.1,0.1-3.5,1.8-3.6,2
					c-2,2.6-0.7,6.7,0.3,8.5c1.7,3.2,5.4,5,9.4,5.9c-1.4,0.3-2.9,0.4-4.8,0c-1.9-0.4-2.9-1.2-3.5-0.6
					C191.5,271.9,192.9,276.8,196,279.2z M214.8,280.4c-0.7-0.4-1.6-1-2.4-2c-0.3-0.4-0.5-0.7-0.7-0.9c0.6-0.5,1.4-1.3,2.1-2.2
					c0.8,0.9,1.6,1.7,2.5,2.4C215.7,278.4,215.2,279.3,214.8,280.4z"/>
			</g>
		</g>
		<g>
			<g>
				<path class="st3" d="M296.2,301.9c2.8-2.6,3.4-6.7,2.7-10.4c0.9,0.4,1.9,0.5,2.9,0.4c2.1-0.3,4.1-2,4.5-4.3c0.2-1,0-2.1-0.3-3
					c4.5-0.7,8.3-4.9,9.8-8.7c0.2-0.6,1.9-4.8,0.2-6.5c-1.2-1.2-3.6-0.5-4.5-0.2c-0.7,0.2-1.4,0.5-1.9,0.8c1.3-6.1-1.6-13.7-3.9-14
					c-0.1,0-0.5,0-1.1,0.4c-3.5,2.2-1.7,7.6-4.5,13.7c-0.6,1.4-1.3,2.4-2,3.3c-5-5.5-9.8-9.7-11.7-8.6c-0.6,0.3-0.7,1.1-1,2.5
					c-0.8,3.8,0.5,6,1.4,11.1c0.8,4.5,0.3,5.8,1,6.6c-1.5,2.1-3.9,5.1-8.1,7.8c-3.5,2.4-7,3.6-7.3,6.6c-0.2,2.1,1.3,3.7,1.4,3.9
					c2.3,2.4,6.5,1.7,8.4,1.1c3.4-1.2,5.8-4.6,7.3-8.4c0.1,1.4-0.1,3-0.7,4.7c-0.7,1.8-1.6,2.6-1.2,3.3
					C288.3,305.2,293.3,304.7,296.2,301.9z M300.4,283.5c-0.5,0.7-1.3,1.4-2.4,2.1c-0.4,0.2-0.7,0.4-1,0.6c-0.4-0.7-1.1-1.6-1.9-2.4
					c1-0.6,1.9-1.3,2.7-2.1C298.5,282.4,299.4,283,300.4,283.5z"/>
			</g>
		</g>
		<g>
			<g>
				<path class="st3" d="M300.8,257.4c2.8-2.6,3.4-6.7,2.7-10.4c0.9,0.4,1.9,0.5,2.9,0.4c2.1-0.3,4.1-2,4.5-4.3c0.2-1,0-2.1-0.3-3
					c4.5-0.7,8.3-4.9,9.8-8.7c0.2-0.6,1.9-4.8,0.2-6.5c-1.2-1.2-3.6-0.5-4.5-0.2c-0.7,0.2-1.4,0.5-1.9,0.8c1.3-6.1-1.6-13.7-3.9-14
					c-0.1,0-0.5,0-1.1,0.4c-3.5,2.2-1.7,7.6-4.5,13.7c-0.6,1.4-1.3,2.4-2,3.3c-5-5.5-9.8-9.7-11.7-8.6c-0.6,0.3-0.7,1.1-1,2.5
					c-0.8,3.8,0.5,6,1.4,11.1c0.8,4.5,0.3,5.8,1,6.6c-1.5,2.1-3.9,5.1-8.1,7.8c-3.5,2.4-7,3.6-7.3,6.6c-0.2,2.1,1.3,3.7,1.4,3.9
					c2.3,2.4,6.5,1.7,8.4,1.1c3.4-1.2,5.8-4.6,7.3-8.4c0.1,1.4-0.1,3-0.7,4.7c-0.7,1.8-1.6,2.6-1.2,3.3
					C292.9,260.7,297.9,260.1,300.8,257.4z M305,239c-0.5,0.7-1.3,1.4-2.4,2.1c-0.4,0.2-0.7,0.4-1,0.6c-0.4-0.7-1.1-1.6-1.9-2.4
					c1-0.6,1.9-1.3,2.7-2.1C303.1,237.9,303.9,238.5,305,239z"/>
			</g>
		</g>
		<g>
			<g>
				<path class="st3" d="M315.6,75.5c-0.4-3.5-3.2-6.1-6.3-7.6c0.8-0.5,1.4-1.1,1.8-1.9c0.9-1.7,0.7-4.2-0.8-5.7
					c-0.7-0.7-1.5-1.1-2.4-1.4c1.9-3.7,0.8-8.8-1.1-12c-0.3-0.5-2.5-4-4.7-3.6c-1.5,0.3-2.3,2.4-2.6,3.2c-0.2,0.7-0.4,1.3-0.5,1.9
					c-3.9-4.2-11.1-6.2-12.5-4.6c-0.1,0.1-0.3,0.3-0.3,1.1c-0.3,3.8,4.7,5.4,7.8,10.8c0.7,1.2,1.1,2.3,1.4,3.2
					c-6.8,0.8-12.5,2-12.7,4.1c-0.1,0.6,0.4,1.1,1.3,2.1c2.4,2.6,4.7,2.9,9,4.9c3.8,1.9,4.4,2.9,5.4,2.8c0.7,2.3,1.7,5.6,1.5,10.2
					c-0.2,3.9-1.1,7.1,0.9,9c1.4,1.3,3.4,1.1,3.6,1.1c3-0.4,4.8-3.9,5.3-5.7c1-3.2-0.3-6.8-2.3-9.9c1.1,0.7,2.2,1.6,3.1,3.1
					c1,1.5,1.1,2.6,1.8,2.7C313.8,83.3,316,79.2,315.6,75.5z M304.1,62.5c0.2,0.8,0.4,1.7,0.3,2.9c0,0.4-0.1,0.8-0.1,1.1
					c-0.7-0.1-1.8-0.1-2.8,0.1c0.1-1.1,0.1-2.2-0.1-3.1C302.2,63.3,303.2,63,304.1,62.5z"/>
			</g>
		</g>
		<path class="st3" d="M273.3,249.3c-0.8-0.1-0.7,2.8-3,4.2c-4,2.5-10.2-2.5-14.5-4c0.1-2.5-0.1-5.2-0.6-7.3
			c-1.1-5.4-4.7-12.7-8.1-12.2c-3,0.5-4.7,6.7-4.9,10.9c-0.2,3.3,0.6,6.8,2.1,9.6c-1.2-0.4-2.5-0.9-3.9-1.9
			c-2.2-1.5-1.8-2.1-4.4-4.2c-0.6-0.5-7.7-6.3-10.5-4.5c-2.2,1.5-1.3,7.7,1.1,12.1c1.8,3.2,5.1,6.5,8.8,8.2
			c-0.8,1.3-1.9,2.5-3.5,3.1c-4.4,1.7-8.5-2.3-9.7-0.9c-1.2,1.4,1.6,7.3,6.5,9.5c5.3,2.3,12,0,15-4.6c0.2-0.3,0.7-1.1,1.2-2.2
			c0.9,1.4,2,3.2,2.5,6c0.5,2.6-0.2,2.8,0.1,6c0.1,0.8,1,9.9,4.2,10.6c2.6,0.5,6.4-4.5,7.7-9.3c1-3.4,0.9-7.8-0.3-11.5
			c0.9,0.5,1.9,0.9,3.1,1.1c0.8,0.1,4.9,1,8.3-1.4C277.3,262.1,274.9,249.6,273.3,249.3z M245.5,260.5c0-0.2-0.1-0.3-0.1-0.5
			c1.7-1.1,3.1-2.8,3.7-4.3c0.8,0.4,1.7,0.8,2.6,0.9c0.3,1.3,0.8,2.5,1.3,3.6C250.5,259.2,247.4,259.5,245.5,260.5z"/>
		<path class="st3" d="M260,312.8c-0.3-0.4-1.5,1.1-3.3,0.8c-3-0.5-3.9-5.6-5.4-8.1c1.1-1.2,2.1-2.6,2.8-3.8
			c1.8-3.2,3.1-8.2,1.2-9.4c-1.7-1-5.2,1.3-7.1,3.3c-1.5,1.5-2.6,3.6-3,5.6c-0.4-0.7-0.8-1.5-1.1-2.6c-0.4-1.7,0-1.8-0.4-3.9
			c-0.1-0.5-1.1-6.4-3.2-6.7c-1.7-0.2-3.9,3.2-4.6,6.4c-0.5,2.4-0.2,5.4,0.8,7.8c-1,0.3-2,0.4-3.1,0c-2.9-1-3.2-4.8-4.4-4.6
			c-1.2,0.2-2.3,4.3-0.9,7.4c1.6,3.4,5.9,5.1,9.3,4.1c0.2-0.1,0.8-0.2,1.5-0.6c-0.2,1-0.4,2.4-1.3,4c-0.9,1.5-1.3,1.3-2.5,3
			c-0.3,0.4-3.7,5.3-2.4,7c1.1,1.4,5.1,0.5,7.8-1.3c1.9-1.3,3.8-3.4,4.8-5.7c0.2,0.6,0.6,1.2,1,1.8c0.3,0.4,2,2.6,4.7,2.8
			C256.5,320.8,260.6,313.6,260,312.8z M241.6,306.5c0.1-0.1,0.1-0.2,0.1-0.3c1.3,0.2,2.7-0.1,3.7-0.5c0.2,0.5,0.5,1.1,0.9,1.5
			c-0.4,0.8-0.7,1.6-0.9,2.3C244.6,308,243,306.8,241.6,306.5z"/>
		<path class="st3" d="M316.8,193.7c0-0.3-1.2-0.2-1.8-1.1c-1.2-1.6,0.8-4.3,1.2-6.1c1,0,2.1-0.2,3-0.5c2.2-0.6,5.1-2.3,4.8-3.7
			c-0.3-1.2-2.9-1.8-4.7-1.7c-1.4,0-2.8,0.4-3.9,1.2c0.1-0.5,0.3-1,0.7-1.7c0.6-0.9,0.8-0.8,1.6-1.9c0.2-0.3,2.4-3.4,1.6-4.5
			c-0.7-0.9-3.2-0.3-5,0.8c-1.3,0.9-2.5,2.3-3.1,3.9c-0.6-0.3-1.1-0.7-1.4-1.4c-0.8-1.8,0.7-3.6,0.1-4c-0.6-0.4-3,0.9-3.7,3
			c-0.8,2.2,0.4,5,2.3,6.1c0.1,0.1,0.5,0.3,0.9,0.4c-0.5,0.4-1.3,0.9-2.4,1.2c-1.1,0.3-1.2,0-2.5,0.2c-0.3,0.1-4.1,0.7-4.3,2.1
			c-0.1,1.1,2.1,2.5,4.1,2.9c1.4,0.3,3.3,0.2,4.7-0.4c-0.2,0.4-0.3,0.8-0.4,1.3c0,0.3-0.3,2.1,0.8,3.4
			C311.7,195.7,316.8,194.3,316.8,193.7z M311.4,182.5c0.1,0,0.1,0,0.2-0.1c0.5,0.7,1.2,1.2,1.9,1.4c-0.2,0.3-0.3,0.7-0.3,1.1
			c-0.5,0.2-1,0.4-1.4,0.6C312.1,184.5,311.9,183.3,311.4,182.5z"/>
		<path class="st3" d="M228.2,200.8c0-0.3-1.2-0.2-1.8-1.1c-1.2-1.6,0.8-4.3,1.2-6.1c1,0,2.1-0.2,3-0.5c2.2-0.6,5.1-2.3,4.8-3.7
			c-0.3-1.2-2.9-1.8-4.7-1.7c-1.4,0-2.8,0.4-3.9,1.2c0.1-0.5,0.3-1,0.7-1.7c0.6-0.9,0.8-0.8,1.6-1.9c0.2-0.3,2.4-3.4,1.6-4.5
			c-0.7-0.9-3.2-0.3-5,0.8c-1.3,0.9-2.5,2.3-3.1,3.9c-0.6-0.3-1.1-0.7-1.4-1.4c-0.8-1.8,0.7-3.6,0.1-4c-0.6-0.4-3,0.9-3.7,3
			c-0.8,2.2,0.4,5,2.3,6.1c0.1,0.1,0.5,0.3,0.9,0.4c-0.5,0.4-1.3,0.9-2.4,1.2c-1.1,0.3-1.2,0-2.5,0.2c-0.3,0.1-4.1,0.7-4.3,2.1
			c-0.1,1.1,2.1,2.5,4.1,2.9c1.4,0.3,3.3,0.2,4.7-0.4c-0.2,0.4-0.3,0.8-0.4,1.3c0,0.3-0.3,2.1,0.8,3.4
			C223.1,202.8,228.2,201.5,228.2,200.8z M222.8,189.7c0.1,0,0.1,0,0.2-0.1c0.5,0.7,1.2,1.2,1.9,1.4c-0.2,0.3-0.3,0.7-0.3,1.1
			c-0.5,0.2-1,0.4-1.4,0.6C223.5,191.7,223.3,190.4,222.8,189.7z"/>
		<path class="st3" d="M317.5,218.2c0.3,0,0.2-1.2,1.1-1.8c1.6-1.2,4.3,0.8,6.1,1.2c0,1,0.2,2.1,0.5,3c0.6,2.2,2.3,5.1,3.7,4.8
			c1.2-0.3,1.8-2.9,1.7-4.7c0-1.4-0.4-2.8-1.2-3.9c0.5,0.1,1,0.3,1.7,0.7c0.9,0.6,0.8,0.8,1.9,1.6c0.3,0.2,3.4,2.4,4.5,1.6
			c0.9-0.7,0.3-3.2-0.8-5c-0.9-1.3-2.3-2.5-3.9-3.1c0.3-0.6,0.7-1.1,1.4-1.4c1.8-0.8,3.6,0.7,4,0.1c0.4-0.6-0.9-3-3-3.7
			c-2.2-0.8-5,0.4-6.1,2.3c-0.1,0.1-0.3,0.5-0.4,0.9c-0.4-0.5-0.9-1.3-1.2-2.4c-0.3-1.1,0-1.2-0.2-2.5c-0.1-0.3-0.7-4.1-2.1-4.3
			c-1.1-0.1-2.5,2.1-2.9,4.1c-0.3,1.4-0.2,3.3,0.4,4.7c-0.4-0.2-0.8-0.3-1.3-0.4c-0.3,0-2.1-0.3-3.4,0.8
			C315.5,213,316.9,218.1,317.5,218.2z M328.7,212.8c0,0.1,0,0.1,0.1,0.2c-0.7,0.5-1.2,1.2-1.4,1.9c-0.3-0.2-0.7-0.3-1.1-0.3
			c-0.2-0.5-0.4-1-0.6-1.4C326.7,213.5,327.9,213.3,328.7,212.8z"/>
	</g>
</g>
<path class="st4" d="M274.7,441.8c6.2-40.8,27.7-63.2,47.5-97c9-15.4,20.9-38.7,30.6-70c-2.6,18-7.4,43.7-16.9,73.5
	c-19.2,60.6-52.4,121.5-60.8,118.5C271.2,465.4,273.6,449.1,274.7,441.8z"/>
<path class="st4" d="M161.6,286.3c17.2,19.2,36.7,45.1,53.1,78.4c7,14.2,12.5,27.7,16.9,40.3C208.3,365.5,184.9,325.9,161.6,286.3z"
	/>
</svg>
