<?xml version="1.0" encoding="utf-8"?>
<!-- Generator: Adobe Illustrator 24.1.2, SVG Export Plug-In . SVG Version: 6.00 Build 0)  -->
<svg version="1.1" id="Layer_1" xmlns="http://www.w3.org/2000/svg" xmlns:xlink="http://www.w3.org/1999/xlink" x="0px" y="0px"
	 viewBox="0 0 512 512" style="enable-background:new 0 0 512 512;" xml:space="preserve">
<style type="text/css">
	.st0{fill:#084924;}
	.st1{fill:#036635;}
	.st2{fill:#C66153;}
	.st3{fill:#F37678;}
	.st4{fill:#F16065;}
	.st5{fill:#F8A59B;}
</style>
<g>
	<path class="st0" d="M263.2,197.9c2.2,12.9,5.2,31.7,8.2,54.3c6.9,52.3,9.1,91.8,11.7,136.9c2.4,40.8,2.9,65.9,3.1,81.5
		c0.2,14.8,0.1,27.2,0,36.1c7-37.6,8.9-69.1,9.2-92.4c0.6-43.7-4.3-83.5-8.7-119.1c-1.6-12.7-3.4-25.4-3.6-26.9
		c-3.8-27.1-7.7-49.5-10.7-65.5C269.3,201.2,266.3,199.6,263.2,197.9z"/>
	<path class="st0" d="M282.7,304.5c1.4-3.2,3.7-8.4,6.1-14.8c3-7.8,4.8-13.7,5.6-16.1c7-22,10.6-33,15.3-42.9
		c7.3-15.3,14.1-29.4,24.3-31.4c2-0.4,8.5-1.2,16.1-5.1c2.2-1.2,4-2.3,5.1-3.1c-4.9,3.3-11.4,8.6-15.8,16.9
		c-3.7,6.9-4.5,12.8-5.1,16.6c-2.7,16-9.9,27.9-18.4,41.9C310,276.1,299.8,290.4,282.7,304.5z"/>
	<path class="st0" d="M280.4,297.9c-1.8,0.5-4.7,1.1-8.2,0.8c-12.4-1.3-16.4-13.2-29.6-23c-6.3-4.7-18.5-13.8-29.9-10.5
		c-15.3,4.4-24.3,30-25.3,34.5c-0.1,0.5-0.5,2.6-1.8,5.1c-1.3,2.4-2.8,4.2-4.1,5.4c3-0.1,7.8-0.8,12.3-3.8
		c10.6-7.3,7.7-20.6,15.1-24c5.7-2.6,10.2,4.1,28.3,12.8c9,4.3,31.3,14.9,40.4,6.8C279.1,300.5,279.9,299,280.4,297.9z"/>
</g>
<path class="st1" d="M282,297.7c3-4.6,7.4-11.9,11.4-21.4c3.7-8.9,3-9.8,8.2-24.6c6.4-18.4,11.5-28,13.2-31.2
	c2.7-4.9,5.1-8.9,6.8-11.6c-0.2,3.7-0.6,8.9-1.6,15.1c-2.1,12.7-5.9,21.8-13.3,39.5c-8.1,19.3-12,25.4-18.7,30.5
	C285.6,295.7,283.4,296.9,282,297.7z"/>
<path class="st2" d="M348.6,146.7c5.3-1.1,9-5.3,9.2-9.9c0.2-4.8-3.6-8-4-8.4c2.1-6,0.9-9.2,0.1-10.7c-1.3-2.5-3.9-4.5-7.5-5.6
	c0.3-0.2,0.6-0.3,0.9-0.5c1.3-2,3.1-5.3,4.7-9.6c2.3-6.1,5.6-15,1.8-18.8c-0.5-0.5-3.1-2.9-10.5-1.1c3.7-3.9,4.3-9.5,1.8-13.4
	c-2.6-4-7.5-4.5-8.1-4.5c-1.7-6.1-4.6-8.1-6-8.8c-2.2-1.2-5-1.3-8.2-0.6c0-2.1-0.1-4.6-0.5-7.5c-0.9-6.4-2.2-15.8-7.3-17.3
	c-0.7-0.2-4.2-1.1-9.7,4.1c1.4-5.2-0.7-10.5-4.8-12.7c-4.2-2.3-8.7-0.4-9.3-0.1c-4.4-4.5-7.9-4.9-9.5-4.9c-3.6,0.1-7.3,2.4-10.4,6.5
	c-4.6-4.6-11.2-11.2-16.2-9.4c-0.6,0.2-4,1.6-5.3,9.1c-2-5-6.8-7.9-11.4-7.3c-4.8,0.7-7.2,4.9-7.5,5.5c-6.2-1-9.2,0.8-10.5,1.8
	c-3,2.4-4.6,6.8-4.4,12.6c-6.4-6.3-13.1-8.9-18-7.1c-1.5,0.5-4.6,2.1-7.1,7.9c-0.6,0-5.5-0.3-8.7,3.4c-3,3.5-3.2,9.2,0,13.6
	c-7-2.9-10-0.8-10.6-0.4c-4.3,3.3-2.2,12.5-0.8,18.8c0.9,4.1,2.2,7.4,3.2,9.7c-1.1,0.5-2.2,1.3-3.2,2.4c-3,3.5-3.1,9.2,0,13.6
	c-7-2.9-10-0.8-10.5-0.4c-4.2,3.2-2.3,12.2-0.8,18.5c-6.4,0.7-11.1,3.1-13,6.8c-0.7,1.4-2,4.7,0.1,10.7c-0.5,0.4-4.2,3.6-4,8.4
	c0.2,4.6,3.9,8.9,9.2,9.9c-7.1,2.7-7.9,6.2-8,6.9c-0.9,5.3,6.9,10.7,12.2,14.3c1.5,1.1,3,2,4.4,2.7c-0.1,1.2,0.1,2.3,0.4,3.3
	c0.5,1.5,1.9,4.7,7.6,7.4c-0.1,0.6-0.5,5.5,3.1,8.8c3.4,3.2,9,3.5,13.6,0.5c-3.1,6.9-1.2,10-0.8,10.5c3.1,4.4,12.4,2.7,18.8,1.5
	c4.5-0.8,8-2.1,10.3-3c0.3-0.4,0.6-0.7,0.9-1.1c0.2,0.3,0.3,0.6,0.5,0.8c0.9,1.3,3.3,3.9,9.5,4.9c0.1,0.6,1.2,5.4,5.5,7.5
	c4.2,2,9.7,0.7,13.1-3.5c-1,7.5,1.8,9.9,2.4,10.3c4.2,3.3,12.6-1.1,18.4-4.2c4-2.1,7.1-4.4,8.9-5.9c1.5-3.7,2.3-7.5,2.5-11.2
	c0.9,1.5,1.9,2.9,3,4.3c2.2,0.9,5.8,2.2,10.3,3c6.4,1.2,15.7,2.9,18.8-1.5c0.4-0.5,2.4-3.6-0.8-10.5c4.5,3,10.1,2.6,13.5-0.5
	c3.5-3.3,3.1-8.2,3.1-8.8c5.7-2.7,7.1-5.9,7.6-7.5c0.7-2.3,0.5-5-0.7-7.8c1.7,0.4,3.4,0.7,5.1,0.9c2.2-0.9,5.6-2.6,9.4-5.2
	c5.3-3.7,13.2-9,12.2-14.3C356.5,152.9,355.7,149.3,348.6,146.7z M272.6,172c-1.4,3.3-2.1,6.8-2.3,10.4c-0.7-1.2-1.6-2.4-2.5-3.5
	c-9-10.9-24.8-14.8-38.7-9.1c-3.2,2.8-5.9,5.8-8.1,8.7c-0.3-2.8-1.1-5.6-2.1-8.3c-4.1-10-13.1-17.2-23.8-19.5
	c1.2-6.5,0.3-13.2-2.4-19.3c1.4-0.4,2.9-1,4.2-1.6c12.9-5.9,20.7-20.1,18.8-35c-1.9-3.7-3.9-6.9-6-9.8c9-4.7,15.2-13.5,17-23.7
	c11.3,7.6,25.9,7.9,36.9,0.8c1.4-0.9,2.8-2,4-3.1c5.7,8.5,14.9,14.1,25,14.8c2.3,0.2,4.7,0.1,7-0.3c-0.1,0.1-0.2,0.2-0.2,0.3
	c-3.8,14.5,1.9,29.6,13.9,37.2c1.8,1.2,3.8,2.1,5.8,2.9c-0.6,0.2-1.1,0.4-1.7,0.6c-11.1,9.4-15.2,24.4-10.5,37.3
	C291.9,150.5,278,158.8,272.6,172z"/>
<path class="st3" d="M352,149.8c0.9,5-6.5,10-11.5,13.5c-3.6,2.4-6.8,4-8.9,4.8c-1.6-0.2-3.2-0.5-4.8-0.9c1.1,2.7,1.3,5.2,0.6,7.4
	c-0.4,1.4-1.8,4.4-7.2,7c0.1,0.6,0.4,5.2-2.9,8.3c-3.2,3-8.5,3.3-12.8,0.5c2.9,6.5,1.1,9.4,0.7,9.9c-2.9,4.1-11.7,2.5-17.7,1.4
	c-4.2-0.8-7.6-2-9.7-2.8c-1.1-1.3-2-2.6-2.8-4.1c0.2-3.4-0.2-6.8-1.1-10c-0.9,0.3-1.8,0.5-2.6,0.7c0.7,3.2,2,6.4,3.7,9.3
	c-0.2,3.6-0.9,7.2-2.3,10.6c-1.8,1.4-4.6,3.6-8.4,5.6c-5.4,2.8-13.3,7-17.3,3.9c-0.5-0.4-3.1-2.6-2.2-9.7c-3.2,3.9-8.4,5.2-12.3,3.3
	c-4.1-2-5.1-6.5-5.2-7c-5.9-0.9-8.1-3.3-8.9-4.6c-0.2-0.2-0.3-0.5-0.5-0.8c-0.3,0.3-0.5,0.7-0.8,1c-2.1,0.8-5.4,2-9.7,2.8
	c-6,1.1-14.8,2.8-17.7-1.4c-0.4-0.5-2.2-3.4,0.7-9.9c-4.2,2.8-9.6,2.5-12.8-0.5c-3.3-3.1-2.9-7.7-2.9-8.3c-5.3-2.6-6.7-5.6-7.2-7
	c-0.3-1-0.4-2-0.4-3.1c-1.3-0.7-2.7-1.6-4.2-2.6c-5-3.4-12.4-8.5-11.5-13.5c0.1-0.6,0.8-4,7.5-6.5c-5-1-8.5-5-8.7-9.4
	c-0.2-4.5,3.4-7.5,3.8-7.9c-2-5.6-0.8-8.7-0.1-10c1.8-3.4,6.2-5.7,12.2-6.4c-1.3-5.9-3.2-14.4,0.8-17.4c0.5-0.4,3.3-2.3,9.9,0.4
	c-3-4.1-2.8-9.5,0-12.8c0.9-1,1.9-1.7,3-2.2c-0.9-2.1-2.1-5.2-3-9.1c-1.3-5.9-3.3-14.7,0.7-17.7c0.5-0.4,3.3-2.3,9.9,0.3
	c-3-4.1-2.8-9.5,0-12.8c3-3.4,7.6-3.2,8.2-3.2c2.4-5.4,5.3-6.9,6.7-7.4c4.6-1.6,10.9,0.8,16.9,6.7c-0.1-5.4,1.3-9.6,4.2-11.9
	c1.2-0.9,4-2.6,9.9-1.7c0.3-0.5,2.6-4.5,7.1-5.2c4.3-0.6,8.9,2.1,10.8,6.8c1.3-7,4.4-8.3,5-8.6c4.7-1.7,10.9,4.5,15.2,8.8
	c3-3.9,6.5-6.1,9.8-6.2c1.5,0,4.8,0.3,8.9,4.6c0.5-0.2,4.8-2.1,8.8,0.1c3.8,2.1,5.8,7,4.5,11.9c5.2-4.9,8.6-4,9.2-3.8
	c4.9,1.4,6.1,10.3,6.9,16.4c0.4,2.7,0.5,5.1,0.5,7c2.9-0.7,5.6-0.5,7.7,0.6c1.3,0.7,4.1,2.6,5.7,8.3c0.6,0,5.2,0.4,7.7,4.3
	c2.4,3.7,1.8,9-1.7,12.7c6.9-1.8,9.4,0.5,9.9,1c3.6,3.6,0.4,11.9-1.7,17.7c-1.5,4-3.2,7.1-4.4,9.1c-0.3,0.2-0.6,0.3-0.9,0.5
	c3.4,1.1,5.8,2.9,7.1,5.3c0.7,1.3,1.8,4.4-0.1,10c0.5,0.4,4,3.3,3.8,7.9c-0.2,4.4-3.7,8.3-8.7,9.4
	C351.1,145.9,351.9,149.2,352,149.8z"/>
<path class="st4" d="M341.5,142.6c0.8,4.5-5.9,9.1-10.5,12.3c-3.2,2.2-6.2,3.6-8.1,4.4c-1.5-0.2-3-0.4-4.4-0.8
	c1,2.4,1.2,4.7,0.6,6.7c-0.4,1.3-1.7,4-6.5,6.4c0.1,0.5,0.4,4.7-2.6,7.5c-2.9,2.7-7.8,3-11.6,0.4c2.7,5.9,1,8.6,0.7,9
	c-2.7,3.8-10.7,2.3-16.1,1.3c-3.9-0.7-6.9-1.8-8.8-2.6c-1-1.2-1.8-2.4-2.6-3.7c0.2-3.1-0.2-6.2-1-9.1c-0.8,0.2-1.6,0.4-2.4,0.6
	c0.7,3,1.8,5.8,3.4,8.5c-0.2,3.3-0.9,6.5-2.1,9.7c-1.6,1.3-4.2,3.2-7.7,5.1c-4.9,2.6-12.1,6.4-15.8,3.6c-0.5-0.4-2.8-2.4-2-8.8
	c-2.9,3.6-7.7,4.7-11.2,3c-3.7-1.8-4.6-5.9-4.7-6.4c-5.4-0.8-7.4-3-8.2-4.2c-0.2-0.2-0.3-0.5-0.4-0.7c-0.2,0.3-0.5,0.6-0.7,0.9
	c-1.9,0.8-5,1.9-8.8,2.6c-5.5,1-13.5,2.5-16.1-1.3c-0.3-0.5-2-3.1,0.7-9c-3.9,2.6-8.7,2.3-11.6-0.4c-3-2.8-2.7-7-2.6-7.5
	c-4.9-2.3-6.1-5.1-6.5-6.4c-0.3-0.9-0.4-1.8-0.3-2.8c-1.2-0.6-2.5-1.4-3.8-2.3c-4.6-3.1-11.3-7.8-10.5-12.3c0.1-0.6,0.8-3.6,6.9-5.9
	c-4.5-0.9-7.8-4.6-7.9-8.5c-0.2-4.1,3.1-6.8,3.5-7.2c-1.8-5.1-0.7-7.9-0.1-9.2c1.6-3.1,5.6-5.2,11.1-5.8c-1.2-5.4-2.9-13.1,0.7-15.9
	c0.5-0.3,3-2.1,9.1,0.3c-2.7-3.8-2.6-8.6,0-11.6c0.8-1,1.8-1.6,2.7-2c-0.8-1.9-1.9-4.7-2.7-8.3c-1.2-5.4-3-13.4,0.6-16.2
	c0.5-0.4,3-2.1,9.1,0.3c-2.7-3.8-2.6-8.6,0-11.6c2.7-3.1,6.9-2.9,7.4-2.9c2.2-5,4.9-6.3,6.1-6.8c4.2-1.5,9.9,0.7,15.4,6.1
	c-0.1-4.9,1.2-8.8,3.8-10.8c1.1-0.9,3.7-2.4,9-1.5c0.3-0.5,2.3-4.1,6.4-4.7c3.9-0.6,8.1,1.9,9.8,6.2c1.2-6.4,4-7.6,4.6-7.8
	c4.3-1.6,10,4.1,13.9,8c2.7-3.6,5.9-5.6,9-5.6c1.4,0,4.4,0.3,8.1,4.2c0.5-0.2,4.4-1.9,8,0.1c3.5,1.9,5.3,6.4,4.1,10.9
	c4.8-4.4,7.8-3.7,8.4-3.5c4.4,1.3,5.5,9.4,6.3,14.9c0.3,2.4,0.4,4.6,0.4,6.4c2.7-0.6,5.1-0.5,7,0.5c1.2,0.6,3.7,2.3,5.2,7.6
	c0.5,0,4.7,0.4,7,3.9c2.2,3.3,1.6,8.2-1.6,11.5c6.3-1.6,8.6,0.5,9,0.9c3.3,3.3,0.4,10.9-1.5,16.1c-1.4,3.7-3,6.5-4.1,8.3
	c-0.3,0.1-0.5,0.3-0.8,0.4c3.1,1,5.3,2.7,6.5,4.9c0.6,1.2,1.7,4-0.1,9.2c0.4,0.3,3.6,3.1,3.5,7.2c-0.1,4-3.4,7.6-7.9,8.5
	C340.7,138.9,341.4,142,341.5,142.6z"/>
<path class="st4" d="M268.9,182.6c-1.4-2.4-2.4-4.9-3-7.5c0.7-0.2,1.4-0.3,2.1-0.5C268.7,177.2,269,179.9,268.9,182.6z"/>
<path class="st4" d="M268.9,182.6c-1.4-2.4-2.4-4.9-3-7.5c0.7-0.2,1.4-0.3,2.1-0.5C268.7,177.2,269,179.9,268.9,182.6z"/>
<path class="st5" d="M198.8,138.9c-2.8,3.8-7.7,5.9-12.1,5.8c-9.1-0.1-17-9.5-15.7-14.5c0.7-2.8,3.8-3,4.5-6.1
	c0.9-4.2-5.6-6.9-4.7-9.4c1.1-3.4,13.3-0.2,16.3-5.4c1.7-2.9-0.9-6.1,0.5-7.1c2.3-1.7,12.8,4.1,15.5,13.3c1.6,5.3,0.2,10.3-2.2,18.5
	C200.3,136.2,199.8,137.5,198.8,138.9z"/>
<path class="st3" d="M306.2,92.5c0.9-4.6,4.6-8.5,8.5-10.3c8.3-3.7,19.4,1.5,20.4,6.6c0.5,2.8-2.2,4.4-1.5,7.5
	c0.9,4.2,7.9,3.9,8.2,6.6c0.4,3.6-12,5.7-12.6,11.7c-0.3,3.4,3.3,5.2,2.5,6.7c-1.4,2.5-13.3,1.6-19.7-5.6c-3.6-4.1-4.4-9.2-5.8-17.7
	C306,95.5,305.9,94.1,306.2,92.5z"/>
<path class="st5" d="M309.5,122.3c2.4,1.6,5.5,1.7,7.9,0.6c5-2.2,7.4-9.6,5.5-12.4c-1-1.5-2.8-0.9-3.8-2.6c-1.4-2.3,1.6-5.4,0.6-6.7
	c-1.4-1.8-7.4,3-10.2,0.6c-1.6-1.3-0.8-3.8-1.8-4.1c-1.6-0.5-6.2,5.5-5.7,11.6c0.3,3.5,2.1,6.2,5.2,10.5
	C308.1,121.1,308.7,121.8,309.5,122.3z"/>
<path class="st5" d="M253.3,161.3c5.4,2.8,9,8.9,9.7,14.8c1.5,11.4-6.8,24.9-15.3,25.2c-3.9,0.1-7-2.7-8.7-4.5
	c-2.6,5.2-6.9,9.1-11,8.9c-5.8-0.2-12.1-8.8-10.1-20.7c-5.9,2.7-8.2,2.2-9.1,1.2c-2.9-3.4,3.1-18.6,13.8-24.5c6.4-3.5,13-2.9,24-2
	C249.6,160,251.4,160.4,253.3,161.3z"/>
<path class="st5" d="M283.7,161c2-4.3,6.4-7.2,10.7-8c9-1.6,18.5,6,18.2,11.3c-0.2,2.8-3.2,3.7-3.2,6.9c-0.1,4.3,6.8,5.7,6.5,8.3
	c-0.5,3.6-13,2.7-15,8.4c-1.1,3.2,2,5.8,0.9,7.1c-1.9,2.1-13.3-1.6-17.8-10.1c-2.6-4.9-2.1-10-1.4-18.6
	C282.7,163.9,283,162.5,283.7,161z"/>
<path class="st5" d="M241.9,149.4c-4.7,0.7-9.6-1.4-12.6-4.5c-6.3-6.6-5.3-18.8-0.8-21.4c2.5-1.4,4.8,0.6,7.5-1.1
	c3.6-2.3,1-8.8,3.3-10c3.2-1.6,9.5,9.3,15.3,7.8c3.3-0.9,3.7-4.9,5.4-4.6c2.8,0.4,6,12,1.5,20.4c-2.6,4.9-7.2,7.4-14.7,11.5
	C244.9,148.6,243.6,149.2,241.9,149.4z"/>
<path class="st3" d="M222.1,152.8c0,3.4-0.3,9.2-3.4,15.3c-1.3,2.6-7,13.9-17.1,14.7c-7,0.6-14.4-3.9-14.3-7.2
	c0.1-3.6,8.8-5.5,8.4-7.7c-0.4-2-7.4-1.4-7.8-3.5c-0.4-1.9,4.8-3.1,5-6.4c0.1-2.2-2.1-2.6-3-6.3c-0.2-0.9-0.9-3.5,0.3-5.6
	c1.5-2.7,5.4-3.1,8.6-3.4c2.7-0.3,10.4-0.9,17.6,4.3C219.1,149,220.9,151.2,222.1,152.8z"/>
<path class="st3" d="M241.3,129.5c2.2,3,5.6,8.5,6.7,16c0.5,3.2,2.6,17-6,24.2c-5.9,5-15.5,5.7-17.5,2.6c-2.2-3.3,4.5-10.6,2.6-12.3
	c-1.6-1.5-7.6,3.5-9.3,1.9c-1.5-1.4,2.3-5.9,0.4-9c-1.3-2-3.6-1-6.7-3.7c-0.8-0.7-3.1-2.6-3.4-5.2c-0.4-3.4,2.9-6.3,5.6-8.6
	c2.3-2,8.8-7.4,18.6-7.5C236.2,128,239.3,128.8,241.3,129.5z"/>
<path class="st3" d="M223.3,85.5c2.2-3,5.6-8.5,6.7-16c0.5-3.2,2.6-17-6-24.2c-5.9-5-15.5-5.7-17.5-2.6c-2.2,3.3,4.5,10.6,2.6,12.3
	c-1.6,1.5-7.6-3.5-9.3-1.9c-1.5,1.4,2.3,5.9,0.4,9c-1.3,2-3.6,1-6.7,3.7c-0.8,0.7-3.1,2.6-3.4,5.2c-0.4,3.4,2.9,6.3,5.6,8.6
	c2.3,2,8.8,7.4,18.6,7.5C218.2,87,221.3,86.2,223.3,85.5z"/>
<path class="st3" d="M269,145.8c-2.2,3-5.6,8.5-6.7,16c-0.5,3.2-2.6,17,6,24.2c5.9,5,15.5,5.7,17.5,2.6c2.2-3.3-4.5-10.6-2.6-12.3
	c1.6-1.5,7.6,3.5,9.3,1.9c1.5-1.4-2.3-5.9-0.4-9c1.3-2,3.6-1,6.7-3.7c0.8-0.7,3.1-2.6,3.4-5.2c0.4-3.4-2.9-6.3-5.6-8.6
	c-2.3-2-8.8-7.4-18.6-7.5C274.1,144.3,271,145.1,269,145.8z"/>
<path class="st3" d="M248.2,157.8c-1.3,1.7-3.2,4.9-3.9,9.3c-0.3,1.9-1.5,9.9,3.5,14.1c3.4,2.9,9,3.3,10.2,1.5
	c1.3-1.9-2.6-6.2-1.5-7.2c1-0.9,4.4,2,5.4,1.1c0.9-0.8-1.4-3.4-0.2-5.2c0.7-1.2,2.1-0.6,3.9-2.2c0.4-0.4,1.8-1.5,2-3
	c0.2-2-1.7-3.6-3.3-5c-1.3-1.1-5.1-4.3-10.8-4.3C251.2,156.9,249.4,157.4,248.2,157.8z"/>
<path class="st3" d="M290.5,129c2.8-2.4,8.1-6.1,15.5-7.8c3.2-0.7,16.8-3.8,24.6,4.3c5.4,5.6,6.8,15.1,3.8,17.3
	c-3.1,2.4-10.9-3.7-12.5-1.7c-1.4,1.7,4,7.3,2.5,9.2c-1.3,1.6-6-1.9-9,0.3c-1.9,1.4-0.8,3.6-3.3,7c-0.6,0.8-2.4,3.2-5,3.7
	c-3.4,0.6-6.4-2.5-8.9-5c-2.1-2.2-8-8.3-8.7-18.1C289.4,134.2,290,131,290.5,129z"/>
<path class="st3" d="M222.1,140.2c-1.4,3.4-4.3,9.2-10.1,14.1c-2.5,2.1-13.1,11.1-23.8,7.6c-7.4-2.4-13-10.2-11.4-13.6
	c1.7-3.6,11.4-1.8,11.9-4.2c0.4-2.2-7-4.6-6.5-7c0.4-2.1,6.2-1.1,7.8-4.4c1-2.1-1-3.6-0.3-7.7c0.2-1,0.6-4,2.7-5.6
	c2.7-2.1,6.8-0.8,10.2,0.3c2.9,0.9,10.9,3.6,16.1,12C220.7,135.1,221.6,138.1,222.1,140.2z"/>
<path class="st3" d="M254.9,62.2c-3.5,1.3-9.6,3.2-17.2,2.4c-3.3-0.4-17.1-1.8-21.9-12c-3.3-7-1.5-16.4,2-17.6
	c3.7-1.2,9.1,7,11.2,5.7c1.9-1.2-1.4-8.2,0.6-9.5c1.8-1.1,5.1,3.8,8.6,2.7c2.3-0.7,1.9-3.2,5.3-5.5c0.8-0.6,3.3-2.3,5.9-1.9
	c3.4,0.5,5.3,4.4,6.9,7.6c1.3,2.7,4.9,10.4,2.4,19.9C257.6,57.6,256.1,60.4,254.9,62.2z"/>
<path class="st3" d="M281.1,71.8c-3.5-1.4-9.3-4.2-14.3-9.9c-2.2-2.5-11.3-13-8-23.7c2.3-7.4,10-13.1,13.4-11.6
	c3.6,1.6,1.9,11.4,4.4,11.8c2.2,0.4,4.5-7,6.9-6.6c2.1,0.4,1.2,6.2,4.5,7.8c2.2,1,3.5-1,7.7-0.5c1,0.1,4,0.6,5.6,2.6
	c2.2,2.7,0.9,6.8-0.1,10.2c-0.9,2.9-3.5,11-11.7,16.3C286.3,70.3,283.2,71.3,281.1,71.8z"/>
<path class="st3" d="M302.6,94.5c-3.5-1.4-9.3-4.2-14.3-9.9c-2.2-2.5-11.3-13-8-23.7c2.3-7.4,10-13.1,13.4-11.6
	c3.6,1.6,1.9,11.4,4.4,11.8c2.2,0.4,4.5-7,6.9-6.6c2.1,0.4,1.2,6.2,4.5,7.8c2.2,1,3.5-1,7.7-0.5c1,0.1,4,0.6,5.6,2.6
	c2.2,2.7,0.9,6.8-0.1,10.2c-0.9,2.9-3.5,11-11.7,16.3C307.7,93,304.6,94,302.6,94.5z"/>
<path class="st4" d="M268.1,84.4c-4-1.7-6.9-5.9-7.7-10c-1.7-8,3.5-18.1,9.6-18.7c2.8-0.3,5.1,1.5,6.4,2.7c1.6-3.9,4.5-6.8,7.3-6.9
	c4.2-0.2,9.1,5.6,8.3,14.2c4.1-2.2,5.7-2,6.4-1.3c2.3,2.3-1.2,13.4-8.5,18.2c-4.4,2.9-9.1,2.8-16.9,2.7
	C270.8,85.2,269.5,85,268.1,84.4z"/>
<path class="st4" d="M232.5,83.1c-4-1.7-6.9-5.9-7.7-10c-1.7-8,3.5-18.1,9.6-18.7c2.8-0.3,5.1,1.5,6.4,2.7c1.6-3.9,4.5-6.8,7.3-6.9
	c4.2-0.2,9.1,5.6,8.3,14.2c4.1-2.2,5.7-2,6.4-1.3c2.3,2.3-1.2,13.4-8.5,18.2c-4.4,2.9-9.1,2.8-16.9,2.7
	C235.2,83.8,233.9,83.7,232.5,83.1z"/>
<path class="st5" d="M235.8,113c-7.8-3.3-13.4-11.4-15.1-19.6c-3.3-15.7,6.9-35.4,18.7-36.6c5.4-0.5,10,3,12.5,5.3
	c3.1-7.5,8.7-13.3,14.3-13.5c8.2-0.3,17.8,11,16.2,27.7c8-4.3,11.2-4,12.6-2.6c4.4,4.4-2.4,26.2-16.7,35.6
	c-8.5,5.6-17.7,5.5-33.1,5.2C241,114.5,238.5,114.2,235.8,113z"/>
<path class="st5" d="M266.8,137.4c4.7,0.3,9.1,3.4,11.3,7.1c4.7,7.8,1.1,19.5-3.9,21.1c-2.7,0.9-4.6-1.6-7.6-0.5
	c-4.1,1.5-2.9,8.4-5.4,9c-3.5,0.9-7.2-11.1-13.3-10.9c-3.4,0.1-4.7,4-6.3,3.4c-2.6-1-3.3-13,3-20.2c3.6-4.2,8.6-5.6,16.8-8
	C263.8,137.6,265.2,137.3,266.8,137.4z"/>
<path class="st3" d="M232,107.1c-3,2.2-8.5,5.6-16,6.7c-3.2,0.5-17,2.6-24.2-6c-5-5.9-5.7-15.5-2.6-17.5c3.3-2.2,10.6,4.5,12.3,2.6
	c1.5-1.6-3.5-7.6-1.9-9.3c1.4-1.5,5.9,2.3,9,0.4c2-1.3,1-3.6,3.7-6.7c0.7-0.8,2.6-3.1,5.2-3.4c3.4-0.4,6.3,2.9,8.6,5.6
	c2,2.3,7.4,8.8,7.5,18.6C233.5,102,232.7,105.1,232,107.1z"/>
<path class="st3" d="M290.1,122c-1.5-2.1-3.8-5.8-4.6-11c-0.3-2.2-1.8-11.6,4.1-16.6c4.1-3.4,10.6-3.9,12-1.8
	c1.5,2.3-3.1,7.3-1.8,8.4c1.1,1,5.2-2.4,6.4-1.3c1,1-1.6,4-0.3,6.1c0.9,1.4,2.4,0.7,4.6,2.6c0.5,0.4,2.1,1.8,2.3,3.6
	c0.3,2.3-2,4.3-3.8,5.9c-1.6,1.4-6,5.1-12.8,5.1C293.5,123,291.4,122.5,290.1,122z"/>
<path class="st5" d="M277.3,143.5c1.8,4,6.5,6.8,11.2,7.5c9.8,1.5,21-5.8,21.1-10.8c0.1-2.7-3.2-3.5-3-6.5c0.3-4.1,8-5.4,7.9-7.9
	c-0.2-3.4-14.1-2.5-15.8-7.9c-0.9-3,2.7-5.5,1.6-6.7c-1.9-2-14.9,1.6-20.5,9.7c-3.3,4.6-3.2,9.5-3.2,17.6
	C276.4,140.8,276.6,142.1,277.3,143.5z"/>
<path class="st3" d="M264,138.1c-3.5-1.4-9.3-4.2-14.3-9.9c-2.2-2.5-11.3-13-8-23.7c2.3-7.4,10-13.1,13.4-11.6
	c3.6,1.6,1.9,11.4,4.4,11.8c2.2,0.4,4.5-7,6.9-6.6c2.1,0.4,1.2,6.2,4.5,7.8c2.2,1,3.5-1,7.7-0.5c1,0.1,4,0.6,5.6,2.6
	c2.2,2.7,0.9,6.8-0.1,10.2c-0.9,2.9-3.5,11-11.7,16.3C269.1,136.6,266,137.6,264,138.1z"/>
<path class="st5" d="M227.5,138.8c-4,2.5-9.3,2.6-13.4,1c-8.4-3.5-12.4-15.1-9.3-19.3c1.7-2.3,4.7-1.4,6.4-4.1
	c2.4-3.6-2.6-8.5-1-10.5c2.3-2.8,12.4,4.7,17.2,1c2.7-2.1,1.4-6,3.1-6.4c2.7-0.7,10.4,8.5,9.5,18.1c-0.5,5.5-3.6,9.6-8.8,16.4
	C229.9,136.9,228.9,137.9,227.5,138.8z"/>
<path class="st3" d="M222.8,106.3c1.4,1.6,4.1,4.3,8.2,5.9c1.8,0.7,9.3,3.7,14.5-0.2c3.6-2.7,5.2-8,3.8-9.6
	c-1.6-1.7-6.6,1.2-7.3-0.1c-0.6-1.1,3-3.8,2.3-5c-0.6-1.1-3.6,0.6-5.1-1c-1-1-0.1-2.1-1.2-4.3c-0.3-0.5-1.1-2.1-2.5-2.6
	c-1.9-0.7-3.9,0.8-5.6,2.1c-1.4,1-5.4,4-6.6,9.6C222.6,103.2,222.7,105.1,222.8,106.3z"/>
</svg>
