<?xml version="1.0" encoding="utf-8"?>
<!-- Generator: Adobe Illustrator 24.1.2, SVG Export Plug-In . SVG Version: 6.00 Build 0)  -->
<svg version="1.1" id="Layer_1" xmlns="http://www.w3.org/2000/svg" xmlns:xlink="http://www.w3.org/1999/xlink" x="0px" y="0px"
	 viewBox="0 0 512 512" style="enable-background:new 0 0 512 512;" xml:space="preserve">
<style type="text/css">
	.st0{fill:#084924;}
	.st1{fill:#036635;}
	.st2{fill:#6EA57E;}
	.st3{fill:#D0E8CC;}
	.st4{fill:#A5D6B1;}
	.st5{fill:#E9F3DD;}
</style>
<g>
	<path class="st0" d="M269.3,194.3c2.2,12.9,5.2,31.7,8.2,54.3c6.9,52.3,9.1,91.8,11.7,136.9c2.4,40.8,2.9,65.9,3.1,81.5
		c0.2,14.8,0.1,27.2,0,36.1c7-37.6,8.9-69.1,9.2-92.4c0.6-43.7-4.3-83.5-8.7-119.1c-1.6-12.7-3.4-25.4-3.6-26.9
		c-3.8-27.1-7.7-49.5-10.7-65.5C275.4,197.6,272.3,195.9,269.3,194.3z"/>
	<path class="st0" d="M288.7,300.8c1.4-3.2,3.7-8.4,6.1-14.8c3-7.8,4.8-13.7,5.6-16.1c7-22,10.6-33,15.3-42.9
		c7.3-15.3,14.1-29.4,24.3-31.4c2-0.4,8.5-1.2,16.1-5.1c2.2-1.2,4-2.3,5.1-3.1c-4.9,3.3-11.4,8.6-15.8,16.9
		c-3.7,6.9-4.5,12.8-5.1,16.6c-2.7,16-9.9,27.9-18.4,41.9C316.1,272.4,305.9,286.7,288.7,300.8z"/>
	<path class="st0" d="M286.4,294.2c-1.8,0.5-4.7,1.1-8.2,0.8c-12.4-1.3-16.4-13.2-29.6-23c-6.3-4.7-18.5-13.8-29.9-10.5
		c-15.3,4.4-24.3,30-25.3,34.5c-0.1,0.5-0.5,2.6-1.8,5.1c-1.3,2.4-2.8,4.2-4.1,5.4c3-0.1,7.8-0.8,12.3-3.8
		c10.6-7.3,7.7-20.6,15.1-24c5.7-2.6,10.2,4.1,28.3,12.8c9,4.3,31.3,14.9,40.4,6.8C285.1,296.9,285.9,295.3,286.4,294.2z"/>
</g>
<path class="st1" d="M288,294c3-4.6,7.4-11.9,11.4-21.4c3.7-8.9,3-9.8,8.2-24.6c6.4-18.4,11.5-28,13.2-31.2
	c2.7-4.9,5.1-8.9,6.8-11.6c-0.2,3.7-0.6,8.9-1.6,15.1c-2.1,12.7-5.9,21.8-13.3,39.5c-8.1,19.3-12,25.4-18.7,30.5
	C291.6,292.1,289.5,293.3,288,294z"/>
<path class="st2" d="M354.7,143c5.3-1.1,9-5.3,9.2-9.9c0.2-4.8-3.6-8-4-8.4c2.1-6,0.9-9.2,0.1-10.7c-1.3-2.5-3.9-4.5-7.5-5.6
	c0.3-0.2,0.6-0.3,0.9-0.5c1.3-2,3.1-5.3,4.7-9.6c2.3-6.1,5.6-15,1.8-18.8c-0.5-0.5-3.1-2.9-10.5-1.1c3.7-3.9,4.3-9.5,1.8-13.4
	c-2.6-4-7.5-4.5-8.1-4.5c-1.7-6.1-4.6-8.1-6-8.8c-2.2-1.2-5-1.3-8.2-0.6c0-2.1-0.1-4.6-0.5-7.5c-0.9-6.4-2.2-15.8-7.3-17.3
	c-0.7-0.2-4.2-1.1-9.7,4.1c1.4-5.2-0.7-10.5-4.8-12.7c-4.2-2.3-8.7-0.4-9.3-0.1c-4.4-4.5-7.9-4.9-9.5-4.9c-3.6,0.1-7.3,2.4-10.4,6.5
	c-4.6-4.6-11.2-11.2-16.2-9.4c-0.6,0.2-4,1.6-5.3,9.1c-2-5-6.8-7.9-11.4-7.3c-4.8,0.7-7.2,4.9-7.5,5.5c-6.2-1-9.2,0.8-10.5,1.8
	c-3,2.4-4.6,6.8-4.4,12.6c-6.4-6.3-13.1-8.9-18-7.1c-1.5,0.5-4.6,2.1-7.1,7.9c-0.6,0-5.5-0.3-8.7,3.4c-3,3.5-3.2,9.2,0,13.6
	c-7-2.9-10-0.8-10.6-0.4c-4.3,3.3-2.2,12.5-0.8,18.8c0.9,4.1,2.2,7.4,3.2,9.7c-1.1,0.5-2.2,1.3-3.2,2.4c-3,3.5-3.1,9.2,0,13.6
	c-7-2.9-10-0.8-10.5-0.4c-4.2,3.2-2.3,12.2-0.8,18.5c-6.4,0.7-11.1,3.1-13,6.8c-0.7,1.4-2,4.7,0.1,10.7c-0.5,0.4-4.2,3.6-4,8.4
	c0.2,4.6,3.9,8.9,9.2,9.9c-7.1,2.7-7.9,6.2-8,6.9c-0.9,5.3,6.9,10.7,12.2,14.3c1.5,1.1,3,2,4.4,2.7c-0.1,1.2,0.1,2.3,0.4,3.3
	c0.5,1.5,1.9,4.7,7.6,7.4c-0.1,0.6-0.5,5.5,3.1,8.8c3.4,3.2,9,3.5,13.6,0.5c-3.1,6.9-1.2,10-0.8,10.5c3.1,4.4,12.4,2.7,18.8,1.5
	c4.5-0.8,8-2.1,10.3-3c0.3-0.4,0.6-0.7,0.9-1.1c0.2,0.3,0.3,0.6,0.5,0.8c0.9,1.3,3.3,3.9,9.5,4.9c0.1,0.6,1.2,5.4,5.5,7.5
	c4.2,2,9.7,0.7,13.1-3.5c-1,7.5,1.8,9.9,2.4,10.3c4.2,3.3,12.6-1.1,18.4-4.2c4-2.1,7.1-4.4,8.9-5.9c1.5-3.7,2.3-7.5,2.5-11.2
	c0.9,1.5,1.9,2.9,3,4.3c2.2,0.9,5.8,2.2,10.3,3c6.4,1.2,15.7,2.9,18.8-1.5c0.4-0.5,2.4-3.6-0.8-10.5c4.5,3,10.1,2.6,13.5-0.5
	c3.5-3.3,3.1-8.2,3.1-8.8c5.7-2.7,7.1-5.9,7.6-7.5c0.7-2.3,0.5-5-0.7-7.8c1.7,0.4,3.4,0.7,5.1,0.9c2.2-0.9,5.6-2.6,9.4-5.2
	c5.3-3.7,13.2-9,12.2-14.3C362.5,149.2,361.8,145.7,354.7,143z M278.6,168.3c-1.4,3.3-2.1,6.8-2.3,10.4c-0.7-1.2-1.6-2.4-2.5-3.5
	c-9-10.9-24.8-14.8-38.7-9.1c-3.2,2.8-5.9,5.8-8.1,8.7c-0.3-2.8-1.1-5.6-2.1-8.3c-4.1-10-13.1-17.2-23.8-19.5
	c1.2-6.5,0.3-13.2-2.4-19.3c1.4-0.4,2.9-1,4.2-1.6c12.9-5.9,20.7-20.1,18.8-35c-1.9-3.7-3.9-6.9-6-9.8c9-4.7,15.2-13.5,17-23.7
	c11.3,7.6,25.9,7.9,36.9,0.8c1.4-0.9,2.8-2,4-3.1c5.7,8.5,14.9,14.1,25,14.8c2.3,0.2,4.7,0.1,7-0.3c-0.1,0.1-0.2,0.2-0.2,0.3
	c-3.8,14.5,1.9,29.6,13.9,37.2c1.8,1.2,3.8,2.1,5.8,2.9c-0.6,0.2-1.1,0.4-1.7,0.6c-11.1,9.4-15.2,24.4-10.5,37.3
	C297.9,146.9,284,155.2,278.6,168.3z"/>
<path class="st3" d="M358,146.2c0.9,5-6.5,10-11.5,13.5c-3.6,2.4-6.8,4-8.9,4.8c-1.6-0.2-3.2-0.5-4.8-0.9c1.1,2.7,1.3,5.2,0.6,7.4
	c-0.4,1.4-1.8,4.4-7.2,7c0.1,0.6,0.4,5.2-2.9,8.3c-3.2,3-8.5,3.3-12.8,0.5c2.9,6.5,1.1,9.4,0.7,9.9c-2.9,4.1-11.7,2.5-17.7,1.4
	c-4.2-0.8-7.6-2-9.7-2.8c-1.1-1.3-2-2.6-2.8-4.1c0.2-3.4-0.2-6.8-1.1-10c-0.9,0.3-1.8,0.5-2.6,0.7c0.7,3.2,2,6.4,3.7,9.3
	c-0.2,3.6-0.9,7.2-2.3,10.6c-1.8,1.4-4.6,3.6-8.4,5.6c-5.4,2.8-13.3,7-17.3,3.9c-0.5-0.4-3.1-2.6-2.2-9.7c-3.2,3.9-8.4,5.2-12.3,3.3
	c-4.1-2-5.1-6.5-5.2-7c-5.9-0.9-8.1-3.3-8.9-4.6c-0.2-0.2-0.3-0.5-0.5-0.8c-0.3,0.3-0.5,0.7-0.8,1c-2.1,0.8-5.4,2-9.7,2.8
	c-6,1.1-14.8,2.8-17.7-1.4c-0.4-0.5-2.2-3.4,0.7-9.9c-4.2,2.8-9.6,2.5-12.8-0.5c-3.3-3.1-2.9-7.7-2.9-8.3c-5.3-2.6-6.7-5.6-7.2-7
	c-0.3-1-0.4-2-0.4-3.1c-1.3-0.7-2.7-1.6-4.2-2.6c-5-3.4-12.4-8.5-11.5-13.5c0.1-0.6,0.8-4,7.5-6.5c-5-1-8.5-5-8.7-9.4
	c-0.2-4.5,3.4-7.5,3.8-7.9c-2-5.6-0.8-8.7-0.1-10c1.8-3.4,6.2-5.7,12.2-6.4c-1.3-5.9-3.2-14.4,0.8-17.4c0.5-0.4,3.3-2.3,9.9,0.4
	c-3-4.1-2.8-9.5,0-12.8c0.9-1,1.9-1.7,3-2.2c-0.9-2.1-2.1-5.2-3-9.1c-1.3-5.9-3.3-14.7,0.7-17.7c0.5-0.4,3.3-2.3,9.9,0.3
	c-3-4.1-2.8-9.5,0-12.8c3-3.4,7.6-3.2,8.2-3.2c2.4-5.4,5.3-6.9,6.7-7.4c4.6-1.6,10.9,0.8,16.9,6.7c-0.1-5.4,1.3-9.6,4.2-11.9
	c1.2-0.9,4-2.6,9.9-1.7c0.3-0.5,2.6-4.5,7.1-5.2c4.3-0.6,8.9,2.1,10.8,6.8c1.3-7,4.4-8.3,5-8.6c4.7-1.7,10.9,4.5,15.2,8.8
	c3-3.9,6.5-6.1,9.8-6.2c1.5,0,4.8,0.3,8.9,4.6c0.5-0.2,4.8-2.1,8.8,0.1c3.8,2.1,5.8,7,4.5,11.9c5.2-4.9,8.6-4,9.2-3.8
	c4.9,1.4,6.1,10.3,6.9,16.4c0.4,2.7,0.5,5.1,0.5,7c2.9-0.7,5.6-0.5,7.7,0.6c1.3,0.7,4.1,2.6,5.7,8.3c0.6,0,5.2,0.4,7.7,4.3
	c2.4,3.7,1.8,9-1.7,12.7c6.9-1.8,9.4,0.5,9.9,1c3.6,3.6,0.4,11.9-1.7,17.7c-1.5,4-3.2,7.1-4.4,9.1c-0.3,0.2-0.6,0.3-0.9,0.5
	c3.4,1.1,5.8,2.9,7.1,5.3c0.7,1.3,1.8,4.4-0.1,10c0.5,0.4,4,3.3,3.8,7.9c-0.2,4.4-3.7,8.3-8.7,9.4
	C357.2,142.2,357.9,145.6,358,146.2z"/>
<path class="st4" d="M347.5,138.9c0.8,4.5-5.9,9.1-10.5,12.3c-3.2,2.2-6.2,3.6-8.1,4.4c-1.5-0.2-3-0.4-4.4-0.8
	c1,2.4,1.2,4.7,0.6,6.7c-0.4,1.3-1.7,4-6.5,6.4c0.1,0.5,0.4,4.7-2.6,7.5c-2.9,2.7-7.8,3-11.6,0.4c2.7,5.9,1,8.6,0.7,9
	c-2.7,3.8-10.7,2.3-16.1,1.3c-3.9-0.7-6.9-1.8-8.8-2.6c-1-1.2-1.8-2.4-2.6-3.7c0.2-3.1-0.2-6.2-1-9.1c-0.8,0.2-1.6,0.4-2.4,0.6
	c0.7,3,1.8,5.8,3.4,8.5c-0.2,3.3-0.9,6.5-2.1,9.7c-1.6,1.3-4.2,3.2-7.7,5.1c-4.9,2.6-12.1,6.4-15.8,3.6c-0.5-0.4-2.8-2.4-2-8.8
	c-2.9,3.6-7.7,4.7-11.2,3c-3.7-1.8-4.6-5.9-4.7-6.4c-5.4-0.8-7.4-3-8.2-4.2c-0.2-0.2-0.3-0.5-0.4-0.7c-0.2,0.3-0.5,0.6-0.7,0.9
	c-1.9,0.8-5,1.9-8.8,2.6c-5.5,1-13.5,2.5-16.1-1.3c-0.3-0.5-2-3.1,0.7-9c-3.9,2.6-8.7,2.3-11.6-0.4c-3-2.8-2.7-7-2.6-7.5
	c-4.9-2.3-6.1-5.1-6.5-6.4c-0.3-0.9-0.4-1.8-0.3-2.8c-1.2-0.6-2.5-1.4-3.8-2.3c-4.6-3.1-11.3-7.8-10.5-12.3c0.1-0.6,0.8-3.6,6.9-5.9
	c-4.5-0.9-7.8-4.6-7.9-8.5c-0.2-4.1,3.1-6.8,3.5-7.2c-1.8-5.1-0.7-7.9-0.1-9.2c1.6-3.1,5.6-5.2,11.1-5.8c-1.2-5.4-2.9-13.1,0.7-15.9
	c0.5-0.3,3-2.1,9.1,0.3c-2.7-3.8-2.6-8.6,0-11.6c0.8-1,1.8-1.6,2.7-2c-0.8-1.9-1.9-4.7-2.7-8.3c-1.2-5.4-3-13.4,0.6-16.2
	c0.5-0.4,3-2.1,9.1,0.3c-2.7-3.8-2.6-8.6,0-11.6c2.7-3.1,6.9-2.9,7.4-2.9c2.2-5,4.9-6.3,6.1-6.8c4.2-1.5,9.9,0.7,15.4,6.1
	c-0.1-4.9,1.2-8.8,3.8-10.8c1.1-0.9,3.7-2.4,9-1.5c0.3-0.5,2.3-4.1,6.4-4.7c3.9-0.6,8.1,1.9,9.8,6.2c1.2-6.4,4-7.6,4.6-7.8
	c4.3-1.6,10,4.1,13.9,8c2.7-3.6,5.9-5.6,9-5.6c1.4,0,4.4,0.3,8.1,4.2c0.5-0.2,4.4-1.9,8,0.1c3.5,1.9,5.3,6.4,4.1,10.9
	c4.8-4.4,7.8-3.7,8.4-3.5c4.4,1.3,5.5,9.4,6.3,14.9c0.3,2.4,0.4,4.6,0.4,6.4c2.7-0.6,5.1-0.5,7,0.5c1.2,0.6,3.7,2.3,5.2,7.6
	c0.5,0,4.7,0.4,7,3.9c2.2,3.3,1.6,8.2-1.6,11.5c6.3-1.6,8.6,0.5,9,0.9c3.3,3.3,0.4,10.9-1.5,16.1c-1.4,3.7-3,6.5-4.1,8.3
	c-0.3,0.1-0.5,0.3-0.8,0.4c3.1,1,5.3,2.7,6.5,4.9c0.6,1.2,1.7,4-0.1,9.2c0.4,0.3,3.6,3.1,3.5,7.2c-0.1,4-3.4,7.6-7.9,8.5
	C346.7,135.3,347.4,138.3,347.5,138.9z"/>
<path class="st3" d="M274.9,179c-1.4-2.4-2.4-4.9-3-7.5c0.7-0.2,1.4-0.3,2.1-0.5C274.8,173.5,275.1,176.3,274.9,179z"/>
<path class="st3" d="M274.9,179c-1.4-2.4-2.4-4.9-3-7.5c0.7-0.2,1.4-0.3,2.1-0.5C274.8,173.5,275.1,176.3,274.9,179z"/>
<path class="st5" d="M204.9,135.2c-2.8,3.8-7.7,5.9-12.1,5.8c-9.1-0.1-17-9.5-15.7-14.5c0.7-2.8,3.8-3,4.5-6.1
	c0.9-4.2-5.6-6.9-4.7-9.4c1.1-3.4,13.3-0.2,16.3-5.4c1.7-2.9-0.9-6.1,0.5-7.1c2.3-1.7,12.8,4.1,15.5,13.3c1.6,5.3,0.2,10.3-2.2,18.5
	C206.4,132.5,205.8,133.9,204.9,135.2z"/>
<path class="st3" d="M312.3,88.8c0.9-4.6,4.6-8.5,8.5-10.3c8.3-3.7,19.4,1.5,20.4,6.6c0.5,2.8-2.2,4.4-1.5,7.5
	c0.9,4.2,7.9,3.9,8.2,6.6c0.4,3.6-12,5.7-12.6,11.7c-0.3,3.4,3.3,5.2,2.5,6.7c-1.4,2.5-13.3,1.6-19.7-5.6c-3.6-4.1-4.4-9.2-5.8-17.7
	C312,91.9,312,90.5,312.3,88.8z"/>
<path class="st5" d="M315.6,118.7c2.4,1.6,5.5,1.7,7.9,0.6c5-2.2,7.4-9.6,5.5-12.4c-1-1.5-2.8-0.9-3.8-2.6c-1.4-2.3,1.6-5.4,0.6-6.7
	c-1.4-1.8-7.4,3-10.2,0.6c-1.6-1.3-0.8-3.8-1.8-4.1c-1.6-0.5-6.2,5.5-5.7,11.6c0.3,3.5,2.1,6.2,5.2,10.5
	C314.2,117.4,314.7,118.1,315.6,118.7z"/>
<path class="st5" d="M259.3,157.7c5.4,2.8,9,8.9,9.7,14.8c1.5,11.4-6.8,24.9-15.3,25.2c-3.9,0.1-7-2.7-8.7-4.5
	c-2.6,5.2-6.9,9.1-11,8.9c-5.8-0.2-12.1-8.8-10.1-20.7c-5.9,2.7-8.2,2.2-9.1,1.2c-2.9-3.4,3.1-18.6,13.8-24.5c6.4-3.5,13-2.9,24-2
	C255.7,156.3,257.4,156.7,259.3,157.7z"/>
<path class="st5" d="M289.7,157.3c2-4.3,6.4-7.2,10.7-8c9-1.6,18.5,6,18.2,11.3c-0.2,2.8-3.2,3.7-3.2,6.9c-0.1,4.3,6.8,5.7,6.5,8.3
	c-0.5,3.6-13,2.7-15,8.4c-1.1,3.2,2,5.8,0.9,7.1c-1.9,2.1-13.3-1.6-17.8-10.1c-2.6-4.9-2.1-10-1.4-18.6
	C288.8,160.2,289,158.8,289.7,157.3z"/>
<path class="st5" d="M248,145.8c-4.7,0.7-9.6-1.4-12.6-4.5c-6.3-6.6-5.3-18.8-0.8-21.4c2.5-1.4,4.8,0.6,7.5-1.1
	c3.6-2.3,1-8.8,3.3-10c3.2-1.6,9.5,9.3,15.3,7.8c3.3-0.9,3.7-4.9,5.4-4.6c2.8,0.4,6,12,1.5,20.4c-2.6,4.9-7.2,7.4-14.7,11.5
	C250.9,145,249.6,145.5,248,145.8z"/>
<path class="st3" d="M228.1,149.1c0,3.4-0.3,9.2-3.4,15.3c-1.3,2.6-7,13.9-17.1,14.7c-7,0.6-14.4-3.9-14.3-7.2
	c0.1-3.6,8.8-5.5,8.4-7.7c-0.4-2-7.4-1.4-7.8-3.5c-0.4-1.9,4.8-3.1,5-6.4c0.1-2.2-2.1-2.6-3-6.3c-0.2-0.9-0.9-3.5,0.3-5.6
	c1.5-2.7,5.4-3.1,8.6-3.4c2.7-0.3,10.4-0.9,17.6,4.3C225.1,145.3,227,147.6,228.1,149.1z"/>
<path class="st3" d="M247.3,125.9c2.2,3,5.6,8.5,6.7,16c0.5,3.2,2.6,17-6,24.2c-5.9,5-15.5,5.7-17.5,2.6c-2.2-3.3,4.5-10.6,2.6-12.3
	c-1.6-1.5-7.6,3.5-9.3,1.9c-1.5-1.4,2.3-5.9,0.4-9c-1.3-2-3.6-1-6.7-3.7c-0.8-0.7-3.1-2.6-3.4-5.2c-0.4-3.4,2.9-6.3,5.6-8.6
	c2.3-2,8.8-7.4,18.6-7.5C242.2,124.3,245.3,125.2,247.3,125.9z"/>
<path class="st3" d="M229.4,81.9c2.2-3,5.6-8.5,6.7-16c0.5-3.2,2.6-17-6-24.2c-5.9-5-15.5-5.7-17.5-2.6c-2.2,3.3,4.5,10.6,2.6,12.3
	c-1.6,1.5-7.6-3.5-9.3-1.9c-1.5,1.4,2.3,5.9,0.4,9c-1.3,2-3.6,1-6.7,3.7c-0.8,0.7-3.1,2.6-3.4,5.2c-0.4,3.4,2.9,6.3,5.6,8.6
	c2.3,2,8.8,7.4,18.6,7.5C224.2,83.4,227.4,82.6,229.4,81.9z"/>
<path class="st3" d="M275.1,142.2c-2.2,3-5.6,8.5-6.7,16c-0.5,3.2-2.6,17,6,24.2c5.9,5,15.5,5.7,17.5,2.6c2.2-3.3-4.5-10.6-2.6-12.3
	c1.6-1.5,7.6,3.5,9.3,1.9c1.5-1.4-2.3-5.9-0.4-9c1.3-2,3.6-1,6.7-3.7c0.8-0.7,3.1-2.6,3.4-5.2c0.4-3.4-2.9-6.3-5.6-8.6
	c-2.3-2-8.8-7.4-18.6-7.5C280.2,140.7,277.1,141.5,275.1,142.2z"/>
<path class="st3" d="M254.3,154.1c-1.3,1.7-3.2,4.9-3.9,9.3c-0.3,1.9-1.5,9.9,3.5,14.1c3.4,2.9,9,3.3,10.2,1.5
	c1.3-1.9-2.6-6.2-1.5-7.2c1-0.9,4.4,2,5.4,1.1c0.9-0.8-1.4-3.4-0.2-5.2c0.7-1.2,2.1-0.6,3.9-2.2c0.4-0.4,1.8-1.5,2-3
	c0.2-2-1.7-3.6-3.3-5c-1.3-1.1-5.1-4.3-10.8-4.3C257.2,153.3,255.4,153.7,254.3,154.1z"/>
<path class="st3" d="M296.6,125.3c2.8-2.4,8.1-6.1,15.5-7.8c3.2-0.7,16.8-3.8,24.6,4.3c5.4,5.6,6.8,15.1,3.8,17.3
	c-3.1,2.4-10.9-3.7-12.5-1.7c-1.4,1.7,4,7.3,2.5,9.2c-1.3,1.6-6-1.9-9,0.3c-1.9,1.4-0.8,3.6-3.3,7c-0.6,0.8-2.4,3.2-5,3.7
	c-3.4,0.6-6.4-2.5-8.9-5c-2.1-2.2-8-8.3-8.7-18.1C295.4,130.5,296,127.4,296.6,125.3z"/>
<path class="st3" d="M228.1,136.5c-1.4,3.4-4.3,9.2-10.1,14.1c-2.5,2.1-13.1,11.1-23.8,7.6c-7.4-2.4-13-10.2-11.4-13.6
	c1.7-3.6,11.4-1.8,11.9-4.2c0.4-2.2-7-4.6-6.5-7c0.4-2.1,6.2-1.1,7.8-4.4c1-2.1-1-3.6-0.3-7.7c0.2-1,0.6-4,2.7-5.6
	c2.7-2.1,6.8-0.8,10.2,0.3c2.9,0.9,10.9,3.6,16.1,12C226.7,131.4,227.6,134.5,228.1,136.5z"/>
<path class="st3" d="M260.9,58.5c-3.5,1.3-9.6,3.2-17.2,2.4c-3.3-0.4-17.1-1.8-21.9-12c-3.3-7-1.5-16.4,2-17.6
	c3.7-1.2,9.1,7,11.2,5.7c1.9-1.2-1.4-8.2,0.6-9.5c1.8-1.1,5.1,3.8,8.6,2.7c2.3-0.7,1.9-3.2,5.3-5.5c0.8-0.6,3.3-2.3,5.9-1.9
	c3.4,0.5,5.3,4.4,6.9,7.6c1.3,2.7,4.9,10.4,2.4,19.9C263.7,54,262.1,56.8,260.9,58.5z"/>
<path class="st3" d="M287.2,68.1c-3.5-1.4-9.3-4.2-14.3-9.9c-2.2-2.5-11.3-13-8-23.7c2.3-7.4,10-13.1,13.4-11.6
	c3.6,1.6,1.9,11.4,4.4,11.8c2.2,0.4,4.5-7,6.9-6.6c2.1,0.4,1.2,6.2,4.5,7.8c2.2,1,3.5-1,7.7-0.5c1,0.1,4,0.6,5.6,2.6
	c2.2,2.7,0.9,6.8-0.1,10.2c-0.9,2.9-3.5,11-11.7,16.3C292.3,66.6,289.2,67.6,287.2,68.1z"/>
<path class="st3" d="M308.6,90.8c-3.5-1.4-9.3-4.2-14.3-9.9c-2.2-2.5-11.3-13-8-23.7c2.3-7.4,10-13.1,13.4-11.6
	c3.6,1.6,1.9,11.4,4.4,11.8c2.2,0.4,4.5-7,6.9-6.6c2.1,0.4,1.2,6.2,4.5,7.8c2.2,1,3.5-1,7.7-0.5c1,0.1,4,0.6,5.6,2.6
	c2.2,2.7,0.9,6.8-0.1,10.2c-0.9,2.9-3.5,11-11.7,16.3C313.7,89.4,310.7,90.3,308.6,90.8z"/>
<path class="st4" d="M274.2,80.8c-4-1.7-6.9-5.9-7.7-10c-1.7-8,3.5-18.1,9.6-18.7c2.8-0.3,5.1,1.5,6.4,2.7c1.6-3.9,4.5-6.8,7.3-6.9
	c4.2-0.2,9.1,5.6,8.3,14.2c4.1-2.2,5.7-2,6.4-1.3c2.3,2.3-1.2,13.4-8.5,18.2c-4.4,2.9-9.1,2.8-16.9,2.7
	C276.8,81.5,275.6,81.4,274.2,80.8z"/>
<path class="st4" d="M238.5,79.4c-4-1.7-6.9-5.9-7.7-10c-1.7-8,3.5-18.1,9.6-18.7c2.8-0.3,5.1,1.5,6.4,2.7c1.6-3.9,4.5-6.8,7.3-6.9
	c4.2-0.2,9.1,5.6,8.3,14.2c4.1-2.2,5.7-2,6.4-1.3c2.3,2.3-1.2,13.4-8.5,18.2c-4.4,2.9-9.1,2.8-16.9,2.7
	C241.2,80.2,239.9,80,238.5,79.4z"/>
<path class="st5" d="M241.8,109.4c-7.8-3.3-13.4-11.4-15.1-19.6c-3.3-15.7,6.9-35.4,18.7-36.6c5.4-0.5,10,3,12.5,5.3
	c3.1-7.5,8.7-13.3,14.3-13.5c8.2-0.3,17.8,11,16.2,27.7c8-4.3,11.2-4,12.6-2.6c4.4,4.4-2.4,26.2-16.7,35.6
	c-8.5,5.6-17.7,5.5-33.1,5.2C247,110.8,244.5,110.5,241.8,109.4z"/>
<path class="st5" d="M272.9,133.8c4.7,0.3,9.1,3.4,11.3,7.1c4.7,7.8,1.1,19.5-3.9,21.1c-2.7,0.9-4.6-1.6-7.6-0.5
	c-4.1,1.5-2.9,8.4-5.4,9c-3.5,0.9-7.2-11.1-13.3-10.9c-3.4,0.1-4.7,4-6.3,3.4c-2.6-1-3.3-13,3-20.2c3.6-4.2,8.6-5.6,16.8-8
	C269.8,133.9,271.2,133.7,272.9,133.8z"/>
<path class="st3" d="M238,103.4c-3,2.2-8.5,5.6-16,6.7c-3.2,0.5-17,2.6-24.2-6c-5-5.9-5.7-15.5-2.6-17.5c3.3-2.2,10.6,4.5,12.3,2.6
	c1.5-1.6-3.5-7.6-1.9-9.3c1.4-1.5,5.9,2.3,9,0.4c2-1.3,1-3.6,3.7-6.7c0.7-0.8,2.6-3.1,5.2-3.4c3.4-0.4,6.3,2.9,8.6,5.6
	c2,2.3,7.4,8.8,7.5,18.6C239.5,98.3,238.7,101.4,238,103.4z"/>
<path class="st3" d="M296.1,118.4c-1.5-2.1-3.8-5.8-4.6-11c-0.3-2.2-1.8-11.6,4.1-16.6c4.1-3.4,10.6-3.9,12-1.8
	c1.5,2.3-3.1,7.3-1.8,8.4c1.1,1,5.2-2.4,6.4-1.3c1,1-1.6,4-0.3,6.1c0.9,1.4,2.4,0.7,4.6,2.6c0.5,0.4,2.1,1.8,2.3,3.6
	c0.3,2.3-2,4.3-3.8,5.9c-1.6,1.4-6,5.1-12.8,5.1C299.6,119.4,297.5,118.8,296.1,118.4z"/>
<path class="st5" d="M283.3,139.8c1.8,4,6.5,6.8,11.2,7.5c9.8,1.5,21-5.8,21.1-10.8c0.1-2.7-3.2-3.5-3-6.5c0.3-4.1,8-5.4,7.9-7.9
	c-0.2-3.4-14.1-2.5-15.8-7.9c-0.9-3,2.7-5.5,1.6-6.7c-1.9-2-14.9,1.6-20.5,9.7c-3.3,4.6-3.2,9.5-3.2,17.6
	C282.5,137.1,282.7,138.4,283.3,139.8z"/>
<path class="st3" d="M270,134.4c-3.5-1.4-9.3-4.2-14.3-9.9c-2.2-2.5-11.3-13-8-23.7c2.3-7.4,10-13.1,13.4-11.6
	c3.6,1.6,1.9,11.4,4.4,11.8c2.2,0.4,4.5-7,6.9-6.6c2.1,0.4,1.2,6.2,4.5,7.8c2.2,1,3.5-1,7.7-0.5c1,0.1,4,0.6,5.6,2.6
	c2.2,2.7,0.9,6.8-0.1,10.2c-0.9,2.9-3.5,11-11.7,16.3C275.2,133,272.1,133.9,270,134.4z"/>
<path class="st5" d="M233.6,135.2c-4,2.5-9.3,2.6-13.4,1c-8.4-3.5-12.4-15.1-9.3-19.3c1.7-2.3,4.7-1.4,6.4-4.1
	c2.4-3.6-2.6-8.5-1-10.5c2.3-2.8,12.4,4.7,17.2,1c2.7-2.1,1.4-6,3.1-6.4c2.7-0.7,10.4,8.5,9.5,18.1c-0.5,5.5-3.6,9.6-8.8,16.4
	C236,133.2,235,134.3,233.6,135.2z"/>
<path class="st3" d="M228.8,102.6c1.4,1.6,4.1,4.3,8.2,5.9c1.8,0.7,9.3,3.7,14.5-0.2c3.6-2.7,5.2-8,3.8-9.6
	c-1.6-1.7-6.6,1.2-7.3-0.1c-0.6-1.1,3-3.8,2.3-5c-0.6-1.1-3.6,0.6-5.1-1c-1-1-0.1-2.1-1.2-4.3c-0.3-0.5-1.1-2.1-2.5-2.6
	c-1.9-0.7-3.9,0.8-5.6,2.1c-1.4,1-5.4,4-6.6,9.6C228.7,99.5,228.7,101.4,228.8,102.6z"/>
</svg>
