<?xml version="1.0" encoding="utf-8"?>
<!-- Generator: Adobe Illustrator 24.1.2, SVG Export Plug-In . SVG Version: 6.00 Build 0)  -->
<svg version="1.1" id="Layer_1" xmlns="http://www.w3.org/2000/svg" xmlns:xlink="http://www.w3.org/1999/xlink" x="0px" y="0px"
	 viewBox="0 0 512 512" style="enable-background:new 0 0 512 512;" xml:space="preserve">
<style type="text/css">
	.st0{fill:#48873E;}
	.st1{fill:#C82569;}
	.st2{fill:#EA96C0;}
	.st3{fill:#FBAE47;}
	.st4{fill:#F2DF38;}
</style>
<g id="tallo">
	<path class="st0" d="M252.4,454.8c-14.4,49-21.3,55.5-27.7,56.3c-8,1-18-6.4-19.7-14.3c-1.5-7.1,4.2-11.8,10.7-23.7
		c3.6-6.5,6.1-14.9,11.2-31.8c11.6-38.3,17.4-57.5,15.2-77.4c-2.3-21.1-9.9-28.3-4-38.5c7.2-12.4,27.8-18,34.4-11.6
		c4.4,4.2,2.1,13,0.9,17.9C260.8,383.3,275.4,376.5,252.4,454.8z"/>
	<path class="st0" d="M105.2,367.6c4.6-7.3,18.6-5.2,26.8-4c26.4,3.9,43.3,20.5,44.7,21.9c9.6,9.6,7.2,12.5,22.4,33.1
		c12.5,17.1,18.8,25.6,26.2,27.8c9.6,2.8,15.7-2.4,52-22.4c34.2-18.8,37.3-18.7,45.2-26.8c15.2-15.7,11.8-23.7,25.9-35.3
		c18.6-15.3,47.8-20.8,56.8-10.3c4.1,4.8,4.3,13.3,0.9,18.8c-6.1,9.9-21.2,5.8-35.8,11.2c-19.6,7.2-16.8,25-35.8,44.7
		c-11.9,12.3-26.1,17.7-54.6,28.6c-37.4,14.3-59.8,23.4-78.7,13c-7.9-4.4-12.8-10.7-16.6-15.6c-13.3-17.4-8.6-28.1-21.5-45.6
		c-5.5-7.4-12.2-16.6-23.7-19.7c-14.1-3.8-24,4.6-31.3-1.8C103.6,380.9,102.2,372.4,105.2,367.6z"/>
	<path class="st0" d="M315,378.3c3.8-7.4,6.8-10.5,5.4-13.4c-1.8-3.6-9.5-4.9-15.2-2.7c-8.7,3.4-11.6,14.4-15.2,27.7
		c-3.7,13.9-5.6,20.8-3.6,25.9c11.2,28.5,105.8,5.1,114-3.1c2.8-2.8,3.1-5.8,3.1-5.8c0.5-4.2-2.7-7.6-3.1-8c-3-3.1-8.3-4.6-21-2.7
		c-12,1.9-18.3,4.9-25.5,7.1c-17.6,5.5-42,6.5-46.1-1.8C305.4,396.7,309.7,388.4,315,378.3z"/>
	<path class="st0" d="M194.3,388.1c-3.8-7.4-6.8-10.5-5.4-13.4c1.8-3.6,9.5-4.9,15.2-2.7c8.7,3.4,11.6,14.4,15.2,27.7
		c3.7,13.9,5.6,20.8,3.6,25.9c-11.2,28.5-105.8,5.1-114-3.1c-2.8-2.8-3.1-5.8-3.1-5.8c-0.5-4.2,2.7-7.6,3.1-8c3-3.1,8.3-4.6,21-2.7
		c12,1.9,18.3,4.9,25.5,7.1c17.6,5.5,42,6.5,46.1-1.8C203.9,406.6,199.5,398.2,194.3,388.1z"/>
</g>
<path class="st1" d="M402.4,254.5c28.7-6.7,50.7-33.7,46.5-43.8c-2.1-5-10-4.6-11.6-10.8c-2-7.3,7.9-12,8.9-20.6
	c1.5-11.4-13-25.6-27.7-31.3c-3.1-1.2-6.7-2.2-12.9-2c0.8-0.9,1.5-1.8,2-2.8c15.5-25.1,12-59.7,1.9-63.9c-5-2.1-10.3,3.8-15.8,0.6
	c-6.5-3.8-2.9-14.1-8.2-20.9c-7.1-9.1-27.3-8.9-41.8-2.5c-6.5,2.9-14.1,8-31.1,38.4c7.4-23.2,10.6-36.7,8.5-45.5
	c-6.7-28.7-33.7-50.7-43.9-46.5c-5,2.1-4.5,10-10.7,11.6c-7.3,2-12-7.8-20.6-8.9c-11.4-1.4-25.6,13-31.3,27.7
	c-2.4,6.1-4,14.2,3.1,41.7c-6.3-10.8-11.4-17.4-16.6-20.7c-25.1-15.5-59.6-12-63.9-1.9c-2.1,5,3.9,10.3,0.6,15.8
	c-3.8,6.5-14,2.9-20.8,8.2c-9.1,7-8.9,27.3-2.6,41.7c1.7,3.8,4.2,8,12.1,14.3c-6.3-1.4-11.3-1.7-15.3-0.9
	c-28.9,5.7-51.9,31.8-48.1,42.1c1.9,5.1,9.8,4.9,11.2,11.1c1.7,7.4-8.3,11.7-9.7,20.2c-1.9,11.4,12.1,26.1,26.6,32.3
	c3.1,1.3,6.6,2.4,12.9,2.5c-0.1,0.1-0.2,0.3-0.3,0.4c-18.1,23.3-18.2,58.1-8.6,63.3c4.8,2.6,10.6-2.8,15.8,1
	c6.1,4.4,1.4,14.3,6,21.6c6.1,9.8,26.2,11.7,41.2,6.9c5.9-1.9,12.8-5.4,27.7-25c-2.7,9.6-3.6,16.5-2.5,21.8
	c5.6,28.9,31.8,51.9,42.1,48.1c5.1-1.9,4.9-9.8,11.1-11.2c7.4-1.7,11.7,8.3,20.2,9.7c11.4,1.9,26.1-12.1,32.3-26.5
	c2.8-6.5,4.9-15.4-3.3-49.1c13.3,21.1,21.6,32.5,29.7,36.7c26.3,13.4,60.5,7,63.8-3.4c1.6-5.1-4.7-9.9-2-15.7
	c3.2-6.8,13.7-4.1,20.1-10c8.5-7.8,6.5-28-1-41.8c-2-3.6-4.8-7.6-13.1-13.1C391.7,255.2,397.7,255.6,402.4,254.5z M276.6,234.2
	c-3.3,2.2-6.3,3.2-8.8,4c-0.4-1.3-0.8-2.5-1.2-3.6c-6.5,2.2-16.1,4.2-26,0.8c-8.8-3-11.3-8.1-16.7-7.8c-2.1,0.1-4,1-5.8,2.6
	c-2.2-2.6-4.1-5.5-5.5-9c-3.5-8.6-1.4-13.8-5.1-17.7c-0.9-1-2.1-1.7-3.4-2.1c-0.2-4,0.3-8.2,1.8-12.5c1.6-4.7,3.8-7.6,5.4-10.1
	c1.2,0.5,2.2,1.1,3.2,1.5c2.8-6.2,7.9-14.6,17.1-19.6c8.2-4.4,13.7-2.8,17.1-7c1.8-2.1,2.3-4.9,2-8.3c5-0.9,10.8-1.1,16.8,0.7
	c8.2,2.5,11.1,6.9,15.8,7.2c-0.6,1.2-1,2.2-1.5,3.2c6.2,2.8,14.6,7.9,19.6,17.1c4,7.3,3.1,12.4,5.8,15.9c0.1,3.6-0.2,7.4-1.4,11.3
	c-2.3,7.6-6.3,10.7-7.1,14.8c-2.5-0.9-4.7-1.7-6.7-2.4C289.7,219.6,285.4,228.5,276.6,234.2z"/>
<path class="st2" d="M417.2,214.4c0.3,11.9-18.6,18.2-20.8,18.8c-9.7,3.1-18.6,0.9-36-3.5c-16.5-4.3-25.1-8.1-37-13.7
	c-1-0.5-2-1-3-1.5c-1.1,3-2.3,5.9-3.8,8.7c1.1,0.3,2.3,0.7,3.5,1.1c4,1.3,18.6,6.1,39.4,22.6c13.6,10.8,22.3,18,27.2,30.8
	c1.9,5,6,15.9,1,21.7c-4.9,5.8-17.6,5.5-30.7-2.1c7.2,10.2,7.5,22,2,27.7c-8.3,8.6-26-0.3-28-1.4c-9-4.7-13.8-12.5-22.9-28
	c-8.6-14.6-12-23.5-16.5-35.9c-1-2.8-1.8-5.6-2.4-8.3c-6.7,3.9-14.1,6.7-22,8.1c2.5,7.3,5.4,18,7.1,32.5c2,17.3,3.1,28.5-2.5,41
	c-2.2,4.9-7,15.5-14.7,16.1c-7.6,0.6-16.3-8.5-20.3-23.2c-2,12.3-10.2,20.9-18.1,21c-12,0.3-18.2-18.6-18.9-20.8
	c-3.1-9.7-0.9-18.6,3.6-36c4.2-16.5,8.1-25.1,13.7-37c0.4-0.8,0.8-1.6,1.2-2.4c-1.4-0.8-2.7-1.6-4-2.6c-0.4,1.4-0.9,2.9-1.4,4.4
	c-1.3,3.9-6.1,18.6-22.6,39.4c-10.8,13.6-17.9,22.3-30.8,27.2c-5,1.9-15.9,6-21.8,1c-5.8-4.9-5.5-17.6,2.1-30.7
	c-10.1,7.3-22,7.5-27.7,2.1c-8.7-8.3,0.3-26,1.3-28c4.7-9,12.5-13.8,27.9-22.9c14.6-8.6,23.4-12,35.9-16.5c4.7-1.7,9.3-2.8,13.5-3.4
	c-1.8-3.8-3.4-7.9-4.5-12c-0.8,0.4-1.6,0.8-2.5,1.3c-3.7,1.9-17.5,8.9-43.8,11.9c-17.3,2-28.4,3.1-41-2.5c-4.8-2.2-15.5-7-16.1-14.7
	c-0.6-7.6,8.6-16.3,23.2-20.3c-12.3-2-20.9-10.2-21-18.1c-0.3-12,18.6-18.2,20.8-18.9c9.7-3.1,18.6-0.9,36,3.6
	c16.4,4.2,25.1,8.1,37,13.7c3,1.4,5.8,3,8.3,4.6c1.1-3.4,2.3-6.6,3.9-9.8c-6.9-2.8-18.7-8.6-33.6-20.5
	c-13.6-10.8-22.3-17.9-27.2-30.8c-1.9-5-6.1-15.9-1-21.8c4.9-5.7,17.6-5.5,30.7,2.1c-7.3-10.2-7.5-22-2-27.7c8.2-8.6,26,0.3,28,1.3
	c9.1,4.7,13.8,12.5,22.9,27.9c8.7,14.7,12.1,23.5,16.5,35.9c0,0,0,0.1,0,0.1c3.3-1.5,6.6-2.7,10.1-3.7c-2.7-7.3-5.9-18.5-7.7-34.1
	c-2-17.3-3.1-28.5,2.5-41c2.2-4.8,7-15.5,14.7-16.1c7.5-0.6,16.3,8.6,20.2,23.2c2-12.3,10.2-20.9,18.2-21
	c11.9-0.3,18.2,18.6,18.8,20.8c3.1,9.7,0.9,18.6-3.5,36c-4.2,16.4-8.1,25-13.7,37c1.9,0.9,3.8,2,5.6,3.1c2.8-6.9,8.6-18.7,20.5-33.7
	c10.8-13.6,17.9-22.3,30.8-27.2c5-1.9,15.9-6,21.8-1c5.7,4.9,5.5,17.6-2.1,30.7c10.1-7.2,22-7.5,27.7-2c8.6,8.3-0.3,26-1.4,28
	c-4.7,9.1-12.5,13.8-27.9,22.9c-14.6,8.7-23.5,12.1-35.9,16.5c-1.4,0.5-2.8,1-4.2,1.3c0.4,1,0.8,2.1,1.1,3.2c6-2.8,19.2-8,40.9-10.5
	c17.3-2,28.5-3.1,41,2.5c4.9,2.2,15.5,7,16.1,14.7c0.6,7.5-8.5,16.3-23.2,20.2C408.4,198.3,417,206.5,417.2,214.4z"/>
<circle class="st3" cx="253.8" cy="187.2" r="51"/>
<ellipse transform="matrix(0.1602 -0.9871 0.9871 0.1602 28.3012 407.7041)" class="st4" cx="253.8" cy="187.2" rx="39.1" ry="39"/>
</svg>
