<?xml version="1.0" encoding="utf-8"?>
<!-- Generator: Adobe Illustrator 24.1.2, SVG Export Plug-In . SVG Version: 6.00 Build 0)  -->
<svg version="1.1" id="Layer_1" xmlns="http://www.w3.org/2000/svg" xmlns:xlink="http://www.w3.org/1999/xlink" x="0px" y="0px"
	 viewBox="0 0 512 512" style="enable-background:new 0 0 512 512;" xml:space="preserve">
<style type="text/css">
	.st0{fill:#48873E;}
	.st1{fill:#3C1212;}
	.st2{fill:#6A3332;}
	.st3{fill:#9F372F;}
	.st4{fill:#C95928;}
</style>
<path class="st0" d="M254.8,452.4c-14.4,49-21.3,55.5-27.7,56.3c-8,1-18-6.4-19.7-14.3c-1.5-7.1,4.2-11.8,10.7-23.7
	c3.6-6.5,6.1-14.9,11.2-31.8c11.6-38.3,17.4-57.5,15.2-77.4c-2.3-21.1-9.9-28.3-4-38.5c7.2-12.4,27.8-18,34.4-11.6
	c4.4,4.2,2.1,13,0.9,17.9C263.3,380.9,277.8,374.1,254.8,452.4z"/>
<path class="st0" d="M107.3,387.7c4.6-7.3,18.6-5.2,26.8-4c16.8,2.7,32.3,10.3,44.7,21.9c9.6,9.6,7.2,12.5,22.4,33.1
	c12.5,17.1,18.8,25.6,26.2,27.8c9.6,2.8,15.7-2.4,52-22.4c34.2-18.8,37.3-18.7,45.2-26.8c15.2-15.7,11.8-23.7,25.9-35.3
	c18.6-15.3,47.8-20.8,56.8-10.3c4.1,4.8,4.3,13.3,0.9,18.8c-6.1,9.9-21.2,5.8-35.8,11.2c-19.6,7.2-16.8,25-35.8,44.7
	c-11.9,12.3-26.1,17.7-54.6,28.6c-37.4,14.3-59.8,23.4-78.7,13c-7.9-4.4-12.8-10.7-16.6-15.6c-13.3-17.4-8.6-28.1-21.5-45.6
	c-5.5-7.4-12.2-16.6-23.7-19.7c-14.1-3.8-24,4.6-31.3-1.8C105.7,400.9,104.3,392.5,107.3,387.7z"/>
<path class="st0" d="M360.1,373.9c-2.9-17.6-0.2-27.7-4.5-29.4c-3.2-1.3-8.2,3.1-10.8,6.4c-13.9,17.3-2.3,49.7,7.4,66.9
	c4.1,7.3,8.8,15.3,18.2,22.2c10.2,7.5,30.6,16.8,44.1,7.6c5-3.5,10.5-10.5,8.6-15c-3.4-7.9-25.8,1.9-42-11.2
	c-4.5-3.6-6.7-8.3-11.3-17.4C365,394.6,361.7,384.4,360.1,373.9z"/>
<path class="st0" d="M107.8,419.4c-17.8,0.2-27.4-4-29.7,0c-1.7,3,1.9,8.5,4.7,11.7c15,16.4,48.8,9.8,67.2,2.8
	c7.9-3,16.5-6.3,24.7-14.6c8.9-9,21.3-27.8,14.2-42.4c-2.7-5.5-8.8-11.9-13.5-10.8c-8.3,2.1-2.1,25.8-17.4,39.8
	c-4.3,3.9-9.2,5.4-18.9,8.5C129,417.6,118.4,419.3,107.8,419.4z"/>
<path class="st0" d="M303.4,421.8c-1.6-0.8-7.6-3.6-9.4-1.7c-1.5,1.7,0.8,6,1.9,8c18,33.8,20.6,45.7,29.8,46
	c5.8,0.1,11.9-4.4,11.6-7.1c-0.3-2.5-5.9-3.6-8.7-4.4C320.9,460,311.2,451.2,303.4,421.8z"/>
<path class="st0" d="M231.7,387.5c-0.4-8.3,0.7-12.5-2-14.3c-3.4-2.2-10.7,0.5-14.5,5.2c-5.9,7.3-2.9,18.3,0.6,31.6
	c3.7,13.9,5.5,20.8,9.8,24.3c23.9,19.1,94.3-48.2,97.3-59.4c0.6-2.2,0.6-4.5-0.2-6.6c-1.7-3.9-6.1-5.3-6.7-5.4
	c-4.1-1.2-9.5,0.1-19.6,8.1c-9.5,7.6-13.4,13.4-18.6,18.9c-12.5,13.5-33.2,26.5-40.9,21.4C232.6,408.2,232.2,398.9,231.7,387.5z"/>
<path class="st1" d="M324.4,333.5c25.8,14.2,60.2,8.8,63.9-1.5c1.8-5.1-4.4-10.1-1.4-15.8c3.4-6.8,13.9-3.6,20.4-9.4
	c8.7-7.5,7.4-27.7,0.3-41.8c-2-3.9-4.8-7.4-8.3-10.1c1.1-0.1,2.3-0.4,3.4-0.8c28.3-8.3,48.8-36.4,44.1-46.3
	c-2.3-4.9-10.2-4-12.1-10.1c-2.3-7.2,7.3-12.4,7.9-21c0.8-11.5-14.4-24.9-29.4-29.8c-6.8-2.2-15.8-3.5-48.8,7.8
	c21-12.3,32.4-20.2,36.7-28.2c14.2-25.8,8.8-60.2-1.6-63.9c-5.1-1.8-10,4.4-15.7,1.5c-6.8-3.4-3.7-13.8-9.4-20.4
	c-7.5-8.7-27.7-7.4-41.8-0.3c-5.9,2.9-12.5,7.9-25.6,33.1c2.5-12.2,3.1-20.6,1.5-26.5c-8.3-28.3-36.3-48.8-46.3-44.1
	c-4.9,2.3-4,10.3-10.1,12.1c-7.2,2.3-12.4-7.2-20.9-7.8c-11.4-0.9-24.9,14.4-29.8,29.3c-1.3,4-2.2,8.8-0.6,18.7
	c-3.8-5.3-7.3-8.8-10.8-10.9c-25.3-15.1-59.9-11-63.9-0.8c-2,5.1,4,10.2,0.9,15.7c-3.7,6.7-14,3.2-20.7,8.6
	c-9,7.2-8.4,27.5-1.8,41.8c1.9,4,4.6,7.6,8,10.5c-0.1,0-0.4,0.1-0.5,0.1c-29,5.2-52.4,31.1-48.7,41.3c1.8,5.1,9.8,5,11.1,11.3
	c1.6,7.4-8.5,11.6-10,20.1c-2,11.4,11.7,26.2,26,32.7c5.7,2.5,13.1,4.5,37.3-0.1c-8.4,5.3-13.7,9.9-16.4,14.6
	c-15.1,25.3-11,59.9-0.8,63.9c5.1,2,10.2-4,15.7-0.9c6.6,3.7,3.2,14,8.6,20.7c7.2,9,27.5,8.4,41.7,1.9c6.4-3,13.9-8.2,30.4-38.7
	c-4.2,24.6-5.6,38.6-2.4,47.1c10.6,27.5,40.3,45.6,49.7,40.1c4.6-2.7,3.1-10.5,9-13c6.9-2.9,12.9,6.1,21.6,6
	c11.5-0.1,23.5-16.5,27.2-31.8c0.9-4,1.5-8.9-1-18.5C316.1,326.9,320.3,331.2,324.4,333.5z M244.4,234.4c-3.2-0.5-6.3-1.5-9.2-2.9
	c0.6-1.2,1.1-2.4,1.5-3.5c-6.3-2.7-14.8-7.6-19.9-16.8c-4.5-8.1-3-13.6-7.2-17c-1.7-1.3-3.9-2-6.1-1.9c0.1-3.5,0.7-7,1.9-10.4
	c3.1-8.7,8.2-11.2,8-16.6c0-1.4-0.4-2.7-1.1-3.8c2.7-3.3,6-6.1,9.7-8.1c3.4-1.8,7-3.1,10.8-3.9c0.6,1.2,0.9,2.3,1.4,3.3
	c6.2-2.7,15.6-5.6,25.8-3.1c9,2.2,12.1,7.1,17.4,6.2c2.7-0.4,5-2.1,7-4.8c4.9,2.9,9,6.9,12,11.7c4.4,7.3,3.6,12.5,6.9,15.9
	c-1.3,0.5-2.2,1-3.3,1.4c2.7,6.2,5.6,15.6,3.1,25.8c-1.9,8.1-6,11.3-6.3,15.7c-2.4,2.9-5.3,5.5-8.6,7.5c-6.8,4.1-11.8,3.8-15.2,6.3
	c-1.3-2.3-2.4-4.4-3.4-6.3C264,232.3,254.8,236,244.4,234.4L244.4,234.4z"/>
<path class="st2" d="M362.2,313.5c-7.7,9-26,1.1-28,0.1c-9.3-4.2-14.4-11.8-24.4-26.7c-9.4-14.2-13.3-22.8-18.4-34.9l-1.2-3.1
	c-2.8,1.5-5.7,2.8-8.6,3.9c0.6,1,1.3,2,1.9,3.2c2.1,3.6,9.8,17,14.2,43.1c2.9,17.1,4.6,28.3-0.3,41.1c-1.9,5-6.2,15.8-13.8,16.8
	s-16.8-7.7-21.4-22.1c-1.5,12.4-9.1,21.4-17,21.9c-11.9,0.9-19.1-17.6-19.9-19.8c-3.6-9.5-1.9-18.5,1.7-36.1
	c3.4-16.6,6.8-25.5,11.7-37.7c1.1-2.7,2.4-5.3,3.8-7.8c-7.7-1.6-15.1-4.5-21.8-8.7c-4.4,10.2-9.9,19.9-16.4,29
	c-10.1,14.2-16.7,23.3-29.3,28.8c-4.9,2.2-15.6,6.9-21.7,2.1s-6.4-17.2,0.4-30.8c-9.7,7.8-21.6,8.7-27.5,3.5
	c-9.1-7.8-1.1-26-0.2-28.1c4.2-9.3,11.8-14.4,26.7-24.4c14.1-9.5,22.8-13.3,34.9-18.4l2.5-1c-0.5-1.5-0.9-3-1.2-4.6
	c-1.2,0.8-2.6,1.6-4,2.3c-3.6,2-17,9.8-43.1,14.2c-17.1,2.9-28.2,4.6-41.1-0.3c-5-1.9-15.8-6.2-16.9-13.8c-1-7.7,7.7-16.8,22.1-21.4
	c-12.3-1.3-21.3-9.2-22-17c-0.9-12,17.6-19.1,19.7-20c9.5-3.6,18.5-1.9,36.1,1.6c16.6,3.4,25.4,6.7,37.7,11.7
	c4.3,1.7,8.4,3.9,12.3,6.5c1.2-4.1,2.8-8.1,4.7-11.9c-0.9-0.2-1.7-0.5-2.7-0.7c-4-1.1-19-5.1-40.5-20.4
	c-14.2-10.1-23.2-16.7-28.8-29.3c-2.1-4.8-6.9-15.6-2.2-21.7c4.7-6.1,17.3-6.4,30.8,0.4c-7.8-9.7-8.7-21.5-3.5-27.5
	c7.8-9.1,26-1.1,28.1-0.2c9.3,4.2,14.4,11.8,24.4,26.7c9.4,14.1,13.3,22.8,18.4,34.9c1.2,2.9,2.3,5.9,3.1,9c3-1.8,6.2-3.4,9.4-4.7
	c-3.2-6.7-8.2-18.9-11.3-37.7c-2.9-17.1-4.6-28.2,0.3-41.1c1.9-5,6.1-15.9,13.8-16.9c7.5-1,16.8,7.7,21.4,22.1
	c1.4-12.5,9.1-21.4,17-21.9c11.9-0.9,19.1,17.6,20,19.7c3.6,9.6,1.9,18.5-1.6,36.1c-3.4,16.7-6.7,25.6-11.7,37.7l-0.1,0.1
	c3.4,1.1,6.8,2.4,10,4c4.4-10.8,10.2-21,17-30.5c10.1-14.2,16.7-23.3,29.3-28.8c4.8-2.1,15.6-6.8,21.7-2.2s6.4,17.3-0.5,30.8
	c9.7-7.8,21.5-8.7,27.6-3.5c9.1,7.7,1.1,26,0.1,28c-4.2,9.3-11.8,14.4-26.7,24.4c-14.1,9.4-22.7,13.2-34.9,18.4c0.8,2,1.5,4,2.1,6
	c6.7-3.3,18.9-8.2,37.8-11.4c17.1-2.9,28.2-4.6,41.1,0.4c5,1.9,15.8,6.2,16.9,13.8c1,7.4-7.7,16.8-22.1,21.4
	c12.3,1.4,21.4,9.1,21.9,17c0.9,11.9-17.6,19.1-19.8,19.9c-9.6,3.6-18.5,1.9-36.1-1.6c-16.7-3.3-25.6-6.7-37.7-11.7
	c-1.4-0.5-2.7-1.1-4-1.8c-0.4,1.1-0.8,2.1-1.3,3.1c6.3,1.9,19.6,6.9,37.4,19.5c14.2,10.1,23.3,16.7,28.8,29.3
	c2.2,4.9,6.9,15.6,2.2,21.7c-4.6,6-17.2,6.5-30.8-0.5C366.5,295.7,367.4,307.5,362.2,313.5z"/>
<circle class="st3" cx="258.8" cy="184.1" r="51"/>
<ellipse transform="matrix(0.7788 -0.6273 0.6273 0.7788 -58.2656 203.0861)" class="st4" cx="258.8" cy="184.2" rx="39.1" ry="39"/>
</svg>
