<?xml version="1.0" encoding="utf-8"?>
<!-- Generator: Adobe Illustrator 24.1.2, SVG Export Plug-In . SVG Version: 6.00 Build 0)  -->
<svg version="1.1" id="Layer_1" xmlns="http://www.w3.org/2000/svg" xmlns:xlink="http://www.w3.org/1999/xlink" x="0px" y="0px"
	 viewBox="0 0 512 512" style="enable-background:new 0 0 512 512;" xml:space="preserve">
<style type="text/css">
	.st0{fill:#41A247;}
	.st1{fill:#46246C;}
	.st2{fill:#6E3A96;}
	.st3{fill:#84499D;}
	.st4{fill:#8E51A0;}
	.st5{fill:#93509F;}
	.st6{fill:#1F1037;}
</style>
<g>
	<path class="st0" d="M408.2,344.8c-1.7-4.5-8.2-4.7-14.4-7.9c-5.4-2.8-7.8-6.4-9.9-10.9c1.9-1.7,3.5-3.3,4.9-4.7
		c7.8-7.6,16.5-16.8,13.9-22.9c-1.8-4.1-8.7-6.4-13.9-4.8c-6.8,2.2-7.8,10.3-11.3,18.6c-1.6-2.7-3.5-5.5-6.1-8.5
		c-9.5-11-23.1-19.3-25.9-17.2c-1.6,1.1,0.2,5.6,2.2,9.5c8.9,11.2,16.4,20.1,22.7,27.2c-4.6,4.5-10.2,6.9-16.9,9.3
		c-0.3-0.3-0.6-0.6-1-0.8c-5.4-4.5-7.5-3.1-13.4-8.5c-6.8-6.1-8.6-12-10.2-11.4c-1.6,0.6-1.9,7.4,1.4,12.6c3.6,5.8,8.3,4,14.6,9
		c0.6,0.5,1.2,1,1.8,1.6c-8.1,3-17.4,7-27.8,15c-4.9,3.8-9.5,8-13.5,12.3c0-3.5,0-6.4-0.1-8.5c-1-54.6-19.2-114.6-33.7-114.1
		c-4.7,0.2-8.3,6.6-10.7,12.3c31.7,66.3,29.4,112.7,19.9,144c-4,13.1-9.8,25.4-16.1,36.7c-3.1-4.8-10.2-5.9-17.6-9
		c2.7-1.6,5.5-3.5,8.5-6.1c11-9.5,19.3-23.1,17.2-25.9c-1.1-1.6-5.6,0.2-9.5,2.2c-11.2,8.9-20.1,16.4-27.2,22.7
		c-4.5-4.6-6.9-10.2-9.3-16.9c0.3-0.3,0.6-0.6,0.8-1c4.5-5.4,3.1-7.5,8.5-13.4c6.1-6.8,12-8.6,11.4-10.2c-0.6-1.6-7.4-1.9-12.6,1.4
		c-5.8,3.6-4,8.3-9,14.6c-0.5,0.6-1,1.2-1.6,1.8c-2.1-5.6-4.6-11.8-8.7-18.6c12-6.7,24.6-19.7,22.3-24.8c-1.3-2.8-7.5-3.9-10.2-1.7
		c-2.2,1.8-0.4,4.7-1.8,9c-1.9,5.7-8,9.7-13.9,12c-0.9-1.2-1.8-2.5-2.7-3.8c-14.6-18.8-35.7-32.6-40.3-29c-2.6,2.1,0.1,9.7,3,16.5
		c3.2,4.5,6.3,8.8,9.3,12.9c-0.1,0.3-0.2,0.6-0.3,1c-2.5,7.6-12.8,12.3-19.8,13.7c-5.3,1.1-9.6,0.4-10.2,2.3
		c-0.5,1.5,1.8,3.8,3.4,4.7c7,3.8,22.4-5.8,31.6-15.1c8.5,11.5,16,21.2,22.6,29.4c-3,1.2-6.5,2.4-10.5,3.8c-7.4,2.6-11,3.4-10.9,4.4
		c0.2,1.7,9.6,3.3,18.6,1.5c1.8-0.4,5-1.1,8.6-2.7c5.1,6.2,9.5,11.3,13.4,15.6c-6,5.6-10.1,9.8-12.9,12.8
		c-4.6,4.9-9.7,10.9-8.3,14.7c1,2.6,4.9,3.9,7.9,2.8c4.5-1.7,4.7-8.2,7.9-14.4c2.8-5.4,6.4-7.8,10.9-9.9c1.7,1.9,3.3,3.5,4.7,4.9
		c5.4,5.6,11.7,11.6,17,13.7c-15.9,24.7-30.8,42.2-25.6,47.7c4.2,4.4,18.4-1.8,26.8-6.9c34.8-21.1,45.1-67.7,48-101.3
		c0.7-0.3,1.4-0.6,2.1-0.9c20.3-14.4,36.3-26.6,48.8-36.6c1.2,3,2.4,6.5,3.8,10.5c2.6,7.4,3.4,11,4.4,10.9c1.7-0.2,3.3-9.6,1.5-18.6
		c-0.4-1.8-1.1-5-2.7-8.6c6.2-5.1,11.3-9.5,15.6-13.4c5.6,6,9.8,10.1,12.8,12.9c4.9,4.6,10.9,9.7,14.7,8.3
		C408,351.7,409.3,347.8,408.2,344.8z"/>
	<path class="st0" d="M208.4,342.8c-0.2-0.2-0.3-0.3-0.4-0.3C208.1,342.5,208.2,342.6,208.4,342.8z"/>
</g>
<path class="st1" d="M226.5,39.2c-12,3.7-18.6-10.8-38.3-11.7c-13.5-0.6-23.9,5.6-27.7,7.9c-21,12.9-25.3,36.5-26.1,41.9
	c-0.9,6.2-2.8,19.2,3.6,31.7c3.2,6.4,6.1,7.8,6,12c-0.3,9.8-16.2,11.5-26.4,23.8c-14.5,17.5-7.8,44.2-7.1,47.1
	c5.1,19.2,20.5,38,39.1,41.7c13.5,2.7,26.3-3,29.6,2.8c1.8,3.2-1,7-2.3,11.3c-5,16.9,11.1,49.8,40.2,55.1
	c22.3,4.1,45.4-9.1,51.9-24.9c3.7-9,1.4-17.1,6.9-20.1c6.3-3.5,13.3,5.1,25.7,7.7c22.6,4.7,43.5-14.3,44.7-15.4
	c18.2-17,25.2-46.5,15.5-62.3c-3.2-5.2-8.5-9.5-7.2-15.1c1.3-5.6,8-6.9,13.7-11c12.8-9.2,17.4-29.9,14.3-46.1
	c-3.9-20.3-20.5-36.6-37.3-40.2c-13.8-2.9-22.2,3.8-28.6-2.2c-7.1-6.6,1.1-16.9-4.4-32.3c-5.1-14.1-19.5-25.6-35.1-28.2
	c-2.1-0.3-16.8-2.5-30.2,5.9C234,26.8,235.9,36.3,226.5,39.2z"/>
<path class="st2" d="M228.8,53.5c-18.3-12.4-41.4-13.8-58-3.4c-22.3,13.9-30.8,47.6-14.5,75.4c-23.7,11.2-36,37.8-29.5,62.4
	c6.9,26,33,43.2,60.4,39.2c-8.4,26.7,8.8,54,33.4,58.5c23.5,4.3,48.3-13.2,51.7-39.6c20.4,11.3,45.6,8.4,61.9-6.8
	c18.3-17,21.8-46.1,7.3-68.2c18.5-10.9,28.3-31.4,24.7-50.3c-4.6-23.8-30-41.8-58-37.2c4.1-26.3-13-49.6-34.8-53.2
	C256.5,27.5,238.4,36.8,228.8,53.5z"/>
<path class="st3" d="M258.1,93.5c-8.4-11.7-22.2-17.8-34.7-15.2c-16.8,3.5-29.6,22.1-26,42.8c-17,1.5-30.6,14.9-32.2,31.4
	c-1.7,17.5,10.4,33.9,28.1,37.7c-11.2,14.4-6.9,35,7.1,43.3c13.4,8,32.5,2.9,40.6-12.5c9.9,11.6,25.9,15.5,39.4,9.9
	c15.1-6.3,23.8-23.2,19.9-40c13.8-2.5,24.4-12.8,26.5-25.1c2.6-15.6-8.9-32.3-27-35.9c8.5-15.1,3.3-33.3-9.2-40.4
	C280.9,83.9,267.8,85.4,258.1,93.5z"/>
<path class="st4" d="M287.7,155.9c0-0.8-3.2-1.5-8.7-2c-0.6-0.1-1.2-0.2-1.9-0.2c5.5-1.2,8.8-2.3,8.7-3.1c0-0.3-0.4-0.5-1.2-0.6
	c0.7-0.4,1-0.7,0.9-0.9c-0.1-0.6-2.5-0.8-6.4-0.7c4.1-1.7,6.3-3,6.1-3.7c-0.2-0.6-2.1-0.6-5.3-0.1c2.4-1.5,3.7-2.5,3.5-3
	c-0.1-0.3-0.8-0.4-1.8-0.2c0.5-0.5,0.8-0.9,0.7-1.1c-0.2-0.4-1.2-0.4-3,0c1.6-1.3,2.4-2.3,2.2-2.7c-0.1-0.1-0.3-0.2-0.6-0.2
	c0,0,0-0.1,0-0.1c-0.3-0.6-2.9,0.1-7,1.8c3.3-3,5.1-5.1,4.7-5.6c-0.3-0.4-1.4-0.1-3.2,0.7c1.9-2,2.8-3.4,2.4-3.8
	c-0.3-0.4-1.9,0.2-4.5,1.6c1.8-2.5,2.7-4.1,2.3-4.5c-0.3-0.3-1.4,0.2-3,1.3c0.4-0.8,0.6-1.4,0.4-1.6c-0.4-0.4-2.2,0.6-5,2.7
	c2.1-3.5,3.1-5.8,2.6-6.2c-0.2-0.2-0.8,0-1.6,0.6c0.2-0.7,0.2-1.2,0-1.3c-0.5-0.3-2.1,0.9-4.4,3.4c1.3-3.4,1.8-5.4,1.3-5.7
	c-0.3-0.2-0.9,0.2-1.7,1.1c0-0.4-0.1-0.6-0.2-0.7c-0.4-0.2-1.1,0.4-2.2,1.7c0.4-1.8,0.4-2.9,0-3.1c-0.2-0.1-0.6,0.2-1.1,0.7
	c0.1-1.1,0.1-1.7-0.2-1.8c-0.4-0.2-1.3,0.8-2.6,2.8c0.2-1.9,0-3-0.4-3.1c-0.1,0-0.2,0-0.3,0.1c-0.1-0.2-0.2-0.3-0.3-0.4
	c-0.6-0.2-2,2.1-3.7,6.1c0.2-4.4,0-7-0.7-7.1c-0.2,0-0.4,0.2-0.7,0.6c-0.2-1.5-0.4-2.3-0.8-2.3c-0.6-0.1-1.4,1.8-2.2,5.1
	c-0.5-3-1-4.7-1.5-4.7c-0.5,0-0.9,1.2-1.3,3.3c-0.4-2.3-0.9-3.6-1.4-3.6c-0.5,0-1.1,1.6-1.5,4.5c-0.8-3-1.5-4.7-2.1-4.6
	c-0.4,0-0.6,0.8-0.8,2.1c-0.4-0.9-0.8-1.5-1.1-1.4c-0.6,0.1-0.8,2.3-0.7,6c-1.4-3.2-2.5-4.9-3.1-4.8c-0.3,0.1-0.5,0.8-0.4,2
	c-0.7-1.1-1.2-1.7-1.5-1.6c-0.5,0.1-0.5,1.5-0.3,3.9c-1-1.5-1.7-2.2-2.1-2.1c-0.1,0-0.1,0.1-0.1,0.2c-0.6-0.7-1-1-1.2-0.9
	c-0.6,0.2-0.3,2.5,0.8,6.2c-1.6-2-2.7-3.2-3.3-3.3c-0.4-0.3-0.7-0.4-0.8-0.3c-0.6,0.3,0.1,3,1.9,7.3c-3-3.3-5-5.1-5.6-4.7
	c0,0,0,0-0.1,0.1c-0.5-0.3-0.9-0.4-1.1-0.3c-0.5,0.4,0.6,3,3.1,7c-3.2-2.4-5.2-3.7-5.7-3.2c-0.1,0.1-0.1,0.4,0,0.7
	c-1.4-0.9-2.4-1.3-2.6-1c-0.4,0.4,0.6,2.2,2.6,4.9c-2.6-1.5-4.3-2.1-4.6-1.7c-0.3,0.3,0.2,1.2,1.3,2.5c-1.4-0.6-2.2-0.7-2.5-0.4
	c-0.4,0.6,1.4,2.6,4.8,5.7c-3.8-1.5-6.2-2.1-6.5-1.6c-0.1,0.1,0,0.2,0,0.4c-1.1-0.3-1.8-0.3-2,0c-0.3,0.5,1.3,2.1,4.3,4.3
	c-3.4-0.9-5.4-1.1-5.7-0.5c-0.3,0.7,2.4,2.6,7.2,5.1c-4.9-0.9-7.9-1-8.1-0.3c-0.1,0.4,0.7,1,2.3,1.9c1,0.6,2.6,1.3,4.5,2.1
	c-4.7-0.2-7.5-0.1-7.6,0.6c0,0.1,0.1,0.3,0.3,0.5c0,0-0.1,0.1-0.1,0.1c-0.1,0.7,2.8,1.7,7.7,2.9c-6.1,0.6-9.7,1.3-9.7,2.1
	c0,0.7,2.7,1.3,7.4,1.9c-3.9,1-6.1,1.8-6,2.5c0,0.4,1.1,0.7,2.8,0.9c-1.7,0.7-2.6,1.2-2.5,1.6c0.1,0.7,3.1,0.9,8.1,0.6
	c-5.4,2.1-8.5,3.8-8.2,4.5c0.2,0.7,3,0.5,7.5-0.2c-3.6,2.1-5.5,3.6-5.3,4.2c0.1,0.2,0.3,0.3,0.7,0.3c0,0.1,0,0.1,0,0.1
	c0.2,0.6,2.7,0.3,6.6-0.8c-3.6,2.5-5.5,4.3-5.2,4.9c0.1,0.1,0.3,0.2,0.6,0.2c0,0,0,0.1,0,0.1c0.3,0.6,2.6,0,6.4-1.5
	c-3,2.8-4.6,4.7-4.3,5.2c0.2,0.2,0.7,0.2,1.6-0.1c0,0.1,0,0.2,0.1,0.3c0.3,0.4,1.9-0.2,4.3-1.6c-2.3,3-3.4,4.9-3,5.4
	c0.3,0.3,1.4-0.2,3.1-1.3c-0.5,0.9-0.6,1.4-0.4,1.7c0.3,0.3,1.4-0.2,3.2-1.4c-1.2,2.2-1.7,3.5-1.3,3.8c0.3,0.2,1.1-0.2,2.3-1.1
	c-0.7,1.6-0.9,2.6-0.6,2.8c0.5,0.3,2-0.9,4.3-3.3c-1.5,3.7-2.1,6.1-1.5,6.4c0.3,0.2,0.9-0.2,1.7-1.2c0,0.4,0,0.7,0.2,0.8
	c0.5,0.2,1.6-0.8,3.2-2.9c-0.7,2.9-0.8,4.6-0.3,4.9c0.1,0,0.1,0,0.2,0c0,0.4,0.1,0.6,0.3,0.7c0.6,0.2,2-1.6,3.9-4.9
	c-0.6,3.8-0.7,6.2,0,6.3c0.1,0,0.2,0,0.3-0.1c0.1,0.2,0.2,0.4,0.3,0.4c0.6,0.2,1.9-1.9,3.5-5.7c-0.2,4,0.1,6.4,0.7,6.5
	c0.4,0.1,1-1,1.8-2.9c0.2,1.1,0.4,1.7,0.7,1.7c0.4,0.1,1-1,1.6-2.9c0.4,2.3,0.9,3.5,1.3,3.5c0.5,0,0.9-1.2,1.3-3.4
	c0.4,2.4,0.9,3.7,1.4,3.7c0.5,0,1-1.5,1.4-4c0.6,2,1.2,3.2,1.7,3.1c0.3,0,0.6-0.6,0.7-1.7c0.5,1.3,1,1.9,1.4,1.9
	c0.5-0.1,0.7-1.6,0.7-4.3c1.2,2.6,2.1,4,2.7,3.8c0.3-0.1,0.5-0.8,0.4-2c0.7,1.2,1.2,1.7,1.5,1.6c0.5-0.1,0.6-1.8,0.2-4.7
	c1.7,2.8,2.9,4.3,3.4,4.1c0.6-0.2,0.3-2.7-0.8-6.7c2.1,2.9,3.6,4.5,4.3,4.6c0.4,0.3,0.7,0.4,0.8,0.3c0.6-0.3-0.1-3-1.8-7.2
	c2.9,3.2,4.9,4.9,5.4,4.5c0.5-0.3-0.2-2.1-1.6-5c2,1.8,3.3,2.7,3.7,2.4c0.4-0.3-0.2-1.8-1.5-4.2c1.8,1.2,2.9,1.7,3.2,1.4
	c0.1-0.1,0.1-0.4,0-0.7c1.5,0.9,2.4,1.3,2.7,1.1c0.5-0.5-0.9-2.7-3.5-6.1c2.9,1.7,4.7,2.4,5.1,2c0.2-0.2,0-0.7-0.4-1.3
	c0.9,0.3,1.5,0.4,1.7,0.1c0.3-0.5-0.8-1.9-3.1-4.1c2.6,0.9,4.2,1.2,4.4,0.8c0.1-0.1,0-0.3-0.1-0.4c1.1,0.3,1.8,0.3,2,0
	c0.2-0.5-0.8-1.6-2.9-3.2c2.6,0.6,4.2,0.8,4.4,0.3c0.1-0.3-0.2-0.7-0.8-1.2c0,0,0.1-0.1,0.1-0.1c0.2-0.5-1-1.4-3.1-2.8
	c3.3,0.5,5.3,0.5,5.5-0.1c0.1-0.5-1.2-1.4-3.7-2.6c-1-0.5-2.1-1-3.5-1.6c4.8,0.3,7.7,0.1,7.8-0.6c0.1-0.6-1.7-1.4-4.9-2.4
	c3.5-0.1,5.5-0.4,5.6-1c0.1-0.6-1.9-1.4-5.3-2.3C285.4,157.2,287.7,156.6,287.7,155.9z"/>
<path class="st5" d="M260.4,157.2c5.4-0.4,8.9-0.9,8.9-1.5c0-0.4-1.8-0.8-4.7-1.2c3.3-0.7,5.3-1.4,5.2-1.9c-0.1-0.5-2.5-0.7-6.4-0.6
	c3.2-1.3,5.1-2.3,4.9-2.7c-0.1-0.4-2-0.3-4.9,0.2c2.9-1.6,4.6-2.7,4.4-3.2c-0.1-0.3-1.1-0.2-2.6,0.2c1.3-1,1.9-1.7,1.8-2
	c-0.2-0.4-1.7,0.1-4.2,1.1c2-1.8,3.1-3.1,2.9-3.4c-0.4-0.6-4.2,1.4-9.7,4.9c4.3-4.8,6.9-8.2,6.4-8.7c-0.3-0.3-1.3,0.4-3,1.6
	c1.3-2.1,1.9-3.5,1.6-3.7c-0.5-0.4-2.9,1.9-6.4,5.7c1.9-4.2,2.9-7,2.4-7.3c-0.3-0.2-1.3,0.8-2.7,2.8c0.7-2.6,0.9-4.1,0.6-4.3
	c-0.3-0.1-1,0.8-2,2.5c0.2-1.7,0.2-2.7-0.1-2.8c-0.4-0.1-1.2,1.3-2.2,3.7c0.1-2.6,0-4.2-0.4-4.3c-0.6-0.1-1.8,3.6-3.2,9.4
	c-0.4-6.3-0.9-10.4-1.6-10.4c-0.3,0-0.6,1-0.9,2.7c-0.5-1.8-0.9-2.8-1.3-2.8c-0.7,0.1-0.8,4.1-0.4,10.3c-2-5.5-3.6-9-4.2-8.8
	c-0.3,0.1-0.3,1.3,0,3.4c-1.1-1.9-1.9-2.9-2.2-2.7c-0.4,0.2-0.1,1.7,0.6,4.2c-1.4-1.8-2.3-2.8-2.6-2.6c-0.4,0.2,0.1,1.8,1.1,4.4
	c-1.8-2-3-3.1-3.4-2.8c-0.4,0.3,0.8,2.9,3.1,6.8c-3.9-3.4-6.5-5.3-6.9-4.9c-0.3,0.3,0.3,1.3,1.6,2.9c-1.6-0.9-2.6-1.3-2.8-1
	c-0.4,0.5,2.4,3.5,7.1,7.6c-5.7-2.7-9.6-4.2-9.9-3.6c-0.2,0.3,0.8,1.2,2.6,2.6c-2-0.5-3.3-0.7-3.4-0.3c-0.2,0.4,1.5,1.5,4.3,3.1
	c-3-0.5-4.8-0.6-4.9-0.2c-0.1,0.4,1.4,1.3,4.2,2.4c-2.9-0.2-4.6,0-4.7,0.4c-0.1,0.5,1.8,1.2,4.9,2.1c-3.7,0.3-6,0.8-6,1.3
	c0,0.4,1.7,0.8,4.5,1.1c-2.3,0.6-3.7,1.1-3.6,1.5c0.1,0.6,3.5,0.7,8.7,0.5c-5.4,1.9-8.7,3.5-8.6,4.1c0.1,0.4,1.8,0.3,4.5-0.1
	c-2.2,1.2-3.3,2.1-3.2,2.5c0.2,0.4,2.2,0,5.5-1c-2.8,1.9-4.4,3.3-4.2,3.7c0.2,0.4,2-0.1,4.9-1.4c-2.3,2-3.5,3.4-3.3,3.8
	c0.2,0.3,1.8-0.3,4.3-1.7c-1.8,2.3-2.8,3.8-2.5,4.1c0.3,0.3,2.3-0.9,5.1-3.3c-1.8,2.8-2.7,4.7-2.4,5c0.4,0.3,2.3-1.3,5-4.2
	c-1.8,4.1-2.7,6.8-2.3,7c0.4,0.2,1.8-1.4,3.7-4.2c-0.9,3-1.2,4.9-0.8,5.1c0.4,0.2,1.5-1.3,2.9-4c-0.6,3.2-0.7,5.2-0.3,5.3
	c0.4,0.1,1.4-1.6,2.5-4.5c-0.2,3.2-0.1,5.1,0.3,5.2c0.5,0.1,1.2-1.8,2.1-5.1c0.3,3,0.7,4.7,1.2,4.7c0.5,0,1-2.6,1.4-6.8
	c0.8,4,1.6,6.5,2.1,6.4c0.4-0.1,0.6-1.9,0.6-5c1.3,3.1,2.2,5,2.7,4.8c0.5-0.1,0.3-2.5-0.4-6.2c1.8,3.3,3,5.2,3.5,5
	c0.3-0.1,0.2-1.5-0.5-3.7c1.5,2.1,2.6,3.3,3,3.1c0.4-0.2-0.1-2-1.3-4.8c2.1,2.3,3.5,3.6,3.8,3.3c0.5-0.3-0.8-2.9-3.2-6.9
	c3.1,2.6,5.1,4,5.5,3.6c0.4-0.4-1-2.4-3.5-5.4c3.4,2.3,5.7,3.5,6,3.1c0.3-0.3-0.9-1.8-3.1-4c2.8,1.1,4.5,1.6,4.7,1.3
	c0.2-0.4-1.5-1.9-4.5-3.9c3.6,1.1,5.9,1.5,6.1,1.1c0.1-0.3-0.7-0.9-2.1-1.8c2,0.3,3.1,0.3,3.2-0.1c0.1-0.4-1.4-1.2-4-2.3
	c2.9,0.2,4.7,0.1,4.7-0.4C269.8,159.8,266.1,158.6,260.4,157.2z"/>
<g>
	<g>
		<g>
			<circle class="st6" cx="245.9" cy="156.8" r="12.4"/>
		</g>
		<circle class="st6" cx="259.5" cy="156.8" r="0.9"/>
		<circle class="st6" cx="259" cy="161.8" r="0.9"/>
		<circle class="st6" cx="232.3" cy="159.3" r="0.9"/>
		<circle class="st6" cx="232.3" cy="151.9" r="0.9"/>
		<circle class="st6" cx="257.7" cy="164.4" r="0.9"/>
		<circle class="st6" cx="231.9" cy="156.8" r="0.9"/>
		<circle class="st6" cx="245.7" cy="170.3" r="0.9"/>
		<circle class="st6" cx="245.7" cy="142.6" r="0.9"/>
		<circle class="st6" cx="239.2" cy="143.3" r="0.9"/>
		<circle class="st6" cx="259.3" cy="149.6" r="1.6"/>
		<circle class="st6" cx="234.5" cy="166.1" r="1.6"/>
		<circle class="st6" cx="236.6" cy="145.5" r="1.6"/>
		<circle class="st6" cx="254.5" cy="168.4" r="1.6"/>
		<circle class="st6" cx="252.3" cy="144.8" r="0.7"/>
		<circle class="st6" cx="249.4" cy="142.4" r="0.7"/>
		<circle class="st6" cx="241.5" cy="144.1" r="0.7"/>
		<circle class="st6" cx="234.1" cy="149.3" r="0.7"/>
		<circle class="st6" cx="231" cy="154.3" r="0.7"/>
		<circle class="st6" cx="232.8" cy="161.9" r="0.7"/>
		<circle class="st6" cx="238.3" cy="168.4" r="0.7"/>
		<circle class="st6" cx="241.7" cy="170.1" r="0.7"/>
		<circle class="st6" cx="249.4" cy="170.1" r="0.7"/>
		<circle class="st6" cx="256.4" cy="148.1" r="0.7"/>
		<circle class="st6" cx="259.7" cy="159.9" r="0.7"/>
		<circle class="st6" cx="260.4" cy="163.7" r="0.7"/>
		<circle class="st6" cx="259" cy="152.9" r="0.7"/>
		<circle class="st6" cx="255.1" cy="145.9" r="0.7"/>
	</g>
</g>
</svg>
