<?xml version="1.0" encoding="utf-8"?>
<!-- Generator: Adobe Illustrator 24.1.2, SVG Export Plug-In . SVG Version: 6.00 Build 0)  -->
<svg version="1.1" id="Layer_1" xmlns="http://www.w3.org/2000/svg" xmlns:xlink="http://www.w3.org/1999/xlink" x="0px" y="0px"
	 viewBox="0 0 512 512" style="enable-background:new 0 0 512 512;" xml:space="preserve">
<style type="text/css">
	.st0{fill:#0F6F39;}
	.st1{fill:#41A247;}
	.st2{fill:#777E50;}
	.st3{fill:#D5DE94;}
	.st4{fill:#EDF3D1;}
	.st5{fill:#F7F9E4;}
</style>
<path class="st0" d="M281.3,183.6c-7.4,10.9-17.2,28.1-22.2,50.7c-5.5,24.7-1.5,38.9,11.4,109c17.3,94.3,16.7,104.3,12,116.6
	c-4,10.8-13,28.4-5.7,36.8c4.3,4.9,13.8,6.2,17.7,2.5c4.8-4.4,1-15.3-0.6-20.9c-7.1-23.7,1.7-19.3-5.1-93.8
	c-1.7-18.7-3.4-37.2-7.6-62.1c-8.9-52.5-16.3-57.5-11.4-76.7c7.2-27.9,29.9-44.2,22.8-55.8C290.2,185.8,285.3,184.3,281.3,183.6z"/>
<path class="st0" d="M243.6,437.7c11.6-7.1,14.8-12.2,21.2-11.1c12.8,2.3,17,25.3,21.9,24.1c2.7-0.7,3.9-8.3,2.4-14.6
	c-0.7-3.1-2.8-8.6-15.4-18.5c-14.5-11.4-19.8-10.4-22.2-16.6c-2.4-6.2,2.1-9.1,7.1-25.5c4.1-13.3,8.7-28.8,1.9-41.2
	c-1.9-3.4-4.1-5.7-8.1-9.7c-2.2-2.2-15.1-15.2-19.5-12.5c-4.5,2.7,6.3,18.2-0.8,32.5c-3.1,6.3-9.7,12.3-13.8,10.9
	c-7.2-2.3,1.9-24-10.1-39.1c-10-12.6-30.5-15.3-43.6-10.1c-2.7,1.1-7.7,3.1-9.8,7.9c-3.1,7,1.1,17.1,7.6,20.6
	c5.4,2.9,9.7-0.3,13,3.2c3.1,3.2,2.9,10,0,12c-2.4,1.8-6.5,0-12.4-3.2c-14.2-7.5-22.1-13.6-26-15.8c-20.4-12-59.8,3.2-62.4,19.6
	c-0.8,4.9,3.4,10.6,11.7,21.9c7.8,10.5,15.5,21,29.5,30.7c13.2,9.2,27.9,19.5,41.5,15.2c14.5-4.6,18.6-23,22.2-21.5
	c3.1,1.3,2.8,16.4-4.8,28.5c-5.9,9.6-12.7,11.3-12,15.8c0.9,6.6,16.4,10.8,28.5,11.4C216.6,453.9,239.2,440.5,243.6,437.7z"/>
<path class="st0" d="M321,351.5c-5.3-8.8,0.6-18.2-2.8-20c-3.1-1.7-12,4.2-36.1,33.6c-2-0.9-4.1-2.3-5-4.4
	c-3.4-8.9,17.8-23.9,19-24.8c10.9-7.6,16-7.4,18.2-12.9c2-4.8-1.7-7.1-5.9-19.8c-3.4-10.4-7.1-22.4-1.6-32c1.5-2.7,3.4-4.4,6.6-7.5
	c1.8-1.7,12.4-11.8,16-9.7c3.7,2.1-5.2,14.2,0.7,25.2c2.6,4.9,7.9,9.5,11.3,8.5c5.9-1.8-1.5-18.7,8.3-30.4
	c8.2-9.8,25.1-11.9,35.8-7.9c2.3,0.8,6.3,2.4,8.1,6.2c2.5,5.4-0.9,13.3-6.3,16c-4.5,2.2-8-0.2-10.7,2.5c-2.5,2.5-2.4,7.7,0,9.4
	c2,1.4,5.3,0,10.2-2.5c11.7-5.9,18.2-10.5,21.4-12.3c16.8-9.3,49.1,2.5,51.3,15.3c0.6,3.8-2.8,8.2-9.6,17
	c-6.4,8.2-12.7,16.3-24.2,23.9c-10.8,7.2-22.9,15.2-34.1,11.8c-11.9-3.6-15.3-17.9-18.2-16.7c-2.5,1-2.3,12.7,3.9,22.2
	c4.9,7.4,10.4,8.8,9.9,12.3c-0.7,5.1-13.5,8.4-23.4,8.9C359.6,363.3,329.7,366.2,321,351.5z"/>
<path class="st1" d="M324.9,340.4c-0.6-3.8,1.5-10.5-1.7-12.2c-1.9-1-3.7-1.9-2.3-5.2c0.2-0.5,0.3-0.9,0.3-1.3
	c0.2-3.9-3.9-10.7-3.9-10.7c-5.3-7.4-5.2-16.6-5.1-23c0-4.7,0.1-10.7,3.3-12.2c3.3-1.5,9.3,2,11.9,6.7c2.8,5.1-0.2,8.8,3.2,13.9
	c0.5,0.8,3.1,4.8,6.9,5.2c5.8,0.5,11-7.7,16.2-16.1c8.2-13.2,8.6-19.9,14.3-21.4c4.7-1.2,10.6,1.8,10.9,4.8c0.5,4-9.5,5.6-17.2,17
	c-1.5,2.2-5.1,7.7-3.2,10.6c0.6,0.9,1.6,1.4,2.5,1.6c0.9,0,2.5,0,4.2-0.6c2.9-0.8,4.8-2.4,5.3-2.9c3.9-3.1,10-3.2,14.6-3.9
	c8.6-1.3,9-3.9,22.2-8.6c12.8-4.5,22.6-8,25.3-4.6c3.8,4.6-6.8,20.7-17.4,30.6c-6.3,5.8-9.6,8.9-15.2,10.3
	c-12.7,3.1-19.3-6.9-34.5-3.9c-1.4,0.3-12.3,2.5-13.2,7.9c-0.6,3.6,2.4,7.2,7,12.2c8.3,9,14.9,11.3,14.4,14.4
	c-0.5,3.3-8.3,4.5-10.8,4.9C346.8,356.5,326.4,349.9,324.9,340.4z"/>
<path class="st1" d="M216.6,428.3c21.2-9.2,40.5-6.3,40.8-10.5c0.2-2.7-8-2.8-10.5-9.4c-0.9-2.6-1-6.1-3.6-12.9
	c-0.1-0.3-0.1-0.4-0.2-0.5c-2.3-5.7-0.1-20.5,0.3-32c0.1-2.5,0.4-10.4-3.3-12.2c-3.3-1.5-9.3,2-11.9,6.7c-2.8,5.1,0.2,8.8-3.2,13.9
	c-0.3,0.4-3.6,5.7-6.9,5.2c-3.9-0.6-4.1-8.7-8.8-22.2c-3.9-11.2-7.1-20.1-15.1-24c-0.7-0.3-7.6-3.6-11.3-0.6
	c-3.6,3-1.8,10.3-1.5,11.5c1.6,6.5,5.1,7.6,12.5,19.5c2.8,4.5,4.7,8.3,3.2,10.6c-0.6,0.9-22-5-26.6-5.7c-8.6-1.3-9-3.9-22.2-8.6
	c-12.8-4.5-22.6-8-25.3-4.6c-3.8,4.6,6.8,20.7,17.4,30.6c6.3,5.8,9.6,8.9,15.2,10.3c12.7,3.1,19.3-6.9,34.5-3.9
	c1.4,0.3,12.3,2.5,13.2,7.9c0.6,3.6-2.4,7.2-7,12.2c-8.3,9.1-13.2,9.5-14.4,14.4c-1.4,5.6,2.1,13.4,7.5,15.7
	C196.4,442.6,201.9,434.7,216.6,428.3z"/>
<path class="st2" d="M196,227.4c1.3,2.5,7.5,14.6,18.8,20.5c10.5,5.5,13.1-1.4,35.5,2.5c13.8,2.4,17.7,5.5,26,3.2
	c8.2-2.3,10.3-7,17.7-7c7.8,0,11.3,5.2,16.5,7c7.6,2.7,20.6-1.2,44.4-28.5c4.7-1,13-3.6,20.9-10.2c4.5-3.8,7.6-7.8,9.6-10.9
	c37.6-20.7,55.1-35.3,52.5-43.8c-1.8-6.1-13.9-9-36.1-8.9c2.6-4.2,6.2-11,8.2-20c2.2-9.6,4.2-18.1-0.6-24.1
	c-6.5-8.1-20.6-5.6-21.9-5.4c-1.6-7.1-4.8-17.8-12-28.8c-18.4-28-52.1-42.4-57-37.1c-1.3,1.4-0.5,3.8-1.6,4.1
	c-2.7,0.8-5.5-14-16.8-19.6c-1.3-0.6-6.6-3.2-12.8-1.8c-6.1,1.4-10.4,6.1-13,8.9c-1.3,1.4-2.3,2.7-3,3.7c-0.5-1.6-3-9.1-10.5-12.5
	c-9-4.1-17.9,1.3-20.3,2.7c-13.8,8.3-14.1,26.4-14.1,28c-2.4-12.4-6.5-16-9.7-17c-12.5-4-35.3,23.3-44.2,50.5
	c-5.9,18.1-4.9,34.2-3.6,43.6c-2-13.2-9.2-21.9-15.5-21.9c-7.8,0.1-12.9,13.4-14.4,20.4c-3.9,18.1,7.6,33.7,10.8,37.7
	c-10.7-12.8-23.3-17.6-29.4-13.8c-6.4,4.1-5.3,17.7-1.9,26.6c6,15.4,21.4,22.5,37.8,29.9C164.6,209.5,193.9,223.3,196,227.4z"/>
<path class="st3" d="M355.1,112.4c0,0.8,0,1.7,0,2.5c0,39.9-33.4,72.3-74.5,72.3c-34,0-62.7-22.1-71.6-52.2
	c-3.5-1.9-6.7-5.3-8.9-9.7c-7.3-14.3-2.6-36.4,4.2-48.4c4.9-8.8,14.9-19,20.9-13.9c0.6,0.5,1.1,1.2,1.7,1.9c1.4-1.5,2.9-2.9,4.5-4.2
	c1.3-4.9,3.9-9.5,7-12.9c4.9-5.4,14.9-11.8,20.9-8.6c1.8,1,3.3,2.8,4.5,5.3c5.4-1.2,11.1-1.9,17-1.9c2.4,0,4.8,0.1,7.2,0.3
	c1.2-3.2,2.9-5.6,5.1-6.8c6-3.2,16,3.2,20.9,8.6c2,2.2,3.9,5.1,5.3,8.2c2.3,1.3,4.6,2.8,6.7,4.4c0.8-1.8,1.8-3.2,2.9-4.1
	c6-5.1,16,5.2,20.9,13.9C355.7,78.3,360.3,98.1,355.1,112.4z"/>
<path class="st4" d="M295.5,91.6c-3.1,7.9-9.8,19.6-14.9,18.6c-3.4-0.6-6-6.1-7.3-13c-2.7,6.5-6.6,12.5-10.2,12.2
	c-2.8-0.2-5-4.4-6.6-9.6c-1,7.9-3.9,14.5-7.6,15.2c-5,1-11.7-10.7-14.9-18.6c-9.8-24.7-0.4-54.9,6-55c3,0,6.9,6.6,11.5,30.3
	c-0.5-6.9-0.1-14.1,2.9-22c2.2-5.5,5.7-14.5,10.2-14.4c5.6,0.1,12.2,13.8,13.5,30.5c4.5-22.8,8.3-29.2,11.3-29.2
	C295.9,36.7,305.3,66.9,295.5,91.6z"/>
<path class="st4" d="M318.1,94.6c-3.1,7.9-9.8,19.6-14.9,18.6c-3.4-0.6-6-6.1-7.3-13c-2.7,6.5-6.6,12.5-10.2,12.2
	c-2.8-0.2-5-4.4-6.6-9.6c-1,7.9-3.9,14.5-7.6,15.2c-5,1-11.7-10.7-14.9-18.6c-9.8-24.7-0.4-54.9,6-55c3,0,6.9,6.6,11.5,30.3
	c-0.5-6.9-0.1-14.1,2.9-22c2.2-5.5,5.7-14.5,10.2-14.4c5.6,0.1,12.2,13.8,13.5,30.5c4.5-22.8,8.3-29.2,11.3-29.2
	C318.6,39.6,327.9,69.8,318.1,94.6z"/>
<circle class="st3" cx="274.2" cy="84.1" r="30.4"/>
<path class="st2" d="M267.8,94.2c2,0,4.3,25.3,5,25.2c0.6-0.1-3.9-18.8,3.1-23.1c2.1-1.3,4.8-1.1,6.7,0c5.5,3.3,5.6,17.3-1.7,25
	c-2.4,2.5-8,6.8-11.9,5C260.8,122.4,265.7,94.2,267.8,94.2z"/>
<path class="st2" d="M298,83.4c2.3-2.5,8.4-0.9,12,1.3c3.2,2,4.8,4.8,5.5,6.1c0.6,1,2.2,4.3,2.3,8.7c0,2.2,0.1,6.4-2.8,10.1
	c-2.8,3.6-8.5,6.8-11.9,5c-3.2-1.7-1.1-6.3-3.8-19.4C297.8,87.9,296.3,85.2,298,83.4z"/>
<path class="st2" d="M252.9,84c-2.7-2-8.4,0.6-11.6,3.5c-2.8,2.6-3.8,5.6-4.3,7c-0.4,1.1-1.4,4.6-0.7,9c0.4,2.1,1.1,6.3,4.6,9.4
	c3.4,3.1,9.6,5.1,12.6,2.8c2.9-2.3,0-6.4,0.3-19.8C253.9,88.4,254.8,85.5,252.9,84z"/>
<path class="st4" d="M335.5,96.7c-1.5,4-4.4,7.7-7.3,9.8c-0.7,1.2-1.4,2.5-2.2,3.9c-0.1,1.8-0.4,3.6-1,5.4c-1.8,4.9-5.8,9.3-9.1,11
	c-1.2,1.6-2.6,3.2-4.1,4.9l0,0c-6,5.5-11.8,7.1-20.6,9.5c0,0,0,0,0,0c-0.1,0-0.2,0-0.3,0.1c-0.9,0.2-1.8,0.5-2.7,0.7
	c-9.5,2.5-23.2,5.4-35.8,0c-1.9-0.8-3.8-1.8-5.6-3c-2.3-1.5-5-3.7-7.3-6c-3.6,0.2-10.1-4.4-13.8-10.4c-3.3-5.5-4-11.6-3.5-17
	c-2.5-1.9-5-4.6-6.8-7.5c-8.2-13.5-0.1-30.9,0.8-32.8c4.7-9.6,13.3-17.1,15.6-15.3c2.3,1.7-3.8,10.4-4.5,25.8
	c-0.2,4.3,0.1,8.1,0.5,11.5c4.8-8.4,12.2-14.4,14.3-12.8c2.3,1.7-3.8,10.4-4.6,25.8c-0.2,3.8,0,7.2,0.4,10.3
	c1.5,1.7,3.3,3.3,5.2,4.9c1.8-14.5,7.7-29.7,12.7-29.9c6.2-0.3,16.4,22.8,14.7,39.4c1.3,0,2.6,0,3.7,0c-0.4-16.5,7.1-39.1,13.2-39.4
	c5.1-0.2,12.9,15.4,14.5,30.2c2.3-1.5,4.6-3.2,6.8-5.3c0.4-3.1,0.5-6.5,0.4-10.2c-0.7-15.4-6.9-24.1-4.5-25.8
	c2.2-1.6,9.8,4.7,14.6,13.3c0.3-2.8,0.4-5.9,0.3-9.2c-0.7-15.4-6.9-24.1-4.6-25.8c2.4-1.8,11,5.7,15.6,15.3c0.1,0.3,0.7,1.4,1.3,3.2
	c1.2,1.5,1.9,4.4,2.7,7.9C336.4,86.1,337.5,91.1,335.5,96.7z"/>
<path class="st3" d="M219.2,189.4c6.2-7.1-14.7-21.1-41.5-54.3c-12.7-15.8-16-22.6-21-22c-8.2,0.9-14.7,20.7-9.5,37.8
	c7,23.4,36.3,43.4,61.1,41.7C212.5,192.3,217,192,219.2,189.4z"/>
<path class="st3" d="M328.4,185c-6.2-7.1,14.7-21.1,41.5-54.3c12.7-15.8,16-22.6,21-22c8.2,0.9,14.7,20.7,9.5,37.8
	c-7,23.4-36.3,43.4-61.1,41.7C335.2,187.8,330.7,187.5,328.4,185z"/>
<path class="st3" d="M171.8,169.9c-8.6-5.4-17.7-10.9-30.5-11.3c-6-0.2-15.6-0.4-17.3,3.7c-3.1,7.5,19.7,28.5,45.4,31.7
	c8.4,1,21.9,0.8,23.4-4.1C194.6,184.2,179.5,174.8,171.8,169.9z"/>
<path class="st3" d="M375.6,167.1c9.2-5.5,19-11.2,33-11.2c6.5,0,17,0,19,4.5c3.6,8.2-20.7,30-48.6,32.7c-9.2,0.9-23.9,0.2-25.7-5.1
	C351.1,181.7,367.3,172,375.6,167.1z"/>
<path class="st5" d="M323.5,240.5c-2.4,0.7-16.6,5.2-25.4-7.3c-2.2-3.2-4-7.3-5.1-11.7c-1.3,11.2-7.2,21.3-13.7,22.5
	c-8,1.5-15.1-11.2-16.2-13.2c-2.5-4.7-3.8-9.5-4.3-13.5c-0.8,5.9-2.9,11.6-5.8,15.7c-8.8,12.5-23,8-25.4,7.3
	c-14.6-4.5-25.1-22.9-22.8-28.2c1.1-2.5,4,0.1,11.7-2.6c7.6-2.7,14.1-8.6,16.7-10.9c3.9-3.5,3.7-4.1,5.6-5c5.4-2.5,12.9-0.1,17,6
	c1.6,2.4,2.5,5.2,3,8.2c1.8-8,6.2-14.2,11.7-16.3c9.2-3.4,18.2,6,21.3,15.6c0.2,0.5,0.3,1.1,0.5,1.6c0.4-3.2,1.4-6.2,3.1-8.7
	c4.1-6.1,11.6-8.5,17-6c1.9,0.9,1.7,1.5,5.6,5c2.6,2.3,9.1,8.2,16.7,10.9c7.7,2.8,10.6,0.2,11.7,2.6
	C348.6,217.6,338.1,236,323.5,240.5z"/>
<path class="st3" d="M324.8,230.9c-2.4,0.6-16.8,4-25.7-5.6c-2.3-2.4-4.1-5.6-5.2-9c-1.3,8.5-7.2,16.3-13.8,17.2
	c-8.1,1.1-15.3-8.5-16.4-10.1c-2.6-3.6-3.8-7.3-4.4-10.4c-0.8,4.5-3,8.9-5.9,12c-8.9,9.5-23.2,6.2-25.7,5.6
	c-14.7-3.5-25.3-17.5-23.1-21.6c1.1-1.9,4,0.1,11.8-2c7.7-2.1,14.3-6.6,16.9-8.4c3.9-2.7,3.8-3.1,5.6-3.8c5.5-1.9,13.1-0.1,17.2,4.6
	c1.6,1.8,2.6,4,3.1,6.3c1.9-6.1,6.3-10.9,11.8-12.5c9.3-2.6,18.4,4.6,21.6,11.9c0.2,0.4,0.3,0.8,0.5,1.2c0.4-2.4,1.4-4.7,3.1-6.7
	c4.1-4.7,11.7-6.5,17.2-4.6c1.9,0.7,1.7,1.2,5.6,3.8c2.6,1.8,9.2,6.3,16.9,8.4c7.8,2.1,10.7,0.1,11.8,2
	C350.1,213.4,339.5,227.4,324.8,230.9z"/>
<path class="st2" d="M222.2,177c-17.1-9.4-28.5-22.2-31.1-19.9c-2.5,2.2,4.4,17,13.7,27c31.3,33.8,108.4,33.6,145.7-4.6
	c13-13.2,20.3-30.2,17.4-32.7c-4.4-3.8-26.9,32.4-68.8,41.5C276.4,193.2,246.7,190.4,222.2,177z"/>
<path class="st5" d="M318.9,183.8c14.4-2.3,18.7,3.5,38.6,3.9c15.4,0.4,21.4-2.9,22.2-1.1c1.9,4.8-34.4,34-62.7,25.4
	c-9.6-2.9-20.3-10.8-19-17.3C299.4,187.1,317.1,184.1,318.9,183.8z"/>
<path class="st5" d="M224.4,182.3c-14.7-2.2-19.2,3.9-39.4,4.7c-15.7,0.6-21.8-2.7-22.6-0.7c-2,5.1,34.5,35,63.6,25.5
	c9.9-3.2,20.9-11.7,19.7-18.4C244.2,185.5,226.1,182.6,224.4,182.3z"/>
<path class="st5" d="M259.1,75c-0.2-0.6-1.6-0.5-2-0.4c-3.4,0.3-5,5.2-4.5,6C253.3,81.9,259.6,76.5,259.1,75z"/>
<path class="st5" d="M268.7,78.6c-0.5-0.4-1.6,0.3-1.9,0.6c-2.8,1.9-1.9,7-1,7.5C267,87.4,269.9,79.6,268.7,78.6z"/>
<path class="st5" d="M277.9,78.6c0.5-0.4,1.6,0.3,1.9,0.6c2.8,1.9,1.9,7,1,7.5C279.6,87.4,276.7,79.6,277.9,78.6z"/>
<path class="st5" d="M288.6,74.3c0.3-0.5,1.6-0.2,2,0c3.3,1,3.9,6.1,3.2,6.8C292.9,82.2,287.7,75.7,288.6,74.3z"/>
<path class="st5" d="M287.5,63.4c0.2-0.6,1.6-0.5,2-0.4c3.4,0.3,5,5.2,4.5,6C293.3,70.3,286.9,64.9,287.5,63.4z"/>
<path class="st5" d="M277.8,65.2c0.5,0.4,1.6-0.3,1.9-0.6c2.8-1.9,1.9-7,1-7.5C279.5,56.4,276.6,64.2,277.8,65.2z"/>
<path class="st5" d="M268.7,65.2c-0.5,0.4-1.6-0.3-1.9-0.6c-2.8-1.9-1.9-7-1-7.5C267,56.4,269.9,64.2,268.7,65.2z"/>
<path class="st5" d="M258,62.8c-0.3-0.5-1.6-0.2-2,0c-3.3,1-3.9,6.1-3.2,6.8C253.7,70.7,258.8,64.1,258,62.8z"/>
<path class="st5" d="M380.1,131.9c-2.4,6.1-7.4,11.8-12.2,15c-1.2,1.8-2.4,3.9-3.6,5.9c-0.1,2.7-0.6,5.4-1.7,8.2
	c-3,7.5-9.6,14.2-15.3,16.7c-2,2.4-4.3,4.9-6.8,7.4l0,0c-10.1,8.4-19.8,10.8-34.5,14.5c0,0,0,0-0.1,0c-0.1,0-0.3,0.1-0.5,0.1
	c-1.4,0.4-2.9,0.7-4.5,1.1c-15.9,3.8-38.7,8.2-59.8,0c-3.2-1.2-6.3-2.7-9.4-4.6c-3.9-2.4-8.3-5.6-12.2-9.2
	c-6.1,0.3-16.9-6.7-23-15.9c-5.5-8.3-6.6-17.6-5.8-25.8c-4.2-2.9-8.4-6.9-11.4-11.5c-13.7-20.6-0.1-47,1.4-49.9
	c7.8-14.6,22.2-25.9,26.1-23.3c3.9,2.6-6.4,15.8-7.6,39.2c-0.3,6.5,0.1,12.3,0.9,17.5c8-12.7,20.3-21.9,24-19.5
	c3.9,2.6-6.4,15.8-7.6,39.2c-0.3,5.7,0,10.9,0.6,15.7c2.6,2.5,5.5,5,8.7,7.4c3-22.1,12.9-45.1,21.2-45.5
	c10.4-0.4,27.4,34.6,24.5,59.9c2.2,0.1,4.3,0,6.2-0.1c-0.7-25,11.9-59.5,22-59.9c8.6-0.3,21.6,23.4,24.3,45.9
	c3.8-2.3,7.6-4.9,11.3-8c0.6-4.7,0.9-9.8,0.6-15.4c-1.2-23.4-11.5-36.6-7.6-39.2c3.7-2.5,16.4,7.1,24.4,20.3c0.5-4.3,0.7-8.9,0.4-14
	c-1.2-23.4-11.5-36.6-7.6-39.2c4-2.7,18.3,8.6,26.1,23.2c0.2,0.4,1.1,2.2,2.3,4.9c2,2.3,3.2,6.7,4.6,12
	C381.5,115.8,383.5,123.5,380.1,131.9z"/>
<path class="st5" d="M238.3,210.3L238.3,210.3z"/>
</svg>
